<?xml version="1.0" encoding="UTF-8" standalone="no"?>
<!-- Created with Inkscape (http://www.inkscape.org/) -->

<svg
   xmlns:dc="http://purl.org/dc/elements/1.1/"
   xmlns:cc="http://creativecommons.org/ns#"
   xmlns:rdf="http://www.w3.org/1999/02/22-rdf-syntax-ns#"
   xmlns:svg="http://www.w3.org/2000/svg"
   xmlns="http://www.w3.org/2000/svg"
   xmlns:sodipodi="http://sodipodi.sourceforge.net/DTD/sodipodi-0.dtd"
   xmlns:inkscape="http://www.inkscape.org/namespaces/inkscape"
   width="79.148216mm"
   height="79.148216mm"
   viewBox="0 0 79.148216 79.148216"
   version="1.1"
   id="svg8"
   inkscape:export-filename="/home/jose/www/soko/img/favicon.png"
   inkscape:export-xdpi="10.34"
   inkscape:export-ydpi="10.34"
   inkscape:version="0.92.1 r15371"
   sodipodi:docname="favicon.svg">
  <defs
     id="defs2">
    <style
       id="style3688">.cls-1{fill:#fff;}</style>
  </defs>
  <sodipodi:namedview
     id="base"
     pagecolor="#ffffff"
     bordercolor="#666666"
     borderopacity="1.0"
     inkscape:pageopacity="0.0"
     inkscape:pageshadow="2"
     inkscape:zoom="0.71858797"
     inkscape:cx="-27.240207"
     inkscape:cy="149.57143"
     inkscape:document-units="mm"
     inkscape:current-layer="layer1"
     showgrid="false"
     inkscape:snap-global="false"
     fit-margin-top="0"
     fit-margin-left="0"
     fit-margin-right="0"
     fit-margin-bottom="0"
     inkscape:window-width="1223"
     inkscape:window-height="779"
     inkscape:window-x="57"
     inkscape:window-y="21"
     inkscape:window-maximized="1" />
  <metadata
     id="metadata5">
    <rdf:RDF>
      <cc:Work
         rdf:about="">
        <dc:format>image/svg+xml</dc:format>
        <dc:type
           rdf:resource="http://purl.org/dc/dcmitype/StillImage" />
        <dc:title />
      </cc:Work>
    </rdf:RDF>
  </metadata>
  <g
     inkscape:label="Capa 1"
     inkscape:groupmode="layer"
     id="layer1"
     transform="translate(-2.0032738,-22.324703)">
    <rect
       style="opacity:1;vector-effect:none;fill:#ff6600;fill-opacity:1;stroke:none;stroke-width:0.52916664px;stroke-linecap:butt;stroke-linejoin:round;stroke-miterlimit:4;stroke-dasharray:5.2916666;stroke-dashoffset:0;stroke-opacity:1"
       id="rect3717"
       width="78.619049"
       height="78.619049"
       x="2.2678571"
       y="22.589287"
       ry="2.7337377"
       rx="2.8639157"
       inkscape:export-xdpi="5.1692309"
       inkscape:export-ydpi="5.1692309" />
    <path
       inkscape:connector-curvature="0"
       class="st0"
       d="m 18.218067,80.217493 6.498261,-9.416971 c 0.624126,0.5507 1.15647,1.119757 1.798953,1.578674 4.974657,3.652976 10.555084,5.580427 16.722924,5.708923 2.331297,0.05507 4.552454,-0.587413 6.424834,-2.055947 0.532343,-0.403846 0.99126,-0.899476 1.37675,-1.450176 1.578673,-2.31294 0.88112,-5.250007 -1.70717,-6.27798 -1.854023,-0.697554 -3.79983,-1.138114 -5.763994,-1.32168 -4.166963,-0.403848 -8.333926,-0.807694 -12.317324,-2.239514 -3.506123,-1.248254 -6.6084,-3.047207 -8.8112,-6.149484 -3.652977,-5.139867 -3.818187,-14.960684 4.13025,-20.192334 3.597907,-2.36801 7.59966,-3.597907 11.858408,-4.001753 5.268363,-0.513987 10.500013,-0.256994 15.566453,1.54196 3.175703,1.15647 6.094414,2.955423 8.554207,5.268363 l -7.361024,8.664348 c -1.945806,-1.81731 -4.130249,-3.19406 -6.681826,-3.891614 -3.781474,-1.027974 -7.59966,-1.174826 -11.39949,-0.128496 -0.844408,0.238636 -1.6521,0.624126 -2.36801,1.138112 -2.092661,1.486891 -2.257871,4.350531 -0.422204,6.149484 1.340036,1.303323 3.047207,1.81731 4.809447,2.055947 2.845283,0.38549 5.708923,0.569056 8.554207,0.954546 3.90997,0.513987 7.691443,1.450177 11.032357,3.671334 3.818186,2.53322 5.653853,6.16784 6.131126,10.646867 0.82605,7.764871 -3.96504,13.675717 -10.536727,16.704567 -4.222033,1.945803 -8.701059,2.569934 -13.308583,2.441436 -3.96504,-0.11014 -7.856654,-0.569058 -11.601414,-1.927448 -4.332174,-1.578674 -7.966794,-4.111894 -11.179211,-7.471164 z"
       id="path10"
       style="fill:#ffffff;stroke-width:0.18356666" />
  </g>
</svg>
