<?xml version="1.0" encoding="UTF-8" standalone="no"?>
<!-- Created with Inkscape (http://www.inkscape.org/) -->

<svg
   xmlns:dc="http://purl.org/dc/elements/1.1/"
   xmlns:cc="http://creativecommons.org/ns#"
   xmlns:rdf="http://www.w3.org/1999/02/22-rdf-syntax-ns#"
   xmlns:svg="http://www.w3.org/2000/svg"
   xmlns="http://www.w3.org/2000/svg"
   xmlns:sodipodi="http://sodipodi.sourceforge.net/DTD/sodipodi-0.dtd"
   xmlns:inkscape="http://www.inkscape.org/namespaces/inkscape"
   width="1200mm"
   height="630mm"
   viewBox="0 0 1200 630"
   version="1.1"
   id="svg4506"
   inkscape:export-filename="/home/jose/www/soko/img/sokotech_share.png"
   inkscape:export-xdpi="25.400002"
   inkscape:export-ydpi="25.400002"
   inkscape:version="0.92.1 r15371"
   sodipodi:docname="sokotech_logo_share.svg">
  <defs
     id="defs4500" />
  <sodipodi:namedview
     id="base"
     pagecolor="#ffffff"
     bordercolor="#666666"
     borderopacity="1.0"
     inkscape:pageopacity="0.0"
     inkscape:pageshadow="2"
     inkscape:zoom="0.061871843"
     inkscape:cx="-178.57143"
     inkscape:cy="560"
     inkscape:document-units="mm"
     inkscape:current-layer="layer1"
     showgrid="false"
     inkscape:window-width="1223"
     inkscape:window-height="779"
     inkscape:window-x="57"
     inkscape:window-y="21"
     inkscape:window-maximized="1" />
  <metadata
     id="metadata4503">
    <rdf:RDF>
      <cc:Work
         rdf:about="">
        <dc:format>image/svg+xml</dc:format>
        <dc:type
           rdf:resource="http://purl.org/dc/dcmitype/StillImage" />
        <dc:title></dc:title>
      </cc:Work>
    </rdf:RDF>
  </metadata>
  <g
     inkscape:label="Capa 1"
     inkscape:groupmode="layer"
     id="layer1"
     transform="translate(0,333)">
    <path
       d="m 1115.536,-85.286546 c 0,73.572763 -43.5068,125.922341 -106.9101,137.329537 -39.43909,7.074394 -77.02124,1.945484 -110.7125,-21.134279 -32.71864,-22.3725564 -50.49269,-54.118259 -54.38366,-93.380526 -3.8024,-38.554726 6.80903,-72.953456 32.89542,-101.869666 21.48824,-23.7873 48.81264,-37.13998 80.38164,-41.38455 31.56897,-4.24457 62.1653,-0.35361 90.2855,15.20959 44.9217,24.93701 67.0288,63.84534 68.4437,105.229894 z m -209.13346,9.01988 c 0,41.119184 31.83427,72.9534546 72.77669,72.6880856 40.94237,-0.177136 72.51137,-31.9225046 72.33447,-72.6880856 -0.089,-39.085464 -33.9565,-73.042024 -72.68821,-73.042024 -40.0581,0 -72.42295,32.63005 -72.42295,73.042024 z"
       id="path2"
       inkscape:connector-curvature="0"
       style="stroke-width:0.88428521" />
    <path
       d="m 597.34472,-79.096486 c -0.26403,32.365006 -7.428,59.512536 -24.75988,83.2998386 -21.93038,30.0655884 -52.17277,45.5405524 -88.51698,49.6968884 -26.97073,3.006291 -53.32249,0.09024 -78.08236,-11.584332 -41.82673,-19.719534 -65.17186,-53.41072 -71.62694,-98.774471 -4.77531,-33.956554 1.50297,-66.056198 20.95747,-94.795608 21.84182,-32.36468 52.96855,-49.87369 91.34648,-54.73723 30.86169,-3.89097 60.66225,0.3536 87.80978,16.27074 36.16707,21.13461 55.7098,53.49928 61.54625,94.530234 0.88401,6.36686 1.06115,12.91051 1.32618,16.09394 z m -63.84534,-0.70721 c -1.06114,-4.86387 -1.94549,-13.97198 -4.86354,-22.283994 -18.74696,-53.85322 -76.31368,-58.00922 -107.61755,-30.68489 -21.84182,19.10056 -30.50776,53.057124 -20.33851,82.680872 18.74696,54.3832946 81.97333,56.4173456 109.38623,30.773128 16.44754,-15.298164 22.46079,-34.752663 23.43337,-60.485116 z"
       id="path4"
       inkscape:connector-curvature="0"
       style="stroke-width:0.88428521" />
    <path
       d="m 748.2923,-80.864836 26.70536,29.446616 c 28.82765,31.745703 57.56706,63.49174 86.3947,95.237442 1.68012,1.856915 2.12229,4.952109 3.53737,8.400571 h -6.19006 c -21.66501,0 -43.33003,-0.177136 -64.99505,0.09024 -4.33314,0.0869 -6.98583,-1.414745 -9.63885,-4.509604 -29.26981,-34.045122 -58.62786,-68.001677 -88.07481,-101.958232 -1.23795,-1.414745 -2.47589,-2.741257 -4.33281,-4.774974 V 51.956429 H 628.47178 V -203.15991 h 62.87244 v 101.2507 l 0.88434,0.44217 c 3.00662,-3.4488 6.01325,-6.89726 8.93131,-10.43463 23.6105,-28.1201 47.13243,-56.24054 70.74293,-84.27241 1.23795,-1.50331 3.53703,-3.00663 5.30571,-3.00663 23.25657,-0.17713 46.6017,-0.17713 69.8586,-0.0869 0.7072,0 1.41474,0.17713 2.12228,0.26403 1.68012,3.71416 -0.53074,5.92502 -2.65302,8.2241 -32.01107,35.81347 -63.93391,71.62694 -95.94498,107.440414 -0.70721,0.61898 -1.41475,1.41508 -2.29909,2.47623 z"
       id="path6"
       inkscape:connector-curvature="0"
       style="stroke-width:0.88428521" />
    <path
       d="m 90.384066,12.603924 31.303864,-45.363752 c 3.00629,2.652689 5.57075,5.393945 8.66594,7.604798 23.96409,17.5972494 50.84625,26.8821616 80.55824,27.5011336 11.23039,0.264032 21.93038,-2.82949097 30.94993,-9.9038842 2.56445,-1.945484 4.7753,-4.3328034 6.63222,-6.9858264 7.6048,-11.141828 4.24457,-25.290615 -8.22377,-30.24239 -8.93131,-3.360562 -18.30479,-5.482847 -27.7665,-6.366854 -20.07347,-1.945483 -40.14661,-3.890966 -59.33574,-10.788559 -16.8897,-6.012917 -31.83426,-14.678856 -42.44568,-29.623416 -17.597247,-24.759884 -18.393021,-72.069114 19.89667,-97.271494 17.33187,-11.4072 36.60923,-17.33188 57.12454,-19.27737 25.37918,-2.47588 50.58123,-1.23794 74.9875,7.428 15.29816,5.57108 29.35838,14.23702 41.20775,25.37918 l -35.45987,41.73816 c -9.37348,-8.75451 -19.89633,-15.38674 -32.18787,-18.74696 -18.21656,-4.95178 -36.60958,-5.65932 -54.91437,-0.61898 -4.06743,1.14971 -7.9584,3.00663 -11.40719,5.48252 -10.08069,7.16296 -10.8768,20.95781 -2.03372,29.62375 6.45509,6.27829 14.67919,8.75417 23.16833,9.90388 13.70628,1.85692 27.50113,2.74126 41.20742,4.59818 18.83552,2.47622 37.05174,6.985822 53.14568,17.685814 18.39302,12.203306 27.2361,29.711988 29.53518,51.288437 3.9792,37.4053516 -19.10056,65.879393 -50.75803,80.470017 -20.3385,9.373479 -41.91529,12.380105 -64.11071,11.761133 -19.10056,-0.530738 -37.84752,-2.741256 -55.88694,-9.284912 -20.8689,-7.605132 -38.37791,-19.808101 -53.852874,-35.990605 z"
       id="path8"
       inkscape:connector-curvature="0"
       style="stroke-width:0.88428521" />
    <path
       d="m 1073.3556,150.28715 v -29.88881 h 18.4815 v 79.93937 h -18.3046 v -32.71854 h -29.0046 v 32.80698 h -18.57 v -79.85098 h 18.57 v 29.80042 h 28.8277 z"
       id="path10"
       inkscape:connector-curvature="0"
       style="stroke-width:0.88428521" />
    <path
       d="m 911.26612,167.0886 v 17.86255 h 32.18797 v 15.475 h -50.8464 v -79.93941 h 49.25469 v 15.12129 h -30.50783 v 15.38656 h 28.73925 v 16.00557 h -28.82768 z"
       id="path12"
       inkscape:connector-curvature="0"
       style="stroke-width:0.88428521" />
    <path
       d="m 1011.8978,183.44787 c 0.619,3.18343 1.0611,5.92472 1.5917,8.66597 1.3264,6.89743 1.3264,7.0743 -5.4826,8.31231 -10.96512,2.03385 -22.01868,2.29912 -32.6301,-1.68015 -19.189,-7.16273 -25.73272,-25.64429 -23.522,-43.6837 3.44873,-27.58971 27.14756,-38.4664 49.2547,-36.07884 3.8024,0.44214 7.5164,1.41488 11.2304,2.12228 2.6529,0.44214 3.3603,1.94545 2.5644,4.42144 -1.0611,3.80243 -2.0338,7.60486 -3.095,11.58413 -3.714,-0.79584 -7.2511,-1.68015 -10.8766,-2.29915 -11.23048,-1.94542 -21.84191,2.74129 -26.52861,11.58416 -5.21728,9.90399 -3.80243,24.93685 3.27186,32.36484 7.33956,7.60483 16.71297,7.7817 26.26325,6.45526 2.6529,-0.26537 5.0404,-1.06114 7.9586,-1.76855 z"
       id="path14"
       inkscape:connector-curvature="0"
       style="stroke-width:0.88428521" />
    <path
       d="m 861.83453,136.05017 v 64.28754 h -18.92376 v -64.11067 h -21.22285 v -15.7403 h 61.45803 v 15.56343 z"
       id="path16"
       inkscape:connector-curvature="0"
       style="stroke-width:0.88428521" />
  </g>
</svg>
