<svg xmlns="http://www.w3.org/2000/svg" viewBox="0 0 50 50"><defs><style>.cls-1,.cls-3{fill:#f27324;}.cls-2,.cls-4{fill:none;}.cls-2,.cls-3{stroke:#434343;stroke-width:1.2px;}.cls-2,.cls-3,.cls-4{stroke-linecap:round;stroke-linejoin:round;}.cls-4{stroke:#f27324;stroke-width:1.39px;}</style></defs><title>Pictos Sooko</title><g id="Capa_1" data-name="Capa 1"><rect class="cls-1" x="36" y="24.6" width="2.7" height="19.86"/><rect class="cls-1" x="12.4" y="11.1" width="2.7" height="5.95"/><path class="cls-2" d="M7.8,19.4h5.8a2.3,2.3,0,0,1,2.3,2.3v1.6a2.3,2.3,0,0,1-2.3,2.3H7.8"/><circle class="cls-3" cx="28.2" cy="12.6" r="3.3"/><path class="cls-2" d="M22.7,17.1H10.4a3,3,0,0,1,0-6h4.6v6"/><path class="cls-2" d="M33.8,17.1h4.9a3.8,3.8,0,0,1,3.8,3.6,3.8,3.8,0,0,1-3.8,3.9H36V44.4h2.7a3.8,3.8,0,0,0,3.8-3.8V20.8"/><path class="cls-2" d="M35.8,39.7h-25a3.3,3.3,0,0,1-3.3-3.3V14.1"/><line class="cls-4" x1="12.4" y1="21.3" x2="10.4" y2="23.3"/><line class="cls-4" x1="10.4" y1="21.3" x2="12.4" y2="23.3"/><line class="cls-2" x1="18.2" y1="33.3" x2="16.2" y2="35.3"/><line class="cls-2" x1="16.2" y1="33.3" x2="18.2" y2="35.3"/><line class="cls-4" x1="29.2" y1="24.2" x2="27.2" y2="26.3"/><line class="cls-4" x1="27.2" y1="24.2" x2="29.2" y2="26.3"/><line class="cls-2" x1="25.3" y1="29.7" x2="23.2" y2="31.8"/><line class="cls-2" x1="23.2" y1="29.7" x2="25.3" y2="31.8"/><path class="cls-2" d="M30.4,20.6a2.9,2.9,0,0,1,2,2.8v7.7A2.9,2.9,0,0,1,29.6,34H23.9a4.1,4.1,0,0,1-2.2-.7v1.6a2.9,2.9,0,0,1-2.9,2.9H16.3a2.9,2.9,0,0,1-2.9-2.9V30.1a2.9,2.9,0,0,1,2.9-2.9h1.2a4.1,4.1,0,0,1,2.2.7V23.4a2.9,2.9,0,0,1,2.9-2.9h3.2"/><path class="cls-2" d="M23.7,17.9c-1-1.1-2.5-3.2-2.5-5.3a7,7,0,1,1,14,0c0,2.1-1.5,4.2-2.5,5.3s-4.5,4.7-4.5,4.7S24.7,19.2,23.7,17.9Z"/></g></svg>