<?xml version="1.0" encoding="UTF-8" standalone="no"?>
<!-- Generator: Adobe Illustrator 22.0.0, SVG Export Plug-In . SVG Version: 6.00 Build 0)  -->

<svg
   xmlns:dc="http://purl.org/dc/elements/1.1/"
   xmlns:cc="http://creativecommons.org/ns#"
   xmlns:rdf="http://www.w3.org/1999/02/22-rdf-syntax-ns#"
   xmlns:svg="http://www.w3.org/2000/svg"
   xmlns="http://www.w3.org/2000/svg"
   xmlns:sodipodi="http://sodipodi.sourceforge.net/DTD/sodipodi-0.dtd"
   xmlns:inkscape="http://www.inkscape.org/namespaces/inkscape"
   version="1.1"
   id="Layer_1"
   x="0px"
   y="0px"
   viewBox="0 0 50 50"
   style="enable-background:new 0 0 50 50;"
   xml:space="preserve"
   sodipodi:docname="sokotech_icons_medialab_03.svg"
   inkscape:version="0.92.1 r15371"><metadata
     id="metadata5726"><rdf:RDF><cc:Work
         rdf:about=""><dc:format>image/svg+xml</dc:format><dc:type
           rdf:resource="http://purl.org/dc/dcmitype/StillImage" /></cc:Work></rdf:RDF></metadata><defs
     id="defs5724" /><sodipodi:namedview
     pagecolor="#ffffff"
     bordercolor="#666666"
     borderopacity="1"
     objecttolerance="10"
     gridtolerance="10"
     guidetolerance="10"
     inkscape:pageopacity="0"
     inkscape:pageshadow="2"
     inkscape:window-width="1223"
     inkscape:window-height="779"
     id="namedview5722"
     showgrid="false"
     inkscape:zoom="7.6006258"
     inkscape:cx="24.325037"
     inkscape:cy="24.425038"
     inkscape:window-x="57"
     inkscape:window-y="21"
     inkscape:window-maximized="1"
     inkscape:current-layer="Layer_1" /><style
     type="text/css"
     id="style5707">
	.st0{fill:none;stroke:#F27324;stroke-width:2;stroke-linecap:square;stroke-linejoin:round;}
	.st1{fill:#434343;}
	.st2{fill:none;stroke:#434343;stroke-width:1.5;stroke-linecap:round;stroke-miterlimit:10;}
	.st3{fill:none;stroke:#F27323;stroke-width:1.5;stroke-linecap:round;stroke-miterlimit:10;}
</style><title
     id="title5709">Pictos Sooko</title><line
     class="st0"
     x1="10.8"
     y1="37.542156"
     x2="30"
     y2="37.542156"
     id="line5711"
     style="fill:none;stroke:#f27324;stroke-width:2;stroke-linecap:square;stroke-linejoin:round" /><path
     class="st1"
     d="m 32.3,25.74216 c 0,-0.2 -0.1,-0.4 -0.2,-0.5 l -7.1,-7 1.6,-1.6 c 0.3,-0.3 0.3,-0.8 0,-1.1 -0.3,-0.3 -0.8,-0.3 -1.1,0 l -1.5,1.5 -6.9,-6.8 c -0.1,-0.1 -0.3,-0.2 -0.5,-0.2 -0.2,0 -0.4,0.1 -0.5,0.2 -1.9,2.1 -3,4.8 -3,7.7 0,3.2 1.3,6.1 3.5,8.2 l -2,7.2 h -3.8 c -1.1,0 -2,0.9 -2,2 v 2.5 c 0,1.1 0.9,2 2,2 h 18.9 c 1.1,0 2,-0.9 2,-2 v -2.5 c 0,-1.1 -0.9,-2 -2,-2 H 26 l -0.9,-4 c 2.7,-0.1 5.2,-1.2 7.2,-3 -0.1,-0.2 0,-0.4 0,-0.6 z m -14.6,1.5 c 0.5,0.3 1.2,0.7 2.1,1.1 0,0 0.1,0 0.1,0 0,0 0.1,0 0.1,0.1 1.1,0.5 2.2,0.8 3.4,0.9 l 0.9,3.9 H 16 Z m 11.8,7.6 c 0.3,0 0.5,0.2 0.5,0.5 v 2.5 c 0,0.3 -0.2,0.5 -0.5,0.5 H 10.7 c -0.3,0 -0.5,-0.2 -0.5,-0.5 v -2.5 c 0,-0.3 0.2,-0.5 0.5,-0.5 z m -8.9,-7.7 c 0,0 -0.1,0 -0.1,0 0,0 -0.1,0 -0.1,-0.1 -3.6,-1.6 -5.9,-5.1 -5.9,-9 0,-2.2 0.7,-4.4 2.1,-6.1 l 13.9,13.8 c -2.8,2.1 -6.6,2.7 -9.9,1.4 z"
     id="path5713"
     inkscape:connector-curvature="0"
     style="fill:#434343" /><path
     class="st2"
     d="m 25.8,11.44216 c 0.9,0.1 4.4,0.2 4.8,4.8"
     id="path5715"
     inkscape:connector-curvature="0"
     style="fill:none;stroke:#434343;stroke-width:1.5;stroke-linecap:round;stroke-miterlimit:10" /><path
     class="st3"
     d="m 25.2,7.3421595 c 3,0.1 9.4,1.6 9.4,9.3000005"
     id="path5717"
     inkscape:connector-curvature="0"
     style="fill:none;stroke:#f27323;stroke-width:1.5;stroke-linecap:round;stroke-miterlimit:10" /><path
     class="st2"
     d="m 24.9,2.7421595 c 3.8,0 14.2,3.4 14.2,14.2000005"
     id="path5719"
     inkscape:connector-curvature="0"
     style="fill:none;stroke:#434343;stroke-width:1.5;stroke-linecap:round;stroke-miterlimit:10" /></svg>