<?xml version="1.0" encoding="utf-8"?>
<!-- Generator: Adobe Illustrator 22.0.0, SVG Export Plug-In . SVG Version: 6.00 Build 0)  -->
<svg version="1.1" id="Layer_1" xmlns="http://www.w3.org/2000/svg" xmlns:xlink="http://www.w3.org/1999/xlink" x="0px" y="0px"
	 viewBox="0 0 50 50" style="enable-background:new 0 0 50 50;" xml:space="preserve">
<style type="text/css">
	.st0{fill:none;stroke:#F27324;stroke-width:3;stroke-linecap:round;stroke-linejoin:round;}
	.st1{fill:#434343;}
</style>
<line class="st0" x1="9.6" y1="18.1" x2="16.4" y2="18.1"/>
<line class="st0" x1="34.6" y1="18.1" x2="41.8" y2="18.1"/>
<title>Pictos Sooko</title>
<path class="st1" d="M32.7,8.1c4.7,0.5,8.3,2.8,10.3,7.1c0.4,0.9,0.6,1.9,0.6,2.8c0,1.5-1,2.4-2.5,2.4c-1.8,0-3.6,0-5.4,0
	c-1.3,0-2.3-0.8-2.7-2c-0.8-2.6-1-2.8-3.7-2.8c-2.9,0-5.7,0-8.6,0c-1.7,0-2.2,0.5-2.7,2.1c-0.2,0.6-0.5,1.3-0.9,1.8
	c-0.4,0.6-1.1,0.8-1.8,0.8c-1.8,0-3.5,0-5.3,0c-1.9,0-3-1.4-2.6-3.3C8.1,14,10,11.7,12.7,10c2.2-1.4,4.6-2,7.2-2
	C21.8,8,30.4,7.9,32.7,8.1z M19.7,9.7c-3.5,0.1-6.4,1.4-8.8,4C10,14.7,9.4,16,9.1,17.4c-0.2,1.1,0.1,1.5,1.2,1.5c1.6,0,3.2,0,4.9,0
	c0.6,0,1-0.3,1.2-0.9c0.1-0.2,0.1-0.4,0.2-0.7c0.7-2.4,1.9-3.3,4.4-3.3c2.8,0,5.7,0,8.5,0c3.3,0,4.2,0.6,5.2,3.8
	c0.2,0.7,0.6,1,1.3,1c1.5,0,3,0,4.5,0c1.5,0,1.7-0.3,1.4-1.8c0-0.2-0.1-0.3-0.1-0.5c-1.6-4.2-4.8-6.2-9-6.8
	C30.4,9.5,21.6,9.6,19.7,9.7z"/>
<path class="st1" d="M25.5,39.3c-3.9,0-7.9,0-11.8,0c-1.4,0-2.7-0.3-3.7-1.3c-1.2-1-1.7-2.3-1.5-3.9c0.4-2.4,0.6-4.9,1.1-7.4
	c0.4-2.1,1.5-3.7,3.6-4.3c0.3-0.1,0.6-0.2,0.9-0.1c0.3,0.1,0.6,0.4,0.8,0.6c0.2,0.4-0.1,0.8-0.5,0.9c-2.3,0.3-3,1.9-3.3,3.9
	c-0.3,2.1-0.6,4.3-0.9,6.4c-0.2,1.6,0.8,3,2.6,3.3c0.5,0.1,0.9,0.1,1.4,0.1c7.7,0,15.4,0,23.1,0c1,0,1.9-0.1,2.7-0.7
	c0.9-0.7,1.4-1.5,1.2-2.7c-0.3-2.3-0.6-4.6-1-6.9c-0.1-0.8-0.4-1.5-0.8-2.2c-0.5-0.8-1.3-1.3-2.3-1.3c-0.7,0-1.1-0.3-1-0.8
	c0-0.7,0.5-0.8,1.1-0.8c2.3,0,4.2,1.7,4.7,4.3c0.4,2.6,0.8,5.2,1.1,7.8c0.3,2.3-1.7,4.5-4.2,4.7c-0.4,0-0.8,0.1-1.2,0.1
	C33.3,39.3,29.4,39.3,25.5,39.3z"/>
<path class="st1" d="M25.5,35.4c-3.5,0-6.2-2.8-6.2-6.2c0-3.4,2.8-6.2,6.3-6.2c3.5,0,6.3,2.8,6.2,6.3C31.8,32.6,29,35.4,25.5,35.4z
	 M25.5,33.7c2.6,0,4.7-2,4.7-4.5c0-2.5-2.1-4.5-4.6-4.6c-2.6,0-4.6,2-4.7,4.5C20.9,31.6,23,33.7,25.5,33.7z"/>
</svg>
