<svg xmlns="http://www.w3.org/2000/svg" viewBox="0 0 50 50"><defs><style>.cls-1{fill:#f27222;}.cls-2{fill:none;}.cls-2,.cls-3{stroke:#434343;stroke-linecap:round;stroke-linejoin:round;}.cls-3{fill:#f27324;stroke-width:0.87px;}.cls-4{fill:#fff;}</style></defs><title>Pictos Sooko</title><g id="Capa_1" data-name="Capa 1"><rect class="cls-1" x="14.9" y="14.5" width="20.1" height="4.09"/><line class="cls-2" x1="35" y1="25.1" x2="38.8" y2="25.1"/><rect class="cls-3" x="38.8" y="22.7" width="4.8" height="4.85"/><polyline class="cls-2" points="8.4 14.5 8.4 16.8 14.9 16.8"/><polyline class="cls-2" points="41.6 35.5 41.6 33.2 35 33.2"/><circle class="cls-3" cx="8.4" cy="11.8" r="2.7"/><circle class="cls-3" cx="41.6" cy="38.2" r="2.7"/><rect class="cls-2" x="14.9" y="14.5" width="20.1" height="21.19"/><circle class="cls-2" cx="25" cy="26.9" r="6.9"/><ellipse class="cls-2" cx="25" cy="26.9" rx="2.6" ry="6.9"/><line class="cls-2" x1="18.5" y1="24.6" x2="31.4" y2="24.6"/><line class="cls-2" x1="18.5" y1="29.1" x2="31.4" y2="29.1"/><rect class="cls-4" x="27.6" y="16" width="1.2" height="1.24" rx="0.5" ry="0.5"/><rect class="cls-4" x="29.7" y="16" width="1.2" height="1.24" rx="0.5" ry="0.5"/><rect class="cls-4" x="31.9" y="16" width="1.2" height="1.24" rx="0.5" ry="0.5"/><polyline class="cls-2" points="41.6 14.5 41.6 16.8 35 16.8"/><polyline class="cls-2" points="8.4 35.5 8.4 33.2 14.9 33.2"/><line class="cls-2" x1="11.2" y1="25.1" x2="14.9" y2="25.1"/><circle class="cls-2" cx="41.6" cy="11.8" r="2.7"/><circle class="cls-3" cx="8.4" cy="38.2" r="2.7"/><rect class="cls-2" x="6.2" y="22.7" width="4.8" height="4.85"/></g></svg>