<?xml version="1.0" encoding="UTF-8" standalone="no"?>
<!-- Generator: Adobe Illustrator 22.0.0, SVG Export Plug-In . SVG Version: 6.00 Build 0)  -->

<svg
   xmlns:dc="http://purl.org/dc/elements/1.1/"
   xmlns:cc="http://creativecommons.org/ns#"
   xmlns:rdf="http://www.w3.org/1999/02/22-rdf-syntax-ns#"
   xmlns:svg="http://www.w3.org/2000/svg"
   xmlns="http://www.w3.org/2000/svg"
   xmlns:sodipodi="http://sodipodi.sourceforge.net/DTD/sodipodi-0.dtd"
   xmlns:inkscape="http://www.inkscape.org/namespaces/inkscape"
   version="1.1"
   id="Layer_2"
   x="0px"
   y="0px"
   viewBox="0 0 50 50"
   style="enable-background:new 0 0 50 50;"
   xml:space="preserve"
   sodipodi:docname="sokotech_icons_lab_05.svg"
   inkscape:version="0.92.1 r15371"><metadata
     id="metadata4535"><rdf:RDF><cc:Work
         rdf:about=""><dc:format>image/svg+xml</dc:format><dc:type
           rdf:resource="http://purl.org/dc/dcmitype/StillImage" /></cc:Work></rdf:RDF></metadata><defs
     id="defs4533" /><sodipodi:namedview
     pagecolor="#ffffff"
     bordercolor="#666666"
     borderopacity="1"
     objecttolerance="10"
     gridtolerance="10"
     guidetolerance="10"
     inkscape:pageopacity="0"
     inkscape:pageshadow="2"
     inkscape:window-width="780"
     inkscape:window-height="480"
     id="namedview4531"
     showgrid="false"
     inkscape:zoom="4.72"
     inkscape:cx="25"
     inkscape:cy="25"
     inkscape:window-x="57"
     inkscape:window-y="21"
     inkscape:window-maximized="0"
     inkscape:current-layer="Layer_2" /><style
     type="text/css"
     id="style4514">
	.st0{fill:#F27323;}
	.st1{fill:#434343;}
	.st2{fill:#FFFFFF;}
</style><path
     class="st0"
     d="m 43.2,37.4 -1.9,1.9 c -0.2,0.2 -0.5,0.2 -0.7,0 l -8.1,-8.1 c -0.2,-0.2 -0.2,-0.5 0,-0.7 l 1.9,-1.9 c 0.2,-0.2 0.5,-0.2 0.7,0 l 8.1,8.1 c 0.1,0.1 0.1,0.5 0,0.7 z"
     id="path4516"
     inkscape:connector-curvature="0"
     style="fill:#f27323" /><path
     class="st0"
     d="M 13.8,7.9 11.9,9.8 C 11.7,10 11.4,10 11.2,9.8 L 9.6,8.2 C 9.4,8 9.4,7.7 9.6,7.5 l 1.9,-1.9 c 0.2,-0.2 0.5,-0.2 0.7,0 l 1.6,1.6 c 0.2,0.2 0.2,0.5 0,0.7 z"
     id="path4518"
     inkscape:connector-curvature="0"
     style="fill:#f27323" /><path
     class="st1"
     d="M 43,35.2 19.8,12.1 21.4,10.5 18.7,7.8 C 19.6,6.9 21,5.6 21.3,5.4 21.7,5.1 23.3,4.3 24.2,4 L 25.8,3.5 24.4,2.7 c -4.3,-2.4 -8.6,1.8 -8.8,2 L 14,6.3 13.5,5.8 c -1,-1 -2.7,-1 -3.8,0 -1,1 -1,2.7 0,3.8 l 0.5,0.5 -0.4,0.4 0.1,0.4 c 0,0.2 0.1,0.3 0.2,0.5 0.3,0.8 0.3,1.2 -0.1,1.6 -0.3,0.3 -0.6,0.2 -1.2,0 -0.4,-0.1 -0.9,-0.3 -1.3,0.1 l -2.2,2.2 6,6 2.5,-2.5 c 0.4,-0.4 0.2,-1 0,-1.3 -0.3,-0.6 -0.4,-1 -0.1,-1.2 0.5,-0.5 1.3,0 1.4,0.1 l 0.5,0.4 0.7,-0.7 22.9,22.9 c 0.5,0.5 1.2,0.8 1.9,0.8 0.7,0 1.4,-0.3 1.9,-0.8 1,-1.1 1,-2.8 0,-3.8 z M 10.7,6.7 c 0.5,-0.5 1.3,-0.5 1.7,0 L 12.9,7.2 11.2,8.9 10.7,8.4 C 10.2,8 10.2,7.2 10.7,6.7 Z m 4.5,8 c -0.7,-0.3 -1.8,-0.5 -2.7,0.4 -1,1 -0.5,2.3 -0.2,2.8 l -1.2,1.2 -3.9,-3.9 1,-1 c 0,0 0,0 0,0 0.6,0.2 1.7,0.6 2.7,-0.3 1.1,-1.1 0.7,-2.3 0.4,-3.1 0,0 0,0 0,-0.1 l 0.3,-0.3 0.5,-0.5 1.7,-1.7 v 0 L 16.4,5.6 C 16.5,5.5 19,3 21.8,3.3 21.2,3.6 20.5,4 20.3,4.2 c -0.5,0.4 -3,2.8 -3.2,3 l -0.5,0.5 2.8,2.8 -1.1,1.1 -0.5,0.5 -1.7,1.7 z M 42,38 c -0.5,0.5 -1.2,0.5 -1.7,0 L 17.1,14.8 18.8,13.1 42,36.2 c 0.4,0.5 0.4,1.3 0,1.8 z"
     id="path4520"
     inkscape:connector-curvature="0"
     style="fill:#434343" /><g
     id="g4526"
     transform="translate(0,-4)"><path
       class="st2"
       d="m 43.4,9.4 -2.9,2.9 c -0.8,0.8 -2.1,0.8 -2.9,0 -0.8,-0.8 -0.8,-2.1 0,-2.9 L 40.5,6.5 C 39.9,6.3 39.2,6.1 38.6,6.1 c -2.9,0 -5.2,2.3 -5.2,5.2 0,0.2 0,0.5 0.1,0.7 L 12.1,33.4 c -0.2,0 -0.4,0 -0.6,0 -2.9,0 -5.2,2.3 -5.2,5.2 0,2.9 2.3,5.2 5.2,5.2 2.9,0 5.2,-2.3 5.2,-5.2 0,-0.2 0,-0.4 0,-0.6 L 38,16.6 c 0.2,0 0.4,0 0.5,0 2.9,0 5.2,-2.3 5.2,-5.2 0.1,-0.7 -0.1,-1.4 -0.3,-2 z M 11.5,40.7 c -1.2,0 -2.1,-0.9 -2.1,-2.1 0,-1.2 0.9,-2.1 2.1,-2.1 1.2,0 2.1,0.9 2.1,2.1 0,1.2 -0.9,2.1 -2.1,2.1 z"
       id="path4522"
       inkscape:connector-curvature="0"
       style="fill:#ffffff" /><path
       class="st1"
       d="m 11.5,44.5 c -3.3,0 -5.9,-2.7 -5.9,-5.9 0,-3.3 2.7,-5.9 5.9,-5.9 0.1,0 0.2,0 0.3,0 L 32.6,11.9 c 0,-0.1 0,-0.3 0,-0.4 0,-3.3 2.7,-5.9 5.9,-5.9 0.8,0 1.5,0.1 2.2,0.4 l 1,0.4 -3.6,3.6 c -0.2,0.2 -0.4,0.6 -0.4,0.9 0,0.4 0.1,0.7 0.4,0.9 0.5,0.5 1.3,0.5 1.9,0 l 3.6,-3.6 0.4,1 c 0.3,0.7 0.4,1.5 0.4,2.3 0,3.4 -2.8,6.1 -6.2,5.9 L 17.4,38.2 c 0,0.1 0,0.2 0,0.4 0.1,3.3 -2.6,5.9 -5.9,5.9 z m 0,-10.4 c -2.5,0 -4.5,2 -4.5,4.5 0,2.5 2,4.5 4.5,4.5 2.5,0 4.5,-2 4.5,-4.5 0,-0.2 0,-0.4 0,-0.6 V 37.7 L 37.8,15.9 h 0.3 c 0.2,0 0.3,0 0.5,0 2.5,0 4.5,-2 4.5,-4.5 0,-0.2 0,-0.4 0,-0.6 l -2,2 c -1.1,1.1 -2.8,1.1 -3.9,0 -0.5,-0.5 -0.8,-1.2 -0.8,-1.9 0,-0.7 0.3,-1.4 0.8,-1.9 l 2,-2 c -0.2,0 -0.4,0 -0.6,0 -2.5,0 -4.5,2 -4.5,4.5 0,0.2 0,0.4 0,0.6 v 0.4 L 12.3,34.1 H 12 c -0.2,0 -0.3,0 -0.5,0 z m 0,7.3 c -1.6,0 -2.8,-1.3 -2.8,-2.8 0,-1.5 1.3,-2.8 2.8,-2.8 1.6,0 2.8,1.3 2.8,2.8 0,1.5 -1.2,2.8 -2.8,2.8 z m 0,-4.2 c -0.8,0 -1.4,0.6 -1.4,1.4 0,0.8 0.6,1.4 1.4,1.4 0.8,0 1.4,-0.6 1.4,-1.4 0,-0.8 -0.6,-1.4 -1.4,-1.4 z"
       id="path4524"
       inkscape:connector-curvature="0"
       style="fill:#434343" /></g><path
     class="st1"
     d="m 17.8,28.9 c -0.2,0 -0.4,-0.1 -0.5,-0.2 -0.3,-0.3 -0.3,-0.7 0,-1 l 14.1,-14 c 0.3,-0.3 0.7,-0.3 1,0 0.3,0.3 0.3,0.7 0,1 l -14.1,14 c -0.2,0.1 -0.3,0.2 -0.5,0.2 z"
     id="path4528"
     inkscape:connector-curvature="0"
     style="fill:#434343" /></svg>