<?xml version="1.0" encoding="utf-8"?>
<!-- Generator: Adobe Illustrator 22.0.0, SVG Export Plug-In . SVG Version: 6.00 Build 0)  -->
<svg version="1.1" id="Capa_1" xmlns="http://www.w3.org/2000/svg" xmlns:xlink="http://www.w3.org/1999/xlink" x="0px" y="0px"
	 viewBox="0 0 50 50" style="enable-background:new 0 0 50 50;" xml:space="preserve">
<style type="text/css">
	.st0{fill:#F27222;}
	.st1{fill:#434343;}
</style>
<path class="st0" d="M47.6,4.7H2.3c-0.8,0-1.5,0.7-1.5,1.5v7.7h48.3V6.2C49.1,5.4,48.5,4.7,47.6,4.7z"/>
<g>
	<path class="st0" d="M9.4,23.6c0.2,0.2,0.3,0.2,0.5,0.2c0.2,0,0.4-0.1,0.5-0.2l1.1-1.1l1.1,1.1c0.2,0.2,0.3,0.2,0.5,0.2
		c0.2,0,0.4-0.1,0.5-0.2c0.3-0.3,0.3-0.8,0-1.1l-1.1-1.1l1.1-1.1c0.3-0.3,0.3-0.8,0-1.1c-0.3-0.3-0.8-0.3-1.1,0l-1.1,1.1l-1.1-1.1
		c-0.3-0.3-0.8-0.3-1.1,0c-0.3,0.3-0.3,0.8,0,1.1l1.1,1.1l-1.1,1.1C9.1,22.8,9.1,23.3,9.4,23.6z"/>
</g>
<g>
	<path class="st0" d="M18.3,23.6c0.2,0.2,0.3,0.2,0.5,0.2s0.4-0.1,0.5-0.2l1.1-1.1l1.1,1.1c0.2,0.2,0.3,0.2,0.5,0.2
		c0.2,0,0.4-0.1,0.5-0.2c0.3-0.3,0.3-0.8,0-1.1l-1.1-1.1l1.1-1.1c0.3-0.3,0.3-0.8,0-1.1c-0.3-0.3-0.8-0.3-1.1,0l-1.1,1.1l-1.1-1.1
		c-0.3-0.3-0.8-0.3-1.1,0c-0.3,0.3-0.3,0.8,0,1.1l1.1,1.1l-1.1,1.1C18,22.8,18,23.3,18.3,23.6z"/>
</g>
<g>
	<path class="st0" d="M27.2,23.6c0.2,0.2,0.3,0.2,0.5,0.2c0.2,0,0.4-0.1,0.5-0.2l1.1-1.1l1.1,1.1c0.2,0.2,0.3,0.2,0.5,0.2
		c0.2,0,0.4-0.1,0.5-0.2c0.3-0.3,0.3-0.8,0-1.1l-1.1-1.1l1.1-1.1c0.3-0.3,0.3-0.8,0-1.1c-0.3-0.3-0.8-0.3-1.1,0l-1.1,1.1l-1.1-1.1
		c-0.3-0.3-0.8-0.3-1.1,0c-0.3,0.3-0.3,0.8,0,1.1l1.1,1.1l-1.1,1.1C26.9,22.8,26.9,23.3,27.2,23.6z"/>
</g>
<g>
	<path class="st0" d="M36.1,23.6c0.2,0.2,0.3,0.2,0.5,0.2c0.2,0,0.4-0.1,0.5-0.2l1.1-1.1l1.1,1.1c0.2,0.2,0.3,0.2,0.5,0.2
		c0.2,0,0.4-0.1,0.5-0.2c0.3-0.3,0.3-0.8,0-1.1l-1.1-1.1l1.1-1.1c0.3-0.3,0.3-0.8,0-1.1c-0.3-0.3-0.8-0.3-1.1,0l-1.1,1.1l-1.1-1.1
		c-0.3-0.3-0.8-0.3-1.1,0c-0.3,0.3-0.3,0.8,0,1.1l1.1,1.1l-1.1,1.1C35.7,22.8,35.7,23.3,36.1,23.6z"/>
</g>
<path class="st1" d="M20.6,32.1c-1.4,0-2.5-1.1-2.5-2.4c0-1.4,1.1-2.5,2.5-2.5c1.4,0,2.5,1.1,2.5,2.4C23,31,21.9,32.1,20.6,32.1z
	 M20.5,30.7c0.5,0,1-0.5,1-1c0-0.6-0.5-1.1-1.1-1c-0.5,0-1,0.5-1,1C19.5,30.2,20,30.7,20.5,30.7z"/>
<path class="st1" d="M29.4,32.1c-1.4,0-2.5-1.1-2.5-2.4c0-1.4,1.1-2.5,2.5-2.5c1.4,0,2.5,1.1,2.5,2.4C31.9,31,30.8,32.1,29.4,32.1z
	 M29.4,30.7c0.5,0,1-0.5,1-1c0-0.6-0.5-1.1-1.1-1c-0.5,0-1,0.5-1,1C28.4,30.2,28.9,30.7,29.4,30.7z"/>
<path class="st1" d="M38.3,32.1c-1.4,0-2.5-1.1-2.5-2.4c0-1.4,1.1-2.5,2.5-2.5c1.4,0,2.5,1.1,2.5,2.4C40.8,31,39.7,32.1,38.3,32.1z
	 M38.3,30.7c0.5,0,1-0.5,1-1c0-0.6-0.5-1.1-1.1-1c-0.5,0-1,0.5-1,1C37.3,30.2,37.8,30.7,38.3,30.7z"/>
<path class="st1" d="M20.6,40.4c-1.4,0-2.5-1.1-2.5-2.4c0-1.4,1.1-2.5,2.5-2.5c1.4,0,2.5,1.1,2.5,2.4C23,39.3,21.9,40.4,20.6,40.4z
	 M20.5,39c0.5,0,1-0.5,1-1c0-0.6-0.5-1.1-1.1-1c-0.5,0-1,0.5-1,1C19.5,38.5,20,39,20.5,39z"/>
<path class="st1" d="M11.7,32.1c-1.4,0-2.5-1.1-2.5-2.4c0-1.4,1.1-2.5,2.5-2.5c1.4,0,2.5,1.1,2.5,2.4C14.2,31,13.1,32.1,11.7,32.1z
	 M11.7,30.7c0.5,0,1-0.5,1-1c0-0.6-0.5-1.1-1.1-1c-0.5,0-1,0.5-1,1C10.7,30.2,11.1,30.7,11.7,30.7z"/>
<path class="st1" d="M11.7,40.4c-1.4,0-2.5-1.1-2.5-2.4c0-1.4,1.1-2.5,2.5-2.5c1.4,0,2.5,1.1,2.5,2.4C14.2,39.3,13.1,40.4,11.7,40.4
	z M11.7,39c0.5,0,1-0.5,1-1c0-0.6-0.5-1.1-1.1-1c-0.5,0-1,0.5-1,1C10.7,38.5,11.1,39,11.7,39z"/>
<path class="st1" d="M29.4,40.4c-1.4,0-2.5-1.1-2.5-2.4c0-1.4,1.1-2.5,2.5-2.5c1.4,0,2.5,1.1,2.5,2.4C31.9,39.3,30.8,40.4,29.4,40.4
	z M29.4,39c0.5,0,1-0.5,1-1c0-0.6-0.5-1.1-1.1-1c-0.5,0-1,0.5-1,1C28.4,38.5,28.9,39,29.4,39z"/>
<path class="st1" d="M50,6.8c-0.1-1.2-1.1-2.2-2.3-2.2h-7.3V1.9c0-0.5-0.4-0.8-0.8-0.8s-0.8,0.4-0.8,0.8v2.7h-5.6V1.9
	c0-0.5-0.4-0.8-0.8-0.8s-0.8,0.4-0.8,0.8v2.7h-5.6V1.9c0-0.5-0.4-0.8-0.8-0.8c-0.5,0-0.8,0.4-0.8,0.8v2.7h-5.6V1.9
	c0-0.5-0.4-0.8-0.8-0.8c-0.5,0-0.8,0.4-0.8,0.8v2.7h-5.6V1.9c0-0.5-0.4-0.8-0.8-0.8c-0.5,0-0.8,0.4-0.8,0.8v2.7H2.3
	C1,4.6,0,5.6,0,6.9v20.8c0,0.5,0.4,0.8,0.8,0.8c0.5,0,0.8-0.4,0.8-0.8V6.9c0-0.4,0.3-0.7,0.7-0.7h7.3V10c0,0.5,0.4,0.8,0.8,0.8
	c0.5,0,0.8-0.4,0.8-0.8V6.3h5.6V10c0,0.5,0.4,0.8,0.8,0.8c0.5,0,0.8-0.4,0.8-0.8V6.3h5.6V10c0,0.5,0.4,0.8,0.8,0.8
	c0.5,0,0.8-0.4,0.8-0.8V6.3h5.6V10c0,0.5,0.4,0.8,0.8,0.8s0.8-0.4,0.8-0.8V6.3h5.6V10c0,0.5,0.4,0.8,0.8,0.8s0.8-0.4,0.8-0.8V6.3
	h7.3c0.4,0,0.7,0.3,0.7,0.7v28.7H39c-1.3,0-2.3,1-2.3,2.3v9.4H2.3c-0.4,0-0.7-0.3-0.7-0.7v-15c0-0.5-0.4-0.8-0.8-0.8
	c-0.5,0-0.8,0.4-0.8,0.8v15c0,1.3,1,2.3,2.3,2.3h35.1c0.2,0,0.4-0.1,0.6-0.2L49.8,37c0.1-0.1,0.2-0.4,0.2-0.6L50,6.8z M38.3,46.1
	v-8.2c0-0.4,0.3-0.7,0.7-0.7h8.2L38.3,46.1z"/>
</svg>
