<svg xmlns="http://www.w3.org/2000/svg" viewBox="0 0 50 50"><defs><style>.cls-1{fill:#f27222;}.cls-2,.cls-4{fill:none;}.cls-2,.cls-3{stroke:#434343;}.cls-2,.cls-3,.cls-4{stroke-linecap:round;stroke-linejoin:round;}.cls-2{stroke-width:0.9px;}.cls-3{fill:#f27324;stroke-width:0.87px;}.cls-4{stroke:#f27324;stroke-width:1.2px;}</style></defs><title>Pictos Sooko</title><g id="Capa_1" data-name="Capa 1"><path class="cls-1" d="M38.1,32.3l-3.3-.8L23.8,11l1.3-3.2a1.1,1.1,0,0,1,1.9.1l12,22.9A1.1,1.1,0,0,1,38.1,32.3Z"/><path class="cls-2" d="M13,22.2H23.6a0,0,0,0,1,0,0V34a0,0,0,0,1,0,0H13a4.6,4.6,0,0,1-4.6-4.6V26.8A4.6,4.6,0,0,1,13,22.2Z" transform="translate(-11.2 10.6) rotate(-27.6)"/><path class="cls-2" d="M25.4,29.8l12.8,2.4a.9.9,0,0,0,.8-1.2L26.9,7.5a.9.9,0,0,0-1.5,0L20,19.4Z"/><path class="cls-3" d="M7.5,30h2a0,0,0,0,1,0,0v5a0,0,0,0,1,0,0h-2a2,2,0,0,1-2-2V32A2,2,0,0,1,7.5,30Z" transform="translate(-14.2 7.2) rotate(-27.6)"/><path class="cls-2" d="M31.1,15.6a4.1,4.1,0,0,1,3.8,7.2"/><path class="cls-4" d="M35,13.1a4.6,4.6,0,0,1,4,7.7"/><path class="cls-2" d="M33.7,8.4a9.8,9.8,0,0,1,8.5,16.3"/><path class="cls-2" d="M25.7,41.5l-2.5,1.3a1.2,1.2,0,0,1-1.5-.3l-6.2-7.6,4.6-2.4,5.9,7.2A1.2,1.2,0,0,1,25.7,41.5Z"/></g></svg>