<?xml version="1.0" encoding="utf-8"?>
<!-- Generator: Adobe Illustrator 22.0.0, SVG Export Plug-In . SVG Version: 6.00 Build 0)  -->
<svg version="1.1" id="Capa_1" xmlns="http://www.w3.org/2000/svg" xmlns:xlink="http://www.w3.org/1999/xlink" x="0px" y="0px"
	 viewBox="0 0 50 50" style="enable-background:new 0 0 50 50;" xml:space="preserve">
<style type="text/css">
	.st0{fill:#F27222;}
	.st1{fill:#434343;}
</style>
<path class="st0" d="M49.9,39.2H0.1v4.8c0,3.2,2.6,5.9,5.9,5.9h38.2c3.2,0,5.9-2.6,5.9-5.9V39.2z"/>
<g>
	<path class="st1" d="M12.5,43.8L12.5,43.8c-0.4,0-0.7,0.3-0.7,0.7s0.3,0.7,0.7,0.7c0.4,0,0.7-0.3,0.7-0.7S12.9,43.8,12.5,43.8z"/>
	<path class="st1" d="M15.6,43.8L15.6,43.8c-0.4,0-0.7,0.3-0.7,0.7s0.3,0.7,0.7,0.7c0.4,0,0.7-0.3,0.7-0.7S16,43.8,15.6,43.8z"/>
	<path class="st1" d="M49.9,5.5c0-3-2.4-5.4-5.4-5.4H5.5c-3,0-5.4,2.4-5.4,5.4v39.1c0,3,2.4,5.4,5.4,5.4h39.1c3,0,5.4-2.4,5.4-5.4
		V5.5z M48.5,44.5c0,2.2-1.8,4-4,4H5.5c-2.2,0-4-1.8-4-4V5.5c0-2.2,1.8-4,4-4h39.1c2.2,0,4,1.8,4,4V44.5z"/>
	<path class="st1" d="M43.8,5.5H6.2c-0.4,0-0.7,0.3-0.7,0.7V40c0,0.4,0.3,0.7,0.7,0.7h37.5c0.4,0,0.7-0.3,0.7-0.7V6.2
		C44.5,5.8,44.2,5.5,43.8,5.5z M43,8.8v3.4v1.5v3.2v1.5v6.1v14.7H7V24.5v-6.1v-1.5v-3.2v-1.5V8.8V7h36V8.8z"/>
	<path class="st1" d="M30.5,43.8H19.5c-0.4,0-0.7,0.3-0.7,0.7s0.3,0.7,0.7,0.7h10.9c0.4,0,0.7-0.3,0.7-0.7S30.9,43.8,30.5,43.8z"/>
	<path class="st1" d="M32,39.2v-8c0-0.4-0.3-0.7-0.7-0.7H18c-0.4,0-0.7,0.3-0.7,0.7v8h1.5V32h7.4v7.3h1.5V32h3v7.3H32z"/>
</g>
<path class="st0" d="M28.1,9.9h-6.2c-0.4,0-0.7,0.3-0.7,0.7V20c0,0.4,0.3,0.7,0.7,0.7h0.8v2.4c0,0.4,0.3,0.7,0.7,0.7h0.8v0.8
	c0,0.4,0.3,0.7,0.7,0.7s0.7-0.3,0.7-0.7v-0.8h0.8c0.4,0,0.7-0.3,0.7-0.7v-2.4h0.8c0.4,0,0.7-0.3,0.7-0.7v-9.4
	C28.9,10.2,28.5,9.9,28.1,9.9z M25.8,22.4h-1.7v-1.7h1.7V22.4z M27.4,19.2h-4.8v-7.9h4.8V19.2z"/>
<g>
	<rect x="28.2" y="12.2" class="st0" width="14.8" height="1.4"/>
</g>
<g>
	<rect x="28.2" y="16.9" class="st0" width="14.8" height="1.4"/>
</g>
<g>
	<rect x="7" y="12.2" class="st0" width="14.8" height="1.4"/>
</g>
<g>
	<rect x="7" y="16.9" class="st0" width="14.8" height="1.4"/>
</g>
</svg>
