<?xml version="1.0" encoding="utf-8"?>
<!-- Generator: Adobe Illustrator 22.0.0, SVG Export Plug-In . SVG Version: 6.00 Build 0)  -->
<svg version="1.1" id="Layer_1" xmlns="http://www.w3.org/2000/svg" xmlns:xlink="http://www.w3.org/1999/xlink" x="0px" y="0px"
	 viewBox="0 0 50 50" style="enable-background:new 0 0 50 50;" xml:space="preserve">
<style type="text/css">
	.st0{fill:none;stroke:#F27324;stroke-width:3.3;stroke-linecap:round;stroke-miterlimit:10;}
	.st1{fill:none;stroke:#434343;stroke-width:1.2;stroke-linecap:round;stroke-linejoin:round;stroke-miterlimit:10;}
	.st2{fill:none;stroke:#F27324;stroke-width:1.5;stroke-linecap:round;stroke-miterlimit:10;}
</style>
<g id="Capa_2">
</g>
<g>
	<line class="st0" x1="7.8" y1="6.8" x2="13.1" y2="15.7"/>
	<line class="st0" x1="29.5" y1="32.7" x2="38.4" y2="37.3"/>
	<path class="st1" d="M39.4,6.5h6.5c1.6,0,2.9,1.3,2.9,2.8v13.1c0,1.5-1.3,2.8-2.9,2.8H22.5c-1.6,0-2.9-1.3-2.9-2.8V9.3
		c0-1.5,1.3-2.8,2.9-2.8h12.9"/>
	<path class="st1" d="M15.2,33.4c0,0,11.7,9.8,14.1,10.5s5.7,0.4,6.6-0.7s3.2-3.6,3.8-4.5s0-3.4-1.9-4.3c-1.9-1-5.1-2.6-6-2.9
		c-1.7-0.6-3.5-0.1-4,1.3c-0.6,1.3-1.3,3.4-2.1,3c-0.9-0.4-7.5-5.3-9-7c-1.5-1.7-6.1-6.7-6.3-7.2c-0.2-0.5-0.5-2.7,0.5-3.2
		c1-0.5,2.9-0.6,3.3-1.9s-0.8-4.4-1.5-5.8c-1-1.8-1.8-3.2-3.3-4.5C8.9,5.7,7.1,5.3,5.7,6.6s-3.8,3.6-4.2,4.8s-0.4,4.3,0.9,6.5
		s9,11.5,10,12.5"/>
	<path class="st1" d="M47.3,7.4c0,0-10.2,8.6-11.3,9.6c-1,1-3.1,1.2-4.2,0c-1.2-1.2-11.2-9.5-11.2-9.5"/>
	<line class="st1" x1="20.8" y1="24.1" x2="30.4" y2="15.8"/>
	<line class="st1" x1="47.3" y1="24.5" x2="37.7" y2="16.2"/>
	<g>
		<line class="st2" x1="22.4" y1="12.6" x2="22.4" y2="15.8"/>
		<line class="st2" x1="22.3" y1="18.8" x2="22.3" y2="19.6"/>
	</g>
	<g>
		<line class="st2" x1="46" y1="19.6" x2="46" y2="16.4"/>
		<line class="st2" x1="46.1" y1="13.5" x2="46.1" y2="12.6"/>
	</g>
</g>
</svg>
