<?xml version="1.0" encoding="utf-8"?>
<!-- Generator: Adobe Illustrator 22.0.0, SVG Export Plug-In . SVG Version: 6.00 Build 0)  -->
<svg version="1.1" id="Layer_2" xmlns="http://www.w3.org/2000/svg" xmlns:xlink="http://www.w3.org/1999/xlink" x="0px" y="0px"
	 viewBox="0 0 50 50" style="enable-background:new 0 0 50 50;" xml:space="preserve">
<style type="text/css">
	.st0{fill:none;stroke:#F27323;stroke-width:2.1;stroke-miterlimit:10;}
	.st1{fill:none;stroke:#434343;stroke-width:1.5;stroke-linecap:round;stroke-linejoin:round;stroke-miterlimit:10;}
	.st2{fill:#434343;stroke:#434343;stroke-width:0.5;stroke-linejoin:round;stroke-miterlimit:10;}
</style>
<line class="st0" x1="8.2" y1="28" x2="40.7" y2="18.4"/>
<polyline class="st1" points="15.3,23.8 15.3,6.6 8.9,9.8 8.9,25.9 "/>
<polyline class="st1" points="21.5,22.1 21.5,6.7 15.5,9.7 "/>
<polyline class="st1" points="27.6,20.4 27.6,6.7 21.7,9.6 "/>
<polyline class="st1" points="7.7,43.5 7.7,26.3 41.1,16.5 41.1,43.3 "/>
<line class="st1" x1="7.8" y1="30" x2="41" y2="20.2"/>
<line class="st1" x1="5.8" y1="43.5" x2="43.1" y2="43.5"/>
<polyline class="st1" points="28.8,43.5 28.8,30 37.3,30 37.3,43.5 "/>
<rect x="11.3" y="34.9" class="st1" width="5.1" height="5.1"/>
<rect x="20.1" y="34.9" class="st1" width="5.1" height="5.1"/>
<g>
	<rect x="11.7" y="16.5" class="st2" width="1.1" height="1.1"/>
	<rect x="11.7" y="12.4" class="st2" width="1.1" height="1.1"/>
	<rect x="11.7" y="20.9" class="st2" width="1.1" height="1.1"/>
	<rect x="17.9" y="15.3" class="st2" width="1.1" height="1.1"/>
	<rect x="17.9" y="11.4" class="st2" width="1.1" height="1.1"/>
	<rect x="17.9" y="19.7" class="st2" width="1.1" height="1.1"/>
	<rect x="24.1" y="14.2" class="st2" width="1.1" height="1.1"/>
	<rect x="24.1" y="10.4" class="st2" width="1.1" height="1.1"/>
	<rect x="24.1" y="18" class="st2" width="1.1" height="1.1"/>
</g>
</svg>
