<?xml version="1.0" encoding="UTF-8" standalone="no"?>
<!-- Generator: Adobe Illustrator 22.0.0, SVG Export Plug-In . SVG Version: 6.00 Build 0)  -->

<svg
   xmlns:dc="http://purl.org/dc/elements/1.1/"
   xmlns:cc="http://creativecommons.org/ns#"
   xmlns:rdf="http://www.w3.org/1999/02/22-rdf-syntax-ns#"
   xmlns:svg="http://www.w3.org/2000/svg"
   xmlns="http://www.w3.org/2000/svg"
   xmlns:sodipodi="http://sodipodi.sourceforge.net/DTD/sodipodi-0.dtd"
   xmlns:inkscape="http://www.inkscape.org/namespaces/inkscape"
   version="1.1"
   x="0px"
   y="0px"
   viewBox="0 0 50 50"
   style="enable-background:new 0 0 50 50;"
   xml:space="preserve"
   id="svg5156"
   sodipodi:docname="sokotech_icons_events_04.svg"
   inkscape:version="0.92.1 r15371"><metadata
     id="metadata5162"><rdf:RDF><cc:Work
         rdf:about=""><dc:format>image/svg+xml</dc:format><dc:type
           rdf:resource="http://purl.org/dc/dcmitype/StillImage" /></cc:Work></rdf:RDF></metadata><defs
     id="defs5160" /><sodipodi:namedview
     pagecolor="#ffffff"
     bordercolor="#666666"
     borderopacity="1"
     objecttolerance="10"
     gridtolerance="10"
     guidetolerance="10"
     inkscape:pageopacity="0"
     inkscape:pageshadow="2"
     inkscape:window-width="780"
     inkscape:window-height="480"
     id="namedview5158"
     showgrid="false"
     inkscape:zoom="5.8797882"
     inkscape:cx="25.06875"
     inkscape:cy="25"
     inkscape:window-x="57"
     inkscape:window-y="21"
     inkscape:window-maximized="0"
     inkscape:current-layer="svg5156" /><style
     type="text/css"
     id="style5080">
	.st0{display:none;}
	.st1{display:inline;fill:none;stroke:#F27323;stroke-width:2.1;stroke-miterlimit:10;}
	.st2{display:inline;fill:none;stroke:#434343;stroke-width:1.5;stroke-linecap:round;stroke-linejoin:round;stroke-miterlimit:10;}
	.st3{display:inline;}
	.st4{fill:#434343;stroke:#434343;stroke-width:0.5;stroke-linejoin:round;stroke-miterlimit:10;}
	.st5{fill:#F27323;}
	.st6{fill:#434343;}
</style><g
     id="Layer_2"
     class="st0"><line
       class="st1"
       x1="8.2"
       y1="28"
       x2="40.7"
       y2="18.4"
       id="line5082" /><polyline
       class="st2"
       points="15.3,23.8 15.3,6.6 8.9,9.8 8.9,25.9  "
       id="polyline5084" /><polyline
       class="st2"
       points="21.5,22.1 21.5,6.7 15.5,9.7  "
       id="polyline5086" /><polyline
       class="st2"
       points="27.6,20.4 27.6,6.7 21.7,9.6  "
       id="polyline5088" /><polyline
       class="st2"
       points="7.7,43.5 7.7,26.3 41.1,16.5 41.1,43.3  "
       id="polyline5090" /><line
       class="st2"
       x1="7.8"
       y1="30"
       x2="41"
       y2="20.2"
       id="line5092" /><line
       class="st2"
       x1="5.8"
       y1="43.5"
       x2="43.1"
       y2="43.5"
       id="line5094" /><polyline
       class="st2"
       points="28.8,43.5 28.8,30 37.3,30 37.3,43.5  "
       id="polyline5096" /><rect
       x="11.3"
       y="34.9"
       class="st2"
       width="5.1"
       height="5.1"
       id="rect5098" /><rect
       x="20.1"
       y="34.9"
       class="st2"
       width="5.1"
       height="5.1"
       id="rect5100" /><g
       class="st3"
       id="g5120"><rect
         x="11.7"
         y="16.5"
         class="st4"
         width="1.1"
         height="1.1"
         id="rect5102" /><rect
         x="11.7"
         y="12.4"
         class="st4"
         width="1.1"
         height="1.1"
         id="rect5104" /><rect
         x="11.7"
         y="20.9"
         class="st4"
         width="1.1"
         height="1.1"
         id="rect5106" /><rect
         x="17.9"
         y="15.3"
         class="st4"
         width="1.1"
         height="1.1"
         id="rect5108" /><rect
         x="17.9"
         y="11.4"
         class="st4"
         width="1.1"
         height="1.1"
         id="rect5110" /><rect
         x="17.9"
         y="19.7"
         class="st4"
         width="1.1"
         height="1.1"
         id="rect5112" /><rect
         x="24.1"
         y="14.2"
         class="st4"
         width="1.1"
         height="1.1"
         id="rect5114" /><rect
         x="24.1"
         y="10.4"
         class="st4"
         width="1.1"
         height="1.1"
         id="rect5116" /><rect
         x="24.1"
         y="18"
         class="st4"
         width="1.1"
         height="1.1"
         id="rect5118" /></g></g><g
     id="Layer_3"
     transform="translate(0,-4)"><g
       id="g5153"><path
         class="st5"
         d="m 37.4,21.7 c -0.4,0 -0.8,-0.3 -0.8,-0.8 0,-0.7 -0.6,-1.3 -1.3,-1.3 -0.7,0 -1.3,0.6 -1.3,1.3 0,0.4 -0.3,0.8 -0.8,0.8 -0.5,0 -0.8,-0.3 -0.8,-0.8 0,-1.6 1.3,-2.8 2.8,-2.8 1.5,0 2.8,1.3 2.8,2.8 0.1,0.5 -0.2,0.8 -0.6,0.8 z"
         id="path5123"
         inkscape:connector-curvature="0"
         style="fill:#f27323" /><path
         class="st5"
         d="m 27.1,21.7 c -0.4,0 -0.8,-0.3 -0.8,-0.8 0,-0.7 -0.6,-1.3 -1.3,-1.3 -0.7,0 -1.3,0.6 -1.3,1.3 0,0.4 -0.3,0.8 -0.8,0.8 -0.5,0 -0.8,-0.3 -0.8,-0.8 0,-1.6 1.3,-2.8 2.8,-2.8 1.5,0 2.8,1.3 2.8,2.8 0.1,0.5 -0.2,0.8 -0.6,0.8 z"
         id="path5125"
         inkscape:connector-curvature="0"
         style="fill:#f27323" /><path
         class="st5"
         d="m 16.6,21.7 c -0.4,0 -0.8,-0.3 -0.8,-0.8 0,-0.7 -0.6,-1.3 -1.3,-1.3 -0.7,0 -1.3,0.6 -1.3,1.3 0,0.4 -0.3,0.8 -0.8,0.8 -0.5,0 -0.8,-0.3 -0.8,-0.8 0,-1.6 1.3,-2.8 2.8,-2.8 1.5,0 2.8,1.3 2.8,2.8 0.1,0.5 -0.2,0.8 -0.6,0.8 z"
         id="path5127"
         inkscape:connector-curvature="0"
         style="fill:#f27323" /><path
         class="st5"
         d="m 27,10.4 c -0.4,0 -0.8,-0.3 -0.8,-0.8 0,-0.7 -0.6,-1.3 -1.3,-1.3 -0.7,0 -1.3,0.6 -1.3,1.3 0,0.4 -0.3,0.8 -0.8,0.8 -0.5,0 -0.8,-0.3 -0.8,-0.8 0,-1.6 1.3,-2.8 2.8,-2.8 1.6,0 2.8,1.3 2.8,2.8 0.2,0.4 -0.1,0.8 -0.6,0.8 z"
         id="path5129"
         inkscape:connector-curvature="0"
         style="fill:#f27323" /><path
         class="st6"
         d="m 32.5,15.5 c -0.4,0 -0.8,-0.3 -0.8,-0.8 0,-0.7 -0.6,-1.3 -1.3,-1.3 -0.7,0 -1.3,0.6 -1.3,1.3 0,0.4 -0.3,0.8 -0.8,0.8 -0.5,0 -0.8,-0.3 -0.8,-0.8 0,-1.6 1.3,-2.8 2.8,-2.8 1.5,0 2.8,1.3 2.8,2.8 0.1,0.5 -0.2,0.8 -0.6,0.8 z"
         id="path5131"
         inkscape:connector-curvature="0"
         style="fill:#434343" /><path
         class="st6"
         d="m 22,15.5 c -0.4,0 -0.8,-0.3 -0.8,-0.8 0,-0.7 -0.6,-1.3 -1.3,-1.3 -0.7,0 -1.3,0.6 -1.3,1.3 0,0.4 -0.3,0.8 -0.8,0.8 -0.5,0 -0.8,-0.3 -0.8,-0.8 0,-1.6 1.3,-2.8 2.8,-2.8 1.6,0 2.8,1.3 2.8,2.8 0.1,0.5 -0.2,0.8 -0.6,0.8 z"
         id="path5133"
         inkscape:connector-curvature="0"
         style="fill:#434343" /><g
         id="g5151"><path
           class="st6"
           d="m 19.5,29.3 c -1.6,0 -2.8,-1.3 -2.8,-2.8 0,-1.6 1.3,-2.8 2.8,-2.8 1.5,0 2.8,1.3 2.8,2.8 0.1,1.5 -1.2,2.8 -2.8,2.8 z m 0,-4.2 c -0.7,0 -1.3,0.6 -1.3,1.3 0,0.7 0.6,1.3 1.3,1.3 0.7,0 1.3,-0.6 1.3,-1.3 0.1,-0.7 -0.5,-1.3 -1.3,-1.3 z"
           id="path5135"
           inkscape:connector-curvature="0"
           style="fill:#434343" /><path
           class="st6"
           d="m 30.1,29.3 c -1.6,0 -2.8,-1.3 -2.8,-2.8 0,-1.6 1.3,-2.8 2.8,-2.8 1.5,0 2.8,1.3 2.8,2.8 0.1,1.5 -1.2,2.8 -2.8,2.8 z m 0,-4.2 c -0.7,0 -1.3,0.6 -1.3,1.3 0,0.7 0.6,1.3 1.3,1.3 0.7,0 1.3,-0.6 1.3,-1.3 0.1,-0.7 -0.5,-1.3 -1.3,-1.3 z"
           id="path5137"
           inkscape:connector-curvature="0"
           style="fill:#434343" /><path
           class="st6"
           d="m 40.7,29.3 c -1.6,0 -2.8,-1.3 -2.8,-2.8 0,-1.6 1.3,-2.8 2.8,-2.8 1.5,0 2.8,1.3 2.8,2.8 0,1.5 -1.3,2.8 -2.8,2.8 z m 0,-4.2 c -0.7,0 -1.3,0.6 -1.3,1.3 0,0.7 0.6,1.3 1.3,1.3 0.7,0 1.3,-0.6 1.3,-1.3 0,-0.7 -0.6,-1.3 -1.3,-1.3 z"
           id="path5139"
           inkscape:connector-curvature="0"
           style="fill:#434343" /><path
           class="st6"
           d="m 8.9,29.3 c -1.6,0 -2.8,-1.3 -2.8,-2.8 0,-1.6 1.3,-2.8 2.8,-2.8 1.6,0 2.8,1.3 2.8,2.8 0,1.5 -1.2,2.8 -2.8,2.8 z m 0,-4.2 c -0.7,0 -1.3,0.6 -1.3,1.3 0,0.7 0.6,1.3 1.3,1.3 0.7,0 1.3,-0.6 1.3,-1.3 0,-0.7 -0.5,-1.3 -1.3,-1.3 z"
           id="path5141"
           inkscape:connector-curvature="0"
           style="fill:#434343" /><path
           class="st6"
           d="M 9.9,43.1 H 7.8 C 7,43.1 6.3,42.5 6.3,41.6 v -3.4 c 0,-0.1 0,-0.1 0,-0.2 C 5.7,38 5,37.4 5,36.4 V 31.8 C 5,30.9 5.7,30 6.9,30 H 11 c 1.1,0 1.8,0.7 1.8,1.7 v 4.6 c 0,0 0,0 0,0 0,0.9 -0.6,1.6 -1.3,1.7 0,0 0,0 0,0 v 3.4 c 0,1.1 -0.7,1.7 -1.6,1.7 z M 6.7,36.6 c 0.4,0 0.7,0.2 0.8,0.3 0.4,0.4 0.4,0.9 0.4,1.3 v 3.4 h 2 v -3.4 c 0,-0.1 0,-0.8 0.4,-1.2 0.2,-0.2 0.5,-0.4 0.8,-0.4 0.1,0 0.2,0 0.2,-0.3 v -4.6 c 0,-0.1 0,-0.2 -0.3,-0.2 H 6.9 c -0.3,0 -0.4,0.1 -0.4,0.2 v 4.6 c 0,0.2 0.1,0.3 0.2,0.3 -0.1,0 -0.1,0 0,0 z m -0.1,1.5 z"
           id="path5143"
           inkscape:connector-curvature="0"
           style="fill:#434343" /><path
           class="st6"
           d="m 20.5,43.2 h -1.8 c -0.7,0 -1.4,-0.6 -1.5,-1.4 0,-0.2 -0.1,-1.1 -0.2,-1.8 0,-0.4 -0.1,-0.7 -0.1,-0.8 0,0 0,-0.1 0,-0.1 0,0 -0.1,0 -0.1,0 -0.5,0 -0.9,-0.2 -1.2,-0.6 -0.4,-0.4 -0.5,-1.1 -0.3,-1.8 0.1,-0.5 0.7,-2.8 1.1,-4.2 l 0.3,-1.1 C 17,30.2 17.8,30 18.3,30 h 2.5 c 0.8,0 1.5,0.5 1.7,1.3 0,0 1.1,3.6 1.3,5.4 0,0.1 0.1,0.1 0.1,0.2 v 0 0 c 0.1,0.6 0,1.2 -0.3,1.6 -0.3,0.4 -0.8,0.6 -1.3,0.6 0,0 0,0 -0.1,0 0,0.3 -0.3,2.4 -0.3,2.7 -0.2,0.9 -0.7,1.4 -1.4,1.4 z M 18.1,31.6 c 0,0 -0.1,0.1 -0.1,0.3 L 17.7,33 c -0.4,1.4 -1,3.7 -1.1,4.2 -0.1,0.3 0,0.5 0,0.5 0.7,0 1.6,0.2 1.7,1.4 0,0.1 0,0.4 0.1,0.9 0.1,0.7 0.2,1.5 0.2,1.7 0,0 0.1,0.1 0.1,0.1 h 1.5 c 0,0 0,-0.1 0,-0.1 0,-0.3 0.3,-2.4 0.3,-2.6 0,-0.4 0.1,-1.4 1.6,-1.4 0.1,0 0.1,0 0.1,0 0,0 0.1,-0.2 0,-0.3 0,0 0,0 0,-0.1 -0.1,-0.6 -0.9,-4.2 -1.3,-5.4 0,-0.1 -0.1,-0.2 -0.3,-0.2 l -2.5,-0.1 c 0,0 0,0 0,0 z m 2.4,10.1 c 0,0 0,0 0,0 z"
           id="path5145"
           inkscape:connector-curvature="0"
           style="fill:#434343" /><path
           class="st6"
           d="M 31.1,43.1 H 29 c -0.8,0 -1.5,-0.6 -1.5,-1.5 v -3.4 c 0,-0.1 0,-0.1 0,-0.2 -0.6,-0.1 -1.4,-0.7 -1.4,-1.7 V 31.7 C 26.1,30.8 26.8,30 28,30 h 4.1 c 1.1,0 1.8,0.7 1.8,1.7 v 4.6 c 0,0 0,0 0,0 0,0.9 -0.6,1.6 -1.3,1.7 0,0 0,0 0,0 v 3.4 c 0,1.1 -0.6,1.7 -1.5,1.7 z m -3.3,-6.5 c 0.4,0 0.7,0.2 0.8,0.3 0.4,0.4 0.4,0.9 0.4,1.3 v 3.4 h 2 v -3.4 c 0,-0.1 0,-0.8 0.4,-1.2 0.2,-0.2 0.5,-0.4 0.8,-0.4 0.1,0 0.2,0 0.2,-0.3 v -4.6 c 0,-0.1 0,-0.2 -0.3,-0.2 H 28 c -0.3,0 -0.4,0.1 -0.4,0.2 v 4.6 c 0.1,0.2 0.1,0.3 0.2,0.3 0,0 0,0 0,0 z m 0,1.5 z"
           id="path5147"
           inkscape:connector-curvature="0"
           style="fill:#434343" /><path
           class="st6"
           d="m 41.7,43.2 h -1.8 c -0.7,0 -1.4,-0.6 -1.5,-1.4 0,-0.2 -0.1,-1.1 -0.2,-1.7 0,-0.4 -0.1,-0.8 -0.1,-0.8 0,0 0,-0.1 0,-0.1 0,0 -0.1,0 -0.1,0 -0.5,0 -0.9,-0.2 -1.2,-0.6 -0.4,-0.4 -0.5,-1.1 -0.3,-1.8 0.1,-0.5 0.7,-2.8 1.1,-4.2 l 0.3,-1 c 0.3,-1.2 1.1,-1.4 1.6,-1.4 H 42 c 0.8,0 1.5,0.5 1.7,1.3 0,0 1.1,3.6 1.3,5.4 0,0.1 0.1,0.1 0.1,0.2 v 0 0 c 0.1,0.6 0,1.2 -0.3,1.6 -0.3,0.4 -0.8,0.6 -1.3,0.6 0,0 0,0 -0.1,0 0,0.3 -0.3,2.4 -0.3,2.7 -0.3,0.7 -0.8,1.2 -1.4,1.2 z M 39.3,31.6 c 0,0 -0.1,0.1 -0.1,0.3 L 38.9,33 c -0.4,1.4 -1,3.7 -1.1,4.2 -0.1,0.3 0,0.5 0,0.5 0.7,0 1.6,0.2 1.7,1.4 0,0.1 0.1,0.5 0.1,0.9 0.1,0.6 0.1,1.5 0.2,1.7 0,0 0,0.1 0.1,0.1 h 1.5 c 0,0 0,-0.1 0,-0.1 0,-0.3 0.3,-2.4 0.3,-2.6 0,-0.4 0.1,-1.4 1.6,-1.4 0.1,0 0.1,0 0.1,0 0,0 0.1,-0.2 0,-0.3 v 0 c 0,0 0,0 0,-0.1 -0.1,-0.6 -0.9,-4.2 -1.3,-5.4 0,-0.1 -0.1,-0.2 -0.3,-0.2 l -2.5,-0.1 c 0,0 0,0 0,0 z m 2.4,10.1 c 0,0 0,0 0,0 z"
           id="path5149"
           inkscape:connector-curvature="0"
           style="fill:#434343" /></g></g></g></svg>