<svg xmlns="http://www.w3.org/2000/svg" viewBox="0 0 50 50"><defs><style>.cls-1{fill:none;}.cls-1,.cls-2{stroke:#434343;stroke-linecap:round;stroke-linejoin:round;stroke-width:0.87px;}.cls-2,.cls-5{fill:#f27324;}.cls-3{fill:#434343;}.cls-4{fill:#fff;}</style></defs><title>Pictos Sooko</title><g id="Capa_1" data-name="Capa 1"><circle class="cls-1" cx="25" cy="19.7" r="3.1"/><path class="cls-2" d="M20.9,32.3l-.8-3.4a5.2,5.2,0,0,1,.4-3.5A9.1,9.1,0,0,1,22.6,24l.3.2a3.6,3.6,0,0,0,4.2,0l.2-.2a10.1,10.1,0,0,1,2.1,1.5,4.9,4.9,0,0,1,.4,3.4l-.8,3.4a1,1,0,0,1-.9.7H21.9A1,1,0,0,1,20.9,32.3Z"/><path class="cls-1" d="M27,17.4a3.1,3.1,0,1,1,0,4.7"/><path class="cls-1" d="M28.7,24.8a3.6,3.6,0,0,0,2.5-.7l.2-.2a10.1,10.1,0,0,1,2.1,1.5,4.9,4.9,0,0,1,.4,3.4L33,32.3a1,1,0,0,1-.9.7H27.6"/><path class="cls-1" d="M22.7,17.4a3.1,3.1,0,1,0,0,4.7"/><path class="cls-1" d="M21.1,24.8a3.6,3.6,0,0,1-2.5-.7l-.2-.2a10.1,10.1,0,0,0-2.1,1.5,4.9,4.9,0,0,0-.4,3.4l.8,3.4a1,1,0,0,0,.9.7h4.5"/><circle class="cls-1" cx="25" cy="25" r="17.3"/><circle class="cls-3" cx="37.2" cy="12.8" r="2.9"/><path class="cls-4" d="M37.2,10.4a2.4,2.4,0,1,1-2.4,2.4,2.4,2.4,0,0,1,2.4-2.4m0-1a3.4,3.4,0,1,0,3.4,3.4,3.4,3.4,0,0,0-3.4-3.4Z"/><circle class="cls-4" cx="37.2" cy="12.8" r="1.5"/><circle class="cls-3" cx="24.9" cy="7.7" r="2.9"/><path class="cls-4" d="M24.9,5.3a2.4,2.4,0,1,1-2.4,2.4,2.4,2.4,0,0,1,2.4-2.4m0-1a3.4,3.4,0,1,0,3.4,3.4,3.4,3.4,0,0,0-3.4-3.4Z"/><circle class="cls-5" cx="24.9" cy="7.7" r="1.5"/><circle class="cls-3" cx="42.3" cy="25" r="2.9"/><path class="cls-4" d="M42.3,22.6A2.4,2.4,0,1,1,39.9,25a2.4,2.4,0,0,1,2.4-2.4m0-1A3.4,3.4,0,1,0,45.6,25a3.4,3.4,0,0,0-3.4-3.4Z"/><circle class="cls-4" cx="42.3" cy="25" r="1.5"/><circle class="cls-3" cx="37.2" cy="37.2" r="2.9"/><path class="cls-4" d="M37.2,34.8a2.4,2.4,0,1,1-2.4,2.4,2.4,2.4,0,0,1,2.4-2.4m0-1a3.4,3.4,0,1,0,3.4,3.4,3.4,3.4,0,0,0-3.4-3.4Z"/><circle class="cls-4" cx="37.2" cy="37.2" r="1.5"/><circle class="cls-3" cx="25" cy="42.3" r="2.9"/><path class="cls-4" d="M25,39.9a2.4,2.4,0,1,1-2.4,2.4A2.4,2.4,0,0,1,25,39.9m0-1a3.4,3.4,0,1,0,3.4,3.4A3.4,3.4,0,0,0,25,38.9Z"/><circle class="cls-5" cx="25" cy="42.3" r="1.5"/><circle class="cls-3" cx="12.8" cy="37.2" r="2.9"/><path class="cls-4" d="M12.8,34.8a2.4,2.4,0,1,1-2.4,2.4,2.4,2.4,0,0,1,2.4-2.4m0-1a3.4,3.4,0,1,0,3.4,3.4,3.4,3.4,0,0,0-3.4-3.4Z"/><circle class="cls-5" cx="12.8" cy="37.2" r="1.5"/><circle class="cls-3" cx="7.7" cy="25" r="2.9"/><path class="cls-4" d="M7.7,22.6A2.4,2.4,0,1,1,5.3,25a2.4,2.4,0,0,1,2.4-2.4m0-1A3.4,3.4,0,1,0,11.1,25a3.4,3.4,0,0,0-3.4-3.4Z"/><circle class="cls-4" cx="7.7" cy="25" r="1.5"/><circle class="cls-3" cx="12.8" cy="12.8" r="2.9"/><path class="cls-4" d="M12.8,10.4a2.4,2.4,0,1,1-2.4,2.4,2.4,2.4,0,0,1,2.4-2.4m0-1a3.4,3.4,0,1,0,3.4,3.4,3.4,3.4,0,0,0-3.4-3.4Z"/><circle class="cls-4" cx="12.8" cy="12.8" r="1.5"/><circle class="cls-2" cx="42.3" cy="25" r="1.9"/></g></svg>