<svg xmlns="http://www.w3.org/2000/svg" viewBox="0 0 50 50"><defs><style>.cls-1{fill:none;}.cls-1,.cls-2,.cls-3{stroke:#434343;stroke-linecap:round;stroke-linejoin:round;stroke-width:0.87px;}.cls-2{fill:#fff;}.cls-3{fill:#f27324;}</style></defs><title>Pictos Sooko</title><g id="Capa_1" data-name="Capa 1"><circle class="cls-1" cx="24.9" cy="7" r="2.1"/><path class="cls-2" d="M22.2,15.6l-.6-2.3a3.5,3.5,0,0,1,.3-2.4,6.2,6.2,0,0,1,1.4-.9h.2a2.4,2.4,0,0,0,2.9,0h.1A7,7,0,0,1,28,11a3.4,3.4,0,0,1,.3,2.3l-.6,2.3a.7.7,0,0,1-.6.5H22.8A.7.7,0,0,1,22.2,15.6Z"/><circle class="cls-1" cx="38.8" cy="22" r="2.1"/><path class="cls-2" d="M36,30.6l-.6-2.3a3.5,3.5,0,0,1,.3-2.4,6.2,6.2,0,0,1,1.4-.9h.2a2.4,2.4,0,0,0,2.9,0h.1a7,7,0,0,1,1.4,1,3.4,3.4,0,0,1,.3,2.3l-.6,2.3a.7.7,0,0,1-.6.5H36.6A.7.7,0,0,1,36,30.6Z"/><circle class="cls-1" cx="11.3" cy="22" r="2.1"/><path class="cls-2" d="M8.5,30.6l-.6-2.3a3.5,3.5,0,0,1,.3-2.4,6.2,6.2,0,0,1,1.4-.9h.2a2.4,2.4,0,0,0,2.9,0h.1a7,7,0,0,1,1.4,1,3.4,3.4,0,0,1,.3,2.3L14,30.6a.7.7,0,0,1-.6.5H9.1A.7.7,0,0,1,8.5,30.6Z"/><circle class="cls-1" cx="24.9" cy="36" r="2.1"/><path class="cls-2" d="M22.2,44.6l-.6-2.3a3.5,3.5,0,0,1,.3-2.4,6.2,6.2,0,0,1,1.4-.9h.2a2.4,2.4,0,0,0,2.9,0h.1A7,7,0,0,1,28,40a3.4,3.4,0,0,1,.3,2.3l-.6,2.3a.7.7,0,0,1-.6.5H22.8A.7.7,0,0,1,22.2,44.6Z"/><path class="cls-1" d="M19.5,40a14.1,14.1,0,0,1-7.6-7.8"/><path class="cls-1" d="M37.7,32.9a14.1,14.1,0,0,1-7.6,7.2"/><path class="cls-1" d="M29.6,13.8A14.1,14.1,0,0,1,36.5,19"/><path class="cls-1" d="M13.4,19.1a14.1,14.1,0,0,1,6.9-5.3"/><path class="cls-3" d="M29.2,24.1H27.9l-.7-.7h0V22.3h0l-.9-.4h-.1l-.7.9H24.4l-.7-.9h-.1l-.9.4h0v1.2h0l-.7.7H20.7l-.4.9h0l.9.7h0a3.6,3.6,0,0,0,0,1h0l-.9.7h0l.4.9h1.3l.7.7h0v1.2h0l.9.4h.1l.7-.9h1.1l.7.9h.1l.9-.4h0V29.5h0l.7-.7h1.3l.4-.9h0l-.9-.7h0a3.6,3.6,0,0,0,0-1h0l.9-.7h0l-.4-.9Zm-2.4,2.1a1.8,1.8,0,1,1-2.1-1.5h0a1.8,1.8,0,0,1,2.1,1.5Z"/></g></svg>