<?xml version="1.0" encoding="UTF-8" standalone="no"?>
<!-- Generator: Adobe Illustrator 22.0.0, SVG Export Plug-In . SVG Version: 6.00 Build 0)  -->

<svg
   xmlns:dc="http://purl.org/dc/elements/1.1/"
   xmlns:cc="http://creativecommons.org/ns#"
   xmlns:rdf="http://www.w3.org/1999/02/22-rdf-syntax-ns#"
   xmlns:svg="http://www.w3.org/2000/svg"
   xmlns="http://www.w3.org/2000/svg"
   xmlns:sodipodi="http://sodipodi.sourceforge.net/DTD/sodipodi-0.dtd"
   xmlns:inkscape="http://www.inkscape.org/namespaces/inkscape"
   version="1.1"
   id="Layer_4"
   x="0px"
   y="0px"
   viewBox="0 0 50 50"
   style="enable-background:new 0 0 50 50;"
   xml:space="preserve"
   sodipodi:docname="sokotech_icons_edu_02.svg"
   inkscape:version="0.92.1 r15371"><metadata
     id="metadata4512"><rdf:RDF><cc:Work
         rdf:about=""><dc:format>image/svg+xml</dc:format><dc:type
           rdf:resource="http://purl.org/dc/dcmitype/StillImage" /></cc:Work></rdf:RDF></metadata><defs
     id="defs4510" /><sodipodi:namedview
     pagecolor="#ffffff"
     bordercolor="#666666"
     borderopacity="1"
     objecttolerance="10"
     gridtolerance="10"
     guidetolerance="10"
     inkscape:pageopacity="0"
     inkscape:pageshadow="2"
     inkscape:window-width="1223"
     inkscape:window-height="779"
     id="namedview4508"
     showgrid="false"
     inkscape:zoom="12.16"
     inkscape:cx="25"
     inkscape:cy="25"
     inkscape:window-x="57"
     inkscape:window-y="21"
     inkscape:window-maximized="1"
     inkscape:current-layer="Layer_4" /><style
     type="text/css"
     id="style4485">
	.st0{fill:none;stroke:#F27323;stroke-width:1.5;stroke-miterlimit:10;}
	.st1{fill:#434343;}
	.st2{fill:#F27323;}
</style><line
     class="st0"
     x1="42.900002"
     y1="12.5"
     x2="42.900002"
     y2="24.799999"
     id="line4487"
     style="fill:none;stroke:#f27323;stroke-width:1.5;stroke-miterlimit:10" /><g
     id="g4491"
     transform="translate(0,-6)"><path
       class="st1"
       d="m 25,42.2 c -1.2,0 -2.2,-0.4 -2.9,-1.1 -0.6,-0.7 -0.9,-1.5 -1,-2.1 H 5.7 C 5.3,39 4.9,38.7 4.9,38.2 V 12.9 c 0,-0.4 0.3,-0.8 0.8,-0.8 h 2.6 c 0.4,0 0.8,0.3 0.8,0.8 0,0.5 -0.3,0.8 -0.8,0.8 H 6.4 v 23.9 h 15.4 c 0.2,0 0.4,0.1 0.5,0.2 0.1,0.1 0.2,0.4 0.2,0.6 0,0 0,1.1 0.6,1.8 0.4,0.4 1,0.6 1.8,0.6 0.9,0 1.6,-0.2 2,-0.7 0.6,-0.7 0.5,-1.6 0.5,-1.7 0,-0.2 0,-0.4 0.2,-0.6 0.1,-0.2 0.3,-0.3 0.6,-0.3 H 43.5 V 13.6 h -2 c -0.4,0 -0.8,-0.3 -0.8,-0.8 0,-0.5 0.3,-0.8 0.8,-0.8 h 2.7 c 0.4,0 0.8,0.3 0.8,0.8 V 38.2 C 45,38.6 44.7,39 44.2,39 H 29 c -0.1,0.6 -0.3,1.3 -0.8,2 -0.7,0.8 -1.8,1.2 -3.2,1.2 z"
       id="path4489"
       inkscape:connector-curvature="0"
       style="fill:#434343" /></g><path
     class="st1"
     d="M 42,4.1 C 41.9,4 38.7,1.8 34,1.8 c -4.4,0 -7.7,1.4 -9,2 -1.1,-0.5 -4.7,-2 -8.8,-2 C 11.3,1.8 8,3.9 7.9,4 7.7,4.1 7.6,4.4 7.6,4.6 v 25.6 c 0,0.3 0.1,0.5 0.4,0.6 0,0.2 0.2,0.2 0.3,0.2 0.1,0 0.2,0 0.3,-0.1 0,0 4,-2 7.1,-2 3.9,0 7.5,1.4 8.9,2 0,0 0,0 0,0 0,0 0,0 0.1,0 0.1,0 0.1,0 0.2,0 0,0 0,0 0,0 0,0 0.1,0 0.1,0 0.1,0 0.1,0 0.2,0 0.3,-0.1 0.7,-0.3 1.1,-0.4 1.8,-0.7 4.4,-1.7 7,-1.7 3.2,0 6.9,1.2 7.9,1.8 0.2,0.1 0.5,0.2 0.8,0 0.2,-0.1 0.4,-0.4 0.4,-0.7 V 4.7 C 42.3,4.5 42.2,4.2 42,4.1 Z m -32.9,25 v -24 c 0.9,-0.5 3.5,-1.8 7.1,-1.8 3.6,0 6.9,1.3 8,1.8 v 24 c -1.8,-0.7 -5,-1.7 -8.5,-1.7 -2.4,0.1 -5.2,1.1 -6.6,1.7 z m 31.7,-0.2 c -1.8,-0.7 -4.9,-1.5 -7.5,-1.5 -2.9,0 -5.6,1 -7.6,1.8 0,0 0,0 -0.1,0 v -24 c 1.2,-0.6 4.2,-1.8 8.3,-1.8 3.4,0 6,1.3 6.8,1.8 v 23.7 z"
     id="path4493"
     inkscape:connector-curvature="0"
     style="fill:#434343" /><g
     id="g4501"
     transform="translate(0,-6)"><path
       class="st1"
       d="M 33.3,19.6 30,17.2 c -0.2,-0.1 -0.4,-0.1 -0.5,0 -0.2,0.1 -0.3,0.3 -0.3,0.4 V 20 c 0,0.1 0.1,0.3 0.1,0.4 0.1,0.1 0.2,0.1 0.4,0.1 0,0 0,0 0,0 h 3.2 c 0.2,0 0.4,-0.1 0.5,-0.3 0.1,-0.3 0,-0.5 -0.1,-0.6 z m -3.1,-0.1 v -0.9 l 1.2,0.9 z"
       id="path4495"
       inkscape:connector-curvature="0"
       style="fill:#434343" /><path
       class="st1"
       d="m 27.8,22.3 10.7,-0.1 c 0.2,0 0.4,-0.1 0.5,-0.3 0.1,-0.2 0,-0.4 -0.2,-0.6 l -10.6,-8 c -0.2,-0.1 -0.4,-0.1 -0.5,0 -0.2,0.1 -0.3,0.3 -0.3,0.4 l -0.1,8 c 0,0.1 0.1,0.3 0.1,0.4 0.1,0.2 0.3,0.2 0.4,0.2 0,0 0,0 0,0 z m 0.6,-7.5 8.6,6.5 h -8.7 z"
       id="path4497"
       inkscape:connector-curvature="0"
       style="fill:#434343" /><path
       class="st1"
       d="M 38.8,26 H 28 c -0.3,0 -0.5,0.2 -0.5,0.5 v 2.6 c 0,0.3 0.2,0.5 0.5,0.5 h 1.1 1.4 1.5 1.4 1.3 1.4 2.6 c 0.3,0 0.5,-0.2 0.5,-0.5 V 26.5 C 39.3,26.2 39,26 38.8,26 Z m -0.5,2.6 h -0.2 v -0.3 c 0,-0.3 -0.2,-0.5 -0.5,-0.5 -0.3,0 -0.5,0.2 -0.5,0.5 v 0.3 h -0.4 v -0.3 c 0,-0.3 -0.2,-0.5 -0.5,-0.5 -0.3,0 -0.5,0.2 -0.5,0.5 v 0.3 h -0.4 v -0.4 c 0,-0.3 -0.2,-0.5 -0.5,-0.5 -0.3,0 -0.5,0.2 -0.5,0.5 v 0.4 H 34 V 28.3 C 34,28 33.8,27.8 33.5,27.8 33.2,27.8 33,28 33,28.3 v 0.3 h -0.4 v -0.4 c 0,-0.3 -0.2,-0.5 -0.5,-0.5 -0.3,0 -0.5,0.2 -0.5,0.5 v 0.4 H 31 v -0.3 c 0,-0.3 -0.2,-0.5 -0.5,-0.5 -0.3,0 -0.5,0.3 -0.5,0.6 v 0.3 h -0.4 v -0.4 c 0,-0.3 -0.2,-0.5 -0.5,-0.5 -0.3,0 -0.5,0.2 -0.5,0.5 v 0.4 H 28.5 V 27 h 9.8 z"
       id="path4499"
       inkscape:connector-curvature="0"
       style="fill:#434343" /></g><circle
     class="st2"
     cx="16.700001"
     cy="12"
     r="0.89999998"
     id="circle4503"
     style="fill:#f27323" /><path
     class="st1"
     d="m 22.3,17.6 c 0,-0.3 -0.2,-0.5 -0.5,-0.5 H 20 l -1.2,-3.5 c 0.4,-0.5 0.6,-1.1 0.6,-1.7 0,-1.1 -0.6,-2 -1.5,-2.5 V 7.6 c 0,-0.7 -0.6,-1.2 -1.2,-1.2 -0.6,0 -1.2,0.6 -1.2,1.2 v 1.8 c -0.9,0.5 -1.5,1.4 -1.5,2.5 0,0.7 0.3,1.3 0.7,1.8 l -1.2,3.4 h -1.8 c -0.3,0 -0.5,0.2 -0.5,0.5 0,0.3 0.2,0.5 0.5,0.5 H 13 l -1.4,4 c -0.2,0.5 0,1 0.4,1.3 l -0.6,1.2 c -0.1,0.2 0,0.5 0.2,0.7 0.1,0 0.1,0 0.2,0 0.2,0 0.4,-0.1 0.5,-0.3 l 0.6,-1.3 c 0.2,0 0.4,0 0.6,-0.1 0.3,-0.1 0.5,-0.4 0.6,-0.7 L 15.8,18 h 1.8 l 1.7,4.9 c 0.2,0.5 0.7,0.8 1.2,0.8 0,0 0,0 0,0 l 0.6,1.3 c 0.1,0.2 0.3,0.3 0.5,0.3 0.1,0 0.1,0 0.2,0 0.2,-0.1 0.4,-0.4 0.2,-0.7 L 21.4,23.3 C 21.8,23 21.9,22.5 21.7,22 l -1.4,-4 h 1.4 c 0.4,0.1 0.6,-0.1 0.6,-0.4 z m -4.3,-3.3 1,2.8 h -0.7 l -0.9,-2.6 c 0.2,0 0.4,0 0.6,-0.2 z M 16.4,7.7 c 0,-0.3 0.5,-0.3 0.5,0 v 1.5 c -0.1,0 -0.2,0 -0.2,0 0,0 -0.2,0 -0.2,0 V 7.7 Z m 0.3,2.4 c 1,0 1.8,0.8 1.8,1.8 0,1 -0.8,1.8 -1.8,1.8 -1,0 -1.8,-0.8 -1.8,-1.8 0,-1 0.8,-1.8 1.8,-1.8 z m -1.3,4.3 c 0.2,0.1 0.4,0.2 0.6,0.2 l -0.9,2.5 h -0.7 z m -2.2,8.3 c 0,0.1 -0.1,0.1 -0.1,0.1 -0.1,0 -0.2,0 -0.3,0 -0.2,-0.1 -0.3,-0.2 -0.2,-0.3 l 1.5,-4.4 h 0.7 z m 2.9,-5.6 0.6,-1.6 0.6,1.6 z m 4.7,5.4 c 0,0.1 -0.1,0.3 -0.2,0.3 -0.2,0.1 -0.3,0 -0.4,-0.1 l -1.6,-4.5 h 0.7 z"
     id="path4505"
     inkscape:connector-curvature="0"
     style="fill:#434343" /></svg>