<?xml version="1.0" encoding="utf-8"?>
<!-- Generator: Adobe Illustrator 22.0.0, SVG Export Plug-In . SVG Version: 6.00 Build 0)  -->
<svg version="1.1" id="Layer_2_1_" xmlns="http://www.w3.org/2000/svg" xmlns:xlink="http://www.w3.org/1999/xlink" x="0px" y="0px"
	 viewBox="0 0 300 211.3" style="enable-background:new 0 0 300 211.3;" xml:space="preserve">
<style type="text/css">
	.st0{fill:#030303;}
	.st1{fill:#020202;}
	.st2{fill:#DE032E;}
	.st3{fill:#070707;}
	.st4{fill:#DE062F;}
	.st5{fill:#7E7D7D;}
	.st6{fill:#020000;}
	.st7{fill:#801517;}
	.st8{fill:#B01F24;}
	.st9{fill:#D62027;}
	.st10{fill:#EC2227;}
	.st11{fill:#FFFFFF;}
</style>
<g>
	<path class="st0" d="M118.7,96.4c0,5.3,0,10.6,0,15.9c0,0.7-0.2,1-0.9,0.9c-2-0.1-3.9-0.1-5.9,0c-0.7,0-0.9-0.2-0.9-0.9
		c0-7.5,0-15,0-22.4c0-0.2,0-0.4,0-0.6c0-0.2,0.1-0.6-0.3-0.6c-0.4,0-0.4,0.3-0.4,0.5c-0.4,1.3-0.8,2.6-1.2,3.9
		c-1.8,6-3.6,12-5.5,18c-0.6,2-0.8,2.1-2.9,2.1c-0.9,0-1.7,0-2.6,0c-1.4,0-1.8-0.3-2.2-1.6c-1.2-4-2.4-8-3.6-12
		c-1-3.5-2.1-6.9-3.2-10.4c-0.1-0.3,0-0.8-0.5-0.7c-0.4,0.1-0.2,0.5-0.2,0.8c0,1.7,0,3.3,0,5c0,0.6-0.1,0.8-0.7,0.7c-2,0-4,0-6,0
		c-0.6,0-0.7-0.2-0.7-0.7c0-4.7,0-9.4,0-14.1c0-0.6,0.2-0.7,0.8-0.7c3.1,0,6.2,0,9.4,0c2,0,2.3,0.3,2.9,2.1c1.8,6.3,3.6,12.6,5.5,19
		c0.1,0.3,0,0.8,0.5,0.8c0.4,0,0.4-0.5,0.4-0.7c1.8-6.4,3.5-12.7,5.3-19.1c0.5-1.7,0.9-2,2.7-2c3.1,0,6.2,0,9.3,0
		c0.7,0,0.9,0.1,0.9,0.9C118.7,85.7,118.7,91.1,118.7,96.4z"/>
	<path class="st1" d="M184.3,95.9c3.9,0.9,5.4,2.7,5.5,6.5c0.1,1.8,0.1,3.6-0.3,5.4c-0.7,3.1-2.6,4.8-5.7,5.2
		c-0.9,0.1-1.8,0.2-2.6,0.2c-6,0-12.1,0-18.1,0c-0.7,0-0.9-0.2-0.9-0.9c0-10.6,0-21.3,0-31.9c0-0.8,0.3-0.9,0.9-0.9
		c6.2,0,12.3,0,18.5,0c0.9,0,1.8,0.1,2.6,0.2c2.7,0.4,4.5,2.2,5.1,5c0.4,1.9,0.5,3.9,0.2,5.8c-0.4,2.4-1.6,4.1-4,4.9
		C185.1,95.6,184.8,95.8,184.3,95.9z M175.3,98.7c-1.5,0-3.1,0-4.6,0c-0.4,0-0.6,0-0.6,0.5c0,2.5,0,4.9,0,7.4c0,0.4,0.1,0.5,0.6,0.5
		c3.1,0,6.2,0,9.3,0c1.3,0,1.6-0.4,1.8-1.7c0.3-1.7,0.2-3.3,0-5c-0.2-1.3-0.7-1.7-2-1.7C178.2,98.7,176.7,98.7,175.3,98.7z
		 M175.1,85.6C175.1,85.6,175.1,85.6,175.1,85.6c-1.5,0-3,0-4.4,0c-0.4,0-0.7,0-0.7,0.5c0,2.1,0,4.3,0,6.4c0,0.4,0.1,0.6,0.5,0.6
		c3.1,0,6.1,0,9.2,0c1,0,1.4-0.5,1.6-1.4c0.3-1.5,0.3-3.1,0.1-4.6c-0.2-1.1-0.6-1.5-1.8-1.5C178.1,85.6,176.6,85.6,175.1,85.6z"/>
	<path class="st1" d="M140.9,79.6c2.1,0.1,4.6-0.1,7.1,0.1c2.9,0.3,4.6,1.9,5.6,4.5c0.9,2.4,1.2,5,1.3,7.6c0.2,4.3,0.2,8.5-0.3,12.7
		c-0.3,1.9-0.6,3.8-1.7,5.6c-1.1,1.8-2.7,2.9-4.8,3c-5.1,0.3-10.3,0.3-15.4,0c-2.5-0.1-4.2-1.6-5.3-3.9c-1-2.2-1.3-4.6-1.5-7
		c-0.3-4.8-0.3-9.7,0.3-14.5c0.2-1.1,0.4-2.2,0.8-3.3c1.1-3.2,3.2-4.6,6.7-4.8c0.3,0,0.5,0,0.8,0C136.5,79.6,138.5,79.6,140.9,79.6z
		 M147,96.4c-0.1-2.9,0-5.8-0.5-8.6c-0.3-1.7-0.7-2-2.4-2c-2.4,0-4.7,0-7.1,0c-2,0-2.4,0.4-2.7,2.3c-0.5,4-0.4,8.1-0.3,12.2
		c0,1.7,0.1,3.5,0.5,5.2c0.2,0.9,0.7,1.4,1.6,1.4c2.8,0,5.5,0.1,8.3,0c1.4,0,1.7-0.4,2-1.8C147,102.3,146.9,99.3,147,96.4z"/>
	<path class="st1" d="M246.5,96.4c0-5.3,0-10.6,0-15.9c0-0.7,0.2-0.9,0.9-0.9c7.8,0,15.7,0,23.5,0c0.7,0,0.9,0.1,0.9,0.9
		c-0.1,1.5-0.1,3.1,0,4.6c0,0.6-0.2,0.8-0.8,0.8c-5.2,0-10.5,0-15.7,0c-0.7,0-0.9,0.2-0.9,0.9c0.1,1.8,0.1,3.6,0,5.4
		c0,0.7,0.1,0.9,0.9,0.9c3.9,0,7.9,0,11.8,0c0.7,0,0.9,0.2,0.9,0.9c-0.1,1.4-0.1,2.8,0,4.3c0,0.7-0.2,0.8-0.9,0.8
		c-3.9,0-7.9,0-11.8,0c-0.7,0-0.9,0.1-0.9,0.9c0.1,2.1,0.1,4.2,0,6.3c0,0.8,0.3,0.9,1,0.9c5.1,0,10.2,0,15.2,0c1.2,0,1.2,0,1.2,1.3
		c0,1.5,0,2.9,0,4.4c0,0.5-0.2,0.6-0.6,0.6c-8,0-16,0-23.9,0c-0.8,0-0.7-0.4-0.7-0.9C246.5,107,246.5,101.7,246.5,96.4z"/>
	<path class="st1" d="M216,96.3c0-5.3,0-10.6,0-15.9c0-0.7,0.1-0.9,0.9-0.9c2.1,0.1,4.2,0.1,6.2,0c0.7,0,0.8,0.2,0.8,0.8
		c0,8.5,0,17,0,25.6c0,0.9,0.3,1.1,1.1,1.1c4.6,0,9.3,0,13.9,0c0.9,0,1,0.3,1,1c-0.1,1.4-0.1,2.9,0,4.4c0,0.7-0.1,0.9-0.9,0.9
		c-7.4,0-14.8,0-22.2,0c-0.7,0-0.9-0.2-0.9-0.9C216,107,216,101.7,216,96.3z"/>
	<path class="st0" d="M205.8,96.4c0,5.3,0,10.6,0,15.9c0,0.7-0.2,1-0.9,0.9c-2-0.1-4.1,0-6.1,0c-0.6,0-0.9-0.1-0.9-0.8
		c0-10.7,0-21.4,0-32.2c0-0.6,0.2-0.7,0.7-0.7c2.1,0,4.3,0,6.4,0c0.7,0,0.8,0.2,0.7,0.8C205.7,85.7,205.8,91.1,205.8,96.4z"/>
	<path class="st2" d="M85.9,126.6c0.7-2.2,1.4-4.2,2.1-6.3c0.2-0.6,0.4-0.9,1.1-0.8c2.2,0,2.2,0,2.9,2.1c0.5,1.6,1.1,3.2,1.8,4.8
		c0.6-2,1.2-4,1.8-6c0.2-0.6,0.4-0.9,1-0.8c0.8,0.1,1.5,0,2.3,0c0.4,0,0.5,0.1,0.4,0.6c-1.3,3.8-2.6,7.7-3.8,11.5
		c-0.1,0.3-0.2,0.5-0.6,0.5c-0.7,0-1.5,0-2.2,0c-0.6,0-0.6-0.4-0.7-0.7c-0.7-2-1.4-4.1-2.2-6.3c-0.8,2.2-1.5,4.2-2.2,6.2
		c-0.2,0.6-0.5,0.9-1.2,0.9c-2.2,0-2.2,0-2.8-2.1c-1.1-3.2-2.1-6.5-3.2-9.7c-0.3-0.8-0.1-0.9,0.7-0.9c0.9,0.1,2-0.3,2.7,0.2
		c0.6,0.5,0.6,1.6,0.9,2.4C85,123.6,85.4,125,85.9,126.6z"/>
	<path class="st3" d="M81.1,105.6c0-2.3,0-4.5,0-6.8c0-0.7,0.2-0.8,0.8-0.8c2,0,4,0,6,0c0.6,0,0.7,0.2,0.7,0.8c0,4.6,0,9.1,0,13.7
		c0,0.6-0.2,0.8-0.8,0.8c-2,0-3.9,0-5.9,0c-0.7,0-0.8-0.2-0.8-0.9C81.1,110.1,81.1,107.9,81.1,105.6z"/>
	<path class="st4" d="M145.7,125.8c0-1.8,0-3.6,0-5.4c0-0.7,0.2-0.9,0.9-0.9c2,0.1,4.1-0.2,6.1,0.3c3.1,0.7,4.9,3,4.8,6.1
		c-0.1,3-2,5.3-5,5.9c-2.1,0.4-4.2,0.1-6.3,0.2c-0.6,0-0.4-0.4-0.4-0.7C145.7,129.5,145.7,127.6,145.7,125.8z M149.2,125.8
		c0,0.4,0,0.8,0,1.2c0,2.2,0,2.2,2.2,1.8c1.6-0.3,2.6-1.5,2.6-3.1c-0.1-1.7-1.2-2.9-2.9-3c-0.4,0-0.9,0-1.3,0
		c-0.5,0-0.6,0.1-0.6,0.6C149.2,124.1,149.2,125,149.2,125.8z"/>
	<path class="st2" d="M126.4,127.8c1,1.4,1.9,2.7,2.9,4.3c-1.4,0-2.6,0-3.8,0c-0.4,0-0.5-0.3-0.6-0.5c-0.6-0.9-1.3-1.8-1.8-2.8
		c-0.4-0.7-1-0.5-1.5-0.4c-0.5,0.1-0.3,0.6-0.3,1c-0.1,0.9,0.3,2.1-0.2,2.6c-0.6,0.6-1.8,0.1-2.7,0.2c-0.6,0.1-0.7-0.2-0.7-0.7
		c0-3.7,0-7.4,0-11.1c0-0.4,0-0.7,0.6-0.7c2.1,0.1,4.3-0.1,6.4,0.1c2.2,0.3,3.6,1.4,4,3.1c0.4,2.1-0.2,3.6-2.2,4.9
		C126.5,127.6,126.5,127.7,126.4,127.8z M121.3,124c0,0.3,0,0.7,0,1c0,0.2,0,0.5,0.3,0.5c0.9,0,1.9,0.2,2.8-0.2
		c0.6-0.2,0.9-0.7,0.9-1.4c0-0.6-0.3-1.1-1-1.3c-0.5-0.2-1-0.2-1.6-0.2C121.3,122.6,121.3,122.6,121.3,124z"/>
	<path class="st2" d="M107.6,132.2c-3.8,0-6.7-2.7-6.7-6.3c0-3.7,2.9-6.6,6.7-6.6c3.8,0,6.7,2.8,6.7,6.5
		C114.3,129.5,111.5,132.2,107.6,132.2z M104.5,125.8c0,1.9,1.3,3.4,3.1,3.4c1.7,0,3.2-1.5,3.2-3.3c0-1.9-1.4-3.3-3.2-3.3
		C105.8,122.5,104.6,123.9,104.5,125.8z"/>
	<path class="st5" d="M203.2,127.8c0-2.3,0-4.6,0-6.8c0-1.6-0.3-1.4,1.4-1.4c0.6,0,0.8,0.2,0.8,0.8c0,2.9,0,5.7,0,8.6
		c0,0.6,0,1.3,0,1.9c0,0.4,0.3,1-0.3,1.1c-0.6,0.1-1.4,0.3-2-0.4c-1.9-2.6-3.9-5.1-5.9-7.6c-0.1-0.1-0.2-0.2-0.2-0.3
		c-0.3,0.2-0.2,0.5-0.2,0.7c0,2.3,0,4.6,0,6.9c0,0.6-0.1,1-0.8,0.9c-0.3,0-0.6,0-0.8,0c-0.4,0-0.6-0.1-0.6-0.6c0-3.8,0-7.5,0-11.3
		c0-0.5,0.2-0.6,0.6-0.7c1-0.1,1.6,0.2,2.2,1c1.6,2.2,3.3,4.3,5,6.4C202.6,127.3,202.7,127.6,203.2,127.8z"/>
	<path class="st5" d="M231.5,127.4c1.1,1.5,2.1,3,3.3,4.6c-0.9,0-1.6,0-2.4,0c-0.4,0-0.5-0.3-0.6-0.5c-0.8-1.1-1.6-2.2-2.3-3.3
		c-0.3-0.4-2.5-0.8-2.9-0.4c-0.2,0.2-0.1,0.4-0.2,0.6c0,1,0,2,0,2.9c0,0.5-0.1,0.8-0.7,0.7c-0.3,0-0.6,0-0.8,0
		c-0.6,0.1-0.7-0.2-0.7-0.8c0-3.7,0-7.3,0-11c0-0.4-0.1-0.8,0.5-0.8c2,0.1,4-0.2,6,0.1c2,0.3,3.3,1.4,3.6,3.1c0.3,2-0.5,3.4-2.4,4.4
		C231.7,127.2,231.6,127.3,231.5,127.4z M228.4,121.6c-0.3,0-0.7,0-1,0c-0.7-0.1-1,0.1-1,0.9c0.1,0.9,0,1.8,0,2.6
		c0,0.2,0,0.6,0.3,0.6c1.4,0,2.8,0.3,4.2-0.3c0.8-0.3,1.2-1,1.1-1.9c0-0.9-0.5-1.5-1.3-1.7C230,121.5,229.2,121.6,228.4,121.6z"/>
	<path class="st5" d="M184.4,132.2c-3.7,0-6.5-2.7-6.5-6.4c0-3.6,2.9-6.4,6.5-6.4c3.7,0,6.5,2.8,6.5,6.4
		C190.9,129.5,188.1,132.2,184.4,132.2z M188.6,125.8c0-2.5-1.8-4.4-4.2-4.4c-2.3,0-4.1,1.9-4,4.4c0,2.5,1.8,4.3,4.2,4.3
		C186.8,130.1,188.6,128.3,188.6,125.8z"/>
	<path class="st5" d="M220.3,127.8c0,0.3-0.1,0.7,0,1c0.3,1.4-0.5,2-1.6,2.6c-3.2,1.6-7.1,0.9-8.9-1.7c-1.8-2.6-1.5-6.4,0.8-8.6
		c2.2-2.1,6.2-2.3,8.7-0.5c0.4,0.3,0.6,0.6,0.2,1c-0.3,0.2-0.5,0.5-0.7,0.8c-0.2,0.3-0.4,0.3-0.7,0.1c-0.4-0.4-0.9-0.6-1.5-0.8
		c-2-0.7-3.9,0-4.9,1.7c-1.1,1.8-0.8,4.3,0.7,5.7c1.3,1.2,3.9,1.4,5.4,0.4c0.9-0.6,0.4-1.4,0.4-2.2c0-0.6-0.7-0.3-1-0.3
		c-0.3,0-0.6,0-0.8,0c-1.3,0-1.5-0.3-1.3-1.6c0.1-0.3,0.3-0.4,0.5-0.4c1.4,0,2.8,0,4.3,0c0.4,0,0.6,0.1,0.6,0.6
		C220.3,126.3,220.3,127,220.3,127.8z"/>
	<path class="st5" d="M238,125.7c0-1.8,0-3.6,0-5.4c0-0.6,0.2-0.8,0.8-0.8c2.6,0,5.1,0.1,7.7,0c1,0,0.8,0.6,0.8,1.1
		c0,0.5,0.1,1-0.8,1c-1.8-0.1-3.7,0-5.5,0c-0.6,0-0.8,0.1-0.8,0.7c0,2.4-0.1,2.4,2.4,2.4c1.1,0,2.1,0,3.2,0c1,0,0.6,0.6,0.7,1.1
		c0,0.5,0.2,1-0.7,1c-1.6-0.1-3.2,0-4.7,0c-0.6,0-0.8,0.2-0.8,0.8c0,2.5-0.1,2.5,2.4,2.5c1.3,0,2.6,0.1,3.9,0c0.9-0.1,1,0.4,0.9,1.1
		c0,0.6,0,1-0.9,1c-2.6-0.1-5.1,0-7.7,0c-0.6,0-0.9-0.2-0.9-0.8C238,129.4,238,127.5,238,125.7z"/>
	<path class="st4" d="M132.3,125.7c0-1.8,0-3.6,0-5.4c0-0.6,0.1-0.9,0.8-0.8c0.9,0.1,2-0.3,2.6,0.2c0.6,0.5,0.2,1.7,0.2,2.5
		c0,2,0,4,0,6.1c0,0.5,0.2,0.7,0.7,0.7c1.5,0,3.1,0,4.6,0c0.5,0,0.7,0.1,0.7,0.6c0.1,2.5,0.1,2.5-2.3,2.5c-2.1,0-4.2,0-6.3,0
		c-0.6,0-0.9-0.1-0.9-0.8C132.3,129.4,132.3,127.6,132.3,125.7z"/>
	<path class="st5" d="M255.2,132.2c-1.7,0-3.1-0.6-4.5-1.5c-0.5-0.3-0.5-0.6-0.1-1c0.8-1,0.8-1,1.8-0.3c1.1,0.7,2.2,1,3.5,0.8
		c0.8-0.1,1.5-0.4,1.6-1.3c0.1-0.9-0.5-1.3-1.2-1.6c-1.2-0.4-2.4-0.7-3.6-1.1c-2.2-0.9-2.8-3.6-1.2-5.4c0.8-0.9,1.8-1.2,3-1.3
		c1.6-0.1,3.1,0.3,4.4,1.1c0.5,0.3,0.5,0.6,0.2,1c-0.5,0.8-0.9,1.2-1.9,0.5c-0.8-0.6-1.8-0.8-2.8-0.6c-0.7,0.1-1.3,0.4-1.5,1.2
		c-0.1,0.9,0.4,1.3,1.1,1.6c0.9,0.3,1.8,0.5,2.7,0.8c2.4,0.8,3.3,1.9,3,4.1c-0.2,1.8-1.8,3-4.1,3.1
		C255.5,132.2,255.3,132.2,255.2,132.2z"/>
	<path class="st5" d="M267.4,132.2c-1.7,0-3.2-0.6-4.6-1.6c-0.4-0.3-0.5-0.6-0.1-0.9c0.2-0.1,0.3-0.3,0.4-0.5
		c0.3-0.5,0.6-0.6,1.1-0.2c1.1,0.9,2.4,1.3,3.8,1.1c0.8-0.1,1.6-0.4,1.7-1.4c0.1-0.9-0.6-1.3-1.3-1.6c-1-0.3-2-0.5-3-0.9
		c-1.9-0.7-2.7-1.8-2.6-3.5c0.1-1.7,1.3-3,3.2-3.3c1.7-0.3,3.4,0,4.9,1c0.4,0.2,0.9,0.5,0.4,1c-0.4,0.4-0.4,1.5-1.5,0.8
		c-0.9-0.6-1.9-1-3-0.9c-0.9,0.1-1.7,0.6-1.7,1.3c-0.1,0.9,0.6,1.3,1.3,1.5c0.8,0.3,1.7,0.5,2.5,0.7c2.3,0.7,3.3,2,3.1,3.8
		c-0.2,2-1.7,3.2-4,3.4C267.8,132.2,267.6,132.2,267.4,132.2z"/>
	<path class="st5" d="M170.9,132.2c-3.5,0-6.4-3-6.1-6.8c0.3-3.9,3.7-6.5,7.5-6c1.2,0.2,2.4,0.7,3.3,1.4c0.4,0.3,0.5,0.6,0.1,1
		c-0.2,0.1-0.3,0.3-0.4,0.5c-0.4,0.6-0.7,0.6-1.2,0.1c-1.5-1.3-3.3-1.4-4.8-0.5c-1.7,1.1-2.2,2.7-2,4.6c0.3,1.7,1.2,3,2.9,3.5
		c1.5,0.4,2.9,0,4-1c1-0.9,1.2,0.3,1.6,0.6c0.6,0.4,0,0.7-0.2,0.9C174.4,131.7,172.9,132.3,170.9,132.2z"/>
	<path class="st3" d="M281.3,80.6c-1.1,1-1.1,1-2.2,0.1c0,0.7,0,1.3,0,2c0,0.2,0.1,0.5-0.3,0.5c-0.3,0-0.2-0.3-0.2-0.4
		c0-0.9,0-1.8,0-2.6c0-0.2-0.1-0.4,0.2-0.4c0.2,0,0.3,0,0.4,0.2c0.7,1.1,1.3,1.3,2,0c0.1-0.2,0.3-0.2,0.5-0.2
		c0.2,0.1,0.2,0.2,0.2,0.4c0,0.9,0,1.8,0,2.7c0,0.2,0,0.4-0.3,0.4c-0.4,0-0.3-0.3-0.3-0.5C281.3,82,281.3,81.4,281.3,80.6z"/>
	<path class="st3" d="M276.3,81.6c0-0.2,0-0.4,0-0.7c0.1-0.6,0-0.9-0.7-0.8c-0.2,0-0.6,0.1-0.5-0.3c0-0.3,0.3-0.2,0.5-0.2
		c0.7,0,1.3,0,2,0c0.2,0,0.5-0.1,0.4,0.3c0,0.3-0.2,0.3-0.4,0.2c-0.8-0.1-0.8,0.3-0.7,0.9c0,0.6,0,1.1,0,1.7c0,0.2,0,0.5-0.3,0.4
		c-0.3,0-0.2-0.2-0.3-0.4C276.3,82.3,276.3,81.9,276.3,81.6z"/>
	<g>
		<rect x="18.2" y="79.1" class="st6" width="52.7" height="52.6"/>
		<rect x="21.6" y="100.7" class="st7" width="4.6" height="4.6"/>
		<rect x="28" y="98.4" class="st8" width="7" height="7"/>
		<rect x="36.7" y="94.9" class="st9" width="10.4" height="10.4"/>
		<rect x="49.2" y="89.7" class="st10" width="15.7" height="15.7"/>
		<polygon class="st11" points="67.1,114.5 67.1,114.8 66.5,114.8 66.5,116.4 66.2,116.4 66.2,114.8 65.6,114.8 65.6,114.5 		"/>
		<polygon class="st11" points="67.8,114.5 68.3,116.1 68.8,114.5 69.2,114.5 69.2,116.4 68.9,116.4 68.9,114.9 68.4,116.4 
			68.1,116.4 67.7,114.9 67.7,116.4 67.4,116.4 67.4,114.5 		"/>
		<path class="st11" d="M31.3,111.3H30V110h-7.1v5.2H30v-1.3h-3.5v-1.3h4.8v2.6c0,0.7-0.6,1.3-1.3,1.3h-7.1c-0.7,0-1.3-0.6-1.3-1.3
			V110c0-0.7,0.6-1.3,1.3-1.3H30c0.7,0,1.3,0.6,1.3,1.3V111.3z"/>
		<path class="st11" d="M40.5,110v1.3h1.3V110c0-0.7-0.6-1.3-1.3-1.3h-7c-0.7,0-1.3,0.6-1.3,1.3v1.7c0,0.7,0.6,1.3,1.3,1.3l7,0.4
			v1.7h-7v-1.3h-1.3v1.3c0,0.7,0.6,1.3,1.3,1.3h7c0.7,0,1.3-0.6,1.3-1.3v-1.7c0-0.7-0.6-1.3-1.3-1.3l-7-0.4V110H40.5z"/>
		<path class="st11" d="M56.6,113.4v3h-1.3V110c0-0.7,0.6-1.3,1.3-1.3h7c0.7,0,1.3,0.6,1.3,1.3v6.4h-1.3v-3H56.6z M56.6,112.1h7V110
			h-7V112.1z"/>
		<path class="st11" d="M44,110v6.5h-1.3V110c0-0.7,0.6-1.3,1.3-1.3h9c0.7,0,1.3,0.6,1.3,1.3v6.5H53V110h-3.9v6.5h-1.3V110H44z"/>
	</g>
</g>
</svg>
