<?xml version="1.0" encoding="utf-8"?>
<!-- Generator: Adobe Illustrator 22.0.0, SVG Export Plug-In . SVG Version: 6.00 Build 0)  -->
<svg version="1.1" id="Layer_2_1_" xmlns="http://www.w3.org/2000/svg" xmlns:xlink="http://www.w3.org/1999/xlink" x="0px" y="0px"
	 viewBox="0 0 300 211.3" style="enable-background:new 0 0 300 211.3;" xml:space="preserve">
<style type="text/css">
	.st0{fill:#1C191D;}
	.st1{fill:#1B181C;}
	.st2{fill:#1D1A1E;}
	.st3{fill:#262427;}
	.st4{fill:#FCFCFC;}
	.st5{fill:#FAFAFA;}
	.st6{fill:#FF6600;}
	.st7{fill:#FED9BF;}
	.st8{fill:#FFFFFF;}
</style>
<g>
	<g>
		<path class="st0" d="M183.9,121.5c0-3,0-5.7,0-8.4c0-0.7,0.2-0.9,0.8-0.8c1.3,0,2.5,0,3.8,0c0.5,0,0.8,0.1,0.8,0.7
			c0,8.3,0,16.6,0,24.8c0,0.6-0.1,0.8-0.7,0.7c-1.2,0-2.3,0-3.5,0c-0.5,0-0.7-0.1-0.7-0.7c0-0.6,0-1.1,0-1.9
			c-1.9,2.9-4.5,3.3-7.3,2.9c-3.6-0.5-5.8-2.7-6.7-6.1c-0.9-3.4-0.8-6.7,0.9-9.9C174,117.7,181.3,118,183.9,121.5z M184.2,128.9
			c-0.2-1.8-0.1-3.5-1.7-4.9c-2-1.8-5.4-1.3-6.6,1.1c-1.1,2.4-1,4.8-0.2,7.2c0.6,1.6,1.8,2.5,3.4,2.7c1.7,0.2,3.1-0.3,4.1-1.8
			C184,131.8,184,130.3,184.2,128.9z"/>
		<path class="st1" d="M105.3,125.4c0-4.1,0-8.2,0-12.3c0-0.7,0.2-0.9,0.9-0.9c5.7,0,11.5,0,17.2,0c0.7,0,0.9,0.2,0.8,0.8
			c-0.1,1-0.1,2.1,0,3.1c0,0.7-0.1,0.9-0.9,0.9c-3.7,0-7.5,0-11.2,0c-0.7,0-0.9,0.2-0.9,0.9c0.1,1.4,0,2.9,0,4.3
			c0,0.6,0.2,0.8,0.8,0.8c3.2,0,6.4,0,9.5,0c0.7,0,0.9,0.2,0.8,0.8c-0.1,1-0.1,2,0,3c0,0.6-0.2,0.8-0.8,0.8c-3.1,0-6.3,0-9.4,0
			c-0.8,0-0.9,0.2-0.9,0.9c0,3,0,6,0,9c0,0.8-0.2,1-1,1c-1.4-0.1-2.7-0.1-4.1,0c-0.7,0-0.8-0.2-0.8-0.8
			C105.3,133.6,105.3,129.5,105.3,125.4z"/>
		<path class="st0" d="M205,136.8c-2.7,2.3-5.8,2.5-8.9,1.8c-2.2-0.5-3.4-2.2-4-4.4c-0.5-2.2,0.4-3.9,1.9-5.3
			c0.8-0.8,1.9-1.1,3.1-1.3c1.3-0.2,2.6-0.4,3.9-0.5c1,0,1.8-0.4,2.7-0.6c0.7-0.2,1.2-0.7,1.2-1.4c0.1-0.9-0.4-1.7-1.1-2.2
			c-1.1-0.8-3.8-0.7-4.8,0.2c-0.4,0.4-0.8,0.9-0.8,1.5c0,0.8-0.5,0.9-1.1,0.8c-1.3,0-2.5,0-3.8,0c-0.5,0-0.7-0.1-0.6-0.6
			c0.3-1.9,1.1-3.4,2.8-4.4c1.6-0.9,3.3-1.5,5.2-1.5c2.2,0,4.3,0,6.4,0.8c2,0.8,3,2.2,3,4.4c0,3.2,0,6.4,0,9.6
			c0,1.5,0.1,2.9,0.5,4.3c0.1,0.5-0.1,0.5-0.4,0.5c-1.4,0-2.8,0-4.2,0c-0.4,0-0.6-0.2-0.7-0.6C205.2,137.6,205.3,137.2,205,136.8z
			 M204.9,129.2c-1.5,0.8-3.2,0.8-4.8,1.1c-0.9,0.2-1.7,0.6-2.3,1.3c-0.8,0.9-0.6,3.2,0.9,3.5c0.5,0.1,1,0.2,1.5,0.3
			c2.4,0.1,3.7-0.4,4.4-2.7C205,131.7,205.1,130.5,204.9,129.2z"/>
		<path class="st1" d="M263.5,122c2.1-3.2,5.1-3.4,8.2-2.9c2.1,0.4,3.6,1.4,4.2,3.7c0.4,1.5,0.7,3.1,0.7,4.7c0,3.4,0,6.8,0,10.2
			c0,0.7-0.2,0.9-0.9,0.9c-1.2-0.1-2.5-0.1-3.7,0c-0.7,0-0.9-0.2-0.8-0.8c0-3.3,0-6.6,0-9.9c0-1-0.1-2-0.4-3c-0.4-0.9-1-1.5-2-1.6
			c-2.6-0.3-4.8,0.5-4.9,3.7c-0.1,3.6-0.1,7.1-0.1,10.7c0,0.7-0.1,1-0.9,1c-1.3-0.1-2.5,0-3.8,0c-0.5,0-0.7-0.1-0.7-0.6
			c0-5.9,0-11.9,0-17.8c0-0.5,0.2-0.7,0.7-0.7c1.3,0,2.6,0,3.9,0c0.5,0,0.6,0.1,0.6,0.6C263.4,120.5,263.5,121.1,263.5,122z"/>
		<path class="st1" d="M154,121.7c1.2-1.5,2.6-2.5,4.4-2.7c2.7-0.3,5.4-0.3,7.2,2.2c1.1,1.5,1.3,3.3,1.4,5.1c0.1,3.8,0,7.6,0,11.3
			c0,0.6-0.2,0.8-0.8,0.8c-1.3,0-2.5-0.1-3.8,0c-0.7,0-0.8-0.3-0.8-0.9c0-3,0-6,0-9c0-0.7,0-1.4-0.1-2.1c-0.2-3.1-2.7-4.5-5.5-3.1
			c-1.2,0.6-1.6,1.7-1.7,2.9c-0.3,2.4-0.1,4.8-0.2,7.3c0,1.4,0,2.7,0,4.1c0,0.5-0.1,0.7-0.7,0.7c-1.3,0-2.6,0-4,0
			c-0.5,0-0.7-0.1-0.7-0.7c0-5.9,0-11.9,0-17.8c0-0.5,0.1-0.7,0.6-0.7c1.3,0,2.6,0,4,0c0.5,0,0.6,0.2,0.6,0.6
			C154,120.5,154,121.1,154,121.7z"/>
		<path class="st0" d="M255.3,129c0,6-4,10-10,10c-5.9,0-9.9-4-10-9.9c0-6.2,3.9-10.2,10-10.2C251.4,118.9,255.3,122.9,255.3,129z
			 M240.7,128.9c0,0.7,0.1,1.4,0.2,2.2c0.3,3,3.1,4.6,5.8,3.7c1-0.3,1.9-1,2.4-2c0.7-1.5,1-3.1,0.8-4.7c-0.2-1.8-0.6-3.5-2.3-4.6
			c-1.5-1-4-0.7-5.3,0.4C240.9,125.3,240.9,127.1,240.7,128.9z"/>
		<path class="st0" d="M135.8,118.9c3.4,0.1,6.5,1,8.3,4.1c1.8,2.9,2,6.1,1.1,9.5c-1.5,5.6-6.7,6.9-10.7,6.5
			c-5.6-0.5-8.9-5.3-8.5-10.7c0.3-4.2,2.2-7.2,6.2-8.7C133.3,119,134.5,118.9,135.8,118.9z M131.3,128.9c0,0.8,0.1,1.6,0.2,2.3
			c0.4,2.9,2.6,4.2,5.3,3.7c1.3-0.2,2.4-0.9,2.9-2.1c1-2.3,1-4.7,0.2-7.2c-0.6-1.7-1.8-2.5-3.4-2.7c-1.7-0.2-3.3,0.2-4.3,1.8
			C131.4,126,131.4,127.4,131.3,128.9z"/>
		<path class="st1" d="M215.4,129.2c0-1.9,0-3.8,0-5.7c0-0.6-0.2-0.8-0.7-0.7c-0.7,0-1.3,0-2,0c-0.4,0-0.6-0.1-0.5-0.5
			c0-0.1,0-0.1,0-0.2c0-0.9-0.3-2,0.1-2.6c0.5-0.6,1.6-0.2,2.5-0.2c0.6,0,0.7-0.2,0.6-0.7c0-1.4,0-2.9,0-4.3c0-0.5,0.1-0.7,0.6-0.7
			c1.3,0,2.6,0,3.9,0c0.5,0,0.7,0.1,0.6,0.6c0,1.5,0,3,0,4.4c0,0.5,0.1,0.7,0.7,0.7c0.9,0,1.8,0,2.6,0c0.5,0,0.7,0.2,0.6,0.6
			c0,0.8,0,1.5,0,2.3c0,0.5-0.1,0.7-0.6,0.6c-0.9,0-1.8,0-2.7,0c-0.4,0-0.6,0.1-0.6,0.6c0,3,0,6,0,9c0,1.8,1.1,2.5,3.3,2.1
			c0.7-0.1,0.7,0.1,0.7,0.6c0,0.8-0.1,1.6,0,2.4c0.1,0.9-0.3,1.2-1.1,1.3c-1.8,0.1-3.6,0.1-5.3-0.4c-1.7-0.5-2.6-1.9-2.6-3.6
			C215.4,132.9,215.4,131.1,215.4,129.2z"/>
		<path class="st2" d="M232.2,129c0,2.8,0,5.7,0,8.5c0,0.9-0.3,1.1-1.1,1.1c-1.2-0.1-2.4,0-3.6,0c-0.5,0-0.7-0.1-0.7-0.7
			c0-5.9,0-11.8,0-17.8c0-0.6,0.2-0.7,0.8-0.7c1.3,0,2.5,0,3.8,0c0.7,0,0.9,0.2,0.8,0.8C232.1,123.1,232.2,126,232.2,129z"/>
		<path class="st3" d="M229.5,112.2c0.7,0,1.3,0,2,0c0.5,0,0.8,0.1,0.7,0.7c0,1,0,1.9,0,2.9c0,0.5-0.1,0.7-0.6,0.7
			c-1.4,0-2.8,0-4.1,0c-0.4,0-0.6-0.1-0.6-0.6c0-1,0-2.1,0-3.1c0-0.5,0.2-0.6,0.6-0.6C228.1,112.2,228.8,112.2,229.5,112.2z"/>
		<path class="st4" d="M184.2,128.9c-0.1,1.5-0.1,2.9-0.9,4.3c-0.9,1.5-2.4,2-4.1,1.8c-1.6-0.2-2.8-1-3.4-2.7
			c-0.9-2.4-1-4.9,0.2-7.2c1.2-2.4,4.6-2.9,6.6-1.1C184.1,125.3,184,127.1,184.2,128.9z"/>
		<path class="st5" d="M204.9,129.2c0.2,1.3,0.1,2.5-0.3,3.5c-0.7,2.3-2,2.8-4.4,2.7c-0.5,0-1-0.1-1.5-0.3c-1.5-0.4-1.6-2.7-0.9-3.5
			c0.6-0.7,1.4-1.2,2.3-1.3C201.8,130,203.4,130,204.9,129.2z"/>
		<path class="st4" d="M240.7,128.9c0.1-1.8,0.1-3.6,1.7-5c1.3-1.1,3.8-1.4,5.3-0.4c1.7,1.1,2,2.9,2.3,4.6c0.2,1.6-0.1,3.2-0.8,4.7
			c-0.5,1-1.3,1.7-2.4,2c-2.8,0.9-5.5-0.8-5.8-3.7C240.9,130.3,240.7,129.6,240.7,128.9z"/>
		<path class="st4" d="M131.3,128.9c0.1-1.4,0.1-2.9,0.9-4.2c1-1.6,2.6-2,4.3-1.8c1.6,0.2,2.8,1,3.4,2.7c0.9,2.4,0.8,4.8-0.2,7.2
			c-0.5,1.2-1.6,1.9-2.9,2.1c-2.7,0.5-4.9-0.8-5.3-3.7C131.4,130.4,131.3,129.7,131.3,128.9z"/>
	</g>
	<g id="surface1">
		<path class="st6" d="M23.5,72.3h66.2c0,22.1,0,44.2,0,66.3c-22.1,0-44.1,0-66.2,0V72.3 M80.8,120.3c0,0.1,0,0.3,0,0.4
			c0.3,0,0.6,0,0.9,0c0,0.9,0,1.8,0,2.6c0.2,0,0.3,0,0.5,0c0-0.9,0-1.8,0-2.6c0.3,0,0.6,0,1,0c0-0.1,0-0.3,0-0.4
			C82.4,120.3,81.6,120.3,80.8,120.3 M83.8,120.3c0,1,0,2,0,3.1c0.2,0,0.3,0,0.5,0c0-0.8,0-1.7,0-2.5c0.3,0.8,0.7,1.7,1,2.5
			c0.1,0,0.2,0,0.3,0c0.3-0.8,0.7-1.7,1-2.5c0,0.8,0,1.7,0,2.5c0.2,0,0.3,0,0.5,0c0-1,0-2,0-3.1c-0.3,0-0.5,0-0.8,0
			c-0.3,0.8-0.6,1.5-0.9,2.3c-0.3-0.8-0.6-1.5-0.9-2.3C84.3,120.3,84.1,120.3,83.8,120.3 M31.4,123.5c-1.3,0.1-2.6,0.6-3.4,1.7
			c-0.7,0.9-0.9,2-0.9,3.1c0,1,0.2,2.1,0.7,3c0.4,0.7,1.1,1.3,1.9,1.6c0.9,0.4,2,0.5,3,0.2c0.9-0.2,1.8-0.7,2.4-1.4
			c0.5-0.7,0.9-1.5,1-2.3c0.1-1,0.1-2-0.2-2.9c-0.3-0.9-0.8-1.7-1.6-2.2C33.5,123.7,32.4,123.5,31.4,123.5 M40.2,124.8
			c0-0.4,0-0.7,0-1.1c-0.8,0-1.5,0-2.3,0c0,3.1,0,6.2,0,9.2c0.8,0,1.7,0,2.5,0c0-2,0-4.1,0-6.1c0.1-0.3,0.4-0.5,0.7-0.7
			c0.6-0.3,1.3-0.3,2-0.3c0-0.8,0-1.5,0-2.3C41.9,123.5,40.9,124,40.2,124.8 M46.2,123.8c-0.8,0.3-1.6,0.8-2.1,1.5
			c0.5,0.3,1.1,0.6,1.7,0.9c0.5-0.6,1.2-1,1.9-1c0.5,0,1.2,0,1.6,0.4c0.3,0.3,0.2,0.7,0.2,1.1c-1.3,0.1-2.5,0.4-3.7,0.9
			c-0.7,0.3-1.3,0.7-1.7,1.3c-0.4,0.7-0.5,1.6-0.2,2.4c0.2,0.6,0.7,1.2,1.3,1.5c0.7,0.3,1.5,0.3,2.3,0.2c0.7-0.1,1.5-0.4,2.1-0.8
			c0.1,0.3,0.1,0.5,0.2,0.8c0.7,0,1.4,0,2.2,0c0-2.1,0-4.3,0-6.4c0-0.6-0.1-1.3-0.5-1.8c-0.5-0.7-1.4-1-2.2-1.1
			C48.2,123.5,47.2,123.5,46.2,123.8 M58.3,123.6c-0.9,0.2-1.6,0.7-2.3,1.2c-0.1-0.4-0.2-0.7-0.2-1.1c-0.7,0.1-1.4,0.2-2,0.3
			c0,3,0,6,0,9c0.8,0,1.6,0,2.4,0c0-2.2,0-4.4,0-6.6c0.6-0.5,1.2-0.9,2-1c0.4,0,0.8,0,1.1,0.3c0.3,0.3,0.3,0.8,0.3,1.2
			c0,2.1,0,4.1,0,6.2c0.8,0,1.6,0,2.4,0c0-2.2,0-4.4,0-6.6c0-0.4-0.1-0.9-0.2-1.3c-0.2-0.6-0.6-1-1.1-1.3
			C59.9,123.5,59.1,123.5,58.3,123.6 M64.6,125c-0.7,1-1,2.3-1,3.5c0,1.1,0.3,2.3,1,3.2c0.6,0.7,1.4,1.2,2.4,1.3
			c0.7,0.1,1.4,0,2-0.3c0.4-0.2,0.7-0.6,0.9-1c0,0.4,0,0.8,0,1.2c0,0.5-0.1,1.1-0.4,1.5c-0.3,0.4-0.8,0.5-1.3,0.5
			c-0.5,0-1,0-1.5-0.3c-0.2-0.1-0.3-0.4-0.4-0.6c-0.8,0.1-1.6,0.3-2.4,0.4c0.1,0.7,0.7,1.4,1.3,1.7c1,0.6,2.3,0.6,3.4,0.5
			c1-0.1,2-0.4,2.8-1.1c0.6-0.7,0.8-1.6,0.9-2.5c0-3.1,0-6.1,0-9.2c-0.7,0-1.4,0-2.1,0c-0.1,0.3-0.1,0.7-0.2,1
			c-0.2-0.4-0.6-0.7-1.1-0.9c-0.6-0.2-1.2-0.3-1.9-0.3C66.1,123.6,65.2,124.2,64.6,125 M74.8,124.9c-0.7,0.8-1,1.8-1,2.9
			c-0.1,1.1,0,2.3,0.5,3.3c0.4,0.8,1.1,1.4,1.9,1.8c1.1,0.4,2.2,0.4,3.3,0.2c1.1-0.2,2.1-0.9,2.6-1.9c-0.6-0.3-1.2-0.7-1.8-1
			c-0.3,0.4-0.6,0.7-1,1c-0.5,0.2-1,0.3-1.5,0.2c-0.5-0.1-1-0.3-1.2-0.8c-0.3-0.5-0.4-1.2-0.4-1.8c2,0,4.1,0,6.1,0
			c0.1-0.8,0-1.6-0.2-2.4c-0.3-0.8-0.8-1.6-1.5-2.1c-0.9-0.6-2.1-0.7-3.2-0.6C76.3,123.7,75.4,124.2,74.8,124.9z"/>
		<path class="st6" d="M76.7,125.8c0.3-0.3,0.7-0.5,1.2-0.5c0.6,0,1.2,0.1,1.6,0.6c0.3,0.4,0.5,0.9,0.5,1.4c-1.2,0-2.5,0-3.7,0
			C76.2,126.7,76.3,126.1,76.7,125.8z"/>
		<path class="st6" d="M67.6,125.3c0.6-0.1,1.2,0.1,1.6,0.5c0.5,0.5,0.7,1.2,0.7,1.8c0,0.5,0,1-0.1,1.5c-0.1,0.5-0.3,1-0.6,1.4
			c-0.3,0.3-0.8,0.5-1.3,0.5c-0.4,0-0.9-0.1-1.2-0.5c-0.4-0.4-0.5-1-0.6-1.6c-0.1-0.6-0.1-1.1,0-1.7c0.1-0.5,0.2-1,0.6-1.4
			C66.9,125.6,67.2,125.4,67.6,125.3z"/>
		<path class="st6" d="M31.3,125.6c0.6-0.1,1.3,0,1.7,0.4c0.4,0.4,0.6,0.9,0.7,1.5c0.1,0.6,0.1,1.3,0,1.9c-0.1,0.5-0.4,1.1-0.8,1.4
			c-0.5,0.4-1.2,0.4-1.8,0.3c-0.5-0.1-0.9-0.4-1.2-0.9c-0.4-0.6-0.4-1.4-0.4-2.1c0-0.6,0.1-1.3,0.5-1.8
			C30.3,126,30.8,125.7,31.3,125.6z"/>
		<path class="st6" d="M47.2,128.8c0.7-0.3,1.4-0.4,2.2-0.5c0,0.7,0,1.4,0,2.2c-0.6,0.6-1.4,1-2.3,1c-0.3,0-0.6-0.1-0.8-0.3
			c-0.4-0.4-0.4-1.1-0.1-1.5C46.5,129.2,46.8,129,47.2,128.8z"/>
		<path class="st7" d="M89.7,72.3L89.7,72.3l0.1,66.4H23.5v-0.1c22.1,0,44.1,0,66.2,0C89.7,116.5,89.7,94.4,89.7,72.3z"/>
		<path class="st8" d="M80.8,120.3c0.8,0,1.6,0,2.4,0c0,0.1,0,0.3,0,0.4c-0.3,0-0.6,0-1,0c0,0.9,0,1.8,0,2.6c-0.2,0-0.3,0-0.5,0
			c0-0.9,0-1.8,0-2.6c-0.3,0-0.6,0-0.9,0C80.8,120.5,80.8,120.4,80.8,120.3z"/>
		<path class="st8" d="M83.8,120.3c0.3,0,0.5,0,0.8,0c0.3,0.8,0.6,1.5,0.9,2.3c0.3-0.8,0.6-1.5,0.9-2.3c0.3,0,0.5,0,0.8,0
			c0,1,0,2,0,3.1c-0.2,0-0.3,0-0.5,0c0-0.8,0-1.7,0-2.5c-0.3,0.8-0.7,1.7-1,2.5c-0.1,0-0.2,0-0.3,0c-0.3-0.8-0.6-1.7-1-2.5
			c0,0.8,0,1.7,0,2.5c-0.2,0-0.3,0-0.5,0C83.8,122.3,83.8,121.3,83.8,120.3z"/>
		<path class="st8" d="M31.4,123.5c1.1-0.1,2.2,0.2,3,0.8c0.8,0.5,1.3,1.3,1.6,2.2c0.3,0.9,0.3,1.9,0.2,2.9c-0.1,0.8-0.4,1.7-1,2.3
			c-0.6,0.7-1.5,1.2-2.4,1.4c-1,0.2-2.1,0.1-3-0.2c-0.8-0.3-1.5-0.9-1.9-1.6c-0.6-0.9-0.8-1.9-0.7-3c0-1.1,0.3-2.2,0.9-3.1
			C28.8,124.2,30.1,123.6,31.4,123.5 M31.3,125.6c-0.5,0.1-1,0.3-1.2,0.8c-0.4,0.5-0.5,1.2-0.5,1.8c0,0.7,0.1,1.5,0.4,2.1
			c0.2,0.4,0.7,0.8,1.2,0.9c0.6,0.1,1.3,0.1,1.8-0.3c0.5-0.3,0.7-0.9,0.8-1.4c0.1-0.6,0.1-1.3,0-1.9c-0.1-0.6-0.3-1.1-0.7-1.5
			C32.5,125.6,31.8,125.5,31.3,125.6z"/>
		<path class="st8" d="M40.2,124.8c0.7-0.8,1.8-1.3,2.9-1.2c0,0.8,0,1.5,0,2.3c-0.7,0-1.4,0-2,0.3c-0.3,0.1-0.6,0.4-0.7,0.7
			c0,2,0,4.1,0,6.1c-0.8,0-1.7,0-2.5,0c0-3.1,0-6.2,0-9.2c0.8,0,1.5,0,2.3,0C40.2,124.1,40.2,124.5,40.2,124.8z"/>
		<path class="st8" d="M46.2,123.8c0.9-0.3,2-0.3,2.9-0.2c0.8,0.1,1.7,0.5,2.2,1.1c0.4,0.5,0.5,1.2,0.5,1.8c0,2.1,0,4.3,0,6.4
			c-0.7,0-1.4,0-2.2,0c-0.1-0.3-0.1-0.5-0.2-0.8c-0.6,0.4-1.3,0.7-2.1,0.8c-0.7,0.1-1.6,0.1-2.3-0.2c-0.6-0.3-1.1-0.8-1.3-1.5
			c-0.2-0.8-0.2-1.7,0.2-2.4c0.4-0.6,1-1,1.7-1.3c1.2-0.5,2.4-0.7,3.7-0.9c0-0.4,0.1-0.8-0.2-1.1c-0.4-0.4-1-0.5-1.6-0.4
			c-0.8,0.1-1.4,0.5-1.9,1c-0.6-0.3-1.1-0.6-1.7-0.9C44.6,124.7,45.4,124.1,46.2,123.8 M47.2,128.8c-0.4,0.2-0.8,0.4-1,0.8
			c-0.3,0.5-0.2,1.1,0.1,1.5c0.2,0.2,0.5,0.3,0.8,0.3c0.8,0,1.6-0.4,2.3-1c0-0.7,0-1.4,0-2.2C48.7,128.4,47.9,128.5,47.2,128.8z"/>
		<path class="st8" d="M58.3,123.6c0.8-0.1,1.6-0.1,2.3,0.2c0.5,0.2,0.9,0.7,1.1,1.3c0.2,0.4,0.2,0.9,0.2,1.3c0,2.2,0,4.4,0,6.6
			c-0.8,0-1.6,0-2.4,0c0-2.1,0-4.1,0-6.2c0-0.4-0.1-0.8-0.3-1.2c-0.3-0.3-0.7-0.3-1.1-0.3c-0.8,0.1-1.4,0.5-2,1c0,2.2,0,4.4,0,6.6
			c-0.8,0-1.6,0-2.4,0c0-3,0-6,0-9c0.7-0.1,1.4-0.2,2-0.3c0.1,0.4,0.1,0.7,0.2,1.1C56.7,124.3,57.4,123.8,58.3,123.6z"/>
		<path class="st8" d="M64.6,125c0.6-0.8,1.5-1.3,2.4-1.4c0.6,0,1.3,0,1.9,0.3c0.4,0.2,0.9,0.5,1.1,0.9c0.1-0.3,0.1-0.7,0.2-1
			c0.7,0,1.4,0,2.1,0c0,3.1,0,6.1,0,9.2c0,0.9-0.2,1.9-0.9,2.5c-0.7,0.8-1.8,1-2.8,1.1c-1.1,0.1-2.4,0-3.4-0.5
			c-0.7-0.4-1.2-1-1.3-1.7c0.8-0.1,1.6-0.3,2.4-0.4c0.1,0.2,0.2,0.5,0.4,0.6c0.4,0.3,1,0.3,1.5,0.3c0.5,0,1-0.1,1.3-0.5
			c0.4-0.4,0.4-1,0.4-1.5c0-0.4,0-0.8,0-1.2c-0.2,0.4-0.5,0.8-0.9,1c-0.6,0.3-1.3,0.4-2,0.3c-0.9-0.1-1.8-0.5-2.4-1.3
			c-0.7-0.9-1-2.1-1-3.2C63.6,127.3,63.9,126,64.6,125 M67.6,125.3c-0.4,0.1-0.7,0.3-0.9,0.5c-0.3,0.4-0.5,0.9-0.6,1.4
			c-0.1,0.6-0.1,1.1,0,1.7c0.1,0.6,0.2,1.2,0.6,1.6c0.3,0.3,0.8,0.5,1.2,0.5c0.5,0,1-0.1,1.3-0.5c0.4-0.4,0.5-0.9,0.6-1.4
			c0.1-0.5,0.1-1,0.1-1.5c0-0.7-0.2-1.4-0.7-1.8C68.8,125.4,68.2,125.2,67.6,125.3z"/>
		<path class="st8" d="M74.8,124.9c0.6-0.8,1.6-1.2,2.5-1.3c1.1-0.1,2.2,0,3.2,0.6c0.8,0.5,1.3,1.3,1.5,2.1c0.2,0.8,0.3,1.6,0.2,2.4
			c-2,0-4.1,0-6.1,0c0,0.6,0.1,1.3,0.4,1.8c0.3,0.4,0.7,0.7,1.2,0.8c0.5,0.1,1.1,0,1.5-0.2c0.4-0.2,0.7-0.6,1-1
			c0.6,0.3,1.2,0.7,1.8,1c-0.5,1-1.6,1.6-2.6,1.9c-1.1,0.2-2.3,0.2-3.3-0.2c-0.8-0.3-1.5-1-1.9-1.8c-0.5-1-0.6-2.2-0.5-3.3
			C73.8,126.8,74.1,125.7,74.8,124.9 M76.7,125.8c-0.3,0.4-0.5,0.9-0.5,1.4c1.2,0,2.5,0,3.7,0c0-0.5-0.1-1-0.5-1.4
			c-0.4-0.4-1-0.6-1.6-0.6C77.4,125.2,77,125.4,76.7,125.8z"/>
	</g>
</g>
</svg>
