<?xml version="1.0" encoding="utf-8"?>
<!-- Generator: Adobe Illustrator 22.0.0, SVG Export Plug-In . SVG Version: 6.00 Build 0)  -->
<svg version="1.1" id="Layer_2" xmlns="http://www.w3.org/2000/svg" xmlns:xlink="http://www.w3.org/1999/xlink" x="0px" y="0px"
	 viewBox="0 0 300 211.3" style="enable-background:new 0 0 300 211.3;" xml:space="preserve">
<style type="text/css">
	.st0{fill:#269CD3;}
	.st1{fill:#DF0F1E;}
	.st2{fill:#231F23;}
	.st3{fill:#231F22;}
	.st4{fill:#252125;}
	.st5{fill:#FDCC13;}
	.st6{fill:#272327;}
	.st7{fill:#242024;}
	.st8{fill:#262326;}
	.st9{fill:#1C181C;}
</style>
<g>
	<path class="st0" d="M135,74.5c-2.5-3.1-4.3-6.2-6.1-9.3c-1.3-2.3-2.5-4.5-2.6-7.3c0-1.5,0.4-2,1.8-1.9c4.8,0.3,9.3,1.8,13.3,4.4
		c2.9,1.9,6.2,3.3,8.4,6.2c0.6,0.8,1.6,0.9,2.4,0.3c3.3-2.6,7.4-3.7,10.7-6.2c5.5-4.3,11.9-7.2,18-10.5c1.6-0.9,2.7-2.6,4.9-2.4
		c1.4,0.1,2,0.6,1.7,2c-0.5,2.9-2,5.3-3.6,7.6c-4.2,6.4-8.3,12.8-13.7,18.3c-1.4,1.4-1.5,2.6,0.3,3.6c2.6,1.5,3.4,4.6,5.9,6.3
		c3.4,2.3,5.5,5.7,7.5,9.2c0.7,1.2,1.6,2.2,2.3,3.4c4.7,7.8,8.6,16,12.2,24.3c0.3,0.7,0.3,1.3-0.1,1.8c-0.5,0.7-1,0.2-1.6,0
		c-3.7-1.1-7.1-3-10.3-5.1c-6.1-4-11.9-8.6-17.7-13.1c-5.8-4.5-11.8-8.7-17.7-13c-1.1-0.8-1.3-0.4-2,0.5c-1.1,1.6-1.3,3.6-1.9,5.3
		c-3.2,9.5-8.6,17.7-13.9,26c-1.3,2-3.2,3.6-5.2,5c-1.5,1-2.4,0.5-2.5-1.4c-0.3-5.5,0.4-10.9,1.6-16.2c0.7-3,1.2-6.2,2.1-9.1
		c1.3-3.9,2.3-7.9,3.8-11.7c1.6-4.2,1.5-4.1-3-4.3c-6.5-0.2-12.9-1.1-19.2-2.3c-4.3-0.8-8.4-2.1-12.6-3.1c-1.1-0.3-2.3-0.7-2.6-1.7
		c-0.2-1.1,1-1.7,1.8-2.2c3.6-2.3,7.7-3.3,11.9-4c8.1-1.4,16.1-0.7,24.1,0.5C133.8,74.6,134.2,74.5,135,74.5z"/>
	<path class="st1" d="M116.2,106.4c3-0.5,4.9,1.9,5.7,4.7c0.9,3,1.6,5.9,1,9.2c-0.7,4-3.8,7.7-7.4,8.4c-3.2,0.6-8.3-2-10-5
		c-3.5-6.1,1.7-16.4,8.6-17.1C114.7,106.3,115.2,106.4,116.2,106.4z"/>
	<path class="st2" d="M71.7,163.6c-1.8,0-3.6-0.3-5.3-0.9c-5.2-1.6-8.1-5.9-7.6-11.1c0.5-5,4.5-8.8,9.8-9.2c2.4-0.2,4.9-0.1,7.3,0.5
		c1.9,0.5,2.8,1.9,2.4,3.9c-0.1,0.3-0.2,0.6-0.5,0.6c-0.6,0.1-0.9-0.2-1.2-0.7c-1.1-1.9-2.8-2.8-4.9-3c-4.5-0.5-7.6,1.8-8.4,6.3
		c-0.4,2.2-0.3,4.3,0.4,6.4c1.9,5.8,8.9,7.6,13.4,3.5c0.3-0.3,0.6-1,1.2-0.6c0.6,0.4,0.2,0.9,0.1,1.4c-0.2,1.7-1,2.5-2.8,2.5
		C74.3,163.2,73,163.5,71.7,163.6z"/>
	<path class="st3" d="M216.6,161.4c-1.3,1.1-2.5,3.2-4.4,0.7c-0.4-0.5-0.8,0-1.1,0.3c-1.9,1.8-4,1.4-6,0.4c-2.3-1.3-3.1-3.4-2.9-6
		c0.2-2.4,1.3-4.2,3.6-5.2c1.9-0.8,3.8-0.7,6,0.1c-0.4-2.4,1-4.8-1.6-6.5c0.5-0.8,1.3-0.8,1.9-1c0.9-0.3,1.7-1.7,2.5-1
		c0.5,0.5,0.2,1.9,0.2,2.9c0,4.4,0,8.7-0.1,13.1c0,1.4,0.6,1.9,1.8,1.9C216.6,161.2,216.6,161.3,216.6,161.4z M211.8,157.5
		C211.8,157.5,211.8,157.5,211.8,157.5c0-0.8,0-1.6,0-2.3c-0.1-1.4-0.6-2.6-2.3-2.9c-1.7-0.2-2.9,0.4-3.6,2c-0.7,1.7-0.6,3.3,0.2,5
		c0.9,1.7,2.1,2.6,4.1,2.3c2.1-0.4,1.5-2.1,1.6-3.4C211.8,158,211.8,157.7,211.8,157.5z"/>
	<path class="st4" d="M149.7,163.1c-0.3,0-0.5,0.1-0.8,0.1c-1.9,0-3.8,0-5.9-0.2c1.8-1,1.7-2.6,1.7-4.2c0-3.8-0.1-7.6-0.4-11.4
		c-0.1-1.5,0-3-1.8-3.8c4.6-0.6,9.2,0,13.8-0.6c0,0.4,0.1,0.8,0,1.2c-0.1,0.8,0.5,1.9-0.4,2.4c-0.9,0.5-1.1-0.9-1.7-1.3
		c-1.8-1.1-3.8-0.5-5.7-0.6c-0.6,0-0.5,0.6-0.5,1c0,1-0.1,2,0,3c0.1,1.1-0.6,2.5,0.4,3.4c0.8,0.7,4.8-0.1,5.6-0.9
		c0.3-0.2,0.4-0.6,0.8-0.5c0.6,0.1,0.4,0.7,0.4,1.1c0,0.3,0,0.6,0,0.9c-0.1,0.9,0.5,2.1-0.3,2.6c-0.9,0.6-0.9-1-1.7-1.2
		c-1.6-0.6-3.3-0.3-4.9-0.2c-0.7,0-0.5,0.8-0.5,1.2c0,1.6,0,3.2-0.1,4.7C147.9,161.2,148.1,162.3,149.7,163.1z"/>
	<path class="st5" d="M120.2,89.3c2.8,0,4.9,2.6,4.9,5.7c0,2.6-3.2,4.8-6.5,4.7c-3.1-0.1-5.3-2.2-5.3-4.9
		C113.4,91.3,116,89.3,120.2,89.3z"/>
	<path class="st4" d="M200.5,163.1c-1.6,0-3.1,0-4.7,0c1.4-3,1.1-6.1,0.4-9.1c-0.3-1.2-1.5-1.4-2.6-1.2c-1.2,0.2-1.8,0.7-1.7,2
		c0.1,1.6,0,3.3-0.1,4.9c0,1.2-0.2,2.4,1.3,3.3c-2,0-3.6,0-5.3,0c1.6-2.3,1.4-8.8-0.4-10.5c1.2-0.5,2.4-1,3.6-1.4
		c0.4-0.2,0.9-0.4,1,0.2c0.2,1.2,0.8,0.4,1.2,0.2c4.1-1.6,6.5,0,6.5,4.3c0,1.4,0,2.9,0,4.3C199.6,161.2,199.7,162.2,200.5,163.1z"/>
	<path class="st2" d="M180.3,151.5c2.1,0,3.6,0,5.2,0c-1.7,2.7-1,9.9,1.1,10.5c-1.5,1-2.7,2.2-4.3,0.5c-0.6-0.6-1-0.1-1.5,0.2
		c-4.6,2-7.2,0.2-7.2-4.8c0-1.1,0-2.3-0.1-3.4c0-1,0.2-2.1-1.3-3c2.1,0,3.7,0,5.9,0c-1.6,0.8-1.7,1.9-1.6,3c0.1,1.4,0.1,2.9,0.1,4.3
		c0,1.8,1,2.8,2.8,2.8c1.5,0.1,2.6-0.3,2.4-2.3c-0.2-1.6-0.1-3.1,0-4.7C181.7,153.6,181.8,152.4,180.3,151.5z"/>
	<path class="st4" d="M275.1,163.1c-1.6,0-3.1,0-4.7,0c1.6-2.9,1-5.9,0.5-8.9c-0.2-1.3-1.4-1.6-2.7-1.5c-1.3,0.2-1.8,0.9-1.7,2.2
		c0.1,1.6,0,3.3,0,4.9c0,1.1-0.3,2.3,1.7,3.2c-2.4,0-3.9,0-5.7,0c1.6-1.6,1.1-3.6,1-5.4c-0.1-1.7,0.7-3.8-1.5-5.1
		c1.3-0.5,2.5-1,3.7-1.5c0.1-0.1,0.4-0.2,0.4-0.1c1.4,1.9,2.8-0.2,4.3,0c2.5,0.2,3.9,1.3,4,3.8c0.1,1.8,0,3.6,0,5.4
		C274.2,161.2,274.2,162.1,275.1,163.1z"/>
	<path class="st6" d="M92.4,161.4c-1.6,1.6-2.7,2.9-4.5,1.2c-0.6-0.6-1.1,0.1-1.5,0.3c-1.7,1-3.3,0.8-4.8-0.3
		c-1.1-0.8-1.5-1.9-1.2-3.2c0.4-1.9,1.7-2.7,3.4-3.2c0.6-0.2,1.3-0.2,1.9-0.3c0.6-0.2,1.6,0.6,1.6-0.6c0-1-0.3-2-1.5-2.3
		c-0.9-0.2-1.8,0-2.6,0.6c-0.4,0.3-0.9,1.4-1.4,0.5c-0.4-0.7-0.8-2.2,0.5-2.5c2.2-0.6,4.5-0.8,6.7,0.3c1.1,0.6,1.5,1.7,1.4,2.9
		c0,1.6,0,3.2-0.1,4.7C90.2,160.7,90.5,161.6,92.4,161.4z M87.4,159.2c-0.1-1,0.5-2.4-1.5-2.3c-1.5,0.1-2.7,0.8-2.7,2.4
		c0,1.5,1,2.3,2.5,2.3C87.6,161.7,87.5,160.5,87.4,159.2z"/>
	<path class="st7" d="M253.7,151c3.9,0,6.8,2.6,6.8,6.2c0,3.6-3,6.4-7,6.3c-3.9-0.1-6.8-2.8-6.7-6.4
		C246.9,153.6,249.8,151,253.7,151z M257.2,157.2c-0.1-0.7-0.1-1.3-0.2-1.9c-0.4-1.6-1.3-2.9-3.2-3c-2-0.1-3,1.1-3.5,2.8
		c-0.4,1.4-0.4,2.8,0,4.2c0.5,1.8,1.5,3,3.4,2.9c1.9-0.1,2.8-1.3,3.2-3C257.2,158.6,257.2,157.9,257.2,157.2z"/>
	<path class="st7" d="M171.3,157.3c0,3.5-3,6.2-6.8,6.2c-4,0-6.9-2.8-6.9-6.4c0.1-3.6,3-6.1,6.9-6.1
		C168.5,151.1,171.4,153.7,171.3,157.3z M168.1,157.3c-0.1-0.7-0.1-1.5-0.3-2.2c-0.5-1.6-1.3-2.8-3.3-2.9c-2,0-3,1.2-3.4,2.9
		c-0.3,1.3-0.3,2.7,0,4c0.4,1.7,1.4,3,3.4,3c1.9,0,2.8-1.2,3.3-2.9C168,158.7,168,158,168.1,157.3z"/>
	<path class="st8" d="M216.6,161.4c0-0.1,0-0.2,0-0.2c0.3,0.1,0.5,0,0.6-0.4c0.5-3.5,1.8-4.6,5.2-4.9c0.6-0.1,2,0.8,1.8-0.9
		c-0.1-1.3-0.7-2.2-2.2-2.1c-0.7,0-1.4,0.3-2,0.7c-0.4,0.3-1,1.4-1.4,0.4c-0.3-0.7-0.8-2.1,0.6-2.5c2.1-0.6,4.2-0.7,6.3,0.2
		c1.4,0.6,1.8,1.8,1.8,3.2c0,1.5-0.1,3-0.1,4.5c-0.1,1.2,0.1,2.3,2,2.2c-1.4,1.5-2.4,2.8-4.2,1.2c-0.4-0.3-0.7-0.4-1.1-0.1
		c-2.6,1.6-4.7,1.2-6.4-1.3C217.1,161,216.8,161.3,216.6,161.4z M224.3,159.1c0.6-1.9-0.8-2.5-2.2-2.3c-1.1,0.1-2,1.3-1.9,2.6
		c0.1,1.5,1,2.2,2.5,2.3C224.5,161.7,224.4,160.5,224.3,159.1z"/>
	<path class="st4" d="M54.8,161.2c-1.6,1.7-2.7,3-4.5,1.4c-0.7-0.7-1.2,0-1.7,0.3c-1.7,0.9-3.3,0.8-4.8-0.4
		c-1.9-1.4-1.6-4.2,0.5-5.6c1.1-0.7,2.4-1,3.7-1.1c0.6-0.1,1.6,0.6,1.6-0.7c0-1-0.3-1.9-1.4-2.2c-1-0.3-2,0-2.8,0.6
		c-0.4,0.3-0.9,1.4-1.4,0.4c-0.3-0.6-0.6-1.8,0.4-2.5c1.3-0.8,5.9-0.4,7.1,0.5c0.9,0.7,1.1,1.6,1.1,2.7c0,1.6-0.1,3.1-0.1,4.7
		C52.6,160.5,52.4,161.8,54.8,161.2z M49.8,159.6c-0.2-1.3,0.4-2.8-1.5-2.6c-1.5,0.1-2.6,0.7-2.6,2.4c0,1.6,1,2.3,2.5,2.3
		C49.9,161.7,50,160.6,49.8,159.6z"/>
	<path class="st4" d="M124.8,161.4c-1.4,1.5-2.5,2.8-4.3,1.2c-0.7-0.7-1.2,0-1.7,0.3c-2,0.9-4.3,0.5-5.4-1c-1.4-1.9-0.4-4.6,2.1-5.5
		c0.8-0.3,1.7-0.3,2.5-0.6c0.6-0.2,1.9,0.7,1.8-1c-0.1-1.2-0.7-2-2-2.1c-0.8,0-1.5,0.2-2.2,0.7c-0.4,0.3-0.9,1.4-1.4,0.3
		c-0.3-0.6-0.7-2.1,0.5-2.4c2.3-0.6,4.7-0.9,6.9,0.4c1,0.6,1.3,1.7,1.3,2.8c0,1.5-0.1,3-0.1,4.5
		C122.7,160.4,122.7,161.6,124.8,161.4z M119.8,158.8c-0.1-0.3,0.8-2-1.2-1.8c-1.5,0.1-2.7,0.7-2.7,2.4c0,1.6,1,2.3,2.5,2.3
		C119.9,161.7,120.2,160.7,119.8,158.8z"/>
	<path class="st2" d="M99.1,151.4c1.5,0,2.5-0.1,3.5,0c0.9,0.1,2.7-1,1.9,1.5c-0.2,0.6,1,1.6,1.7,2.6c0.8-1.3,2.8-2,1-4.1
		c1.7,0,3.2,0,5.4,0c-2.3,1.2-3.3,2.8-4.6,4.3c-0.6,0.7-0.7,1.2-0.1,2c1.4,1.6,2.4,3.7,4.8,5.2c-2.3,0-4,0-5.7,0
		c0.9-1.9-0.6-2.7-1.6-4.1c-0.7,1.4-2.8,2.1-1.2,4.1c-1.6,0-2.9,0-4.7,0c1.9-1.3,3-2.9,4.2-4.3c0.6-0.7,0.9-1.3,0.1-2.2
		C102.3,155,101.3,153.1,99.1,151.4z"/>
	<path class="st3" d="M41.5,163.1c-1.6,0-3.3,0-4.9,0c1.8-2.9,1.3-16.5-0.8-18.2c1.6-0.7,3.1-1.3,4.8-2.1c0,5.7,0,11.2,0,16.8
		C40.5,160.8,40.2,162.1,41.5,163.1z"/>
	<path class="st7" d="M233.5,147.3c0.6,0.8,0.5,1.3,0.5,1.8c-0.2,1.7,0.1,2.8,2.2,2.4c0.4-0.1,1-0.2,1.1,0.6
		c0.1,0.9-0.6,0.9-1.1,0.8c-2.3-0.4-2.7,0.8-2.4,2.6c0.1,0.8,0,1.6,0,2.4c0,3,0.5,3.4,3.5,2.8c-0.9,1.1-1.5,2.8-3.4,2.7
		c-1.8-0.1-3-1.8-3-3.8c0-1.7,0-3.4,0-5.1c0-0.6,0.4-1.5-0.9-1.5c-0.5,0-0.6-0.6-0.3-0.7C231.6,151.1,232.4,149.1,233.5,147.3z"/>
	<path class="st9" d="M98.1,163.1c-1.6,0-3.1,0-4.7,0c1.5-3,1.1-8.6-0.9-10.4c1.3-0.5,2.4-1.1,3.6-1.5c1.2-0.4,0.9,0.5,0.9,1.1
		c0,2.6,0.1,5.2,0.1,7.7C97.1,161.1,97,162.2,98.1,163.1z"/>
	<path class="st7" d="M239.6,152.6c4.5-1.9,4.5-1.9,4.6,2.8c0,1.4,0,2.9,0,4.3c0,1.2-0.4,2.5,1,3.3c-1.6,0-3.2,0-4.8,0
		C241.9,160.4,241.5,154.5,239.6,152.6z"/>
	<path class="st6" d="M129.9,146.6c0-0.7-0.2-1.2-0.6-1.7c-0.4-0.4-1.2-0.6-0.8-1.5c0.5-0.8,1.2-0.6,1.9-0.5c0.8,0,1.2,0.6,1.3,1.4
		c0.2,1.3-0.1,2.6-0.9,3.7c-0.6,0.8-0.4,2.8-1.7,2.4c-0.9-0.3,0.4-1.8,0.5-2.8C129.7,147.2,129.9,146.9,129.9,146.6z"/>
	<path class="st4" d="M125.9,142.9c1.7,0,2,1.1,1.9,2.4c-0.1,1.8-1.3,3.3-2,4.9c-0.1,0.3-0.3,0.5-0.7,0.3c-0.4-0.1-0.4-0.4-0.3-0.7
		c0.2-0.7,0.4-1.3,0.6-2c0.3-1.1,0.6-2.3-0.5-3.1c-0.4-0.3-0.8-0.6-0.6-1.2C124.8,142.8,125.4,142.9,125.9,142.9z"/>
	<path class="st6" d="M95.5,146.2c1,0.1,1.7,0.5,1.7,1.6c0,0.9-0.7,1.4-1.6,1.4c-0.9,0-1.7-0.5-1.7-1.5
		C93.9,146.7,94.6,146.3,95.5,146.2z"/>
	<path class="st9" d="M242.6,149.2c-1-0.2-1.6-0.5-1.6-1.5c0-1.1,0.7-1.5,1.7-1.5c0.9,0,1.5,0.5,1.5,1.4
		C244.2,148.8,243.4,149,242.6,149.2z"/>
	<rect x="24.9" y="136.4" class="st4" width="250.2" height="1.5"/>
	<g>
		<path class="st6" d="M27.2,146.6c0-0.7,0.2-1.2,0.6-1.7c0.4-0.4,1.2-0.6,0.8-1.5c-0.5-0.8-1.2-0.6-1.9-0.5c-0.8,0-1.2,0.6-1.3,1.4
			c-0.2,1.3,0.1,2.6,0.9,3.7c0.6,0.8,0.4,2.8,1.7,2.4c0.9-0.3-0.4-1.8-0.5-2.8C27.4,147.2,27.2,146.9,27.2,146.6z"/>
		<path class="st4" d="M31.2,142.9c-1.7,0-2,1.1-1.9,2.4c0.1,1.8,1.3,3.3,2,4.9c0.1,0.3,0.3,0.5,0.7,0.3c0.4-0.1,0.4-0.4,0.3-0.7
			c-0.2-0.7-0.4-1.3-0.6-2c-0.3-1.1-0.6-2.3,0.5-3.1c0.4-0.3,0.8-0.6,0.6-1.2C32.4,142.8,31.8,142.9,31.2,142.9z"/>
	</g>
</g>
</svg>
