<?xml version="1.0" encoding="utf-8"?>
<!-- Generator: Adobe Illustrator 22.0.0, SVG Export Plug-In . SVG Version: 6.00 Build 0)  -->
<svg version="1.1" id="Layer_2_1_" xmlns="http://www.w3.org/2000/svg" xmlns:xlink="http://www.w3.org/1999/xlink" x="0px" y="0px"
	 viewBox="0 0 300 211.3" style="enable-background:new 0 0 300 211.3;" xml:space="preserve">
<style type="text/css">
	.st0{fill:#A5001E;}
	.st1{fill:#7F7F7F;}
</style>
<g id="layer1" transform="translate(290.49997,-497.92247)" inkscape:groupmode="layer" inkscape:label="Layer 1">
	<g id="g19738" transform="matrix(1.4469471,0,0,1.4469471,129.61465,-328.24188)">
		<g id="g19637" transform="matrix(4.3633583,0,0,4.3633583,2344.4728,-2221.5096)">
			<g id="g13654" transform="matrix(0.52665713,0,0,0.54035188,127.24756,240.99265)">
				<g id="g13656" transform="translate(-1218.5293,738.5585)">
					<path id="path13658" inkscape:connector-curvature="0" class="st0" d="M-119.6,21.9v3.8h-0.9l0.1-2.7l0-0.4l0,0.1
						c0,0.2-0.1,0.2-0.1,0.4l-0.7,2.6h-0.8l-0.7-2.5l-0.2-0.7c0,0.3,0,0.4,0,0.7l0,2.4h-0.9v-3.8h1.4l0.6,2.2l0.1,0.6
						c0.1-0.3,0.1-0.3,0.1-0.5l0.6-2.3H-119.6"/>
				</g>
			</g>
			<g id="g13660" transform="matrix(0.52665713,0,0,0.54035188,127.24756,240.99265)">
				<g id="g13662" transform="translate(-1215.6943,745.5305)">
					<path id="path13664" inkscape:connector-curvature="0" class="st0" d="M-121.7,16.7c0-0.2,0-0.4,0.3-0.6
						c0.3-0.2,0.6-0.3,0.9-0.3c0.3,0,1.2,0.1,1.2,0.8v1.7c0,0.3,0,0.3,0.1,0.4h-0.8v-0.3c-0.2,0.2-0.5,0.3-0.9,0.3
						c-0.7,0-0.9-0.5-0.9-0.9c0-0.5,0.4-0.7,0.6-0.8c0.2-0.1,0.8-0.2,1.1-0.3v-0.2c0-0.1,0-0.3-0.3-0.3c-0.4,0-0.4,0.2-0.4,0.3
						H-121.7z M-120.6,17.5c-0.1,0.1-0.4,0.1-0.4,0.4c0,0.1,0.1,0.3,0.3,0.3c0.1,0,0.2,0,0.3-0.1c0.3-0.2,0.3-0.4,0.3-0.7
						L-120.6,17.5"/>
				</g>
			</g>
			<g id="g13666" transform="matrix(0.52665713,0,0,0.54035188,127.24756,240.99265)">
				<g id="g13668" transform="translate(-1202.8434,749.6885)">
					<path id="path13670" inkscape:connector-curvature="0" class="st0" d="M-131.2,13.6c0.2,0.2,0.5,0.4,0.8,0.4
						c0.2,0,0.5-0.1,0.5-0.3c0-0.1-0.1-0.1-0.1-0.2c-0.1-0.1-0.3-0.1-0.5-0.1c-0.1,0-0.3,0-0.4-0.1c-0.2,0-0.3-0.1-0.5-0.2
						c-0.1-0.1-0.2-0.3-0.2-0.5c0-0.5,0.4-1,1.2-1c0.7,0,1.1,0.3,1.3,0.4l-0.5,0.5c-0.3-0.2-0.5-0.3-0.7-0.3c-0.3,0-0.4,0.1-0.4,0.2
						c0,0.2,0.2,0.2,0.5,0.2c0.6,0.1,1.2,0.3,1.2,0.9c0,0.7-0.7,1-1.3,1c-0.8,0-1.2-0.4-1.4-0.5L-131.2,13.6"/>
				</g>
			</g>
			<g id="g13672" transform="matrix(0.52665713,0,0,0.54035188,127.24756,240.99265)">
				<g id="g13674" transform="translate(-1191.9023,749.6885)">
					<path id="path13676" inkscape:connector-curvature="0" class="st0" d="M-139.3,13.6c0.2,0.2,0.5,0.4,0.8,0.4
						c0.2,0,0.5-0.1,0.5-0.3c0-0.1-0.1-0.1-0.1-0.2c-0.1-0.1-0.3-0.1-0.5-0.1c-0.1,0-0.3,0-0.4-0.1c-0.2,0-0.3-0.1-0.5-0.2
						c-0.1-0.1-0.2-0.3-0.2-0.5c0-0.5,0.4-1,1.2-1c0.7,0,1.1,0.3,1.3,0.4l-0.5,0.5c-0.3-0.2-0.5-0.3-0.7-0.3c-0.3,0-0.4,0.1-0.4,0.2
						c0,0.2,0.2,0.2,0.5,0.2c0.6,0.1,1.2,0.3,1.2,0.9c0,0.7-0.7,1-1.3,1c-0.8,0-1.2-0.4-1.4-0.5L-139.3,13.6"/>
				</g>
			</g>
			<g id="g13678" transform="matrix(0.52665713,0,0,0.54035188,127.24756,240.99265)">
				<g id="g13680" transform="translate(-1181.5703,745.5305)">
					<path id="path13682" inkscape:connector-curvature="0" class="st0" d="M-146.9,16.7c0-0.2,0-0.4,0.3-0.6
						c0.3-0.2,0.6-0.3,0.9-0.3c0.3,0,1.2,0.1,1.2,0.8v1.7c0,0.3,0,0.3,0.1,0.4h-0.8v-0.3c-0.2,0.2-0.5,0.3-0.9,0.3
						c-0.7,0-0.9-0.5-0.9-0.9c0-0.5,0.4-0.7,0.6-0.8c0.2-0.1,0.8-0.2,1.1-0.3v-0.2c0-0.1,0-0.3-0.3-0.3c-0.4,0-0.4,0.2-0.4,0.3
						H-146.9z M-145.9,17.5c-0.1,0.1-0.4,0.1-0.4,0.4c0,0.1,0.1,0.3,0.3,0.3c0.1,0,0.2,0,0.3-0.1c0.3-0.2,0.3-0.4,0.3-0.7
						L-145.9,17.5"/>
				</g>
			</g>
			<g id="g13684" transform="matrix(0.52665713,0,0,0.54035188,127.24756,240.99265)">
				<g id="g13686" transform="translate(-1159.7103,750.8015)">
					<path id="path13688" inkscape:connector-curvature="0" class="st0" d="M-163.1,12.8c-0.1,0.2-0.2,0.3-0.4,0.5
						c-0.2,0.2-0.5,0.3-0.8,0.3c-0.5,0-1.4-0.3-1.4-1.5c0-0.8,0.5-1.5,1.4-1.5c0.3,0,0.9,0.1,1.2,0.7l-0.6,0.4
						c0-0.1-0.1-0.2-0.2-0.3c-0.1-0.1-0.2-0.1-0.3-0.1c-0.5,0-0.6,0.5-0.6,0.9c0,0.4,0.2,0.8,0.6,0.8c0,0,0.2,0,0.4-0.2
						c0.1-0.1,0.1-0.1,0.1-0.2L-163.1,12.8"/>
				</g>
			</g>
			<g id="g13690" transform="matrix(0.52665713,0,0,0.54035188,127.24756,240.99265)">
				<g id="g13692" transform="translate(-1155.9673,738.5386)">
					<path id="path13694" inkscape:connector-curvature="0" class="st0" d="M-165.9,21.9v1.3c0.1-0.1,0.4-0.4,0.8-0.4
						c0.2,0,0.4,0.1,0.6,0.2c0.3,0.2,0.3,0.5,0.3,0.8v1.9h-0.8v-1.5c0-0.2,0-0.3,0-0.4c-0.1-0.3-0.3-0.3-0.4-0.3
						c-0.1,0-0.3,0.1-0.3,0.2c-0.1,0.1-0.1,0.4-0.1,0.6v1.4h-0.8v-3.8H-165.9"/>
				</g>
			</g>
			<g id="g13696" transform="matrix(0.52665713,0,0,0.54035188,127.24756,240.99265)">
				<g id="g13698" transform="translate(-1139.9653,742.4225)">
					<path id="path13700" inkscape:connector-curvature="0" class="st0" d="M-177.8,19h0.8v2.8h-0.8v-0.3c-0.1,0.1-0.1,0.1-0.3,0.2
						c-0.2,0.1-0.4,0.1-0.5,0.1c-0.2,0-0.5,0-0.7-0.3c-0.1-0.2-0.2-0.4-0.2-0.8V19h0.8v1.8c0,0.1,0,0.3,0.1,0.3
						c0,0.1,0.2,0.1,0.3,0.1c0,0,0.2,0,0.3-0.1c0.2-0.1,0.2-0.3,0.2-0.4V19"/>
				</g>
			</g>
			<g id="g13702" transform="matrix(0.52665713,0,0,0.54035188,127.24756,240.99265)">
				<g id="g13704" transform="translate(-1133.2664,749.6885)">
					<path id="path13706" inkscape:connector-curvature="0" class="st0" d="M-182.7,13.6c0.2,0.2,0.5,0.4,0.8,0.4
						c0.2,0,0.5-0.1,0.5-0.3c0-0.1-0.1-0.1-0.1-0.2c-0.1-0.1-0.3-0.1-0.5-0.1c-0.1,0-0.3,0-0.4-0.1c-0.2,0-0.3-0.1-0.5-0.2
						c-0.1-0.1-0.2-0.3-0.2-0.5c0-0.5,0.4-1,1.2-1c0.7,0,1.1,0.3,1.3,0.4l-0.5,0.5c-0.3-0.2-0.5-0.3-0.7-0.3c-0.3,0-0.4,0.1-0.4,0.2
						c0,0.2,0.2,0.2,0.5,0.2c0.6,0.1,1.2,0.3,1.2,0.9c0,0.7-0.7,1-1.3,1c-0.8,0-1.2-0.4-1.4-0.5L-182.7,13.6"/>
				</g>
			</g>
			<g id="g13708" transform="matrix(0.52665713,0,0,0.54035188,127.24756,240.99265)">
				<g id="g13710" transform="translate(-1112.6433,750.5906)">
					<path id="path13712" inkscape:connector-curvature="0" class="st0" d="M-198,12.9c-0.1,0.1-0.2,0.3-0.3,0.4
						c-0.2,0.2-0.6,0.4-1.1,0.4c-0.8,0-1.4-0.5-1.4-1.5c0-0.7,0.3-1.6,1.5-1.6c0.2,0,0.7,0,1,0.4c0.4,0.4,0.4,1,0.4,1.3h-2
						c0,0.4,0.2,0.7,0.6,0.7c0.5,0,0.6-0.3,0.7-0.5L-198,12.9z M-198.9,11.9c0-0.1,0-0.3-0.2-0.4c-0.1-0.1-0.3-0.2-0.4-0.2
						c-0.2,0-0.3,0.1-0.4,0.2c-0.1,0.1-0.1,0.3-0.2,0.4H-198.9"/>
				</g>
			</g>
			<g id="g13714" transform="matrix(0.52665713,0,0,0.54035188,127.24756,240.99265)">
				<g id="g13716" transform="translate(-1110.2513,739.2515)">
					<path id="path13718" inkscape:connector-curvature="0" class="st0" d="M-199.8,21.3h0.8v0.9h0.5v0.5h-0.6V24
						c0,0.2,0,0.3,0.2,0.3l0.3,0V25c-0.2,0-0.3,0-0.4,0c-0.3,0-0.6,0-0.8-0.3c-0.1-0.2-0.1-0.4-0.1-0.6v-1.4h-0.4v-0.5h0.4V21.3"/>
				</g>
			</g>
			<g id="g13720" transform="matrix(0.52665713,0,0,0.54035188,127.24756,240.99265)">
				<g id="g13722" transform="translate(-1103.6564,739.2515)">
					<path id="path13724" inkscape:connector-curvature="0" class="st0" d="M-204.7,21.3h0.8v0.9h0.5v0.5h-0.6V24
						c0,0.2,0,0.3,0.2,0.3l0.3,0V25c-0.2,0-0.3,0-0.4,0c-0.3,0-0.6,0-0.8-0.3c-0.1-0.2-0.1-0.4-0.1-0.6v-1.4h-0.4v-0.5h0.4V21.3"/>
				</g>
			</g>
			<g id="g13726" transform="matrix(0.52665713,0,0,0.54035188,127.24756,240.99265)">
				<g id="g13728" transform="translate(-1096.0543,749.6885)">
					<path id="path13730" inkscape:connector-curvature="0" class="st0" d="M-210.3,13.6c0.2,0.2,0.5,0.4,0.8,0.4
						c0.2,0,0.5-0.1,0.5-0.3c0-0.1-0.1-0.1-0.1-0.2c-0.1-0.1-0.3-0.1-0.5-0.1c-0.1,0-0.3,0-0.4-0.1c-0.2,0-0.3-0.1-0.5-0.2
						c-0.1-0.1-0.2-0.3-0.2-0.5c0-0.5,0.4-1,1.2-1c0.7,0,1.1,0.3,1.3,0.4l-0.5,0.5c-0.3-0.2-0.5-0.3-0.7-0.3c-0.3,0-0.4,0.1-0.4,0.2
						c0,0.2,0.2,0.2,0.5,0.2c0.6,0.1,1.2,0.3,1.2,0.9c0,0.7-0.7,1-1.3,1c-0.8,0-1.2-0.4-1.4-0.5L-210.3,13.6"/>
				</g>
			</g>
			<g id="g13732" transform="matrix(0.52665713,0,0,0.54035188,127.24756,240.99265)">
				<path id="path13734" inkscape:connector-curvature="0" class="st0" d="M-1341.4,770.8h-1v-3.8h1V770.8z"/>
			</g>
			<g id="g13736" transform="matrix(0.52665713,0,0,0.54035188,127.24756,240.99265)">
				<g id="g13738" transform="translate(-1225.0403,768.6095)">
					<path id="path13740" inkscape:connector-curvature="0" class="st0" d="M-114.7-0.4c0.1-0.1,0.1-0.2,0.3-0.2
						c0.1-0.1,0.3-0.1,0.5-0.1c0.2,0,0.4,0,0.5,0.1c0.3,0.2,0.4,0.4,0.4,0.9v1.9h-0.8V0.6c0-0.3,0-0.3,0-0.4
						c-0.1-0.2-0.2-0.2-0.4-0.2c-0.4,0-0.4,0.4-0.4,0.7v1.5h-0.8v-2.8h0.8V-0.4"/>
				</g>
			</g>
			<g id="g13742" transform="matrix(0.52665713,0,0,0.54035188,127.24756,240.99265)">
				<g id="g13744" transform="translate(-1215.0874,774.8876)">
					<path id="path13746" inkscape:connector-curvature="0" class="st0" d="M-122.1-5.1c0.2,0.2,0.5,0.4,0.8,0.4
						c0.2,0,0.5-0.1,0.5-0.3c0-0.1-0.1-0.1-0.1-0.2c-0.1-0.1-0.3-0.1-0.5-0.1c-0.1,0-0.3,0-0.4-0.1c-0.2,0-0.3-0.1-0.5-0.2
						c-0.1-0.1-0.2-0.3-0.2-0.5c0-0.5,0.4-1,1.2-1c0.7,0,1.1,0.3,1.3,0.4l-0.5,0.5c-0.3-0.2-0.5-0.3-0.7-0.3c-0.3,0-0.4,0.1-0.4,0.2
						c0,0.2,0.2,0.2,0.5,0.2c0.6,0.1,1.2,0.3,1.2,0.9c0,0.7-0.7,1-1.3,1c-0.8,0-1.2-0.4-1.4-0.5L-122.1-5.1"/>
				</g>
			</g>
			<g id="g13748" transform="matrix(0.52665713,0,0,0.54035188,127.24756,240.99265)">
				<g id="g13750" transform="translate(-1204.3134,764.4515)">
					<path id="path13752" inkscape:connector-curvature="0" class="st0" d="M-130.1,2.7h0.8v0.9h0.5v0.5h-0.6v1.3
						c0,0.2,0,0.3,0.2,0.3l0.3,0v0.7c-0.2,0-0.3,0-0.4,0c-0.3,0-0.6,0-0.8-0.3c-0.1-0.2-0.1-0.4-0.1-0.6V4.1h-0.4V3.5l0.4,0V2.7"/>
				</g>
			</g>
			<g id="g13754" transform="matrix(0.52665713,0,0,0.54035188,127.24756,240.99265)">
				<path id="path13756" inkscape:connector-curvature="0" class="st0" d="M-1332.6,766.9h0.8v0.6h-0.8V766.9z M-1332.6,767.9h0.8
					v2.8h-0.8V767.9z"/>
			</g>
			<g id="g13758" transform="matrix(0.52665713,0,0,0.54035188,127.24756,240.99265)">
				<g id="g13760" transform="translate(-1190.7473,764.4515)">
					<path id="path13762" inkscape:connector-curvature="0" class="st0" d="M-140.1,2.7h0.8v0.9h0.5v0.5h-0.6v1.3
						c0,0.2,0,0.3,0.2,0.3l0.3,0v0.7c-0.2,0-0.3,0-0.4,0c-0.3,0-0.6,0-0.8-0.3c-0.1-0.2-0.1-0.4-0.1-0.6V4.1h-0.4V3.5l0.4,0V2.7"/>
				</g>
			</g>
			<g id="g13764" transform="matrix(0.52665713,0,0,0.54035188,127.24756,240.99265)">
				<g id="g13766" transform="translate(-1177.1614,767.6225)">
					<path id="path13768" inkscape:connector-curvature="0" class="st0" d="M-150.2,0.3h0.8v2.8h-0.8V2.9c-0.1,0.1-0.1,0.1-0.3,0.2
						c-0.2,0.1-0.4,0.1-0.5,0.1c-0.2,0-0.5,0-0.7-0.3c-0.1-0.2-0.2-0.4-0.2-0.8V0.3h0.8v1.8c0,0.1,0,0.3,0.1,0.3
						c0,0.1,0.2,0.1,0.3,0.1c0,0,0.2,0,0.3-0.1c0.2-0.1,0.2-0.3,0.2-0.4V0.3"/>
				</g>
			</g>
			<g id="g13770" transform="matrix(0.52665713,0,0,0.54035188,127.24756,240.99265)">
				<g id="g13772" transform="translate(-1170.6304,764.4515)">
					<path id="path13774" inkscape:connector-curvature="0" class="st0" d="M-155,2.7h0.8v0.9h0.5v0.5h-0.6v1.3c0,0.2,0,0.3,0.2,0.3
						l0.3,0v0.7c-0.2,0-0.3,0-0.4,0c-0.3,0-0.6,0-0.8-0.3c-0.1-0.2-0.1-0.4-0.1-0.6V4.1h-0.4V3.5l0.4,0V2.7"/>
				</g>
			</g>
			<g id="g13776" transform="matrix(0.52665713,0,0,0.54035188,127.24756,240.99265)">
				<g id="g13778" transform="translate(-1153.3473,775.7925)">
					<path id="path13780" inkscape:connector-curvature="0" class="st0" d="M-167.9-5.7c-0.1,0.1-0.2,0.3-0.3,0.4
						c-0.2,0.2-0.6,0.4-1.1,0.4c-0.8,0-1.4-0.5-1.4-1.5c0-0.7,0.3-1.6,1.5-1.6c0.2,0,0.7,0,1,0.4c0.4,0.4,0.4,1,0.4,1.3h-2
						c0,0.4,0.2,0.7,0.6,0.7c0.5,0,0.6-0.3,0.7-0.5L-167.9-5.7z M-168.7-6.8c0-0.1,0-0.3-0.2-0.4c-0.1-0.1-0.3-0.2-0.4-0.2
						c-0.2,0-0.3,0.1-0.4,0.2c-0.1,0.1-0.1,0.3-0.2,0.4H-168.7"/>
				</g>
			</g>
			<g id="g13782" transform="matrix(0.52665713,0,0,0.54035188,127.24756,240.99265)">
				<g id="g13784" transform="translate(-1134.6373,773.0835)">
					<path id="path13786" inkscape:connector-curvature="0" class="st0" d="M-181.7-3.7c0,0.7-0.4,1.5-1.5,1.5
						c-0.8,0-1.5-0.5-1.5-1.5c0-0.9,0.5-1.6,1.6-1.5C-182-5.2-181.7-4.3-181.7-3.7 M-183.8-4.3c-0.1,0.2-0.1,0.4-0.1,0.6
						c0,0.5,0.2,0.8,0.7,0.8c0.5,0,0.7-0.4,0.7-0.8c0-0.3-0.1-0.6-0.2-0.7c-0.2-0.2-0.4-0.2-0.5-0.2C-183.5-4.6-183.7-4.5-183.8-4.3
						"/>
				</g>
			</g>
			<g id="g13788" transform="matrix(0.52665713,0,0,0.54035188,127.24756,240.99265)">
				<g id="g13790" transform="translate(-1132.0123,766.5305)">
					<path id="path13792" inkscape:connector-curvature="0" class="st0" d="M-183.7,1.1c0-0.1,0-0.3,0.1-0.5
						c0.1-0.1,0.3-0.3,0.7-0.3c0.2,0,0.3,0,0.5,0V1h-0.2c-0.3,0-0.3,0.1-0.3,0.4h0.6V2h-0.6v2.3h-0.8V2h-0.4V1.5h0.5V1.1"/>
				</g>
			</g>
			<g id="g13794" transform="matrix(0.52665713,0,0,0.54035188,127.24756,240.99265)">
				<g id="g13796" transform="translate(-1238.7111,788.9375)">
					<path id="path13798" inkscape:connector-curvature="0" class="st0" d="M-104.6-15.5h3v0.8h-1v3.1h-1v-3.1h-1V-15.5z"/>
				</g>
			</g>
			<g id="g13800" transform="matrix(0.52665713,0,0,0.54035188,127.24756,240.99265)">
				<g id="g13802" transform="translate(-1217.0963,800.9916)">
					<path id="path13804" inkscape:connector-curvature="0" class="st0" d="M-120.6-24.4c-0.1,0.1-0.2,0.3-0.3,0.4
						c-0.2,0.2-0.6,0.4-1.1,0.4c-0.8,0-1.4-0.5-1.4-1.5c0-0.7,0.3-1.6,1.5-1.6c0.2,0,0.7,0,1,0.4c0.4,0.4,0.4,1,0.4,1.3h-2
						c0,0.4,0.2,0.7,0.6,0.7c0.5,0,0.6-0.3,0.7-0.5L-120.6-24.4z M-121.4-25.5c0-0.1,0-0.3-0.2-0.4c-0.1-0.1-0.3-0.2-0.4-0.2
						c-0.2,0-0.3,0.1-0.4,0.2c-0.1,0.1-0.1,0.3-0.2,0.4H-121.4"/>
				</g>
			</g>
			<g id="g13806" transform="matrix(0.52665713,0,0,0.54035188,127.24756,240.99265)">
				<g id="g13808" transform="translate(-1205.5264,801.2015)">
					<path id="path13810" inkscape:connector-curvature="0" class="st0" d="M-129.2-24.6c-0.1,0.2-0.2,0.3-0.4,0.5
						c-0.2,0.2-0.5,0.3-0.8,0.3c-0.5,0-1.4-0.3-1.4-1.5c0-0.8,0.5-1.5,1.4-1.5c0.3,0,0.9,0.1,1.2,0.7l-0.6,0.4
						c0-0.1-0.1-0.2-0.2-0.3c-0.1-0.1-0.2-0.1-0.3-0.1c-0.5,0-0.6,0.5-0.6,0.9c0,0.4,0.2,0.8,0.6,0.8c0,0,0.2,0,0.4-0.2
						c0.1-0.1,0.1-0.1,0.1-0.2L-129.2-24.6"/>
				</g>
			</g>
			<g id="g13812" transform="matrix(0.52665713,0,0,0.54035188,127.24756,240.99265)">
				<g id="g13814" transform="translate(-1201.7843,788.9375)">
					<path id="path13816" inkscape:connector-curvature="0" class="st0" d="M-132-15.5v1.3c0.1-0.1,0.4-0.4,0.8-0.4
						c0.2,0,0.4,0.1,0.6,0.2c0.2,0.2,0.3,0.5,0.3,0.8v1.9h-0.8v-1.5c0-0.2,0-0.3,0-0.4c-0.1-0.3-0.3-0.3-0.4-0.3
						c-0.1,0-0.3,0.1-0.3,0.2c-0.1,0.1-0.1,0.4-0.1,0.6v1.4h-0.8v-3.8H-132"/>
				</g>
			</g>
			<g id="g13818" transform="matrix(0.52665713,0,0,0.54035188,127.24756,240.99265)">
				<g id="g13820" transform="translate(-1189.0374,793.8095)">
					<path id="path13822" inkscape:connector-curvature="0" class="st0" d="M-141.4-19.1c0.1-0.1,0.1-0.2,0.3-0.2
						c0.1-0.1,0.3-0.1,0.5-0.1c0.2,0,0.4,0,0.5,0.1c0.3,0.2,0.4,0.4,0.4,0.9v1.9h-0.8v-1.6c0-0.3,0-0.3,0-0.4
						c-0.1-0.2-0.2-0.2-0.4-0.2c-0.4,0-0.4,0.4-0.4,0.7v1.5h-0.8v-2.8h0.8V-19.1"/>
				</g>
			</g>
			<g id="g13824" transform="matrix(0.52665713,0,0,0.54035188,127.24756,240.99265)">
				<g id="g13826" transform="translate(-1168.6254,798.2825)">
					<path id="path13828" inkscape:connector-curvature="0" class="st0" d="M-156.5-22.4c0,0.7-0.4,1.5-1.5,1.5
						c-0.8,0-1.5-0.5-1.5-1.5c0-0.9,0.5-1.6,1.6-1.5C-156.8-23.8-156.5-22.9-156.5-22.4 M-158.6-23c-0.1,0.2-0.1,0.4-0.1,0.6
						c0,0.5,0.2,0.8,0.7,0.8c0.5,0,0.7-0.4,0.7-0.8c0-0.3-0.1-0.6-0.2-0.7c-0.2-0.2-0.4-0.2-0.5-0.2
						C-158.3-23.2-158.5-23.1-158.6-23"/>
				</g>
			</g>
			<g id="g13830" transform="matrix(0.52665713,0,0,0.54035188,127.24756,240.99265)">
				<path id="path13832" inkscape:connector-curvature="0" class="st0" d="M-1323.8,777.3h-0.8v-3.8h0.8V777.3z"/>
			</g>
			<g id="g13834" transform="matrix(0.52665713,0,0,0.54035188,127.24756,240.99265)">
				<g id="g13836" transform="translate(-1149.3683,798.2825)">
					<path id="path13838" inkscape:connector-curvature="0" class="st0" d="M-170.8-22.4c0,0.7-0.4,1.5-1.5,1.5
						c-0.8,0-1.5-0.5-1.5-1.5c0-0.9,0.5-1.6,1.6-1.5C-171.1-23.8-170.8-22.9-170.8-22.4 M-172.9-23c-0.1,0.2-0.1,0.4-0.1,0.6
						c0,0.5,0.2,0.8,0.7,0.8c0.5,0,0.7-0.4,0.7-0.8c0-0.3-0.1-0.6-0.2-0.7c-0.2-0.2-0.4-0.2-0.5-0.2
						C-172.6-23.2-172.8-23.1-172.9-23"/>
				</g>
			</g>
			<g id="g13840" transform="matrix(0.52665713,0,0,0.54035188,127.24756,240.99265)">
				<g id="g13842" transform="translate(-1140.6113,802.3356)">
					<path id="path13844" inkscape:connector-curvature="0" class="st0" d="M-177.3-25.4c-0.2,0.1-0.4,0.2-0.8,0.2
						c-0.2,0-0.5-0.1-0.6-0.2c-0.4-0.2-0.5-0.7-0.5-1.2c0-0.6,0.3-1.4,1.2-1.4c0.4,0,0.6,0.2,0.8,0.3v-0.3h0.8v2.7
						c0,0.3,0,0.7-0.4,0.9c-0.3,0.2-0.7,0.2-1,0.2c-0.6,0-0.9-0.2-1.1-0.4c-0.2-0.2-0.2-0.5-0.2-0.7h0.9c0,0.1,0,0.3,0.2,0.4
						c0.1,0,0.1,0.1,0.3,0.1c0.5,0,0.5-0.3,0.5-0.5V-25.4z M-178.4-26.5c0,0.2,0,0.7,0.5,0.7c0.4,0,0.5-0.3,0.5-0.7
						c0-0.1,0-0.4-0.1-0.6c-0.1-0.1-0.2-0.2-0.5-0.2C-178.3-27.3-178.4-26.9-178.4-26.5"/>
				</g>
			</g>
			<g id="g13846" transform="matrix(0.52665713,0,0,0.54035188,127.24756,240.99265)">
				<g id="g13848" transform="translate(-1125.5123,792.8225)">
					<path id="path13850" inkscape:connector-curvature="0" class="st0" d="M-188.5-18.4l-1,3.1c-0.1,0.2-0.1,0.4-0.3,0.5
						c-0.2,0.2-0.4,0.2-0.6,0.2h-0.6v-0.7h0.3c0.1,0,0.3,0,0.3-0.2c0-0.1,0-0.1,0-0.2l-0.8-2.7h0.9l0.5,2l0.5-2H-188.5"/>
				</g>
			</g>
		</g>
		<g id="g19631" transform="matrix(3.8078513,0,0,3.8078513,1844.9903,-1635.7307)">
			<g id="g13642" transform="matrix(0.52665713,0,0,0.54035188,143.88291,244.75436)">
				<path id="path13644" inkscape:connector-curvature="0" class="st0" d="M-1304.2,650.9h4.1v13.2h-4.1V650.9z M-1317.5,644.8h4.1
					v19.3h-4.1V644.8z M-1330.9,644.8h4.1v19.3h-4.1V644.8z M-1324.2,644.8h4.1V658h-4.1V644.8z M-1304.2,644.8h10.8v3.9h-10.8
					V644.8z M-1310.9,644.8h4.1v3.9h-4.1V644.8z"/>
			</g>
			<g id="g13852" transform="matrix(0.52665713,0,0,0.54035188,143.88291,244.75436)">
				<path id="path13854" inkscape:connector-curvature="0" class="st1" d="M-1310.9,650.9h4.1v13.2h-4.1V650.9z"/>
			</g>
		</g>
	</g>
</g>
</svg>
