<?xml version="1.0" encoding="UTF-8" standalone="no"?>
<svg
   xmlns:dc="http://purl.org/dc/elements/1.1/"
   xmlns:cc="http://creativecommons.org/ns#"
   xmlns:rdf="http://www.w3.org/1999/02/22-rdf-syntax-ns#"
   xmlns:svg="http://www.w3.org/2000/svg"
   xmlns="http://www.w3.org/2000/svg"
   xml:space="preserve"
   style="enable-background:new 0 0 300 211.3;"
   viewBox="0 0 300 211.3"
   y="0px"
   x="0px"
   id="Layer_2"
   version="1.1"><metadata
     id="metadata51"><rdf:RDF><cc:Work
         rdf:about=""><dc:format>image/svg+xml</dc:format><dc:type
           rdf:resource="http://purl.org/dc/dcmitype/StillImage" /><dc:title></dc:title></cc:Work></rdf:RDF></metadata><defs
     id="defs49" /><style
     id="style2"
     type="text/css">
	.st0{fill:#008B9C;}
	.st1{fill:#FFFFFF;}
</style><g
     id="g3799"><path
       id="path3813"
       d="M 19.5,105.15 V 40.650002 h 64 64 V 105.15 v 64.5 h -64 -64 z m 24.804596,3.24276 C 48.77021,104.70186 47.19064,99.352187 41.283884,98.162243 35.549369,97.006997 34.5,96.547172 34.5,95.189603 c 0,-0.729093 0.675,-1.584645 1.5,-1.901227 1.780286,-0.68316 4.5,0.204443 4.5,1.468615 0,0.491156 1.35,0.893011 3,0.893011 3.697122,0 3.810311,-1.217449 0.365141,-3.92742 C 40.676997,89.214788 33.943703,88.950492 30.722506,91.206706 29.267248,92.226008 28.5,93.797103 28.5,95.757733 c 0,2.471582 0.605412,3.24728 3.467881,4.443297 1.907335,0.79693 4.292335,1.44897 5.3,1.44897 2.728081,0 4.442164,2.04199 3.085881,3.67621 -1.46932,1.77042 -3.812295,1.67129 -5.936587,-0.25116 -0.957169,-0.86623 -2.950418,-1.42873 -4.429443,-1.25 l -2.689135,0.32495 2.120627,2.68306 c 1.166344,1.47569 3.12416,2.89019 4.350701,3.14336 3.028109,0.62501 8.937154,-0.26329 10.534671,-1.58366 z m 20.076565,1.14882 C 70.850163,107.28648 72.66327,97.659428 67.576923,92.573079 61.140177,86.136333 50.5,90.538808 50.5,99.63882 c 0,5.33991 1.396026,7.84272 5.328737,9.55342 3.91932,1.70488 4.585839,1.7321 8.552424,0.34934 z m -7.931378,-6.52366 c -1.610123,-4.234943 0.65693,-9.367918 4.137478,-9.367918 3.416064,0 5.443014,8.069728 2.712739,10.799998 -2.171933,2.17194 -5.76561,1.42065 -6.850217,-1.43208 z M 109.75,109.20314 c 1.5125,-0.78899 2.75,-1.01122 2.75,-0.49383 0,0.51738 1.27558,0.94069 2.83463,0.94069 h 2.83462 l -0.4226,-8.25 c -0.34363,-6.708088 -0.80067,-8.57707 -2.44542,-9.999998 -4.23235,-3.661563 -15.69157,-1.120863 -15.78592,3.5 -0.0237,1.159986 5.44934,0.885353 6.66935,-0.334665 C 107.7049,93.045104 112,93.840121 112,95.641747 c 0,0.979338 -2.00295,2.009824 -5.83109,3 -6.32247,1.635353 -8.22792,3.644853 -7.22922,7.623983 1.00466,4.00287 6.10902,5.38984 10.81031,2.93741 z m -4.91417,-4.12035 c -0.79248,-2.06519 0.51472,-3.2529 4.44542,-4.03904 3.47098,-0.69419 4.02325,0.23452 2.18357,3.67199 -1.25171,2.33883 -5.77621,2.58935 -6.62899,0.36705 z M 80.6886,103.02911 C 81.15929,95.637014 83.1505,92.857407 86.63814,94.723932 88.18036,95.549303 88.5,96.916076 88.5,102.68519 V 109.65 h 3 3 v -7.77749 c 0,-9.361742 -1.48256,-12.222508 -6.3342,-12.222508 -1.77143,0 -4.22092,0.700517 -5.44329,1.556704 -2.01155,1.408939 -2.22251,1.408939 -2.22251,0 0,-0.993818 -0.90397,-1.556704 -2.5,-1.556704 h -2.5 v 10 c 0,9.869668 0.0311,9.999998 2.3835,9.999998 2.2289,0 2.41086,-0.42948 2.8051,-6.62089 z m 48.8114,0.69232 c 0,-6.341127 1.52639,-9.071428 5.07143,-9.071428 1.39047,0 1.92857,-0.697531 1.92857,-2.5 0,-2.826565 -1.68252,-3.207367 -4.55887,-1.031803 -2.49809,1.889457 -3.44113,1.898173 -3.44113,0.0318 0,-0.933333 -0.94444,-1.5 -2.5,-1.5 h -2.5 v 10 V 109.65 h 3 c 2.99598,0 3,-0.008 3,-5.92857 z m -67,-20.571428 c 0,-2.962963 -0.345238,-3.5 -2.25,-3.5 -1.904762,0 -2.25,0.537037 -2.25,3.5 0,2.962963 0.345238,3.5 2.25,3.5 1.904762,0 2.25,-0.537037 2.25,-3.5 z M 152.5,105.15 V 40.650002 h 64 64 V 105.15 v 64.5 h -64 -64 z m 50,3.5 v -6 h 6 6 v -4.499998 -4.5 h -6 -6 v -6 -6 h -4.5 -4.5 v 6 6 h -6 -6 v 4.5 4.499998 h 6 6 v 6 6 h 4.5 4.5 z m 41,4.24845 c 5.1409,-2.56817 8.29246,-9.17362 7.64174,-16.016525 -1.07853,-11.341687 -6.61101,-15.231923 -21.66198,-15.231923 H 220.5 v 16.5 V 114.65 l 9.75,-0.002 c 7.27881,-10e-4 10.63709,-0.4447 13.25,-1.75 z m -14.25,-4.82881 c -0.4125,-0.41413 -0.75,-4.95297 -0.75,-10.086305 v -9.333333 h 4.36514 c 5.26525,0 9.19432,2.717759 10.13754,7.012186 0.93076,4.237745 -0.31086,8.816312 -2.83958,10.471162 -2.60137,1.70238 -9.86279,2.99076 -10.9131,1.93629 z"
       style="fill:#d5e7e9" /><path
       id="path3811"
       d="M 19.5,105.65 V 41.650002 h 64 64 V 105.65 v 64 h -64 -64 z m 23.978791,3.51097 c 5.065642,-2.61955 5.201706,-8.49125 0.237955,-10.268708 -1.49421,-0.535057 -4.029975,-1.370953 -5.635032,-1.857546 -3.785731,-1.147691 -4.594739,-3.384714 -1.224064,-3.384714 1.388374,0 2.802431,0.45 3.14235,1 0.339919,0.55 1.941476,1 3.559017,1 3.43923,0 3.725231,-1.215752 0.940983,-4 -1.441827,-1.441827 -3.333333,-2 -6.777494,-2 -5.947068,0 -9.222506,2.107594 -9.222506,5.934259 0,3.494726 1.39,4.693919 6.867234,5.924579 5.036229,1.13156 5.577942,1.53867 4.787689,3.59803 -0.755685,1.96929 -4.035594,1.9943 -5.654923,0.0431 -1.162977,-1.4013 -7,-2.18034 -7,-0.93426 0,1.63653 2.400755,4.65587 4.315372,5.42728 3.391873,1.36662 8.496465,1.15565 11.663419,-0.48205 z m 22.732747,-0.47662 c 8.285562,-5.05196 4.379789,-19.034348 -5.316962,-19.034348 -5.186638,0 -9.044121,2.408081 -10.389979,6.486071 -3.354793,10.165117 6.587969,18.108397 15.706941,12.548277 z M 57.7,104.45 C 55.755702,102.5057 56.195543,95.88331 58.345394,94.732745 60.911736,93.35928 64.5,96.006022 64.5,99.272447 c 0,5.317783 -3.780945,8.196613 -6.8,5.177553 z m 56.65455,5.2093 4.35455,0.0849 -0.35455,-8.62771 c -0.41924,-10.201769 -1.44752,-11.466448 -9.32317,-11.466448 -5.32512,0 -9.53138,2.010905 -9.53138,4.556704 0,1.666779 5.51154,2.042662 6.5,0.443296 0.33992,-0.55 1.71648,-1 3.05902,-1 1.73691,0 2.44098,0.551521 2.44098,1.912102 0,1.475572 -0.97027,2.068257 -4.25,2.596097 -6.08141,0.978743 -8.75,2.948359 -8.75,6.458149 0,3.99374 3.37467,6.33551 8,5.55141 1.925,-0.32633 5.45955,-0.55514 7.85455,-0.50846 z m -8.74444,-4.37662 c -1.30351,-1.57064 -0.0849,-2.93576 3.63989,-4.07768 1.91058,-0.58572 2.25,-0.31861 2.25,1.77063 0,3.41574 -3.75053,4.88481 -5.88989,2.30705 z M 81.51531,103.4 c 0.0179,-7.322063 0.84148,-9.047908 4.09778,-8.58749 2.2329,0.315716 2.40587,0.805277 2.68072,7.58749 l 0.29381,7.25 H 91.54381 94.5 v -8.42857 c 0,-6.329004 -0.39144,-8.820016 -1.57143,-9.999999 -1.77784,-1.777844 -6.62801,-2.070245 -9.43362,-0.568725 -1.25242,0.670273 -2.07903,0.670273 -2.49328,0 -0.34084,-0.551487 -1.94315,-1.002704 -3.56069,-1.002704 H 74.5 v 10 9.999998 h 3.5 3.5 l 0.0153,-6.25 z M 129.5,103.67306 c 0,-5.194139 0.31219,-6.181508 2.38366,-7.538785 1.31101,-0.859009 2.99851,-1.431883 3.75,-1.273053 0.84104,0.177755 1.48799,-0.768486 1.68276,-2.46122 0.26177,-2.274971 -0.0701,-2.75 -1.92126,-2.75 -1.23072,0 -3.06061,0.744744 -4.06642,1.654988 -1.70166,1.539983 -1.82874,1.539983 -1.82874,0 0,-1.172209 -0.87513,-1.654988 -3,-1.654988 h -3 v 10 9.999998 h 3 c 2.99871,0 3,-0.003 3,-5.97694 z m -66,-20.523058 c 0,-3.222222 -0.238095,-3.5 -3,-3.5 -2.761905,0 -3,0.277778 -3,3.5 0,3.222222 0.238095,3.5 3,3.5 2.761905,0 3,-0.277778 3,-3.5 z M 139,82.235039 c 0,-1.632245 -0.35393,-2.121225 -1.09201,-1.508676 -0.6006,0.498458 -1.3881,0.610191 -1.75,0.248296 -0.36189,-0.361895 -0.65799,0.118567 -0.65799,1.067693 0,0.949126 0.41891,1.466786 0.9309,1.150355 0.512,-0.316431 1.21356,-0.117988 1.55902,0.440983 C 138.88955,85.089323 139,84.936382 139,82.235039 Z M 152.5,105.65 V 41.650002 h 64 64 V 105.65 v 64 h -64 -64 z m 50,4 v -6 h 6 6 v -4.999998 -5 h -6 -6 v -6 -6 h -4.5 -4.5 v 6 6 h -6 -6 v 5 4.999998 h 6 6 v 6 6 h 4.5 4.5 z m 37,4.91458 c 2.475,-0.57009 5.5705,-2.02159 6.87888,-3.22555 5.44421,-5.00973 6.66899,-14.246627 2.87112,-21.653146 -3.31753,-6.469763 -7.01741,-8.035882 -18.9844,-8.035882 H 220.5 v 17 V 115.65 l 7.25,-0.0245 c 3.9875,-0.0135 9.275,-0.49088 11.75,-1.06097 z m -10,-16.54463 v -9.630053 l 4.71054,0.530946 c 6.12087,0.689912 8.28946,3.253924 8.28946,9.800988 0,6.311909 -2.54605,8.928169 -8.68856,8.928169 H 229.5 Z"
       style="fill:#a9cdd3" /><path
       id="path3809"
       d="M 19.5,105.65 V 41.650002 h 64 64 V 105.65 v 64 h -64 -64 z m 26.166129,2.04317 C 49.426184,103.0497 46.77857,98.429883 39.70952,97.299496 37.457407,96.939369 35.335424,96.19273 34.994002,95.640298 34.026458,94.074778 37.549925,93.200087 39.618897,94.492181 42.25527,96.138624 46.5,95.962523 46.5,94.206706 46.5,90.3331 34.375415,87.860999 30.438029,90.931805 c -4.885913,3.810571 -2.477104,8.909601 5.063508,10.718565 3.824089,0.91738 5.023786,1.63415 4.789973,2.86178 -0.417001,2.18947 -4.622982,2.7406 -5.40297,0.70799 C 34.20782,103.44621 27.5,102.96987 27.5,104.69546 c 0,0.575 1.157568,2.20302 2.572374,3.61783 2.299068,2.29906 3.16669,2.52308 8.166129,2.10849 4.253452,-0.35273 6.033164,-1.00652 7.427626,-2.72861 z m 21.174944,0.90318 c 3.921183,-3.0844 5.314559,-8.762448 3.228866,-13.15772 -3.944584,-8.312592 -16.069346,-8.239808 -19.53095,0.117244 -4.136744,9.986986 7.921467,19.632676 16.302084,13.040476 z m -9.102752,-4.10803 c -1.313517,-1.31351 -1.642852,-5.620552 -0.631332,-8.256531 0.986868,-2.571737 5.268436,-1.949305 6.593322,0.958503 2.312349,5.075048 -2.407471,10.852548 -5.96199,7.298028 z M 94.48469,101.2865 C 94.46749,92.135922 94.12128,91.216908 90.11817,89.694932 87.92906,88.86263 86.61417,88.945428 84.38853,90.055726 82.79984,90.848269 81.5,91.081203 81.5,90.573357 81.5,90.065512 79.925,89.650002 78,89.650002 h -3.5 v 10 9.999998 h 3.45431 3.45431 l 0.29569,-6.6456 c 0.21745,-4.887087 0.73658,-6.922504 1.96187,-7.692015 C 86.83306,93.323497 88.5,96.18122 88.5,103.59925 v 6.70437 l 3,-0.44031 3,-0.44031 -0.0153,-8.1365 z m 15.28325,8.2201 c 1.60294,-0.85786 2.23164,-0.85786 2.51759,0 0.20963,0.62887 1.69364,1.1434 3.2978,1.1434 H 118.5 v -8.06574 c 0,-4.436157 -0.45765,-8.920873 -1.01701,-9.966035 C 114.69529,87.409345 99.5,88.807131 99.5,94.272447 c 0,1.690982 4.30513,1.828457 6.8811,0.219734 2.18912,-1.367124 5.1189,-0.501225 5.1189,1.512892 0,0.926209 -1.64705,1.6614 -4.75,2.120251 -5.5947,0.82732 -8.25,2.871396 -8.25,6.350926 0,5.23212 5.93782,7.88295 11.26794,5.03035 z m -4.15783,-4.22392 c -1.32096,-1.59167 -0.002,-3.00311 3.63989,-3.89463 1.66948,-0.40869 2.25,-0.11055 2.25,1.15557 0,3.53562 -3.77271,5.2901 -5.88989,2.73906 z M 129.5,103.85 c 0,-6.476787 1.09277,-8.199998 5.2,-8.199998 2.44444,0 2.8,-0.380952 2.8,-3 0,-2.509804 -0.39683,-3 -2.42857,-3 -1.33572,0 -3.13572,0.707143 -4,1.571429 -1.42857,1.428571 -1.57143,1.428571 -1.57143,0 0,-1.129252 -0.98485,-1.571429 -3.5,-1.571429 h -3.5 v 10 9.999998 h 3.5 3.5 z M 63,83.150002 c 0,-3.620261 -0.26107,-4.030039 -2.75,-4.316422 -2.583978,-0.29732 -2.75,-0.08099 -2.75,3.583333 0,4.508952 0.633727,5.429677 3.458849,5.025272 C 62.624828,87.203706 63,86.414785 63,83.150002 Z m 77.15943,-1.94514 c -1.37931,-3.594403 -6.75485,-2.519493 -6.58914,1.317585 0.0541,1.252218 0.26848,1.166327 0.92971,-0.372445 0.7349,-1.710215 0.86961,-1.746439 0.92971,-0.25 0.0387,0.9625 0.63279,1.6375 1.32029,1.5 0.6875,-0.1375 1.10765,0.425 0.93367,1.25 -0.25943,1.230237 -0.01,1.199222 1.38675,-0.172459 0.95098,-0.933891 1.43189,-2.379125 1.08901,-3.272681 z M 138.5,82.257652 c 0,-0.949126 -0.41891,-1.466786 -0.9309,-1.150355 -0.512,0.316431 -1.21356,0.117988 -1.55902,-0.440983 -0.34546,-0.558972 0.0876,-1.016312 0.96229,-1.016312 1.67718,0 3.21277,2.648192 2.15117,3.709795 C 138.78059,83.702743 138.5,83.206778 138.5,82.257652 Z m 14,23.399748 V 41.650002 h 64.0074 64.0074 L 280.2574,105.4 280,169.15 l -63.75,0.2574 -63.75,0.2574 z m 50,3.9926 v -6 h 6 6 v -4.999998 -5 h -6 -6 v -6 -6 h -4.5 -4.5 v 6 6 h -6 -6 v 5 4.999998 h 6 6 v 6 6 h 4.5 4.5 z m 41.77124,3.49315 c 4.89292,-2.91588 7.56234,-9.20474 7.03014,-16.562271 C 250.4866,85.316626 245.32198,81.653958 230.25,81.651556 l -9.75,-0.0016 v 17.113419 17.113415 l 10.25,-0.39211 c 7.86987,-0.30107 11.00961,-0.8448 13.52124,-2.34158 z M 229.5,98.150002 c 0,-9.305855 0.048,-9.5 2.35078,-9.5 3.71455,0 8.60084,2.041075 9.67033,4.039442 0.53839,1.005991 0.97889,3.850998 0.97889,6.322236 0,5.60484 -3.20785,8.63832 -9.13486,8.63832 H 229.5 Z"
       style="fill:#8abdc6" /><path
       id="path3807"
       d="M 19.5,105.15 V 41.650002 h 64 64 V 105.15 v 63.5 h -64 -64 z m 25.365141,3.42742 C 48.259642,105.90731 48.449372,101.30754 45.25,99.247031 44.0125,98.450039 41.30753,97.488652 39.238955,97.110615 37.17038,96.732579 35.229358,96.021111 34.925573,95.529576 34.0106,94.049118 37.628823,93.24936 39.618897,94.492181 42.164351,96.081844 46.5,95.963898 46.5,94.30499 c 0,-5.793197 -15.051399,-7.164499 -18.007677,-1.640644 -2.359971,4.409647 -0.19187,7.403004 6.600899,9.113444 4.889986,1.23132 6.399432,2.62938 4.284893,3.9687 -1.910667,1.2102 -2.513468,1.1253 -4.235258,-0.59649 C 33.188838,103.19598 27.5,103.14196 27.5,105.07742 c 0,2.77867 5.013679,5.57258 10,5.57258 3.271304,0 5.542962,-0.63925 7.365141,-2.07258 z m 22.524129,-0.4877 c 8.86302,-7.45773 1.150122,-21.865346 -9.928392,-18.546143 -4.618705,1.383798 -6.891687,3.9052 -7.631784,8.46588 -1.660392,10.231793 9.658344,16.729223 17.560176,10.080263 z m -9.317841,-4.01115 C 56.21177,102.21891 56.000976,97.549026 57.7,95.850002 c 3.240528,-3.240528 7.563606,0.621414 6.305747,5.633128 -1.043083,4.15597 -3.360321,5.16944 -5.934318,2.59544 z m 23.634761,-0.5738 c 0.23079,-5.612608 0.68174,-7.382201 2.10238,-8.25 2.9194,-1.783321 4.69143,1.672681 4.69143,9.14972 v 6.37223 l 3.25,-0.31336 3.25,-0.31336 0.25611,-7.5 C 95.55991,93.753596 94.25794,90.585629 89.76879,89.298157 87.30493,88.591531 85.97705,88.762631 84.03148,90.037422 82.63916,90.949699 81.5,91.235734 81.5,90.673055 81.5,90.110376 79.925,89.650002 78,89.650002 H 74.5 V 100.15 v 10.5 h 3.45619 3.45619 z m 36.97523,-1.86809 c -0.39721,-10.973161 -1.62749,-12.514447 -9.92277,-12.43123 -4.7619,0.04777 -5.85674,0.438559 -7.90722,2.822374 -1.309,1.521809 -2.12202,3.184358 -1.8067,3.694552 0.95947,1.552454 6.18996,1.061405 6.84381,-0.642511 0.69819,-1.819444 4.74114,-1.57865 5.36629,0.319611 0.45417,1.37907 -0.46901,1.798238 -5.97268,2.711895 C 100.65068,98.880235 98.5,100.95369 98.5,104.65 c 0,4.86088 1.97983,5.84112 11.74054,5.81287 L 119,110.43751 Z m -12.13102,4.04447 c -1.97556,-1.22096 -0.60207,-3.69254 2.36745,-4.2602 2.01374,-0.38495 2.58215,-0.0916 2.58215,1.33254 0,2.2276 -3.10789,4.0659 -4.9496,2.92766 z M 129.5,105.08426 c 0,-7.182974 1.21666,-9.434258 5.09854,-9.434258 2.81402,0 3.00602,-0.229849 2.71482,-3.25 -0.2728,-2.829286 -0.63699,-3.205006 -2.81336,-2.902426 -1.375,0.191166 -3.0625,0.808766 -3.75,1.372445 -0.86629,0.710265 -1.25,0.680312 -1.25,-0.09757 0,-0.617345 -1.575,-1.122445 -3.5,-1.122445 h -3.5 V 100.15 v 10.5 h 3.5 3.5 z m -66,-21.934258 c 0,-4.333333 -0.111111,-4.5 -3,-4.5 -2.888889,0 -3,0.166667 -3,4.5 0,4.333333 0.111111,4.5 3,4.5 2.888889,0 3,-0.166667 3,-4.5 z m 76.37587,0.268764 c 0.83869,-1.331803 0.70827,-2.113198 -0.56528,-3.386745 -2.99571,-2.995706 -7.46512,0.919469 -4.76443,4.173605 1.55489,1.873529 3.86955,1.531801 5.32971,-0.78686 z m -5.01168,-0.262075 c -0.34636,-0.902618 -0.15025,-2.120628 0.43581,-2.706689 1.52361,-1.523609 4.41041,-0.131088 4.01242,1.935492 -0.4433,2.301882 -3.64766,2.857428 -4.44823,0.771197 z M 138.5,81.983335 c 0,-0.733333 -0.675,-1.333333 -1.5,-1.333333 -0.825,0 -1.5,0.6 -1.5,1.333333 0,0.733334 0.675,1.333334 1.5,1.333334 0.825,0 1.5,-0.6 1.5,-1.333334 z M 152.5,105.15 V 41.650002 h 64 64 V 105.15 v 63.5 h -64 -64 z m 51,4.5 v -6 h 6 6 v -4.999998 -5 h -6 -6 v -6 -6 h -5 -5 v 6 6 h -6 -6 v 5 4.999998 h 6 6 v 6 6 h 5 5 z m 39.96412,3.75 c 5.74785,-2.94735 8.03588,-7.31406 8.03588,-15.336513 0,-4.691101 -0.52548,-6.897478 -2.2534,-9.461536 -3.76934,-5.593332 -7.69631,-7.2057 -18.85877,-7.743211 L 220.5,80.382608 V 98.016305 115.65 h 9.28811 c 7.66533,0 10.05475,-0.39311 13.67601,-2.25 z M 229.5,98.780054 v -9.130052 h 4.46104 c 5.85205,0 8.53896,2.699128 8.53896,8.577777 0,5.848491 -2.38943,8.486361 -8.28946,9.151381 L 229.5,107.91011 Z"
       style="fill:#51a1ae" /><path
       id="path3805"
       d="M 19.5,105.15 V 41.650002 h 64 64 V 105.15 v 63.5 h -64 -64 z m 25.365141,3.42742 c 3.099435,-2.43801 3.523742,-6.83212 0.884859,-9.163561 -0.9625,-0.850366 -3.6625,-1.859664 -6,-2.242886 -2.664585,-0.436846 -4.25,-1.223536 -4.25,-2.108869 0,-1.887036 3.631859,-1.813844 4.361626,0.0879 C 40.742092,97.444459 46.5,97.145206 46.5,94.80499 46.5,91.349103 42.740461,89.14558 36.940458,89.201998 30.986061,89.259917 27.5,91.44298 27.5,95.11386 c 0,3.490511 2.181636,5.4899 7.423004,6.8029 5.658431,1.41747 7.375026,3.73324 2.767318,3.73324 -1.723149,0 -3.218704,-0.63158 -3.551948,-1.5 -0.8539,-2.22522 -6.642808,-2.00671 -6.623061,0.25 0.03448,3.94099 3.665808,6.1772 10.099828,6.21959 3.189428,0.021 5.429104,-0.60985 7.25,-2.04217 z m 20.922535,0.98737 c 1.30998,-0.59687 3.131153,-2.3538 4.047053,-3.90429 6.779281,-11.47641 -9.208663,-23.079625 -17.774448,-12.899768 -4.2699,5.074487 -2.978241,13.429808 2.54979,16.493768 2.930362,1.62417 7.985928,1.76452 11.177605,0.31029 z m -7.716247,-5.48622 c -1.972045,-1.97204 -2.04072,-6.794202 -0.119468,-8.388699 3.951448,-3.279411 8.150231,2.865932 5.119,7.492179 -1.885614,2.87781 -2.846025,3.05003 -4.999532,0.89652 z m 23.634761,-0.5738 c 0.22439,-5.457062 0.70077,-7.400941 2.01629,-8.227524 2.80773,-1.764197 4.17561,0.72631 4.60871,8.391104 l 0.3945,6.98165 h 3.48665 3.48666 l -0.3495,-9.08898 c -0.31671,-8.236153 -0.58056,-9.276027 -2.81194,-11.082323 -1.80525,-1.461336 -3.27314,-1.823931 -5.5,-1.358602 C 85.3669,89.469198 81.8625,89.708529 79.25,89.651944 L 74.5,89.549061 V 100.09953 110.65 h 3.45619 3.45619 z m 36.95933,-1.71305 c -0.42538,-10.990084 -1.70312,-12.641718 -9.77988,-12.641718 -4.85083,0 -5.86618,0.357347 -7.97222,2.805764 -1.32738,1.54317 -2.41342,3.23067 -2.41342,3.75 0,1.573979 6.21862,1.056365 8.13401,-0.677045 1.95368,-1.768057 5.28267,-1.140143 4.62203,0.871807 -0.22565,0.687211 -1.72557,1.380163 -3.33316,1.539893 -7.56572,0.751734 -11.36319,4.606179 -9.46275,9.604709 1.19137,3.13355 1.99386,3.35848 12.03987,3.37463 l 8.5,0.0137 -0.33448,-8.64171 z m -13.00327,2.25509 c 0.18576,-0.96414 1.6024,-2.09118 3.14808,-2.50454 2.49811,-0.66807 2.77586,-0.50942 2.5,1.42808 -0.22157,1.55624 -1.12197,2.27258 -3.14808,2.50454 -2.25609,0.2583 -2.76851,-0.0344 -2.5,-1.42808 z m 24.23212,-0.22883 c 0.26672,-6.675172 1.21882,-8.124511 5.35563,-8.152665 1.90185,-0.01294 2.25,-0.556887 2.25,-3.515313 0,-3.881955 -0.99685,-4.271797 -5.25,-2.053142 -1.5125,0.788994 -2.75,1.011222 -2.75,0.493839 0,-0.517383 -1.575,-0.940697 -3.5,-0.940697 h -3.5 v 10.560368 10.56036 l 3.57068,-0.31036 3.57068,-0.31037 z M 63.5,83.150002 c 0,-4.333333 -0.111111,-4.5 -3,-4.5 -2.888889,0 -3,0.166667 -3,4.5 0,4.333333 0.111111,4.5 3,4.5 2.888889,0 3,-0.166667 3,-4.5 z m 76.38092,0.268764 c 1.49988,-2.392824 -1.32348,-5.239157 -4.26941,-4.304155 -2.07246,0.657773 -2.95149,4.362075 -1.40266,5.910907 1.1803,1.180303 4.51768,0.23491 5.67207,-1.606752 z m -5.01673,-0.262075 c -0.34636,-0.902618 -0.15025,-2.120628 0.43581,-2.706689 1.52361,-1.523609 4.41041,-0.131088 4.01242,1.935492 -0.4433,2.301882 -3.64766,2.857428 -4.44823,0.771197 z M 138.5,81.983335 c 0,-0.733333 -0.675,-1.333333 -1.5,-1.333333 -0.825,0 -1.5,0.6 -1.5,1.333333 0,0.733334 0.675,1.333334 1.5,1.333334 0.825,0 1.5,-0.6 1.5,-1.333334 z M 152.5,105.15 V 41.650002 l 63.75,-1.54e-4 63.75,-1.54e-4 -0.26464,63.500156 -0.26464,63.50015 H 215.98536 152.5 Z m 51,4.5 v -6 h 6 6 v -4.999998 -5 h -6 -6 v -6 -6 h -5.58882 -5.58882 l 0.33882,6.001822 0.33882,6.001822 -6.30479,-0.0018 -6.30479,-0.0018 0.30479,4.75 0.30479,4.750004 6.00392,0.29133 6.00392,0.29133 -0.3557,4.47225 c -0.53421,6.71687 0.0347,7.44504 5.81648,7.44504 H 203.5 Z m 40.01523,3.75 c 5.78784,-2.93367 8.17968,-7.14551 8.24691,-14.522116 0.0597,-6.553222 -1.74502,-10.773519 -6.2159,-14.53552 -3.40453,-2.86472 -9.88379,-4.029203 -19.54624,-3.51294 l -6,0.320578 -0.27646,15.959859 c -0.15205,8.777919 -0.0537,16.540419 0.21862,17.249999 0.35527,0.92582 3.12681,1.29014 9.81457,1.29014 7.68273,0 10.0991,-0.39516 13.7585,-2.25 z M 229.5,98.785926 v -9.135924 h 4.42742 c 5.49092,0 8.57258,3.243963 8.57258,9.024075 0,5.254733 -2.48322,7.847983 -8.25,8.615543 l -4.75,0.63223 z"
       style="fill:#3696a5" /><path
       id="path3803"
       d="M 20.264641,105.14985 20,41.649694 l 63.75,1.54e-4 63.75,1.54e-4 V 105.15 168.65 H 84.01464 20.529283 Z m 23.623089,4.31192 c 2.789041,-1.4672 3.578491,-2.77074 3.596957,-5.93932 0.01892,-3.24648 -2.076202,-5.073228 -7.308657,-6.372448 -2.21506,-0.55 -4.210828,-1.5625 -4.435039,-2.25 -0.58818,-1.803537 3.426077,-1.559991 4.120635,0.25 0.361285,0.941494 1.890471,1.5 4.106989,1.5 3.944795,0 3.889253,0.07147 2.593403,-3.33688 -1.805207,-4.748053 -12.761037,-6.055454 -17.186046,-2.050876 -2.237124,2.024569 -2.463513,6.655251 -0.408738,8.360563 0.806979,0.669731 3.589207,1.759021 6.182728,2.420631 5.547061,1.41507 7.025677,3.60656 2.433371,3.60656 -2.074074,0 -3.083333,-0.49099 -3.083333,-1.5 0,-1.04762 -1.055556,-1.5 -3.5,-1.5 -2.710061,0 -3.5,0.40826 -3.5,1.80887 0,5.8501 9.35079,8.70474 16.38773,5.0029 z m 20.630451,0.56428 C 71.876645,107.08178 73.89012,98.356569 68.582029,92.415779 66.000354,89.526382 65.068901,89.150002 60.5,89.150002 c -4.568901,0 -5.500354,0.37638 -8.082029,3.265777 -5.382336,6.02388 -2.965878,16.002521 4.390565,18.130611 1.755305,0.50778 3.294858,0.96382 3.421228,1.01342 0.12637,0.0496 2.056157,-0.64059 4.288417,-1.53376 z m -6.392314,-6.23697 c -3.201123,-3.5372 -0.91349,-9.999917 3.089936,-8.729279 2.087146,0.662435 3.532266,4.780169 2.563551,7.304599 -1.003527,2.61515 -3.912677,3.34826 -5.653487,1.42468 z m 55.895833,6.74744 5.02169,0.20315 -0.31228,-7.79483 C 118.30903,92.409286 117.95718,91.179339 114.97692,89.821441 108.30558,86.781776 98.5,90.211288 98.5,95.584261 c 0,1.66774 6.14075,1.248337 8.13401,-0.55554 0.98533,-0.891705 2.52068,-1.341468 3.4119,-0.999474 1.88566,0.723593 1.44567,3.035684 -0.62878,3.304165 -7.06196,0.913981 -9.08228,1.639003 -10.47033,3.757438 -3.18439,4.85999 1.78632,11.3648 7.5532,9.88432 1.375,-0.35299 4.75976,-0.55038 7.5217,-0.43865 z M 105.5,104.16905 c 0,-0.81452 1.14596,-1.76856 2.54657,-2.12009 3.01518,-0.75676 3.7257,-0.27205 2.86998,1.95791 -0.7955,2.07303 -5.41655,2.21139 -5.41655,0.16218 z m -24,0.56274 c 0,-7.469645 0.63251,-9.081788 3.56318,-9.081788 2.22257,0 2.36504,0.390815 2.64301,7.249998 L 88,110.15 l 3.75,0.31037 3.75,0.31036 v -8.60582 c 0,-7.911718 -0.20756,-8.813379 -2.57347,-11.179283 -2.19206,-2.192064 -3.11835,-2.470333 -6.25,-1.877592 -2.02209,0.382731 -5.58903,0.64051 -7.92653,0.572844 L 74.5,89.557848 V 100.10393 110.65 h 3.5 3.5 z m 49,-0.9748 c 0,-7.198344 0.56957,-8.106988 5.08179,-8.106988 1.52557,0 1.91821,-0.71641 1.91821,-3.5 0,-3.972249 -1.94617,-4.626857 -5.77749,-1.943296 -1.24574,0.872545 -2.22251,1.092291 -2.22251,0.5 0,-0.581187 -1.575,-1.056704 -3.5,-1.056704 h -3.5 V 100.15 v 10.5 h 4 4 z m -67,-20.606988 c 0,-4.333333 -0.111111,-4.5 -3,-4.5 -2.888889,0 -3,0.166667 -3,4.5 0,4.333333 0.111111,4.5 3,4.5 2.888889,0 3,-0.166667 3,-4.5 z m 77,0.0466 c 0,-4.59893 -4.93118,-6.41222 -6.98773,-2.569522 -1.53436,2.866966 2.14368,6.545006 5.01065,5.010653 C 139.61031,85.05578 140.5,83.957272 140.5,83.196606 Z m -6,-0.987587 c 0,-0.792541 0.40803,-1.693162 0.90674,-2.00138 0.49871,-0.308218 0.67122,0.340224 0.38337,1.440983 C 135.1795,83.983609 134.5,84.278769 134.5,82.209019 Z m 3.73121,-0.478858 c -0.43497,-1.663345 -0.30483,-2.053777 0.43724,-1.311709 0.5811,0.581102 0.85979,1.646819 0.61931,2.36826 -0.24965,0.748946 -0.70294,0.295653 -1.05655,-1.056551 z M 152.5,105.15 V 41.650002 H 216 279.5 V 105.15 168.65 H 216 152.5 Z m 51,4.5 v -6 h 6 6 v -4.999998 -5 h -6 -6 v -6 -6 h -5.5 -5.5 v 6 6 h -6 -6 v 5 4.999998 h 6 6 v 6 6 h 5.5 5.5 z m 41.68045,3.39547 c 4.66446,-3.48158 6.69455,-7.98088 6.69455,-14.837194 0,-7.250965 -2.17399,-11.636475 -7.375,-14.877345 -3.01794,-1.880545 -4.94619,-2.180929 -14,-2.180929 H 220 l -0.27399,17.336643 -0.27398,17.336645 11.45443,-0.33665 c 9.76056,-0.28686 11.87138,-0.64785 14.27399,-2.44117 z M 229.5,98.630872 v -8.98087 h 3.88922 c 6.07278,0 8.62731,2.678434 8.53693,8.951005 -0.0894,6.203493 -1.36509,7.600333 -7.67615,8.405063 l -4.75,0.60567 z"
       style="fill:#008a9b" /><path
       id="path3801"
       d="m 195.76375,115.93242 c 1.52006,-0.22985 3.77006,-0.22371 5,0.0137 1.22994,0.23736 -0.0137,0.42543 -2.76375,0.41792 -2.75,-0.008 -3.75631,-0.20171 -2.23625,-0.43157 z M 225.25,115.9178 c 2.3375,-0.21054 6.1625,-0.21054 8.5,0 2.3375,0.21053 0.425,0.38279 -4.25,0.38279 -4.675,0 -6.5875,-0.17226 -4.25,-0.38279 z m -111.5,-4.95712 c 0.9625,-0.25153 2.5375,-0.25153 3.5,0 0.9625,0.25152 0.175,0.45732 -1.75,0.45732 -1.925,0 -2.7125,-0.2058 -1.75,-0.45732 z M 81.82007,103.65 c 0,-3.575 0.1815,-5.037498 0.40333,-3.25 0.22182,1.7875 0.22182,4.7125 0,6.5 -0.22183,1.7875 -0.40333,0.325 -0.40333,-3.25 z m 37.01614,-2 c 0,-4.124998 0.17651,-5.812498 0.39226,-3.749998 0.21574,2.0625 0.21574,5.437498 0,7.499998 -0.21575,2.0625 -0.39226,0.375 -0.39226,-3.75 z m 2.82168,5 c 0,-1.375 0.22698,-1.9375 0.50439,-1.25 0.27741,0.6875 0.27741,1.8125 0,2.5 -0.27741,0.6875 -0.50439,0.125 -0.50439,-1.25 z m 108.19707,-8.499998 c -0.003,-4.95 0.16605,-7.101078 0.37577,-4.780173 0.20972,2.320905 0.21222,6.370905 0.006,9.000001 -0.20713,2.62909 -0.37873,0.73017 -0.38177,-4.219828 z M 47.570285,103.95902 C 47.531628,102.75398 47.95,101.48992 48.5,101.15 c 1.182783,-0.731 1.182783,0.24752 0,3 -0.828591,1.92824 -0.861951,1.92139 -0.929715,-0.19098 z m 136.161805,-0.0235 c 1.50265,-0.22817 4.20265,-0.23277 6,-0.0102 1.79735,0.22256 0.56791,0.40925 -2.73209,0.41486 -3.3,0.006 -4.77056,-0.17648 -3.26791,-0.40466 z m 22,0 c 1.50265,-0.22817 4.20265,-0.23277 6,-0.0102 1.79735,0.22256 0.56791,0.40925 -2.73209,0.41486 -3.3,0.006 -4.77056,-0.17648 -3.26791,-0.40466 z M 121.69495,100.15 c -0.0204,-1.649998 0.18706,-2.446062 0.46099,-1.76903 0.27392,0.677033 0.29059,2.02703 0.0371,3 -0.25359,0.97297 -0.47771,0.41903 -0.49809,-1.23097 z m -50.116003,0.0833 c -0.04342,-1.054164 0.192928,-1.644789 0.52522,-1.312498 0.332291,0.332292 0.367818,1.194788 0.07895,1.916668 -0.319226,0.79773 -0.556183,0.56078 -0.604167,-0.60417 z m 28.971723,-2.552012 c -0.65109,-0.402399 0.18748,-0.762162 1.88931,-0.810549 1.68301,-0.04785 3.06002,0.05541 3.06002,0.229482 0,0.775715 -3.89456,1.232948 -4.94933,0.581067 z M 40.770833,97.045835 c 0.332292,-0.332291 1.194792,-0.367818 1.916667,-0.07895 0.797733,0.319226 0.560776,0.556183 -0.604167,0.604167 -1.054166,0.04342 -1.644791,-0.192928 -1.3125,-0.52522 z m 65.999997,0 c 0.33229,-0.332291 1.19479,-0.367818 1.91667,-0.07895 0.79773,0.319226 0.56078,0.556183 -0.60417,0.604167 -1.05416,0.04342 -1.64479,-0.192928 -1.3125,-0.52522 z M 35.958881,95.583471 c -0.362533,-0.586592 -0.444683,-1.281 -0.182555,-1.543128 0.262128,-0.262129 0.743066,0.21781 1.068751,1.066531 0.676184,1.762107 0.09985,2.072058 -0.886196,0.476597 z M 133.25,95.987721 c 0.6875,-0.277412 1.8125,-0.277412 2.5,0 0.6875,0.277413 0.125,0.504386 -1.25,0.504386 -1.375,0 -1.9375,-0.226973 -1.25,-0.504386 z m 4.482,-3.337719 c 0,-1.925 0.2058,-2.7125 0.45733,-1.75 0.25152,0.9625 0.25152,2.5375 0,3.5 -0.25153,0.9625 -0.45733,0.175 -0.45733,-1.75 z m 46.00009,0.285474 c 1.50265,-0.228174 4.20265,-0.232767 6,-0.0102 1.79735,0.222561 0.56791,0.409249 -2.73209,0.414862 -3.3,0.0056 -4.77056,-0.176483 -3.26791,-0.404657 z m 22,0 c 1.50265,-0.228174 4.20265,-0.232767 6,-0.0102 1.79735,0.222561 0.56791,0.409249 -2.73209,0.414862 -3.3,0.0056 -4.77056,-0.176483 -3.26791,-0.404657 z m 33.64035,-1.035474 c -1.24387,-1.586056 -1.2085,-1.621426 0.37756,-0.377555 0.9625,0.754844 1.75,1.542344 1.75,1.75 0,0.823034 -0.82119,0.293303 -2.12756,-1.372445 z M 78,89.650002 74,88.933813 77.69098,88.791907 c 2.03004,-0.07805 3.9691,0.308095 4.30902,0.858095 0.33992,0.55 0.47898,0.936143 0.30902,0.858095 C 82.13906,90.430049 80.2,90.043906 78,89.650002 Z m 45.73834,-0.68708 c 0.95609,-0.250293 2.75609,-0.259374 4,-0.02018 1.24391,0.239193 0.46166,0.443978 -1.73834,0.455078 -2.2,0.0111 -3.21775,-0.184605 -2.26166,-0.434898 z M 58.230968,87.994065 c 0.677033,-0.273923 2.027033,-0.290597 3,-0.03705 C 62.203936,88.210555 61.65,88.434674 60,88.455053 c -1.65,0.02038 -2.446064,-0.187065 -1.769032,-0.460988 z m 5.521215,-4.844063 c -0.0111,-2.2 0.184605,-3.217747 0.434897,-2.261659 0.250293,0.956087 0.259374,2.756087 0.02018,4 -0.239192,1.243912 -0.443977,0.461659 -0.455077,-1.738341 z m 70.826767,-0.916667 c -0.0434,-1.054166 0.19292,-1.644791 0.52522,-1.3125 0.33229,0.332292 0.36781,1.194792 0.0789,1.916667 -0.31922,0.797733 -0.55618,0.560776 -0.60416,-0.604167 z m 4,0 c -0.0434,-1.054166 0.19292,-1.644791 0.52522,-1.3125 0.33229,0.332292 0.36781,1.194792 0.0789,1.916667 -0.31922,0.797733 -0.55618,0.560776 -0.60416,-0.604167 z M 59.25,77.987721 c 0.6875,-0.277412 1.8125,-0.277412 2.5,0 0.6875,0.277413 0.125,0.504386 -1.25,0.504386 -1.375,0 -1.9375,-0.226973 -1.25,-0.504386 z"
       style="fill:#007c91" /></g></svg>