<?xml version="1.0" encoding="utf-8"?>
<!-- Generator: Adobe Illustrator 22.0.0, SVG Export Plug-In . SVG Version: 6.00 Build 0)  -->
<svg version="1.1" id="Layer_2" xmlns="http://www.w3.org/2000/svg" xmlns:xlink="http://www.w3.org/1999/xlink" x="0px" y="0px"
	 viewBox="0 0 300 211.3" style="enable-background:new 0 0 300 211.3;" xml:space="preserve">
<style type="text/css">
	.st0{fill:#231F20;}
	.st1{fill:#056286;}
</style>
<g>
	<path class="st0" d="M115.9,99.5c0.4,0.1,0.9,0.1,1.5,0.1c0.6,0,1.3,0.1,2,0.1c1.1,0,2.1-0.1,3.1-0.3c1-0.2,1.9-0.5,2.7-1
		c0.8-0.5,1.4-1.1,1.9-1.8c0.5-0.8,0.7-1.7,0.7-2.9c0-1.1-0.2-2.1-0.6-2.9c-0.4-0.8-1-1.4-1.7-1.9c-0.7-0.5-1.5-0.9-2.5-1.1
		c-1-0.2-2-0.3-3.1-0.3h-4.2V99.5z M119.8,84.9c2.2,0,3.8-0.5,4.9-1.5c1-1,1.5-2.3,1.5-3.9c0-1.5-0.5-2.7-1.6-3.7
		c-1.1-1-2.8-1.5-5.1-1.5c-0.7,0-1.4,0-2,0.1c-0.6,0.1-1.2,0.1-1.5,0.2v10.3H119.8z M113.1,72.3c0.3,0,0.7-0.1,1.2-0.1
		c0.5-0.1,1-0.1,1.6-0.2c0.6-0.1,1.2-0.1,1.7-0.1c0.6,0,1.1,0,1.6,0c3.2,0,5.7,0.6,7.4,1.9c1.7,1.2,2.6,3.2,2.6,5.8
		c0,0.8-0.1,1.6-0.4,2.3c-0.3,0.7-0.6,1.3-1,1.9c-0.4,0.6-1,1-1.5,1.4c-0.6,0.4-1.2,0.7-1.8,0.9c0.8,0.1,1.7,0.3,2.5,0.7
		c0.8,0.3,1.5,0.8,2.1,1.4c0.6,0.6,1.1,1.4,1.5,2.3c0.4,0.9,0.6,2,0.6,3.3c0,1.5-0.3,2.7-0.9,3.8c-0.6,1.1-1.4,2-2.5,2.7
		c-1.1,0.7-2.3,1.2-3.7,1.6c-1.4,0.3-3,0.5-4.7,0.5c-0.4,0-0.9,0-1.5,0c-0.5,0-1.1-0.1-1.7-0.1c-0.6,0-1.1-0.1-1.6-0.2
		c-0.5-0.1-1-0.1-1.4-0.2V72.3z"/>
	<path class="st0" d="M147.2,91.6c-0.5-0.1-1-0.1-1.7-0.2c-0.7-0.1-1.4-0.1-2-0.1c-2,0-3.6,0.4-4.8,1.1c-1.1,0.8-1.7,1.9-1.7,3.3
		c0,0.9,0.2,1.6,0.5,2.2c0.3,0.6,0.8,1,1.3,1.3c0.5,0.3,1.1,0.5,1.8,0.6c0.7,0.1,1.3,0.1,2,0.1c0.8,0,1.6,0,2.4-0.1
		c0.7-0.1,1.5-0.2,2.2-0.3V91.6z M147.2,88c0-1.8-0.4-3.1-1.3-4c-0.9-0.8-2.1-1.3-3.8-1.3c-1.1,0-2.1,0.1-3,0.2
		c-0.9,0.1-1.7,0.3-2.4,0.6c-0.1-0.2-0.2-0.6-0.4-1.1c-0.1-0.5-0.1-0.9-0.1-1.3c0.7-0.2,1.6-0.4,2.6-0.6c1-0.1,2.1-0.2,3.2-0.2
		c2.7,0,4.6,0.6,5.9,1.7c1.3,1.2,1.9,3,1.9,5.5v13.8c-1,0.2-2.1,0.4-3.5,0.6c-1.4,0.2-2.7,0.3-3.9,0.3c-2.5,0-4.5-0.5-6-1.5
		c-1.5-1-2.2-2.7-2.2-4.9c0-1.1,0.2-2.1,0.6-2.9c0.4-0.9,1-1.6,1.8-2.2c0.8-0.6,1.7-1,2.7-1.3c1.1-0.3,2.2-0.5,3.5-0.5
		c1,0,1.8,0,2.5,0.1c0.7,0.1,1.3,0.1,1.8,0.2V88z"/>
	<path class="st0" d="M155.4,80.9c0.2,0,0.4-0.1,0.6-0.1c0.2,0,0.4,0,0.6,0c0.2,0,0.4,0,0.6,0c0.2,0,0.4,0,0.6,0.1
		c0.1,0.5,0.1,1.1,0.1,1.7c0,0.7,0,1.3,0,1.8c0.5-1,1.3-1.9,2.3-2.6c1-0.7,2.3-1.1,3.9-1.1h0.4c0.1,0,0.3,0,0.5,0
		c0.1,0.5,0.1,0.9,0.1,1.3c0,0.4-0.1,0.9-0.1,1.3c-0.2,0-0.4,0-0.5,0h-0.4c-1.9,0-3.4,0.6-4.5,1.8c-1.1,1.2-1.7,3.1-1.7,5.9v10.7
		c-0.2,0-0.4,0-0.7,0.1c-0.3,0-0.5,0-0.7,0c-0.1,0-0.4,0-0.7,0c-0.3,0-0.5,0-0.7-0.1V80.9z"/>
	<path class="st0" d="M181.9,99.2c0.1,0.3,0.3,0.6,0.4,1.1c0.1,0.5,0.2,0.8,0.3,1.1c-0.7,0.2-1.5,0.4-2.3,0.6
		c-0.9,0.2-1.8,0.2-2.9,0.2c-3.4,0-6-0.9-7.8-2.8c-1.8-1.9-2.7-4.6-2.7-8.1c0-1.6,0.2-3,0.6-4.3c0.4-1.3,1.1-2.5,1.9-3.5
		c0.8-1,1.9-1.8,3.2-2.3c1.3-0.6,2.7-0.8,4.4-0.8c1,0,2,0.1,3,0.2c0.9,0.1,1.7,0.3,2.2,0.5c0,0.4,0,0.8-0.1,1.2
		c-0.1,0.5-0.2,0.8-0.3,1.1c-0.5-0.2-1.2-0.4-2.1-0.5c-0.8-0.1-1.7-0.2-2.7-0.2c-1.2,0-2.3,0.2-3.2,0.6c-0.9,0.4-1.7,1-2.3,1.8
		c-0.6,0.8-1.1,1.7-1.4,2.7c-0.3,1-0.5,2.2-0.5,3.4c0,3,0.7,5.1,2.1,6.5c1.4,1.4,3.3,2.1,5.7,2.1c0.8,0,1.6-0.1,2.4-0.2
		C180.6,99.6,181.3,99.4,181.9,99.2"/>
	<path class="st0" d="M199.5,89.5c0-0.9-0.1-1.7-0.3-2.5c-0.2-0.8-0.6-1.5-1-2.2c-0.5-0.6-1.1-1.1-1.8-1.5c-0.7-0.4-1.6-0.6-2.7-0.6
		c-1.9,0-3.4,0.6-4.5,1.8c-1.1,1.2-1.7,2.8-1.9,5H199.5z M187.2,91.7c0,2.8,0.6,4.8,1.9,6.2c1.3,1.3,3.2,2,5.8,2c1,0,2-0.1,2.9-0.3
		c0.9-0.2,1.8-0.4,2.6-0.7c0.1,0.3,0.2,0.7,0.3,1.1c0.1,0.4,0.1,0.8,0.2,1.2c-0.8,0.4-1.7,0.6-2.8,0.8c-1.1,0.2-2.2,0.3-3.5,0.3
		c-1.8,0-3.4-0.3-4.7-0.8c-1.3-0.5-2.4-1.3-3.2-2.2c-0.8-1-1.5-2.1-1.8-3.4c-0.4-1.3-0.6-2.8-0.6-4.4c0-1.5,0.2-3,0.6-4.3
		c0.4-1.3,0.9-2.5,1.7-3.5c0.8-1,1.7-1.8,2.9-2.4c1.2-0.6,2.6-0.9,4.2-0.9c1.4,0,2.6,0.2,3.7,0.7c1.1,0.5,2,1.1,2.7,2
		c0.7,0.8,1.3,1.8,1.6,3c0.4,1.2,0.5,2.4,0.5,3.8c0,0.2,0,0.6,0,0.9c0,0.4,0,0.7-0.1,1H187.2z"/>
	<path class="st0" d="M206.6,71.7c0.2,0,0.4,0,0.7-0.1c0.3,0,0.5,0,0.7,0c0.1,0,0.4,0,0.7,0c0.3,0,0.5,0,0.7,0.1V97
		c0,0.7,0.1,1.3,0.2,1.7c0.2,0.4,0.4,0.7,0.6,0.9c0.2,0.2,0.5,0.3,0.8,0.3c0.3,0,0.6,0.1,0.8,0.1c0.3,0,0.6,0,0.9-0.1
		c0.3,0,0.6-0.1,0.8-0.1c0.1,0.3,0.2,0.7,0.3,1.1c0.1,0.4,0.1,0.7,0.1,1.1c-0.4,0.1-0.8,0.2-1.3,0.3c-0.5,0.1-0.9,0.1-1.3,0.1
		c-0.6,0-1.2-0.1-1.7-0.2c-0.6-0.1-1.1-0.4-1.5-0.7c-0.5-0.3-0.8-0.8-1.1-1.4c-0.3-0.6-0.4-1.4-0.4-2.3V71.7z"/>
	<path class="st0" d="M224.6,99.9c2.2,0,3.8-0.8,4.9-2.3c1.1-1.5,1.6-3.6,1.6-6.3c0-2.7-0.5-4.7-1.6-6.3c-1.1-1.5-2.7-2.3-4.9-2.3
		c-2.2,0-3.8,0.8-4.9,2.3c-1.1,1.5-1.6,3.6-1.6,6.3c0,2.7,0.5,4.7,1.6,6.3C220.8,99.1,222.4,99.9,224.6,99.9 M224.6,102.3
		c-1.6,0-2.9-0.3-4.1-0.8c-1.2-0.6-2.2-1.3-2.9-2.3c-0.8-1-1.4-2.1-1.7-3.5c-0.4-1.3-0.6-2.8-0.6-4.3c0-1.5,0.2-3,0.6-4.3
		c0.4-1.3,1-2.5,1.7-3.5c0.8-1,1.8-1.8,2.9-2.3c1.2-0.6,2.5-0.8,4.1-0.8c1.6,0,2.9,0.3,4.1,0.8c1.2,0.6,2.1,1.3,2.9,2.3
		c0.8,1,1.4,2.1,1.8,3.5c0.4,1.3,0.6,2.8,0.6,4.3c0,1.5-0.2,3-0.6,4.3c-0.4,1.3-1,2.5-1.8,3.5c-0.8,1-1.7,1.8-2.9,2.3
		C227.5,102,226.2,102.3,224.6,102.3"/>
	<path class="st0" d="M238.5,80.9c0.2,0,0.4-0.1,0.6-0.1c0.2,0,0.4,0,0.6,0c0.2,0,0.4,0,0.6,0c0.2,0,0.4,0,0.6,0.1
		c0.1,0.5,0.1,1.1,0.1,1.8c0,0.7,0,1.4,0,1.9c0.3-0.5,0.6-1,1.1-1.5c0.4-0.5,1-1,1.5-1.4c0.6-0.4,1.3-0.7,2-1
		c0.8-0.3,1.6-0.4,2.5-0.4c2.4,0,4.2,0.7,5.2,2.2c1.1,1.4,1.6,3.5,1.6,6v13.2c-0.2,0-0.4,0-0.7,0.1c-0.3,0-0.5,0-0.7,0
		c-0.1,0-0.4,0-0.7,0c-0.3,0-0.5,0-0.7-0.1V89.4c0-2.3-0.4-4-1.1-5c-0.7-1-1.8-1.5-3.3-1.5c-1,0-1.9,0.2-2.7,0.6
		c-0.8,0.4-1.6,0.9-2.2,1.7c-0.6,0.7-1.1,1.6-1.5,2.7c-0.4,1.1-0.5,2.3-0.5,3.7v10.3c-0.2,0-0.4,0-0.7,0.1c-0.3,0-0.5,0-0.7,0
		c-0.1,0-0.4,0-0.7,0c-0.3,0-0.5,0-0.7-0.1V80.9z"/>
	<path class="st0" d="M272,91.6c-0.5-0.1-1-0.1-1.7-0.2c-0.7-0.1-1.4-0.1-2-0.1c-2.1,0-3.6,0.4-4.8,1.1c-1.1,0.8-1.7,1.9-1.7,3.3
		c0,0.9,0.2,1.6,0.5,2.2c0.3,0.6,0.8,1,1.3,1.3c0.5,0.3,1.2,0.5,1.8,0.6c0.7,0.1,1.3,0.1,2,0.1c0.8,0,1.6,0,2.4-0.1
		c0.7-0.1,1.5-0.2,2.2-0.3V91.6z M272,88c0-1.8-0.4-3.1-1.3-4c-0.8-0.8-2.1-1.3-3.8-1.3c-1.1,0-2.1,0.1-3,0.2
		c-0.9,0.1-1.7,0.3-2.4,0.6c-0.1-0.2-0.3-0.6-0.3-1.1c-0.1-0.5-0.1-0.9-0.1-1.3c0.7-0.2,1.6-0.4,2.6-0.6c1-0.1,2.1-0.2,3.2-0.2
		c2.7,0,4.6,0.6,5.9,1.7c1.3,1.2,1.9,3,1.9,5.5v13.8c-1,0.2-2.1,0.4-3.5,0.6c-1.4,0.2-2.7,0.3-3.9,0.3c-2.5,0-4.5-0.5-6-1.5
		c-1.5-1-2.2-2.7-2.2-4.9c0-1.1,0.2-2.1,0.6-2.9c0.4-0.9,1-1.6,1.8-2.2c0.8-0.6,1.7-1,2.7-1.3c1.1-0.3,2.2-0.5,3.5-0.5
		c1,0,1.8,0,2.5,0.1c0.7,0.1,1.3,0.1,1.8,0.2V88z"/>
	<path class="st1" d="M125.2,127.5l-3.4-12.4l-3.6,12.4H125.2z M118.6,108.9c0.6-0.1,1.1-0.1,1.6-0.2c0.5,0,1.1-0.1,1.7-0.1
		c0.5,0,1.1,0,1.6,0.1c0.5,0,1.1,0.1,1.7,0.2l9.2,29.5c-1.1,0.2-2.2,0.2-3.3,0.2c-1,0-2-0.1-3-0.2l-1.6-5.9h-9.8l-1.7,5.9
		c-1,0.2-1.9,0.2-2.8,0.2c-1,0-2-0.1-3-0.2L118.6,108.9z"/>
	<path class="st1" d="M150.7,133.4c0.3,0.5,0.6,1.2,0.8,1.9c0.2,0.7,0.3,1.6,0.3,2.6c-1.1,0.4-2.1,0.7-3.1,0.8c-1,0.1-2,0.2-3,0.2
		c-1.8,0-3.3-0.3-4.6-0.8c-1.3-0.6-2.4-1.3-3.3-2.3c-0.9-1-1.5-2.2-2-3.5c-0.4-1.4-0.7-2.8-0.7-4.4c0-1.6,0.2-3,0.6-4.3
		c0.4-1.3,1.1-2.5,1.9-3.5c0.9-1,1.9-1.8,3.2-2.4c1.3-0.6,2.8-0.9,4.5-0.9c0.6,0,1.2,0,1.7,0c0.5,0,1,0.1,1.5,0.2
		c0.5,0.1,0.9,0.2,1.4,0.3c0.5,0.1,1,0.3,1.6,0.5c0,0.6-0.1,1.3-0.2,2.1c-0.2,0.8-0.4,1.5-0.8,2.2c-0.8-0.3-1.5-0.5-2.2-0.6
		c-0.6-0.1-1.3-0.2-2.1-0.2c-1.7,0-3,0.6-3.8,1.7c-0.9,1.1-1.3,2.7-1.3,4.7c0,2.2,0.5,3.8,1.4,4.8c0.9,1,2.2,1.5,3.8,1.5
		c0.4,0,0.8,0,1.1,0c0.3,0,0.7,0,1-0.1c0.3-0.1,0.7-0.1,1-0.2C149.8,133.7,150.2,133.5,150.7,133.4"/>
	<path class="st1" d="M155.9,121.6h-2.7l-0.2-0.8l7.7-9.8h0.9v6.2h5c0.1,0.4,0.1,0.8,0.2,1.1c0,0.3,0,0.7,0,1c0,0.4,0,0.7,0,1.1
		c0,0.4-0.1,0.8-0.2,1.2h-5v8.3c0,0.8,0.1,1.5,0.2,2c0.1,0.5,0.3,0.9,0.6,1.2c0.3,0.3,0.6,0.5,1,0.6c0.4,0.1,0.8,0.2,1.4,0.2
		c0.4,0,0.8,0,1.2-0.1c0.4-0.1,0.7-0.1,1-0.2c0.2,0.5,0.3,1.1,0.4,1.6c0.1,0.6,0.1,1.1,0.1,1.5c0,0.3,0,0.6,0,0.8
		c0,0.2,0,0.4-0.1,0.6c-1.3,0.3-2.6,0.4-3.9,0.4c-2.5,0-4.4-0.6-5.7-1.7c-1.3-1.2-2-3.1-2-5.7V121.6z"/>
	<path class="st1" d="M170.7,113.6c-0.2-0.9-0.3-1.9-0.3-2.7c0-0.9,0.1-1.8,0.3-2.8c0.5-0.1,1-0.1,1.5-0.2c0.5,0,1-0.1,1.5-0.1
		c0.5,0,1,0,1.5,0.1c0.5,0,1,0.1,1.5,0.2c0.1,0.5,0.1,0.9,0.2,1.4c0,0.5,0,0.9,0,1.4c0,0.4,0,0.9,0,1.4s-0.1,0.9-0.2,1.4
		c-0.5,0.1-1,0.1-1.5,0.2c-0.5,0-1,0-1.5,0c-0.4,0-0.9,0-1.5,0C171.7,113.7,171.2,113.7,170.7,113.6 M171.6,121.6h-2.7
		c-0.1-0.4-0.1-0.7-0.2-1.1c-0.1-0.4-0.1-0.8-0.1-1.1c0-0.7,0.1-1.5,0.2-2.2h8.4v21.2c-1,0.2-1.9,0.2-2.9,0.2
		c-0.9,0-1.8-0.1-2.8-0.2V121.6z"/>
	<path class="st1" d="M179.4,117.2c0.7-0.1,1.3-0.2,1.8-0.2c0.6,0,1,0,1.5,0c0.5,0,1.1,0,1.6,0c0.5,0,1.1,0.1,1.5,0.2l4.6,15.8
		l4.6-15.8c0.5-0.1,1-0.1,1.5-0.2c0.5,0,1-0.1,1.6-0.1c0.4,0,0.9,0,1.4,0c0.5,0,1.1,0.1,1.8,0.2l-8,21.2c-0.5,0.1-1.1,0.1-1.6,0.2
		c-0.6,0-1.1,0-1.4,0c-0.4,0-0.9,0-1.4,0c-0.5,0-1-0.1-1.5-0.2L179.4,117.2z"/>
	<path class="st1" d="M213.8,128.7c-0.3,0-0.7-0.1-1.1-0.1c-0.4,0-0.7-0.1-1-0.1c-1.3,0-2.4,0.2-3.2,0.7c-0.8,0.5-1.2,1.2-1.2,2.3
		c0,0.7,0.1,1.3,0.4,1.6c0.3,0.4,0.7,0.7,1.1,0.8c0.4,0.2,0.9,0.3,1.4,0.3c0.5,0,0.9,0.1,1.2,0.1c0.4,0,0.8,0,1.2-0.1
		c0.4-0.1,0.8-0.1,1.1-0.2V128.7z M213.8,124.4c0-0.7-0.1-1.2-0.3-1.6c-0.2-0.4-0.5-0.7-0.9-1c-0.4-0.2-0.9-0.4-1.4-0.5
		c-0.6-0.1-1.2-0.1-1.9-0.1c-1.5,0-3,0.3-4.7,0.9c-0.4-0.7-0.7-1.4-0.9-2c-0.2-0.6-0.3-1.4-0.3-2.3c1.2-0.4,2.4-0.7,3.6-0.9
		c1.2-0.2,2.3-0.3,3.4-0.3c2.8,0,5.1,0.7,6.7,2c1.6,1.4,2.4,3.6,2.4,6.6v12.3c-1,0.3-2.1,0.6-3.5,0.9c-1.4,0.3-2.9,0.4-4.6,0.4
		c-1.4,0-2.7-0.1-3.8-0.4c-1.2-0.3-2.2-0.7-3-1.2c-0.8-0.6-1.5-1.3-1.9-2.2c-0.5-0.9-0.7-2-0.7-3.3c0-1.3,0.3-2.4,0.8-3.3
		c0.5-0.9,1.3-1.6,2.2-2.1c0.9-0.5,1.9-0.9,3-1.1c1.1-0.2,2.2-0.3,3.3-0.3c0.8,0,1.7,0,2.6,0.1V124.4z"/>
	<path class="st1" d="M72.9,123.3H48.8L44.9,137c5,2.6,10.6,4,16.5,4c5.5,0,10.8-1.2,15.5-3.5L72.9,123.3z"/>
	<path class="st1" d="M89.4,127.7c5.1-6.2,8.1-14.1,8.1-22.7c0-16.4-11-30.3-26-34.6L89.4,127.7z"/>
	<polygon class="st1" points="61,80.4 52.2,111.1 69.5,111.1 	"/>
	<path class="st1" d="M51.6,70.3C36.4,74.6,25.3,88.5,25.3,105c0,8.6,3,16.6,8.1,22.8L51.6,70.3z"/>
</g>
</svg>
