<?xml version="1.0" encoding="utf-8"?>
<!-- Generator: Adobe Illustrator 22.0.0, SVG Export Plug-In . SVG Version: 6.00 Build 0)  -->
<svg version="1.1" id="Layer_2_1_" xmlns="http://www.w3.org/2000/svg" xmlns:xlink="http://www.w3.org/1999/xlink" x="0px" y="0px"
	 viewBox="0 0 300 211.3" style="enable-background:new 0 0 300 211.3;" xml:space="preserve">
<style type="text/css">
	.st0{fill:#717170;}
	.st1{fill:#212120;}
	.st2{fill:#222221;}
	.st3{fill:#767675;}
	.st4{fill:#737372;}
</style>
<g>
	<path class="st0" d="M24.5,124.8c0.1,0,0.3,0,0.4,0c83.4,0,166.7,0,250.1,0c0.1,0,0.3,0,0.4,0c0,7.8,0,15.5,0,23.3
		c0,0.3,0,0.3-0.3,0.3c-83.4,0-166.9,0-250.3,0c-0.3,0-0.3-0.1-0.3-0.3C24.5,140.3,24.5,132.5,24.5,124.8z M177.6,134.8
		C177.6,134.8,177.7,134.8,177.6,134.8c0.1,0.1,0.1,0.2,0.1,0.3c0,2.1,0,4.3,0,6.4c0,0.3,0,0.4,0.4,0.4c0.6,0,1.2,0,1.8,0
		c0.2,0,0.3-0.1,0.3-0.3c0-3.2,0-6.4,0-9.7c0-0.3-0.1-0.3-0.3-0.3c-1,0-2,0-3,0c-0.2,0-0.3,0.1-0.4,0.3c-0.3,0.8-0.5,1.6-0.8,2.4
		c-0.4,1.3-0.9,2.6-1.3,3.9c-0.1-0.2-0.1-0.3-0.1-0.4c-0.7-2-1.4-3.9-2.1-5.9c-0.1-0.3-0.2-0.4-0.5-0.4c-0.9,0-1.8,0-2.8,0
		c-0.3,0-0.4,0.1-0.4,0.4c0,3.2,0,6.3,0,9.5c0,0.1,0,0.1,0,0.2c0,0.2,0,0.3,0.2,0.2c0.6,0,1.3,0,1.9,0c0.2,0,0.2-0.1,0.2-0.2
		c0-1.2,0-2.3,0-3.5c0-1.1,0-2.3,0-3.5c0.1,0.2,0.1,0.3,0.1,0.4c0.7,1.8,1.3,3.7,2,5.5c0.2,0.4,0.2,1,0.5,1.3c0.3,0.3,0.9,0,1.4,0.1
		c0.3,0,0.4-0.1,0.5-0.3c0.5-1.4,1-2.8,1.5-4.2C177,136.5,177.3,135.7,177.6,134.8z M197.9,135.2c0.1,0.2,0.2,0.3,0.2,0.4
		c1.2,2,2.5,4,3.7,6c0.1,0.2,0.2,0.3,0.5,0.3c0.7,0,1.5,0,2.2,0c0.2,0,0.3,0,0.3-0.3c0-3.2,0-6.5,0-9.7c0-0.2-0.1-0.3-0.3-0.3
		c-0.6,0-1.2,0-1.9,0c-0.3,0-0.3,0.1-0.3,0.3c0,1.3,0,2.6,0,4c0,0.8,0,1.5,0,2.4c-0.1-0.2-0.2-0.3-0.3-0.5c-1.2-2-2.4-4-3.6-5.9
		c-0.1-0.2-0.3-0.3-0.5-0.3c-0.7,0-1.5,0-2.2,0c-0.2,0-0.3,0-0.3,0.3c0,3.2,0,6.5,0,9.7c0,0.3,0.1,0.3,0.3,0.3c0.6,0,1.1,0,1.7,0
		c0.3,0,0.4-0.1,0.4-0.4C197.9,139.4,197.9,137.4,197.9,135.2z M56.8,135.3C56.8,135.3,56.8,135.3,56.8,135.3
		c0.1,0.1,0.2,0.1,0.2,0.2c1.2,2,2.5,4,3.7,6.1c0.1,0.2,0.2,0.3,0.4,0.3c0.8,0,1.6,0,2.4,0c0.2,0,0.3-0.1,0.3-0.3c0-3.2,0-6.5,0-9.7
		c0-0.2-0.1-0.3-0.3-0.3c-0.6,0-1.2,0-1.8,0c-0.3,0-0.4,0.1-0.4,0.4c0,2,0,3.9,0,5.9c0,0.1,0,0.2,0,0.4c-0.1-0.1-0.1-0.2-0.2-0.3
		c-1.2-2-2.5-4-3.7-6.1c-0.1-0.2-0.3-0.3-0.6-0.3c-0.7,0-1.4,0-2.1,0c-0.3,0-0.4,0-0.4,0.4c0,3.2,0,6.4,0,9.6c0,0.2,0.1,0.3,0.3,0.3
		c0.6,0,1.2,0,1.7,0c0.3,0,0.4-0.1,0.4-0.4c0-1.9,0-3.9,0-5.8C56.8,135.6,56.8,135.5,56.8,135.3z M188.2,131.3c-3.4,0-5.8,1.8-6,5
		c-0.1,2.2,0.9,4.2,2.8,5.2c1.1,0.5,2.2,0.7,3.3,0.6c4.8-0.4,6-5.2,4.4-8.1C191.7,132.1,189.9,131.4,188.2,131.3z M96.9,137.5
		c0.1-0.1,0.3-0.1,0.4-0.2c1.7-0.7,2.3-3,1.2-4.5c-0.6-0.8-1.5-1.1-2.5-1.2c-1.5-0.1-3,0-4.6-0.1c-0.2,0-0.2,0.1-0.2,0.3
		c0,3.2,0,6.5,0,9.7c0,0.2,0.1,0.3,0.3,0.3c0.6,0,1.2,0,1.8,0c0.3,0,0.4-0.1,0.4-0.4c0-1.1,0-2.2,0-3.4c0-0.1-0.1-0.3,0.1-0.3
		c0.3-0.1,0.7,0,0.9,0.3c0.6,1.2,1.3,2.3,1.9,3.5c0.1,0.1,0.1,0.3,0.3,0.3c0.9,0,1.8,0,2.8,0C98.7,140.4,97.8,139,96.9,137.5z
		 M152.9,137.5c0.1,0,0.1-0.1,0.2-0.1c1.3-0.6,2-1.5,1.9-2.9c-0.1-1.4-0.8-2.3-2.2-2.7c-0.3-0.1-0.7-0.2-1-0.2c-1.5-0.1-3,0-4.5,0
		c-0.2,0-0.2,0.1-0.2,0.3c0,3.2,0,6.5,0,9.7c0,0.2,0.1,0.3,0.3,0.3c0.6,0,1.2,0,1.8,0c0.3,0,0.4-0.1,0.4-0.4c0-1.1,0-2.2,0-3.3
		c0-0.1,0-0.2,0.1-0.3c0.2-0.1,0.8,0,0.9,0.3c0.6,1.2,1.3,2.3,1.9,3.5c0.1,0.2,0.2,0.3,0.5,0.3c0.6,0,1.1,0,1.7,0c0.3,0,0.5,0,0.9,0
		C154.6,140.4,153.8,139,152.9,137.5z M236.9,135.2c0-1.1,0-2.2,0-3.3c0-0.3-0.1-0.3-0.3-0.3c-0.6,0-1.2,0-1.8,0
		c-0.3,0-0.4,0.1-0.4,0.4c0,2,0,3.9,0,5.9c0,1.1-0.6,1.9-1.6,2c-1.1,0.1-1.9-0.4-2.1-1.4c-0.1-0.2-0.1-0.5-0.1-0.7
		c0-1.9,0-3.8,0-5.8c0-0.3-0.1-0.4-0.3-0.4c-0.6,0-1.2,0-1.8,0c-0.3,0-0.3,0.1-0.3,0.4c0,2.1,0,4.2,0,6.2c0,1.5,0.7,2.7,2,3.4
		c1,0.5,2,0.6,3.1,0.5c2.2-0.2,3.7-1.9,3.7-4.1C236.9,137.1,236.9,136.2,236.9,135.2z M51.9,135.2c0-1.1,0-2.1,0-3.2
		c0-0.3-0.1-0.4-0.4-0.4c-0.6,0-1.2,0-1.7,0c-0.3,0-0.4,0.1-0.4,0.4c0,1.9,0,3.7,0,5.6c0,0.2,0,0.5-0.1,0.7c-0.2,1-0.8,1.5-1.9,1.6
		c-1,0-1.7-0.5-1.9-1.5c0-0.3-0.1-0.5-0.1-0.8c0-1.9,0-3.8,0-5.7c0-0.3-0.1-0.4-0.4-0.4c-0.6,0-1.2,0-1.8,0c-0.3,0-0.3,0.1-0.3,0.3
		c0,2,0,4.1,0,6.1c0,1,0.2,1.8,0.8,2.6c0.9,1.2,2.2,1.6,3.7,1.5c2.5,0,4.4-1.6,4.3-4.3C51.9,136.9,51.9,136.1,51.9,135.2z
		 M167,141.9c0-0.1,0-0.1,0-0.1c-1.4-3.3-2.7-6.6-4.1-9.9c-0.1-0.2-0.2-0.2-0.4-0.2c-0.6,0-1.2,0-1.9,0c-0.2,0-0.3,0.1-0.4,0.3
		c-0.2,0.5-0.4,1-0.6,1.5c-1.1,2.7-2.3,5.4-3.4,8.2c-0.1,0.3-0.1,0.4,0.2,0.4c0.7,0,1.3,0,2,0c0.3,0,0.4-0.1,0.4-0.3
		c0.2-0.5,0.4-1,0.5-1.5c0.1-0.2,0.2-0.3,0.4-0.3c1.1,0,2.2,0,3.4,0c0.2,0,0.3,0.1,0.4,0.3c0.2,0.5,0.4,1,0.6,1.5
		c0.1,0.1,0.1,0.2,0.3,0.2C165.3,141.9,166.1,141.9,167,141.9z M133.2,141.9c0-0.1,0-0.1-0.1-0.2c-1.4-3.3-2.7-6.6-4.1-9.9
		c-0.1-0.2-0.2-0.3-0.4-0.3c-0.6,0-1.2,0-1.8,0c-0.3,0-0.4,0.1-0.5,0.3c-1.3,3.2-2.7,6.4-4,9.6c0,0.1-0.1,0.2-0.1,0.4
		c0.8,0,1.6,0,2.5,0c0.2,0,0.2-0.1,0.3-0.2c0.2-0.5,0.4-1,0.6-1.6c0.1-0.2,0.2-0.3,0.4-0.2c1.1,0,2.3,0,3.4,0c0.2,0,0.3,0.1,0.4,0.3
		c0.2,0.5,0.4,1,0.6,1.5c0,0.1,0.1,0.2,0.2,0.2C131.5,141.9,132.4,141.9,133.2,141.9z M81.8,136.8c0,1.6,0,3.2,0,4.8
		c0,0.2,0,0.3,0.3,0.3c2.2,0,4.5,0,6.7,0c0.2,0,0.3-0.1,0.2-0.3c0-0.5,0-1,0-1.5c0-0.3-0.1-0.4-0.4-0.4c-1.3,0-2.7,0-4,0
		c-0.3,0-0.4-0.1-0.3-0.3c0-0.5,0-0.9,0-1.4c0-0.3,0.1-0.4,0.4-0.4c1.2,0,2.3,0,3.5,0c0.3,0,0.4,0,0.4-0.4c0-0.4,0-0.9,0-1.3
		c0-0.3-0.1-0.4-0.4-0.4c-1.2,0-2.4,0-3.5,0c-0.3,0-0.4,0-0.4-0.3c0-0.4,0-0.8,0-1.2c0-0.3,0.1-0.3,0.4-0.3c1.3,0,2.5,0,3.8,0
		c0.3,0,0.4-0.1,0.4-0.4c0-0.5,0-0.9,0-1.4c0-0.3-0.1-0.3-0.4-0.3c-2.1,0-4.2,0-6.2,0c-0.3,0-0.4,0.1-0.4,0.4
		C81.8,133.6,81.8,135.2,81.8,136.8z M75.4,138.9c-0.1-0.3-0.2-0.5-0.2-0.7c-0.7-2.1-1.4-4.2-2.1-6.4c-0.1-0.2-0.2-0.3-0.4-0.3
		c-0.7,0-1.5,0-2.2,0c-0.3,0-0.3,0.1-0.2,0.3c1.2,3.2,2.5,6.5,3.7,9.7c0.1,0.2,0.2,0.3,0.4,0.3c0.7,0,1.3,0,2,0
		c0.2,0,0.3-0.1,0.4-0.3c1.3-3.3,2.5-6.5,3.8-9.8c0.1-0.3,0-0.3-0.2-0.3c-0.7,0-1.4,0-2.2,0c-0.3,0-0.3,0.1-0.4,0.3
		c-0.4,1.4-0.9,2.7-1.3,4.1C76,137,75.7,137.9,75.4,138.9z M104.2,142.2c0.9,0,1.8-0.2,2.6-0.7c1.1-0.7,1.5-1.8,1.4-3.1
		c-0.1-1.1-0.8-1.7-1.7-2.2c-0.4-0.2-0.9-0.3-1.3-0.5c-0.5-0.2-0.9-0.3-1.4-0.6c-0.5-0.3-0.5-0.9-0.1-1.3c0.2-0.2,0.5-0.3,0.8-0.4
		c0.8-0.1,1.5,0.1,2,0.7c0.2,0.2,0.2,0.1,0.4,0c0.4-0.4,0.8-0.9,1.3-1.3c0.2-0.2,0.1-0.2,0-0.4c-1.5-1.3-4.4-1.5-6-0.3
		c-1.5,1.1-1.7,4,0.5,5c0.4,0.2,0.7,0.3,1.1,0.4c0.5,0.2,1,0.3,1.4,0.6c0.5,0.3,0.6,0.6,0.6,1.1c-0.1,0.5-0.4,0.8-0.9,0.9
		c-1,0.2-1.8-0.2-2.4-0.8c-0.2-0.2-0.3-0.2-0.5,0c-0.4,0.4-0.7,0.8-1.1,1.1c-0.2,0.2-0.2,0.3,0,0.5
		C101.7,141.8,102.9,142.1,104.2,142.2z M118.7,131.6c-1.3,0-2.6,0-3.8,0c-0.3,0-0.4,0.1-0.3,0.3c0,0.5,0,1,0,1.5
		c0,0.2,0,0.3,0.3,0.3c0.7,0,1.4,0,2.2,0c0.4,0,0.4,0.1,0.4,0.4c0,2.5,0,4.9,0,7.4c0,0.3,0.1,0.4,0.3,0.3c0.6,0,1.2,0,1.8,0
		c0.3,0,0.4-0.1,0.4-0.4c0-2.4,0-4.9,0-7.3c0-0.4,0.1-0.5,0.5-0.5c0.7,0,1.4,0,2.1,0c0.3,0,0.3-0.1,0.3-0.3c0-0.5,0-0.9,0-1.4
		c0-0.3-0.1-0.4-0.4-0.4C121.1,131.6,119.9,131.6,118.7,131.6z M136.9,131.6c-1.3,0-2.5,0-3.8,0c-0.3,0-0.4,0-0.4,0.4
		c0,0.5,0,1,0,1.5c0,0.2,0.1,0.3,0.3,0.3c0.7,0,1.5,0,2.2,0c0.4,0,0.4,0.1,0.4,0.4c0,2.5,0,4.9,0,7.4c0,0.3,0,0.4,0.4,0.4
		c0.6,0,1.2,0,1.8,0c0.3,0,0.4-0.1,0.4-0.4c0-2.5,0-4.9,0-7.4c0-0.3,0.1-0.4,0.4-0.4c0.7,0,1.5,0,2.2,0c0.2,0,0.3-0.1,0.3-0.3
		c0-0.5,0-1,0-1.4c0-0.3-0.1-0.4-0.4-0.4C139.4,131.6,138.2,131.6,136.9,131.6z M212.3,136.8c0,1.6,0,3.2,0,4.8c0,0.2,0,0.3,0.2,0.3
		c2,0,4,0,6,0c0.2,0,0.2-0.1,0.2-0.2c0-0.5,0-1.1,0-1.6c0-0.3-0.1-0.3-0.3-0.3c-1.1,0-2.1,0-3.2,0c-0.4,0-0.4-0.1-0.4-0.4
		c0-2.4,0-4.9,0-7.3c0-0.3-0.1-0.4-0.4-0.4c-0.6,0-1.2,0-1.8,0c-0.3,0-0.3,0.1-0.3,0.4C212.3,133.6,212.3,135.2,212.3,136.8z
		 M239.4,136.7c0,1.6,0,3.2,0,4.8c0,0.2,0,0.3,0.2,0.3c2,0,4,0,6,0c0.2,0,0.2-0.1,0.2-0.2c0-0.5,0-1.1,0-1.6c0-0.3-0.1-0.3-0.3-0.3
		c-1.1,0-2.1,0-3.2,0c-0.4,0-0.5-0.1-0.5-0.5c0-2.4,0-4.8,0-7.2c0-0.3-0.1-0.4-0.4-0.4c-0.6,0-1.1,0-1.7,0c-0.3,0-0.4,0.1-0.4,0.4
		C239.4,133.6,239.4,135.2,239.4,136.7z M247.6,136.8c0,1.6,0,3.2,0,4.8c0,0.2,0,0.3,0.2,0.3c2,0,4,0,6,0c0.2,0,0.3-0.1,0.3-0.3
		c0-0.5,0-1.1,0-1.6c0-0.3-0.1-0.3-0.3-0.3c-1.1,0-2.2,0-3.3,0c-0.4,0-0.4-0.1-0.4-0.4c0-2.4,0-4.9,0-7.3c0-0.3-0.1-0.4-0.4-0.4
		c-0.6,0-1.2,0-1.8,0c-0.3,0-0.4,0.1-0.4,0.4C247.6,133.6,247.6,135.2,247.6,136.8z M220.4,136.8c0,1.6,0,3.2,0,4.8
		c0,0.2,0,0.3,0.3,0.3c2,0,4,0,6,0c0.2,0,0.2-0.1,0.2-0.3c0-0.5,0-1.1,0-1.6c0-0.3-0.1-0.3-0.4-0.3c-1.1,0-2.1,0-3.2,0
		c-0.4,0-0.4-0.1-0.4-0.4c0-2.4,0-4.9,0-7.3c0-0.3-0.1-0.4-0.4-0.4c-0.6,0-1.2,0-1.8,0c-0.3,0-0.4,0.1-0.4,0.4
		C220.4,133.6,220.4,135.2,220.4,136.8z M66.3,136.7c0,1.6,0,3.2,0,4.8c0,0.2,0.1,0.3,0.3,0.3c0.6,0,1.3,0,1.9,0
		c0.2,0,0.3,0,0.3-0.3c0-3.2,0-6.5,0-9.7c0-0.3-0.1-0.3-0.3-0.3c-0.6,0-1.2,0-1.9,0c-0.3,0-0.4,0.1-0.4,0.4
		C66.3,133.6,66.3,135.2,66.3,136.7z M112.9,136.8c0-1.6,0-3.2,0-4.8c0-0.3-0.1-0.4-0.4-0.4c-0.6,0-1.2,0-1.8,0
		c-0.2,0-0.3,0.1-0.3,0.3c0,3.2,0,6.5,0,9.7c0,0.2,0.1,0.3,0.3,0.3c0.6,0,1.2,0,1.9,0c0.3,0,0.4-0.1,0.4-0.4
		C112.9,140,112.9,138.4,112.9,136.8z"/>
	<path class="st1" d="M93.2,63c0.6,0.1,1.3,0.1,1.9,0.2c3,0.4,5.8,1.3,8.2,3.2c2.7,2.1,4.2,4.9,4.9,8.2c0.2,0.9,0.3,1.8,0.3,2.8
		c0,0.3-0.1,0.3-0.3,0.3c-1.7,0-3.5,0-5.2,0c-0.3,0-0.4-0.1-0.4-0.4c-0.2-1.4-0.5-2.8-1.2-4c-1-2-2.6-3.3-4.6-4.1
		c-3.9-1.5-7.9-1.5-11.8,0.1c-2.8,1.2-4.1,3.4-4.2,6.4c0,1.7,0.4,3.1,1.7,4.3c0.7,0.6,1.4,1,2.2,1.4c2,0.9,4,1.4,6.2,1.9
		c3.8,0.8,7.6,1.6,11.2,3c1.9,0.7,3.6,1.7,5.1,3.1c1.9,1.8,3,4.1,3.2,6.8c0.2,2.7,0,5.3-1.4,7.7c-1.3,2.2-3,3.8-5.2,5.1
		c-2.1,1.2-4.4,1.8-6.7,2.2c-4.2,0.8-8.4,0.5-12.4-0.6c-2.7-0.8-5.2-2.1-7.3-4.2c-2.2-2.3-3.5-5-4-8.2c-0.1-0.9-0.2-1.7-0.2-2.6
		c0-0.2,0.1-0.3,0.3-0.3c1.8,0,3.5,0,5.3,0c0.3,0,0.3,0.1,0.3,0.3c0,1.4,0.2,2.9,0.8,4.2c1.1,2.4,2.9,4.1,5.3,5.2
		c2.1,1,4.3,1.4,6.6,1.5c2.5,0.1,5-0.2,7.4-1c2-0.7,3.6-1.9,4.5-3.9c0.9-2,1-4.1,0.2-6.2c-0.6-1.4-1.7-2.4-3-3.1
		c-1.9-1.1-3.9-1.7-6-2.2c-3.6-0.8-7.1-1.5-10.6-2.6c-2.2-0.7-4.2-1.5-6-3c-2.2-1.8-3.3-4.1-3.4-6.9c-0.1-2,0-3.9,0.8-5.8
		c1.2-3,3.3-5.1,6.1-6.6c2.4-1.3,5.1-1.9,7.8-2.2c0.1,0,0.2,0.1,0.3-0.1C90.8,63,92,63,93.2,63z"/>
	<path class="st0" d="M61.1,106.1c-0.6,0.7-1.2,1.3-1.9,1.9c-2,1.7-4.4,2.6-7,3c-2.7,0.4-5.4,0.3-8-0.5c-3.4-1-5.6-3.6-5.9-7.2
		c-0.2-1.8-0.1-3.6,0.5-5.3c0.9-2.4,2.7-4,5.1-5c1.8-0.7,3.6-1.1,5.5-1.5c2.2-0.5,4.4-0.6,6.6-1c0.9-0.2,1.7-0.3,2.6-0.7
		c1.9-0.8,2.6-2,2.3-4c-0.3-2.4-1.8-3.9-4.1-4.5c-2.4-0.5-4.9-0.5-7.2,0.2c-1.5,0.5-2.9,1.1-3.6,2.6C45.4,85,45.2,86,45.1,87
		c0,0.3-0.1,0.3-0.3,0.3c-1.6,0-3.2,0-4.8,0c-0.3,0-0.4-0.1-0.4-0.4c0.2-4.8,2.9-8.4,7.7-9.9c2.3-0.8,4.7-1,7.1-0.9
		c1.9,0,3.8,0.2,5.6,0.7c2.1,0.6,3.9,1.7,5.2,3.6c0.8,1.3,1.1,2.8,1.2,4.3c0,0.3,0,0.6,0,0.9c0,5.8,0,11.7,0,17.5
		c0,0.7,0,1.4,0.1,2.1c0.1,0.7,0.5,1.1,1.3,1.1c0.6,0,1.2,0,1.7-0.2c0.2-0.1,0.3,0,0.3,0.2c0,1.2,0,2.5,0,3.7c0,0.2-0.1,0.3-0.3,0.4
		c-0.7,0.3-1.5,0.5-2.2,0.6c-0.9,0.1-1.8,0.1-2.7,0c-1.9-0.4-3.1-1.5-3.4-3.4C61.2,107.1,61.2,106.7,61.1,106.1z M60.8,96.3
		c0-1,0-1.9,0-2.9c0-0.2,0-0.3-0.3-0.1c-0.7,0.5-1.4,0.7-2.2,0.9c-2,0.5-4,0.6-6,0.9c-1.5,0.2-2.9,0.4-4.3,0.9
		c-2.2,0.9-3.7,2.3-3.9,4.9c-0.1,2.3,0.9,4,3.1,4.9c1.3,0.5,2.6,0.5,3.9,0.5c2.5,0,4.8-0.6,6.8-2.2c1.9-1.5,3-3.4,2.9-5.8
		C60.8,97.7,60.8,97,60.8,96.3z"/>
	<path class="st1" d="M138.1,106c-2.6,3.1-5.9,4.6-9.8,5c-2.7,0.3-5.3,0.1-7.8-0.9c-3.3-1.3-5-3.7-5.3-7.2c-0.1-1.6-0.1-3.2,0.4-4.7
		c0.8-2.3,2.4-3.9,4.5-5c1.6-0.8,3.3-1.2,5-1.6c2.3-0.5,4.6-0.8,6.9-1.1c1.1-0.2,2.2-0.3,3.3-0.8c2.1-0.8,2.8-1.9,2.4-4.4
		c-0.3-2.1-1.6-3.4-3.5-4c-2.8-0.8-5.6-0.7-8.4,0.3c-2.4,0.8-3.6,2.6-3.8,5.1c0,0.5,0,0.5-0.6,0.5c-1.6,0-3.2,0-4.7,0
		c-0.2,0-0.3,0-0.3-0.2c0.2-3,1.1-5.7,3.4-7.7c1.7-1.5,3.7-2.4,5.9-2.8c3.5-0.7,7-0.7,10.5,0.1c2.3,0.5,4.3,1.6,5.6,3.5
		c0.9,1.4,1.3,2.9,1.3,4.6c0,6.1,0,12.2,0,18.3c0,0.7,0,1.4,0.1,2.1c0.1,0.7,0.5,1.1,1.3,1.2c0.6,0,1.2,0,1.7-0.2
		c0.2-0.1,0.3,0,0.3,0.2c0,1.2,0,2.5,0,3.7c0,0.2-0.1,0.3-0.3,0.4c-0.7,0.3-1.5,0.5-2.2,0.6c-1,0.1-1.9,0.1-2.9-0.1
		c-1.9-0.4-2.9-1.7-3.2-3.6C138.2,107,138.1,106.6,138.1,106z M137.8,93.1c-0.9,0.6-1.8,1-2.8,1.2c-2,0.4-4.1,0.6-6.2,0.9
		c-1.5,0.2-3,0.4-4.4,1.1c-1.5,0.7-2.7,1.7-3.2,3.4c-0.2,0.6-0.2,1.2-0.2,1.8c0,1.9,0.9,3.3,2.7,4.1c1.4,0.6,2.9,0.7,4.4,0.7
		c2.3,0,4.4-0.5,6.3-1.8c2-1.4,3.3-3.2,3.4-5.7C137.9,97,137.8,95.1,137.8,93.1z"/>
	<path class="st1" d="M197.4,95.3c-4.1,0-8.1,0-12.2,0c-0.3,0-0.4,0.1-0.4,0.4c0,2.6,0.6,5.1,2.2,7.1c1.5,1.9,3.5,2.9,5.8,3.3
		c2.1,0.4,4.1,0.3,6.2-0.4c2.6-0.9,4.2-2.9,4.8-5.5c0.1-0.3,0.2-0.4,0.5-0.4c1.6,0,3.1,0,4.7,0c0.3,0,0.4,0,0.3,0.4
		c-0.6,2.7-1.7,5.2-3.7,7.2c-1.9,1.8-4.1,2.9-6.7,3.4c-3.6,0.7-7.1,0.6-10.6-0.8c-4-1.6-6.7-4.5-8.1-8.6c-1.7-4.9-2-9.8-0.3-14.7
		c1.7-4.8,4.8-8.3,9.8-9.9c3.6-1.2,7.2-1.1,10.7,0.3c3.1,1.3,5.3,3.5,6.9,6.4c1.1,2,1.8,4.2,2.2,6.5c0.3,1.6,0.4,3.2,0.4,4.9
		c0,0.3-0.1,0.4-0.4,0.4C205.5,95.3,201.4,95.3,197.4,95.3z M194.4,90.4c3.1,0,6.1,0,9.2,0c0.1,0,0.2,0,0.3,0c0.1,0,0.2,0,0.2-0.2
		c-0.1-0.5-0.2-1.1-0.3-1.6c-0.5-2.3-1.6-4.2-3.5-5.7c-2-1.5-4.2-2.2-6.7-1.9c-1.8,0.1-3.4,0.7-4.8,1.7c-2.4,1.8-3.6,4.3-3.9,7.2
		c-0.1,0.5,0,0.5,0.5,0.5C188.3,90.4,191.3,90.4,194.4,90.4z"/>
	<path class="st2" d="M157.8,87.3c0,7.6,0,15.2,0,22.8c0,0.3,0,0.4-0.4,0.4c-1.6,0-3.1,0-4.7,0c-0.4,0-0.5-0.1-0.5-0.5
		c0-9,0-18.1,0-27.1c0-6.1,0-12.3,0-18.4c0-0.3,0.1-0.4,0.4-0.4c1.6,0,3.2,0,4.7,0c0.3,0,0.4,0.1,0.4,0.4
		C157.8,72,157.8,79.6,157.8,87.3z"/>
	<path class="st2" d="M166.6,87.2c0-7.6,0-15.2,0-22.8c0-0.3,0.1-0.4,0.4-0.4c1.6,0,3.2,0,4.7,0c0.3,0,0.4,0.1,0.4,0.4
		c0,11,0,22,0,33c0,4.2,0,8.4,0,12.6c0,0.3,0,0.4-0.4,0.4c-1.6,0-3.2,0-4.8,0c-0.3,0-0.4-0.1-0.4-0.4
		C166.6,102.4,166.6,94.8,166.6,87.2z"/>
	<path class="st0" d="M26,87.2c0-7.6,0-15.2,0-22.8c0-0.3,0.1-0.5,0.4-0.4c1.6,0,3.2,0,4.7,0c0.3,0,0.4,0,0.4,0.4
		c0,15.2,0,30.4,0,45.7c0,0.3-0.1,0.4-0.4,0.4c-1.6,0-3.2,0-4.8,0c-0.3,0-0.4-0.1-0.4-0.4C26,102.4,26,94.8,26,87.2z"/>
	<path class="st0" d="M190.7,136.7c0,1.5-0.9,2.8-2.2,3.1c-1.8,0.4-3.4-0.7-3.6-2.6c-0.1-1.5,0.4-2.7,1.5-3.3
		C188.2,133,190.7,134,190.7,136.7z"/>
	<path class="st3" d="M94.5,133.6c0.4,0,0.9,0,1.3,0.1c0.5,0.2,0.8,0.5,0.8,1c0,0.5-0.3,0.9-0.8,1.1c-0.7,0.2-1.4,0.1-2.1,0.2
		c-0.2,0-0.2-0.1-0.2-0.2c0-0.6,0-1.3,0-1.9c0-0.2,0.1-0.2,0.2-0.2C94,133.6,94.3,133.6,94.5,133.6z"/>
	<path class="st3" d="M149.6,134.8c0-0.3,0-0.6,0-0.9c0-0.2,0.1-0.3,0.3-0.3c0.5,0,1.1,0,1.6,0c0.6,0.1,1,0.5,1.1,1
		c0,0.6-0.3,1-0.9,1.2c-0.6,0.2-1.3,0.1-1.9,0.1c-0.2,0-0.2-0.1-0.2-0.2C149.6,135.5,149.6,135.1,149.6,134.8z"/>
	<path class="st4" d="M161.5,134.4c0.1,0.3,0.2,0.5,0.2,0.7c0.3,0.8,0.6,1.7,0.9,2.5c0.1,0.3,0,0.3-0.2,0.3c-0.6,0-1.3,0-1.9,0
		c-0.2,0-0.3,0-0.2-0.2C160.7,136.6,161,135.6,161.5,134.4z"/>
	<path class="st4" d="M126.5,137.9c0.4-1.1,0.8-2.2,1.3-3.4c0.4,1.2,0.8,2.3,1.3,3.4C128.1,137.9,127.3,137.9,126.5,137.9z"/>
</g>
</svg>
