<?xml version="1.0" encoding="utf-8"?>
<!-- Generator: Adobe Illustrator 22.0.0, SVG Export Plug-In . SVG Version: 6.00 Build 0)  -->
<svg version="1.1" id="Layer_2" xmlns="http://www.w3.org/2000/svg" xmlns:xlink="http://www.w3.org/1999/xlink" x="0px" y="0px"
	 viewBox="0 0 300 211.3" style="enable-background:new 0 0 300 211.3;" xml:space="preserve">
<style type="text/css">
	.st0{fill:#FFFFFF;}
	.st1{fill:#FF0017;}
	.st2{fill-rule:evenodd;clip-rule:evenodd;}
</style>
<g>
	<path class="st0" d="M63.8,131.3c-0.1-0.3-0.2-0.9-0.5-1.3c0.5-0.4,0.6-0.7,0.8-1.1l0,0c0.2,0.1,0.3,0.2,0.5,0.2l0,0L63.8,131.3"/>
	<path class="st1" d="M74.4,128.2c0.2-0.8,0.5-1.5,0.9-2.1c-0.5-0.3-1.2-0.6-1.6-1c1-1.5,1.3-2.8,1.5-4.6L75,110
		c-0.7,3.1-2.5,7.1-3.8,9.3c-0.4,0.7-0.7,1.1-0.9,1.5c-0.1,0.3-0.9,1.4-0.8,3.2c-0.6,0.1-1.2,0.2-1.9,0.2c0.1,0.7,0,1.4-0.1,2.1
		c-2.5,0-4.6,2.2-6.3,3.2c-1.4,0.8-2.3,1.3-4.5,2.1c3.9-0.1,8.7,0.6,12-1.5c0.4,0.5,0.8,1,1,1.6c0.4-0.3,1.4-0.8,2.1-1
		c0.8,0.8,1.9,1.1,3.4,1C75.6,130.4,75.3,129,74.4,128.2z"/>
	<path class="st0" d="M58.8,131.1l2-0.9c2.8-1.3,4.5-3.9,7.5-3.5c0.5,0.1,1,0.2,1.4,0.4v0.3C66.5,129.4,62.5,130.4,58.8,131.1z"/>
	<path class="st0" d="M68.1,124.5l2,1.9c-0.1,0-0.2,0.1-0.3,0.3c-0.9-0.4-1.9-0.4-1.9-0.4C68.2,125.3,68.1,124.5,68.1,124.5z"/>
	<path class="st0" d="M72.7,117.3c0.6-1.4,1.3-3.1,1.8-4.7c-0.5,4.8-1.6,9.4-3.4,13.3c0,0-0.3,0-0.5,0.1c-0.3-0.4-0.5-1.1-0.5-1.1
		C69.5,121.9,71.4,120.2,72.7,117.3z"/>
	<path class="st0" d="M72.3,126.9c0-0.1-0.1-0.3-0.1-0.3c0.8-0.5,1.4-1.2,1.3-1.2c-0.1,0,1,0.8,1.3,0.9
		C74.5,126.2,72.3,126.9,72.3,126.9"/>
	<path class="st0" d="M70,131c-0.3-0.5-0.5-0.8-0.9-1.2c0.6-0.4,1-1.1,1.2-1.5l0,0c0.1,0,0.3,0.2,0.4,0.2L70,131z"/>
	<path class="st0" d="M72.2,130.2c-0.4-0.5-0.7-1.1-0.8-1.7l0,0c0.2-0.1,0.4-0.1,0.5-0.3l3.1,3C74,131.3,72.8,131,72.2,130.2z"/>
	<path class="st0" d="M70.5,127.8c-0.3-0.3-0.3-0.9,0-1.2c0.3-0.3,0.9-0.3,1.2,0c0.3,0.3,0.3,0.9,0,1.2
		C71.4,128.1,70.8,128.1,70.5,127.8z"/>
	<path class="st1" d="M75.4,72.6c-1.4-0.1-2.5,0.1-3.4,0.9c-0.7-0.2-1.7-0.6-2.1-1c-0.2,0.6-0.7,1.1-1,1.6c-3.3-2.1-8.1-1.4-12-1.5
		c2.2,0.8,3,1.2,4.5,2.1c1.7,1,3.8,3.2,6.3,3.2c0.1,0.7,0.2,1.4,0.1,2.1c0.7-0.1,1.3,0,1.9,0.2c-0.1,1.8,0.7,2.9,0.8,3.2
		c0.2,0.4,0.5,0.8,0.9,1.5c1.3,2.2,3.1,6.2,3.8,9.3l0.2-10.5c-0.2-1.9-0.5-3.1-1.5-4.6c0.5-0.4,1.1-0.8,1.6-1
		c-0.4-0.6-0.8-1.4-0.9-2.1C75.3,75.1,75.6,73.7,75.4,72.6z"/>
	<path class="st0" d="M58.8,73.1l2,0.9c2.8,1.3,4.5,3.9,7.5,3.5c0.5-0.1,1-0.2,1.4-0.4v-0.3C66.5,74.7,62.5,73.8,58.8,73.1z"/>
	<path class="st0" d="M68.1,79.7l2-1.9c-0.1,0-0.2-0.1-0.3-0.3c-0.9,0.4-1.9,0.4-1.9,0.4C68.2,78.8,68.1,79.7,68.1,79.7z"/>
	<path class="st0" d="M72.7,86.8c0.6,1.4,1.3,3.1,1.8,4.7c-0.5-4.8-1.6-9.4-3.4-13.3c0,0-0.3,0-0.5-0.1c-0.3,0.4-0.5,1.1-0.5,1.1
		C69.5,82.3,71.4,83.9,72.7,86.8z"/>
	<path class="st0" d="M72.3,77.3c0,0.1-0.1,0.3-0.1,0.3c0.8,0.5,1.4,1.2,1.3,1.2c-0.1,0,1-0.8,1.3-0.9
		C74.5,77.9,72.3,77.3,72.3,77.3"/>
	<path class="st0" d="M70,73.1c-0.3,0.5-0.5,0.8-0.9,1.2c0.6,0.4,1,1.1,1.2,1.5l0,0c0.1,0,0.3-0.2,0.4-0.2L70,73.1z"/>
	<path class="st0" d="M72.2,73.9c-0.4,0.5-0.7,1.1-0.8,1.7l0,0c0.2,0.1,0.4,0.1,0.5,0.3l3.1-3C74,72.8,72.8,73.1,72.2,73.9z"/>
	<path class="st0" d="M70.5,76.3c-0.3,0.3-0.3,0.9,0,1.2c0.3,0.3,0.9,0.3,1.2,0c0.3-0.3,0.3-0.9,0-1.2C71.4,76,70.8,76,70.5,76.3z"
		/>
	<path class="st1" d="M23.7,131.6c1.4,0.1,2.5-0.1,3.4-1c0.7,0.2,1.7,0.6,2.1,1c0.2-0.6,0.7-1.1,1-1.6c3.3,2.1,8.1,1.4,12,1.5
		c-2.2-0.8-3-1.2-4.5-2.1c-1.7-1-3.8-3.2-6.3-3.2c-0.1-0.7-0.2-1.4-0.1-2.1c-0.7,0-1.3,0-1.9-0.2c0.1-1.8-0.7-2.9-0.8-3.2
		c-0.2-0.4-0.5-0.8-0.9-1.5c-1.3-2.2-3.1-6.2-3.8-9.3l-0.2,10.5c0.2,1.9,0.5,3.1,1.5,4.6c-0.5,0.4-1.1,0.8-1.6,1
		c0.4,0.6,0.8,1.4,0.9,2.1C23.8,129,23.5,130.4,23.7,131.6z"/>
	<path class="st0" d="M40.3,131.1l-2-0.9c-2.8-1.3-4.5-3.9-7.5-3.5c-0.5,0.1-1,0.2-1.4,0.4v0.3C32.7,129.4,36.6,130.4,40.3,131.1z"
		/>
	<path class="st0" d="M31,124.5l-2,1.9c0.1,0,0.2,0.1,0.3,0.3c0.9-0.4,1.9-0.4,1.9-0.4C30.9,125.3,31,124.5,31,124.5z"/>
	<path class="st0" d="M26.4,117.3c-0.6-1.4-1.3-3.1-1.8-4.7c0.5,4.8,1.6,9.4,3.4,13.3c0,0,0.3,0,0.5,0.1c0.3-0.4,0.5-1.1,0.5-1.1
		C29.6,121.9,27.8,120.2,26.4,117.3z"/>
	<path class="st0" d="M26.8,126.9c0-0.1,0.1-0.3,0.1-0.3c-0.8-0.5-1.4-1.2-1.3-1.2c0.1,0-1,0.8-1.3,0.9
		C24.7,126.2,26.8,126.9,26.8,126.9"/>
	<path class="st0" d="M29.1,131c0.3-0.5,0.5-0.8,0.9-1.2c-0.6-0.4-1-1.1-1.2-1.5l0,0c-0.1,0-0.3,0.2-0.4,0.2L29.1,131z"/>
	<path class="st0" d="M27,130.2c0.4-0.5,0.7-1.1,0.8-1.7l0,0c-0.2-0.1-0.4-0.1-0.5-0.3l-3.1,3C25.2,131.3,26.3,131,27,130.2z"/>
	<path class="st0" d="M28.6,127.8c0.3-0.3,0.3-0.9,0-1.2c-0.3-0.3-0.9-0.3-1.2,0c-0.3,0.3-0.3,0.9,0,1.2
		C27.8,128.1,28.3,128.1,28.6,127.8z"/>
	<path class="st1" d="M24.7,75.9c-0.2,0.8-0.5,1.5-0.9,2.1c0.5,0.3,1.2,0.6,1.6,1c-1,1.5-1.3,2.8-1.5,4.6l0.2,10.5
		c0.7-3.1,2.5-7.1,3.8-9.3c0.4-0.7,0.7-1.1,0.9-1.5c0.1-0.3,0.9-1.4,0.8-3.2c0.6-0.1,1.2-0.2,1.9-0.2c-0.1-0.7,0-1.4,0.1-2.1
		c2.5,0,4.6-2.2,6.3-3.2c1.4-0.8,2.3-1.3,4.5-2.1c-3.9,0.1-8.7-0.6-12,1.5c-0.4-0.5-0.8-1-1-1.6c-0.4,0.3-1.4,0.8-2.1,1
		c-0.8-0.8-1.9-1.1-3.4-0.9C23.5,73.7,23.8,75.1,24.7,75.9z"/>
	<path class="st0" d="M40.3,73.1l-2,0.9c-2.8,1.3-4.5,3.9-7.5,3.5c-0.5-0.1-1-0.2-1.4-0.4v-0.3C32.7,74.7,36.6,73.8,40.3,73.1z"/>
	<path class="st0" d="M31,79.7l-2-1.9c0.1,0,0.2-0.1,0.3-0.3c0.9,0.4,1.9,0.4,1.9,0.4C30.9,78.8,31,79.7,31,79.7z"/>
	<path class="st0" d="M26.4,86.8c-0.6,1.4-1.3,3.1-1.8,4.7c0.5-4.8,1.6-9.4,3.4-13.3c0,0,0.3,0,0.5-0.1c0.3,0.4,0.5,1.1,0.5,1.1
		C29.6,82.3,27.8,83.9,26.4,86.8z"/>
	<path class="st0" d="M26.8,77.3c0,0.1,0.1,0.3,0.1,0.3c-0.8,0.5-1.4,1.2-1.3,1.2c0.1,0-1-0.8-1.3-0.9
		C24.7,77.9,26.8,77.3,26.8,77.3"/>
	<path class="st0" d="M29.1,73.1c0.3,0.5,0.5,0.8,0.9,1.2c-0.6,0.4-1,1.1-1.2,1.5l0,0c-0.1,0-0.3-0.2-0.4-0.2L29.1,73.1z"/>
	<path class="st0" d="M27,73.9c0.4,0.5,0.7,1.1,0.8,1.7l0,0c-0.2,0.1-0.4,0.1-0.5,0.3l-3.1-3C25.2,72.8,26.3,73.1,27,73.9z"/>
	<path class="st0" d="M28.6,76.3c0.3,0.3,0.3,0.9,0,1.2c-0.3,0.3-0.9,0.3-1.2,0c-0.3-0.3-0.3-0.9,0-1.2C27.8,76,28.3,76,28.6,76.3z"
		/>
	<path class="st1" d="M49.6,72.8c-13.9,0-25.1,13.1-25.1,29.3c0,16.2,11.2,29.3,25.1,29.3c13.9,0,25.1-13.1,25.1-29.3
		C74.7,85.9,63.4,72.8,49.6,72.8z"/>
	<path class="st0" d="M31.4,117.2c-2.6-4.3-4.1-9.5-4.1-15.1c0-5.6,1.5-10.9,4.1-15.1V117.2z"/>
	<path class="st0" d="M36.8,80.5c1.5-1.3,3.2-2.3,5-3.1v49.3c-1.8-0.8-3.4-1.8-5-3.1V80.5z"/>
	<path class="st0" d="M47.1,75.9c0.8-0.1,1.6-0.2,2.4-0.2c0.8,0,1.6,0.1,2.4,0.2v52.3c-0.8,0.1-1.6,0.2-2.4,0.2
		c-0.8,0-1.6-0.1-2.4-0.2V75.9z"/>
	<path class="st0" d="M57.4,77.4c1.7,0.8,3.4,1.8,4.9,3v43.2c-1.5,1.2-3.1,2.3-4.9,3V77.4z"/>
	<path class="st0" d="M67.7,86.8c2.6,4.3,4.1,9.6,4.1,15.3c0,5.7-1.5,11-4.1,15.3V86.8z"/>
	<path class="st0" d="M62.3,78.9v0.8c-1.5-1.2-3.1-2.2-4.9-2.9v-0.7C59.1,76.8,60.8,77.7,62.3,78.9z"/>
	<path class="st0" d="M41.7,76.1v0.7c-1.8,0.8-3.4,1.8-5,3V79C38.3,77.8,40,76.8,41.7,76.1z"/>
	<path class="st0" d="M26.1,102.1c0-6.6,2-12.6,5.3-17.4v1.1c-2.9,4.5-4.6,10.2-4.6,16.3c0,6.1,1.7,11.8,4.6,16.3v1.1
		C28.1,114.7,26.1,108.7,26.1,102.1z"/>
	<path class="st0" d="M36.8,125.2v-0.8c1.5,1.2,3.2,2.2,5,3v0.7C40,127.3,38.3,126.3,36.8,125.2z"/>
	<path class="st0" d="M49.6,129.6c-0.8,0-1.6,0-2.4-0.1v-0.6c0.8,0.1,1.6,0.2,2.4,0.2c0.8,0,1.6-0.1,2.4-0.2v0.6
		C51.2,129.6,50.4,129.6,49.6,129.6z"/>
	<path class="st0" d="M57.4,128v-0.7c1.7-0.7,3.4-1.7,4.9-2.9v0.8C60.8,126.4,59.1,127.3,57.4,128z"/>
	<path class="st0" d="M67.7,118.5c3-4.5,4.7-10.2,4.7-16.4s-1.8-11.9-4.7-16.4v-1.1C71,89.3,73,95.4,73,102.1c0,6.6-2,12.7-5.3,17.5
		V118.5z"/>
	<path class="st0" d="M49.6,74.5c0.8,0,1.6,0.1,2.4,0.1v0.6c-0.8-0.1-1.6-0.2-2.4-0.2c-0.8,0-1.6,0.1-2.4,0.2v-0.6
		C47.9,74.5,48.7,74.5,49.6,74.5z"/>
	<path class="st2" d="M96.2,92.4h5.2c0,0.6,0,1.7-1.3,3.2c-1.3,1.7-3.6,2.2-5.2,2.1c-2.6-0.3-4.3-2.2-5.2-4.1
		c-1.2-2.6-1.1-8.4,1.8-10.8c1.3-0.9,2.4-1.3,4-1.3c2.4,0,4.7,1,5.6,3.7h4.3c-0.1-0.5,0-2.5-2.6-5.1c-2.3-2.3-5.3-2.5-7.5-2.5
		c-2,0-3.4,0.4-4.3,0.8c-7.7,3.3-8.4,15-3.1,20.1c1.1,1,2.5,2.7,6.6,2.9c4.5,0.2,6.4-2.1,7.5-3.5l0.6,2.8h2.8V88.5h-9.1V92.4z"/>
	<path class="st2" d="M112.5,90.7c0-1.6,1-3.7,3.7-3.5c2.6,0.1,3.1,2.3,3.1,3.5H112.5z M123.8,93.6c0.1-2,0.1-4.3-1.4-6.8
		c-1.1-1.7-3.1-3.3-6.4-3.3c-1.9,0-6.5,0.3-7.6,6.9c-0.2,1.3-0.2,2.6-0.2,3.6c0.1,1,0.2,1.8,0.3,2.1c0.4,1.5,1.5,3,3,4
		c1.2,0.7,2.7,1.3,4.4,1.3c3,0,7-2.2,7.7-5.5h-4.3c-0.2,0.9-1.3,1.7-2.5,1.9c-1.2,0.2-2.7-0.1-3.7-1.5c-0.6-0.9-0.6-1.8-0.5-2.7
		H123.8z"/>
	<path class="st2" d="M126.7,100.7h4.4V90.2c0-1.4,0.5-2.8,3.2-2.8c3,0,3.2,1.8,3.2,3.3v10.1h4.4V89.4c0-4.2-2.6-5.9-6.5-5.9
		c-1.7,0-3.3,1.1-4.2,2.8h-0.1v-2.6h-4.4V100.7z"/>
	<path class="st2" d="M148.9,90.7c0-1.6,1-3.7,3.7-3.5c2.6,0.1,3.1,2.3,3.1,3.5H148.9z M160.2,93.6c0.1-2,0.1-4.3-1.4-6.8
		c-1.1-1.7-3.1-3.3-6.4-3.3c-1.9,0-6.5,0.3-7.6,6.9c-0.2,1.3-0.2,2.6-0.2,3.6c0.1,1,0.2,1.8,0.3,2.1c0.4,1.5,1.5,3,3,4
		c1.2,0.7,2.7,1.3,4.4,1.3c3,0,7-2.2,7.7-5.5h-4.3c-0.2,0.9-1.3,1.7-2.5,1.9c-1.2,0.2-2.7-0.1-3.7-1.5c-0.6-0.9-0.6-1.8-0.5-2.7
		H160.2z"/>
	<path class="st2" d="M163.1,100.7h4.4v-9.5c0.5-3.7,3.3-3.4,5.2-3.2v-4.5c-1.4-0.2-2.4,0.3-3.1,0.9c-1.5,1.1-1.7,1.7-2,2.7h-0.1
		v-3.3h-4.4V100.7z"/>
	<path class="st2" d="M184.5,93.7c0,1.9-0.5,3.7-3.1,4.1c-1.9,0.3-2.7-0.4-2.9-1.4c-0.4-1.4,0.6-2.5,1.9-2.8
		c1.1-0.2,2.8-0.2,4.1-0.9V93.7z M189.7,100.7v-0.6c-0.6-0.5-1-1.3-1-2v-9.2c0-2.7-1.3-4.1-3-4.7c-0.8-0.3-2.3-0.6-4-0.6
		c-2.3,0-6.9,0.5-7,5.9h4.1c0.1-1.2,0.4-2.7,2.9-2.7c2,0,2.9,0.5,2.9,1.5c0.1,0.8-0.3,1.6-1.1,1.9c-1,0.3-2.8,0.7-4.4,0.8
		c-3.9,0.7-4.8,3-4.9,5.3c-0.1,3.3,1.6,5.2,5,5.2c2.6,0,3.9-1,5.4-2.4c0,0.6,0.2,1.3,0.5,1.7H189.7z"/>
	<rect x="192.8" y="78" class="st2" width="4.4" height="22.8"/>
	<path class="st2" d="M201.4,81.9h4.4V78h-4.4V81.9z M201.4,100.7h4.4V83.8h-4.4V100.7z"/>
	<path class="st2" d="M208.4,84.1v2.9h2.2v11c0.2,1.8,1.3,2.8,2.6,3.2c0.7,0.2,1.3,0.2,2.1,0.2c0.7,0,1.4-0.2,2.1-0.4v-3l-1.7,0
		c-0.6,0-0.7-0.6-0.7-1.5v-9.5h2.4v-2.9H215v-4.6h-4.4v4.6H208.4z"/>
	<path class="st2" d="M229.6,93.7c0,1.9-0.5,3.7-3.1,4.1c-1.9,0.3-2.7-0.4-2.9-1.4c-0.4-1.4,0.6-2.5,1.9-2.8
		c1.1-0.2,2.8-0.2,4.1-0.9V93.7z M234.8,100.7v-0.6c-0.6-0.5-1-1.3-1-2v-9.2c0-2.7-1.3-4.1-3-4.7c-0.8-0.3-2.3-0.6-4-0.6
		c-2.3,0-6.9,0.5-7,5.9h4.1c0.1-1.2,0.4-2.7,2.9-2.7c2,0,2.9,0.5,2.9,1.5c0.1,0.8-0.3,1.6-1.1,1.9c-1,0.3-2.8,0.7-4.4,0.8
		c-3.9,0.7-4.8,3-4.9,5.3c-0.1,3.3,1.6,5.2,5,5.2c2.6,0,3.9-1,5.4-2.4c0,0.6,0.2,1.3,0.5,1.7H234.8z"/>
	<path class="st2" d="M236.2,84.1v2.9h2.2v11c0.2,1.8,1.3,2.8,2.6,3.2c0.7,0.2,1.3,0.2,2.1,0.2c0.7,0,1.4-0.2,2.1-0.4v-3l-1.7,0
		c-0.6,0-0.7-0.6-0.7-1.5v-9.5h2.4v-2.9h-2.4v-4.6h-4.4v4.6H236.2z"/>
	<path class="st2" d="M92.1,118.5c1,0,2.2,0.5,2.9,1.9c0.3,0.7,0.7,1.9,0.7,3.3c0,1.4-0.4,2.7-0.7,3.3c-0.7,1.4-1.9,1.9-2.9,1.9
		c-1,0-2.2-0.5-2.9-1.9c-0.3-0.7-0.7-1.9-0.7-3.3c0-1.4,0.4-2.7,0.7-3.3C89.9,119,91.1,118.5,92.1,118.5z M100.1,109.2h-4.4v8.2
		h-0.1c-0.6-1.4-1.9-2.7-4.8-2.6c-1.6,0.1-4.4,0.6-5.8,3.8c-0.9,2-1.2,3.8-1.1,5.5c0.1,1.7,0.6,3.2,1.3,4.7c1.3,2.8,3.1,4,6.1,3.9
		c1.4-0.1,3.1-0.7,4.3-2.4h0.1v1.8h4.4V109.2z"/>
	<path class="st2" d="M107.3,121.9c0-1.6,1-3.7,3.7-3.5c2.6,0.1,3.1,2.2,3.1,3.5H107.3z M118.5,124.9c0.1-2,0.1-4.3-1.4-6.8
		c-1.1-1.7-3.1-3.3-6.4-3.3c-1.9,0-6.5,0.3-7.6,6.9c-0.2,1.3-0.2,2.6-0.2,3.6c0.1,1,0.2,1.8,0.3,2.1c0.4,1.5,1.5,3,3,4
		c1.2,0.7,2.7,1.3,4.4,1.3c3,0,7-2.2,7.7-5.5H114c-0.2,0.9-1.3,1.7-2.5,1.9c-1.2,0.2-2.7-0.1-3.7-1.5c-0.6-0.9-0.6-1.8-0.5-2.7
		H118.5z"/>
	<path class="st2" d="M145.1,124.2c-0.2,1-0.3,3.3-3.5,4.2c-0.7,0.2-1.3,0.3-2,0.3c-0.7,0-1.2-0.1-1.8-0.4c-1.2-0.5-2.2-1.5-2.9-3.2
		c-0.6-1.4-0.8-3.2-0.7-4.8c0.1-1.6,0.4-3.1,0.7-3.9c0.7-1.9,2.4-3.5,4.5-3.6c4.6-0.3,5.6,2.9,5.7,4.2h4.5c0-1.2-0.2-4.1-3.5-6.3
		c-2.2-1.6-4.5-1.8-6.1-1.8c-5.9,0-8.6,3.3-9.9,7.6c-0.4,1.3-0.5,2.8-0.5,4.4c0,1.5,0.2,2.9,0.4,4c1.2,4.8,4.7,8.1,9.8,7.9
		c2.8-0.1,5.4-1.2,6.7-2.2c1.7-1.3,3-4,3.1-6.3H145.1z"/>
	<path class="st2" d="M162,125c0,1.9-0.5,3.7-3.1,4.1c-1.9,0.3-2.7-0.4-2.9-1.4c-0.4-1.4,0.6-2.5,1.9-2.7c1.1-0.2,2.8-0.2,4.1-0.9
		V125z M167.1,132v-0.6c-0.6-0.5-1-1.2-1-2v-9.2c0-2.7-1.3-4.1-3-4.7c-0.8-0.3-2.3-0.6-4-0.6c-2.3,0-6.9,0.5-7,5.9h4.1
		c0.1-1.2,0.4-2.7,2.9-2.7c2,0,2.9,0.5,2.9,1.5c0.1,0.8-0.3,1.6-1.1,1.9c-1,0.3-2.8,0.7-4.4,0.8c-3.9,0.7-4.8,3-4.9,5.3
		c-0.1,3.3,1.6,5.2,5,5.2c2.6,0,3.9-1,5.4-2.4c0,0.6,0.2,1.3,0.5,1.7H167.1z"/>
	<path class="st2" d="M168.5,115.4v2.9h2.2v11c0.2,1.8,1.3,2.8,2.6,3.2c0.7,0.2,1.3,0.2,2.1,0.2c0.7,0,1.4-0.2,2.1-0.4v-3l-1.7,0
		c-0.6,0-0.7-0.6-0.7-1.5v-9.5h2.4v-2.9h-2.4v-4.6h-4.4v4.6H168.5z"/>
	<path class="st2" d="M189.7,125c0,1.9-0.5,3.7-3.1,4.1c-1.9,0.3-2.7-0.4-2.9-1.4c-0.4-1.4,0.6-2.5,1.9-2.7c1.1-0.2,2.8-0.2,4.1-0.9
		V125z M194.8,132v-0.6c-0.6-0.5-1-1.2-1-2v-9.2c0-2.7-1.3-4.1-3-4.7c-0.8-0.3-2.3-0.6-4-0.6c-2.3,0-6.9,0.5-7,5.9h4.1
		c0.1-1.2,0.4-2.7,2.9-2.7c2,0,2.9,0.5,2.9,1.5c0.1,0.8-0.3,1.6-1.1,1.9c-1,0.3-2.8,0.7-4.4,0.8c-3.9,0.7-4.8,3-4.9,5.3
		c-0.1,3.3,1.6,5.2,5,5.2c2.6,0,3.9-1,5.4-2.4c0,0.6,0.2,1.3,0.5,1.7H194.8z"/>
	<rect x="197.9" y="109.2" class="st2" width="4.4" height="22.8"/>
	<path class="st2" d="M221.6,115h-4.4V126c-0.1,1.1-0.5,2.6-3.2,2.8c-3.2,0.1-3.2-1.8-3.2-3.3V115h-4.4v11.8
		c0.2,5.6,4.1,5.8,6.5,5.9c1.5-0.2,2.9-0.7,4.1-2.8h0.1v2.1h4.4V115z"/>
	<path class="st2" d="M225.6,132h4.4v-10.5c0-1.4,0.5-2.8,3.2-2.8c3,0,3.2,1.8,3.2,3.3V132h4.4v-11.3c0-4.2-2.6-5.9-6.5-5.9
		c-1.7,0-3.3,1.1-4.2,2.8h-0.1V115h-4.4V132z"/>
	<path class="st2" d="M242.9,115l5.9,16.9c0.4,1.2,0,2.3-0.9,2.8c-0.7,0.4-1.7,0.5-2.7,0.4v3.6c1.4,0,4.7-0.2,5.7-1.2
		c0.7-0.7,1.2-1.7,1.3-2.2l7.2-20.4H255l-3.5,12.3l-3.7-12.3H242.9z"/>
	<path class="st2" d="M271.2,125c0,1.9-0.5,3.7-3.1,4.1c-1.9,0.3-2.7-0.4-2.9-1.4c-0.4-1.4,0.6-2.5,1.9-2.7c1.1-0.2,2.8-0.2,4.1-0.9
		V125z M276.3,132v-0.6c-0.6-0.5-1-1.2-1-2v-9.2c0-2.7-1.3-4.1-3-4.7c-0.8-0.3-2.3-0.6-4-0.6c-2.3,0-6.9,0.5-7,5.9h4.1
		c0.1-1.2,0.4-2.7,2.9-2.7c2,0,2.9,0.5,2.9,1.5c0.1,0.8-0.3,1.6-1.1,1.9c-1,0.3-2.8,0.7-4.4,0.8c-3.9,0.7-4.8,3-4.9,5.3
		c-0.1,3.3,1.6,5.2,5,5.2c2.6,0,3.9-1,5.4-2.4c0,0.6,0.2,1.3,0.5,1.7H276.3z"/>
</g>
</svg>
