<?xml version="1.0" encoding="utf-8"?>
<!-- Generator: Adobe Illustrator 22.0.0, SVG Export Plug-In . SVG Version: 6.00 Build 0)  -->
<svg version="1.1" id="Layer_2_1_" xmlns="http://www.w3.org/2000/svg" xmlns:xlink="http://www.w3.org/1999/xlink" x="0px" y="0px"
	 viewBox="0 0 300 211.3" style="enable-background:new 0 0 300 211.3;" xml:space="preserve">
<style type="text/css">
	.st0{fill:#FCFDFD;}
	.st1{fill:#095896;}
	.st2{fill:#075896;}
	.st3{fill:#0578AC;}
	.st4{fill:#0979AC;}
	.st5{fill:#848E98;}
	.st6{fill:#1CB9D7;}
	.st7{fill:#86B2D4;}
	.st8{fill:#C5D5DF;}
	.st9{fill:#2290BA;}
	.st10{fill:#4491CD;}
	.st11{fill:#54738F;}
	.st12{fill:#39A7D8;}
	.st13{fill:#4BC3EE;}
	.st14{fill:#09A9CB;}
</style>
<g>
	<g>
		<path class="st0" d="M36.7,116.1c-0.4-0.6-0.7-1.2-1.1-1.7c-0.2-0.3-0.3-0.7-0.7-0.6c-0.5,0.1-0.3,0.5-0.3,0.9c0,1.3,0,2.6,0,4
			c-1.7,2.2-3.9,4-5.8,6c-0.6,0.6-1.2,1.1-0.5,2c0.1,0.8,0.5,1.2,1.3,1c0.1,0.1,0.2,0.1,0.4,0.2c0.4,0.4,0.7,0.2,1-0.1
			c1.7-1.7,3.4-3.4,5-5.2c0.8-0.9,1.7-1.2,2.9-1.1c1.3,0.1,2.6,0,4.2,0c-1.2-0.7-2.1-1.2-2.9-1.9c-1.4-1.1,1.2-1.3,0.6-2.3
			c0-0.1,0-0.2,0-0.3c0.2-0.1,0.3-0.2,0.3-0.4c0.7-0.8,1.3-0.2,2,0.2c4.8,3,9.8,3.1,14.6,0.2c4.8-2.9,6.9-7.4,6.4-13.1
			c-0.6-6.8-6.9-12.4-13.7-12.1c-7.3,0.2-13.2,5.9-13.5,12.8c-0.2,3.9,1.2,7.1,3.5,10.1C38.9,114.2,38,115.7,36.7,116.1z
			 M22.8,101.2c-1.4,1.3-2.7,2.5-4.1,3.8c-0.8,1-0.3,1.6,0.4,2.3c2,2,3.9,4,6,5.9c1.9,1.8,3.4,4,5.5,5.7c0.4,0.3,0.6,1,1.3,0.5
			c0.6-0.5,0.4-1.1,0.1-1.7c-0.7-1.3-1.5-2.6-2.2-4c-0.3-1.1-0.8-2.2-1-3.3c-0.8-5-0.4-9.7,1.9-14.3c0.5-1,1.2-2.2,0.5-3.7
			c-0.8,0.9-1.7,1.4-2.1,2.4c-1.8,1.8-3.8,3.4-5.3,5.4C23.3,100.5,22.9,100.7,22.8,101.2z M76.3,98.8c-0.1-0.4-0.4-0.5-0.7-0.7
			c-0.7-0.7-1.4-1.4-2.1-2.1c-0.1-0.1-0.2-0.2-0.3-0.3c-0.3-0.3-0.7-0.5-1-0.8c-0.2-1-0.9-1-1.6-1c-0.1,0.5,0.2,0.9,0.3,1.2
			c2.1,4.7,3.4,9.5,2.3,14.8c-0.3,1.6-1.3,3.1-1.2,4.8c-0.1,0.2-0.1,0.5-0.2,0.7c-0.9,0.1-0.7,1-1.1,1.5c-0.4,0.6-1.5,1.2-0.8,1.9
			c0.8,0.8,1.3-0.5,1.9-0.9c0.4-0.2,0.8-0.7,1.1-1.1c3.2-3,6.1-6.3,9.4-9.2c0.8-0.7,1.6-1.6,0.3-2.7
			C80.5,102.9,78.4,100.8,76.3,98.8z M65.5,95.6c0.3,0.6,0.6,1.2,1.1,2.1c0-3,0-5.5,0-8c-2.5-0.6-5-0.4-7.9,0.1
			c2.5,1.1,4.1,2.8,5.8,4.4c0.2,0.3,0.5,0.7,0.7,1C65.3,95.4,65.4,95.5,65.5,95.6z M35,97.2c1.8-3,4.1-5.6,7.2-7.2
			c0.2-0.1,0.4-0.1,0.4-0.2c0.2-0.5-0.2-0.4-0.4-0.4c-2.2,0-4.5,0-6.7,0c-0.5,0-0.9,0.1-0.9,0.7c0,2.5,0,4.9,0.1,7.4
			C34.7,97.8,34.9,97.4,35,97.2z M63,85.3c-0.4-0.4-0.9-0.7-1.3-1.1c-1.4-1.5-2.6-3.2-4.6-4.2c0-0.2,0-0.4-0.1-0.5
			c-1.9-2-3.9-3.9-5.8-5.9c-0.5-0.5-0.8-0.2-1.2,0.2c-1.6,1.8-3.6,3.2-5,5.2c-1.9,1.7-3.9,3.4-5.3,5.5c-0.9-0.1-1.3,0.7-1.8,1.2
			c-0.3,0.3-0.7,0.5-0.3,1c0.3,0.4,0.6,0.7,1.2,0.4c0.4-0.2,0.8-0.4,1.2-0.6c3.5-1.9,7.1-2.7,11.1-2.7c4,0,7.7,1.4,11.3,2.9
			c0.5,0.2,1,1,1.4,0.2C64.3,86.1,63.7,85.6,63,85.3z M66.6,120.6c0-1.2,0.1-2.4,0.1-3.6c0-1.2,0.2-2.4-0.2-3.9
			c-1.8,3.7-4.5,6.2-8.2,8.2c2.9,0,5.2,0,7.6,0C66.4,121.4,66.8,121.3,66.6,120.6z M127.1,87.3c0,1.3,0,2.6,0,3.8
			c-0.1,0.4-0.1,0.7,0.4,0.8c1.8,0,3.6,0,5.4,0c0.6,0,0.7-0.4,0.7-0.9c0.5-4.8,0.5-4.8-4.1-4.8c-0.6,0-1.2,0-1.7,0
			C126.9,86.2,127,86.8,127.1,87.3z M44.7,127.6c-0.5-0.4-1.1-0.6-1.7-0.6c-0.6-0.2-1.2-0.5-1.8-0.7c-0.9-0.7-1.7-1.4-3.3-1.3
			c0.9,0.9,1.1,1.9,1.8,2.6c3.3,3.2,6.6,6.5,9.8,9.8c1,1,1.8,0.9,2.8,0c2.6-2.3,4.9-4.8,7.4-7.2c1.3-1.3,2.9-2.3,3.5-4.2
			c0.1-0.1,0.2-0.1,0.4-0.2c0,0-0.1,0-0.1,0c-0.1,0.1-0.2,0.1-0.2,0.2c-0.6-0.9-1.2-0.6-1.9-0.2c-4.7,2.3-9.5,3.3-14.7,2.1
			C45.9,127.6,45.3,127.6,44.7,127.6L44.7,127.6z M185.4,121.9c1.3,0,2.5,0,3.8,0.1c0.8,0,1.1-0.2,1.1-1c-0.1-5.4,0.1-10.9-0.1-16.3
			c-0.2-4.6-3-7.8-7.5-8.7c-3.4-0.7-6.8-0.5-10.1,0.4c-3.9,1.1-3.8,1-2.6,4.8c0.4,1.1,0.8,1.2,1.8,0.8c2.8-1,5.7-1.5,8.7-0.8
			c2,0.5,3.3,1.8,3.8,3.9c0.4,1.7,0.1,1.9-1.6,1.5c-4.1-0.8-8.3-1.2-12.2,0.9c-2.7,1.4-3.9,3.8-3.9,6.8c0,3.1,1.2,5.4,3.9,6.9
			c4.3,2.5,10.1,1.6,13.5-2c0.6,0.5,0.3,1.2,0.3,1.9C184.3,121.8,184.6,122.2,185.4,121.9z M163.2,118.9c0.4-0.8,0.3-1.7,0.3-2.6
			c0-5.6,0-11.1,0-16.7c0-3.9,0-3.9-3.9-3.9c-2.5,0-2.5,0-2.3,2.6c0,1.1-0.4,1-1,0.3c-2.1-2.3-4.8-3.3-7.9-3.4
			c-7.4-0.2-12.6,5.6-12.1,13.5c0.3,4.9,2.8,8.5,7.3,10.2c4.6,1.8,8.9,1.1,12.5-2.5c0.3-0.3,0.4-0.9,1.1-0.7
			c0.5,6.1-2.4,9.3-8.5,9.2c-2.1,0-4.1-0.5-6.1-1.3c-1-0.4-2-1.6-2.9-1.1c-0.8,0.5-1,1.9-1.6,2.8c-0.6,1-0.5,1.6,0.6,2.1
			c5.1,2.4,10.4,3.1,15.9,1.7C160.1,128,162.6,124.4,163.2,118.9z M115.7,102.6c-1,0-2,0-3,0c-1,0-2,0.1-3,0
			c-1.2-0.1-1.6,0.3-1.6,1.5c0.1,3.9,0,3.8,3.9,3.9c1.6,0,3.8-0.8,4.8,0.4c1,1.1,0.2,3.2,0.3,4.9c0.1,0.9-0.3,1.4-1,1.8
			c-3.3,1.9-6.7,2.6-10.4,1.6c-4.8-1.3-7.6-4.5-8.4-9.3c-0.9-5.1,0.4-9.6,4.7-12.8c4.1-3,8.4-2.6,12.8-0.6c1.2,0.5,2.1,2.3,3.4,1.7
			c1.1-0.5,1.8-2.1,2.8-3.1c0.8-0.8,0.7-1.3-0.2-2c-4.3-3.3-9.2-4.1-14.4-3.7c-7.5,0.6-14,6.6-15.4,14.1c-1.6,8.3,2,16.4,9.2,19.7
			c7.9,3.6,15.3,2.1,22.2-2.9c0.6-0.4,0.8-0.9,0.8-1.6c0-4.1-0.1-8.1,0-12.2c0-1.2-0.5-1.4-1.5-1.4
			C119.7,102.7,117.7,102.6,115.7,102.6z M194.7,104.5c0,4.3,0,8.7,0,13c0,4.6,0,4.5,4.6,4.5c1.1,0,1.5-0.3,1.5-1.5
			c-0.1-2.8,0-5.7,0-8.5c0-0.9,0.3-1.2,1.2-1.2c2.1,0.1,4.3,0.1,6.4,0c3.9-0.2,7.5-1.1,10.2-4c3.3-3.5,3.7-7.6,2.3-12
			c-1.5-4.5-5.1-6.6-9.5-7.2c-5-0.7-10.1-0.1-15.1-0.3c-1.2,0-1.6,0.3-1.6,1.5C194.7,94.1,194.7,99.3,194.7,104.5z M238.5,119.1
			c0.2,2.9,0.2,2.9,2.8,2.9c0.8,0,1.5,0,2.3,0c0.7,0,1.1-0.2,1.1-1c-0.1-5.8,0.4-11.6-0.3-17.3c-0.4-3.7-2.5-6.3-6.1-7.5
			c-3.8-1.2-7.5-1-11.3,0c-4,1.1-4,1.1-2.7,4.9c0.3,1,0.7,1.2,1.7,0.8c2.3-0.9,4.7-1.3,7.1-1.1c3,0.2,4.9,1.7,5.4,4.2
			c0.3,1.7,0.2,1.8-1.5,1.4c-3.6-0.8-7.1-1-10.6,0.2c-3.7,1.2-5.7,4.1-5.6,7.9c0.1,3.6,2.3,6.4,5.9,7.4
			C231.1,123.2,235,122.4,238.5,119.1z M254.4,99.2c-0.5-1,0.5-2.6-0.5-3.2c-1-0.5-2.4-0.2-3.6-0.2c-0.2,0-0.4,0-0.5,0
			c-1.2-0.2-1.5,0.3-1.5,1.5c0.1,6.8,0,13.5,0,20.3c0,4.3,0,4.3,4.3,4.3c1.3,0,1.8-0.3,1.7-1.7c-0.1-4.4-0.1-8.8,0-13.2
			c0-3.8,2.4-6.3,5.7-6.3c3.6-0.1,5.6,2,5.7,6.1c0,0.8,0,1.6,0,2.4c0,3.8,0,7.5,0,11.3c0,1,0.2,1.5,1.3,1.4c1.2-0.1,2.4-0.1,3.6,0
			c0.8,0,1.1-0.2,1.1-1.1c-0.1-5.7,0-11.3-0.2-17c-0.1-3.8-1.9-6.8-5.7-8.1c-4-1.3-7.6-0.6-10.6,2.6C255,98.8,254.9,99.3,254.4,99.2
			z M133.3,108.9c0-2.9,0-5.8,0-8.7c0-4.4,0-4.3-4.4-4.4c-1.3,0-1.6,0.4-1.6,1.7c0.1,7.6,0.1,15.3,0,22.9c0,1.2,0.2,1.7,1.5,1.6
			c1-0.1,2.1-0.1,3.1,0c1.2,0.1,1.4-0.4,1.4-1.5C133.3,116.7,133.3,112.8,133.3,108.9z"/>
		<path class="st1" d="M115.7,102.6c2,0,3.9,0.1,5.9,0c1.1,0,1.5,0.2,1.5,1.4c-0.1,4.1,0,8.1,0,12.2c0,0.7-0.2,1.2-0.8,1.6
			c-6.9,5-14.3,6.5-22.2,2.9c-7.2-3.2-10.8-11.3-9.2-19.7c1.5-7.5,7.9-13.5,15.4-14.1c5.2-0.5,10.1,0.4,14.4,3.7
			c0.9,0.7,1,1.2,0.2,2c-1,1-1.6,2.5-2.8,3.1c-1.3,0.6-2.2-1.2-3.4-1.7c-4.4-2-8.8-2.4-12.8,0.6c-4.3,3.2-5.6,7.7-4.7,12.8
			c0.8,4.8,3.6,8.1,8.4,9.3c3.7,1,7.2,0.3,10.4-1.6c0.7-0.4,1.1-0.9,1-1.8c-0.1-1.7,0.7-3.8-0.3-4.9c-1-1.1-3.2-0.3-4.8-0.4
			c-3.9-0.1-3.8,0-3.9-3.9c0-1.3,0.4-1.6,1.6-1.5c1,0.1,2,0,3,0C113.7,102.6,114.7,102.6,115.7,102.6z"/>
		<path class="st2" d="M163.2,118.9c-0.5,5.5-3.1,9.1-8.5,10.4c-5.5,1.3-10.8,0.7-15.9-1.7c-1.1-0.5-1.2-1.1-0.6-2.1
			c0.6-0.9,0.8-2.3,1.6-2.8c0.9-0.5,1.9,0.7,2.9,1.1c2,0.8,4,1.2,6.1,1.3c6.1,0.1,9.1-3.1,8.5-9.2c-0.6-0.2-0.8,0.4-1.1,0.7
			c-3.6,3.6-7.9,4.3-12.5,2.5c-4.6-1.8-7-5.3-7.3-10.2c-0.5-8,4.7-13.7,12.1-13.5c3.1,0.1,5.8,1.1,7.9,3.4c0.6,0.7,1,0.8,1-0.3
			c0-2,1.2-2.4,2.9-2.1c0.3,0.1,0.7,0.1,1,0c1.6-0.3,1.9,0.4,1.9,1.9C163.1,105.1,163.2,112,163.2,118.9z M149.8,114.8
			c4.3,0,7.6-3.1,7.6-7.1c0-4.1-3.2-7.3-7.6-7.3c-4.4,0-7.5,3-7.5,7.2C142.3,111.8,145.5,114.8,149.8,114.8z"/>
		<path class="st3" d="M194.7,104.5c0-5.2,0-10.4,0-15.6c0-1.2,0.4-1.6,1.6-1.5c5,0.2,10.1-0.4,15.1,0.3c4.5,0.6,8,2.7,9.5,7.2
			c1.5,4.3,1,8.5-2.3,12c-2.7,2.9-6.4,3.9-10.2,4c-2.1,0.1-4.3,0.1-6.4,0c-0.9,0-1.2,0.3-1.2,1.2c0,2.8,0,5.7,0,8.5
			c0,1.1-0.3,1.5-1.5,1.5c-4.6,0-4.6,0.1-4.6-4.5C194.7,113.2,194.7,108.8,194.7,104.5z M200.7,99c0,1.7,0,3.5,0,5.2
			c0,0.8,0.1,1.2,1,1.2c2.4-0.1,4.9,0.1,7.3-0.1c3.7-0.3,6.1-2.7,6.2-5.8c0.1-3.6-1.7-5.7-5.6-6.4c-2.6-0.4-5.3-0.1-8-0.2
			c-0.8,0-0.9,0.4-0.9,1.1C200.8,95.7,200.7,97.3,200.7,99z"/>
		<path class="st4" d="M238.5,119.1c-3.5,3.3-7.4,4.1-11.7,2.9c-3.7-1-5.9-3.8-5.9-7.4c-0.1-3.8,1.9-6.6,5.6-7.9
			c3.5-1.2,7.1-0.9,10.6-0.2c1.7,0.4,1.8,0.3,1.5-1.4c-0.4-2.5-2.3-4-5.4-4.2c-2.5-0.2-4.9,0.2-7.1,1.1c-1,0.4-1.4,0.2-1.7-0.8
			c-1.3-3.9-1.4-3.9,2.7-4.9c3.8-1,7.5-1.2,11.3,0c3.6,1.2,5.7,3.8,6.1,7.5c0.7,5.8,0.2,11.6,0.3,17.3c0,0.8-0.4,1-1.1,1
			c-0.8,0-1.5,0-2.3,0C238.7,122,238.7,122,238.5,119.1z M232,118c4.2,0,6.9-2.4,6.9-5.9c0-0.7-0.1-1.2-0.9-1.4
			c-2.7-0.7-5.3-1.1-8.1-0.3c-2.7,0.8-3.9,3.8-2.4,5.9C228.6,117.7,230.2,118,232,118z"/>
		<path class="st2" d="M184,119.2c-3.4,3.6-9.3,4.5-13.5,2c-2.6-1.5-3.9-3.8-3.9-6.9c0-3,1.3-5.4,3.9-6.8c3.9-2.1,8.1-1.7,12.2-0.9
			c1.7,0.3,1.9,0.2,1.6-1.5c-0.4-2.1-1.7-3.4-3.8-3.9c-3-0.7-5.9-0.2-8.7,0.8c-1.1,0.4-1.5,0.3-1.8-0.8c-1.3-3.8-1.3-3.8,2.6-4.8
			c3.3-0.9,6.7-1.1,10.1-0.4c4.5,1,7.4,4.2,7.5,8.7c0.2,5.4,0.1,10.9,0.1,16.3c0,0.9-0.3,1.1-1.1,1c-1.3-0.1-2.5-0.1-3.8-0.1
			c0-0.7,0.1-1.4-0.1-2.1C185.2,119.4,185,118.4,184,119.2z M178.8,109.8c-1.5,0-2.9,0.2-4.2,0.9c-1.4,0.8-2.1,2-2,3.6
			c0.1,1.6,0.9,2.6,2.3,3.2c2.4,1.1,6.2,0.4,8.1-1.4c0.8-0.7,1.3-1.6,1.4-2.7c0.4-2.3,0.1-2.7-2.2-3.1
			C181.1,110.1,179.9,110,178.8,109.8z"/>
		<path class="st4" d="M254.4,99.2c0.6,0.1,0.7-0.4,0.9-0.7c3-3.2,6.6-3.9,10.6-2.6c3.8,1.2,5.6,4.2,5.7,8.1
			c0.2,5.7,0.1,11.3,0.2,17c0,0.8-0.3,1.1-1.1,1.1c-1.2,0-2.4-0.1-3.6,0c-1.1,0.1-1.4-0.4-1.3-1.4c0.1-3.8,0-7.5,0-11.3
			c0-0.8,0-1.6,0-2.4c-0.1-4.1-2.1-6.2-5.7-6.1c-3.3,0.1-5.7,2.6-5.7,6.3c-0.1,4.4-0.1,8.8,0,13.2c0,1.4-0.4,1.7-1.7,1.7
			c-4.3-0.1-4.3,0-4.3-4.3c0-6.8,0-13.5,0-20.3c0-1.2,0.3-1.7,1.5-1.5c0.2,0,0.3,0,0.5,0c1.2,0,2.6-0.3,3.6,0.2
			C254.9,96.6,253.9,98.2,254.4,99.2z"/>
		<path class="st2" d="M133.3,108.9c0,3.9,0,7.8,0,11.6c0,1.1-0.2,1.6-1.4,1.5c-1-0.1-2.1-0.1-3.1,0c-1.3,0.1-1.5-0.4-1.5-1.6
			c0-7.6,0.1-15.3,0-22.9c0-1.3,0.3-1.7,1.6-1.7c4.4,0,4.4,0,4.4,4.4C133.3,103.1,133.3,106,133.3,108.9z"/>
		<path class="st5" d="M40.4,114.5c-2.3-3-3.6-6.2-3.5-10.1c0.3-6.9,6.2-12.6,13.5-12.8c6.9-0.2,13.2,5.4,13.7,12.1
			c0.5,5.7-1.6,10.2-6.4,13.1c-4.8,2.9-9.8,2.7-14.6-0.2c-0.7-0.4-1.2-0.9-2-0.2c-0.1,0-0.2,0-0.3,0.1c-0.4-0.3-0.7-0.8-1.3-0.7
			c-0.1,0-0.2-0.1-0.4-0.1c0-0.4,0.2-0.6,0.6-0.5C40.3,115.3,40.5,115.1,40.4,114.5z M63.1,102.5c0-1.1-0.4-2.1-1.4-2.7
			c-0.9-1.3-1.9-2.5-2.8-3.8c-0.1-1.4-1.1-1.5-2.1-1.8c0,0-0.2,0-0.2,0c-1.7-2.4-8-2.1-10.6-1c-4.7,1.8-7.4,5.4-8.1,10.3
			c-0.6,4,0.2,7.8,3.7,10.5c0,0,0,0.1,0.1,0.1c0,0,0.1,0,0.1,0c0,0-0.1-0.1-0.1-0.1c0-0.3,0-0.5,0.3-0.7c0.7,0.8,1.1,1.9,2.4,1.8
			c0.5,1.4,1.8,1.2,2.9,1.7c0,0.1,0,0.2,0,0.4c0,0.5,0.4,0.6,0.8,0.7c3.8,1,7.2,0,10.3-2.1C62.1,113,64.6,107.8,63.1,102.5z"/>
		<path class="st6" d="M57.1,80c1.9,0.9,3.1,2.7,4.6,4.2c-0.4,0.5-0.9,0.2-1.4,0.3c-2-0.7-4.1-1.4-6.2-1.7c-2.8-0.8-5.6-0.5-8.4-0.1
			c-2,0.3-3.7,1.6-5.8,1.7l-0.1,0c1.4-2.2,3.5-3.8,5.3-5.5c0.2,0,0.4,0,0.6,0c0,0.4,0.2,0.7,0.6,0.7c3.3-0.1,6.5,0.4,9.8-0.3
			C56.5,79.6,56.8,79.8,57.1,80z"/>
		<path class="st7" d="M63.1,125.9c-0.6,1.8-2.2,2.9-3.5,4.2c-2.5,2.4-4.8,4.9-7.4,7.2c-1,0.9-1.8,1-2.8,0c-3.2-3.3-6.5-6.5-9.8-9.8
			c-0.7-0.7-0.9-1.7-1.8-2.6c1.6-0.1,2.5,0.6,3.3,1.3c-0.5,0.1-1.5-0.1-0.5,0.9c1.2,1.2,2.4,2.4,3.7,3.6c0.8,0.9,1.6,1.9,2.7,2.5
			c0.7,1.6,2.3,2.4,3.3,3.7c0.5,0.7,0.9,0.1,1.2-0.3c1.5-1.5,2.9-2.9,4.3-4.4c0.3-0.5,1.1-0.8,1-1.5c0.1-0.1,0.2-0.2,0.2-0.3
			c0.2,0,0.4-0.1,0.4-0.4l0,0c0.1-0.1,0.2-0.2,0.4-0.4l0,0c0.1-0.1,0.2-0.2,0.4-0.4l0,0c0.3,0.1,0.6-0.1,0.7-0.4
			c0.3-0.4,0.5-0.8,0.8-1.3c0.3-0.1,0.7,0,0.8-0.4c0-0.1-0.1-0.3-0.2-0.4c-0.5-0.2-0.7,0.1-0.8,0.6c-2.8,0.3-5.5,1-8.3,1.3
			c-2.3,0.2-4.5-0.3-6.5-1.2c0.6,0,1.2,0,1.7,0.1c5.2,1.2,10.1,0.3,14.7-2.1C61.9,125.3,62.5,125,63.1,125.9L63.1,125.9z"/>
		<path class="st6" d="M23.7,100.4c1.5-2.1,3.5-3.7,5.3-5.4c0.6,0,0.9,0.5,0.6,0.9c-0.9,1.4-1.2,3-1.6,4.6c-0.7,3.2-0.7,6.4-0.1,9.6
			c0.3,1.6,0.6,3.4,1.7,4.7c0.1,0.3,0.1,0.6,0.2,1c-0.3,0-0.6,0.1-0.9,0.1c-1.4-1.2-2.8-2.4-3.9-3.9c0.1-0.1,0.3-0.1,0.3-0.2
			c0.1-3.4,0.2-6.9,0.2-10.3c0-1.9,0-1.9-1.7-0.9C23.8,100.5,23.7,100.4,23.7,100.4z"/>
		<path class="st6" d="M44.3,130.7c-1.2-1.2-2.4-2.4-3.7-3.6c-1-0.9,0-0.8,0.5-0.9c0.6,0.2,1.2,0.5,1.8,0.7c0.3,1,1.1,0.6,1.7,0.6
			c0,0,0,0,0,0c2.1,1,4.2,1.4,6.5,1.2c2.8-0.2,5.5-1,8.3-1.3c0.1,0.1,0.1,0.1,0.2,0.2c-0.3,0.4-0.5,0.8-0.8,1.3
			c-0.3,0-0.6,0.1-0.7,0.4c0,0,0,0,0,0c-0.1,0.1-0.2,0.2-0.4,0.4c0,0,0,0,0,0c-0.1,0.1-0.2,0.2-0.4,0.4c0,0,0,0,0,0
			c-0.1,0.1-0.3,0.3-0.4,0.4c-0.1,0.1-0.2,0.2-0.2,0.3c-1.7,0.1-3.3,0.1-5,0.4C49.3,131.4,46.8,130.6,44.3,130.7z"/>
		<path class="st6" d="M71.7,115.4c0.1-0.2,0.1-0.5,0.2-0.7c1-1.2,1.3-2.7,1.7-4.2c1.2-4.9,0.7-9.7-1.3-14.3
			c-0.2-0.4-0.8-0.8-0.2-1.4c0.3,0.3,0.7,0.5,1,0.8c0.1,0.1,0.2,0.2,0.3,0.3c0.7,0.7,1.4,1.4,2.1,2.1c-0.4,0.5,0.2,0.5,0.4,0.7
			c-0.7,1.4,0.5,2.6,0.3,4c-0.5,3.1-0.7,6.2-0.7,9.3c-0.7,1.1-1.9,1.7-2.5,3C73,115.4,72.5,116.3,71.7,115.4z"/>
		<path class="st2" d="M127.1,91.1c0-1.3,0-2.6,0-3.8c1.3-1.1,2.8-0.6,4.3-0.7c0.9-0.1,1.6,0.4,1.7,1.1c0.2,1.2,0.4,2.4-0.1,3.5
			c0,0.1-0.3,0.2-0.4,0.2C130.7,91.3,128.9,91.8,127.1,91.1z"/>
		<path class="st4" d="M65.8,121.3c-2.4,0-4.7,0-7.6,0c3.7-2,6.5-4.4,8.2-8.2c0.4,1.4,0.2,2.7,0.2,3.9c0,1.2-0.1,2.4-0.1,3.6
			c0-1.5,0-2.9,0-4.4C66.3,117.9,66.2,119.6,65.8,121.3z"/>
		<path class="st8" d="M54.1,82.9c2.2,0.2,4.2,1,6.2,1.7c0.7,0.3,1.3,0.7,2,1c0.4,0.2,0.8,0.5,0.8-0.3c0.7,0.3,1.3,0.8,0.9,1.6
			c-0.4,0.8-1,0-1.4-0.2c-3.6-1.5-7.2-2.9-11.3-2.9c-4,0-7.6,0.8-11.1,2.7c-0.4,0.2-0.8,0.4-1.2,0.6c-0.5,0.3-0.9,0-1.2-0.4
			c-0.4-0.5,0-0.7,0.3-1c0.5-0.5,0.9-1.3,1.8-1.2c0,0,0.1,0,0.1,0c0.5,0.8,1.2,0.7,1.9,0.3c2.8-1.3,5.8-1.8,8.9-1.8
			C51.8,83.1,53,83.3,54.1,82.9z"/>
		<path class="st7" d="M71.7,115.4c0.7,0.9,1.3,0,1.4-0.4c0.5-1.3,1.7-1.9,2.5-3c0.9-0.8,1.8-1.7,2.7-2.5c1.8-1.2,3.5-2.5,4.3-4.6
			c1.2,1.1,0.5,2-0.3,2.7c-3.3,2.9-6.2,6.1-9.4,9.2c-0.4,0.4-0.7,0.8-1.1,1.1c-0.6,0.3-1.1,1.7-1.9,0.9c-0.7-0.7,0.4-1.3,0.8-1.9
			C71,116.4,70.8,115.5,71.7,115.4z"/>
		<path class="st4" d="M42.2,89.9c-3.2,1.7-5.4,4.2-7.2,7.2c0-2,0-4.1,0-6.1c0-0.5-0.2-1.3,0.7-1.3C37.8,89.8,40,89.4,42.2,89.9z"/>
		<path class="st8" d="M25.1,111.9c1.2,1.4,2.5,2.7,3.9,3.9c0.3,0.6,0.7,1.2,1.8,1.4c-0.5-0.6-0.1-1.3-0.9-1.5
			c-0.1-0.3-0.1-0.6-0.2-1c0-0.3,0-0.6,0-0.9c0.7,1.3,1.5,2.6,2.2,4c0.3,0.6,0.6,1.2-0.1,1.7c-0.6,0.5-0.9-0.2-1.3-0.5
			c-2.1-1.6-3.5-3.9-5.5-5.7c-2-1.9-4-4-6-5.9c-0.7-0.7-1.3-1.4-0.4-2.3c0.8,2,2.6,3.1,4.1,4.5C23.5,110.4,24.3,111.2,25.1,111.9z"
			/>
		<path class="st4" d="M64.5,94.2c-1.7-1.6-3.2-3.3-5.8-4.4c2.9-0.5,5.4-0.7,7.9-0.1c-1.3,0.6-0.6,1.8-0.6,2.7
			c0,1.1,0.1,2.2-0.5,3.2c-0.1-0.1-0.2-0.3-0.3-0.4C65.2,94.7,65.1,94.2,64.5,94.2z"/>
		<path class="st7" d="M29.7,113.8c0,0.3,0,0.6,0,0.9c-1.1-1.4-1.4-3.1-1.7-4.7c-0.6-3.1-0.7-6.4,0.1-9.6c0.4-1.6,0.7-3.2,1.6-4.6
			c0.3-0.4,0-0.9-0.6-0.9c0.4-1,1.3-1.5,2.1-2.4c0.7,1.5,0,2.7-0.5,3.7c-2.4,4.5-2.8,9.3-1.9,14.3C28.9,111.7,29.3,112.7,29.7,113.8
			z"/>
		<path class="st9" d="M82.6,105c-0.8,2.1-2.5,3.4-4.3,4.6c0-0.3,0-0.6,0.1-0.8c0.7-1.5,1.7-2.9,0-4.5c-0.1-0.1-0.1-0.5-0.1-0.7
			c0.3-1.5-0.4-2.7-1.6-3.6c-0.4-0.3-0.6-0.7-0.6-1.2l0,0C78.4,100.8,80.5,102.9,82.6,105z"/>
		<path class="st7" d="M72.2,94.8c-0.6,0.5,0,1,0.2,1.4c2,4.6,2.4,9.3,1.3,14.3c-0.4,1.5-0.7,3-1.7,4.2c0-1.7,0.9-3.2,1.2-4.8
			c1.1-5.2-0.2-10.1-2.3-14.8c-0.2-0.4-0.4-0.7-0.3-1.2C71.3,93.8,72,93.8,72.2,94.8z"/>
		<path class="st9" d="M22.8,109.6c-1.5-1.4-3.3-2.5-4.1-4.5c1.4-1.3,2.7-2.5,4.1-3.8c0,0.1,0,0.2,0,0.3
			C22.3,104.2,22.6,106.9,22.8,109.6z"/>
		<path class="st10" d="M45.7,79c-0.2,0-0.4,0-0.6,0c1.4-2,3.4-3.4,5-5.2c0.3-0.4,0.7-0.7,1.2-0.2c1.9,2,3.9,3.9,5.8,5.9
			c0.1,0.1,0.1,0.3,0.1,0.5c-0.3-0.2-0.6-0.5-1-0.7c-0.7-0.6-1.1-1.5-2.1-1.8c-1.3-1.8-4.5-1.8-6.3,0C46.6,77.3,46.7,78.9,45.7,79z"
			/>
		<path class="st2" d="M39.6,115.8c0.6-0.1,0.9,0.4,1.3,0.7c0,0.1,0,0.2,0,0.3c0,0.1,0,0.2,0,0.3c-2.2,1.1-3.6,3.2-5.2,4.9
			c-2,1.8-4,3.6-5.6,5.7c-0.1-0.1-0.2-0.1-0.4-0.2c-0.4-0.7,0.2-1.2,0.6-1.6c2.2-2.3,4.5-4.5,6.7-6.8c0.4-0.1,0.4-0.3,0.4-0.6
			c0,0,0,0,0,0c0.7,0,1.1-0.5,1.4-1.1c0.2-0.2,0.4-0.4,0.7-0.6c0.3-0.2,0.4-0.4,0.1-0.7C39.5,116.1,39.5,116,39.6,115.8z"/>
		<path class="st11" d="M163.2,118.9c0-6.9-0.1-13.8,0-20.7c0-1.5-0.4-2.2-1.9-1.9c-0.3,0.1-0.7,0.1-1,0c-1.7-0.3-2.9,0.1-2.9,2.1
			c-0.3-2.6-0.3-2.6,2.3-2.6c3.9,0,3.9,0,3.9,3.9c0,5.6,0,11.1,0,16.7C163.5,117.2,163.6,118.1,163.2,118.9z"/>
		<path class="st1" d="M35.6,122c1.7-1.7,3-3.7,5.2-4.9c0.6,1-2,1.2-0.6,2.3c0.8,0.6,1.7,1.1,2.9,1.9c-1.6,0-2.9,0.1-4.2,0
			c-1.2-0.1-2.1,0.2-2.9,1.1C35.9,122.3,35.8,122.2,35.6,122z"/>
		<path class="st10" d="M36.9,119.2c-2.2,2.3-4.5,4.5-6.7,6.8c-0.4,0.4-1,0.9-0.6,1.6c-0.8,0.1-1.2-0.3-1.3-1
			c0.6-0.6,1.2-1.1,1.8-1.7c1.9-1.8,3.8-3.6,5.5-5.6l0,0c0.3-0.1,0.4-0.3,0.5-0.6c0.4-0.3,0.8-0.6,1.2-0.8c0,0,0.1,0.1,0.1,0.1
			c0,0.1,0,0.1,0,0.2c0,0.1-0.1,0.3-0.1,0.4c0,0,0,0,0,0C37.2,118.8,37.1,119,36.9,119.2z"/>
		<path class="st1" d="M127.1,91.1c1.8,0.7,3.6,0.2,5.5,0.3c0.2,0,0.4-0.1,0.4-0.2c0.5-1.2,0.4-2.4,0.1-3.5
			c-0.1-0.7-0.9-1.2-1.7-1.1c-1.4,0.1-3-0.4-4.3,0.7c-0.1-0.5-0.2-1.1,0.6-1.1c0.6,0,1.2,0,1.7,0c4.7,0,4.7,0,4.1,4.8
			c-0.1,0.5-0.1,0.9-0.7,0.9c-1.8,0-3.6,0-5.4,0C127,91.9,127,91.5,127.1,91.1z"/>
		<path class="st7" d="M30.1,124.9c-0.6,0.6-1.2,1.1-1.8,1.7c-0.7-0.9-0.1-1.4,0.5-2c1.9-2,4.1-3.8,5.8-6c0.3,0,0.6,0,1,0
			c0,0.2,0,0.5,0.1,0.7c0,0,0,0,0,0c-2.4,1.4-4.1,3.3-5.7,5.5C30,124.8,30.1,124.9,30.1,124.9z"/>
		<path class="st9" d="M35.6,118.5c-0.3,0-0.6,0-1,0c0-1.3,0-2.6,0-4c0-0.3-0.2-0.8,0.3-0.9c0.4-0.1,0.5,0.3,0.7,0.6
			c0.4,0.6,0.7,1.2,1.1,1.7c0.1,0.3,0.2,0.7,0.2,1c0,0,0,0,0,0c-0.1,0.1-0.2,0.2-0.3,0.3l0,0c-0.1,0.1-0.2,0.2-0.3,0.3l0,0
			c-0.1,0.1-0.2,0.2-0.3,0.3c0,0,0,0,0,0C35.8,118.3,35.7,118.4,35.6,118.5C35.6,118.5,35.6,118.5,35.6,118.5z"/>
		<path class="st1" d="M65.5,95.6c0.6-1,0.5-2.1,0.5-3.2c0-0.9-0.7-2.1,0.6-2.7c0,2.5,0,5.1,0,8C66.1,96.8,65.8,96.2,65.5,95.6z"/>
		<path class="st12" d="M42.2,89.9c-2.2-0.5-4.4-0.1-6.5-0.2c-0.9,0-0.7,0.8-0.7,1.3c0,2,0,4.1,0,6.1c-0.1,0.2-0.3,0.7-0.3,0.3
			c-0.1-2.5-0.1-4.9-0.1-7.4c0-0.6,0.4-0.7,0.9-0.7c2.2,0,4.5,0,6.7,0c0.2,0,0.7-0.1,0.4,0.4C42.6,89.8,42.3,89.9,42.2,89.9z"/>
		<path class="st11" d="M35.6,122c0.1,0.1,0.3,0.3,0.4,0.4c-1.7,1.7-3.3,3.5-5,5.2c-0.3,0.3-0.6,0.6-1,0.1
			C31.7,125.6,33.7,123.9,35.6,122z"/>
		<path class="st1" d="M184,119.2c1-0.8,1.2,0.2,1.3,0.7c0.2,0.6,0.1,1.4,0.1,2.1c-0.8,0.2-1.1-0.1-1.1-0.9
			C184.3,120.4,184.6,119.7,184,119.2z"/>
		<path class="st7" d="M37,117.1c-0.1-0.3-0.2-0.7-0.2-1c1.3-0.4,2.1-1.8,3.7-1.5c0.1,0.5-0.1,0.8-0.6,0.7c-0.4-0.1-0.6,0.1-0.6,0.5
			c-0.1,0-0.2,0.1-0.3,0c-0.7,0.2-1.2,0.6-1.2,1.4l0,0C37.5,117.2,37.2,117.1,37,117.1z"/>
		<path class="st1" d="M65.8,121.3c0.3-1.7,0.4-3.4,0.7-5.1c0,1.5,0,2.9,0,4.4C66.8,121.3,66.4,121.4,65.8,121.3z"/>
		<path class="st12" d="M63,85.3c0,0.8-0.4,0.5-0.8,0.3c-0.7-0.3-1.3-0.7-2-1c0.5-0.1,1,0.2,1.4-0.3C62.1,84.6,62.6,84.9,63,85.3z"
			/>
		<path class="st7" d="M44.7,127.6c-0.6,0-1.4,0.3-1.7-0.6C43.6,127,44.2,127.2,44.7,127.6z"/>
		<path class="st6" d="M22.8,101.6c0-0.1,0-0.2,0-0.3c0.1-0.5,0.5-0.7,0.9-0.9c0,0.1,0.1,0.1,0.1,0.2
			C23.5,100.9,23.2,101.2,22.8,101.6z"/>
		<path class="st1" d="M64.5,94.2c0.7,0,0.7,0.5,0.7,1C64.9,94.9,64.7,94.6,64.5,94.2z"/>
		<path class="st9" d="M76,98.8c-0.2-0.2-0.8-0.2-0.4-0.7c0.3,0.2,0.6,0.3,0.7,0.7c0,0,0,0,0,0C76.1,98.8,76.1,98.8,76,98.8z"/>
		<path class="st7" d="M63.1,125.9c0.1-0.1,0.1-0.1,0.2-0.2c0,0,0.1,0,0.1,0C63.3,125.7,63.2,125.8,63.1,125.9
			C63.1,125.9,63.1,125.9,63.1,125.9z"/>
		<path class="st1" d="M40.9,116.9c0-0.1,0-0.2,0-0.3c0.1,0,0.2,0,0.3-0.1C41.2,116.7,41.1,116.8,40.9,116.9z"/>
		<path class="st7" d="M73.5,95.9c-0.1-0.1-0.2-0.2-0.3-0.3C73.3,95.7,73.4,95.8,73.5,95.9z"/>
		<path class="st10" d="M44.3,115.1c-1.3,0.1-1.8-1-2.4-1.8c-0.6-0.5-0.8-1.3-1.4-1.9c-1.4-1.5-2.1-3.4-1.4-5.5
			c0.3,0.6-0.3,1.6,0.7,1.7c0.7,0.1,1.3-0.4,1.8-0.9c3.9-4.1,7.9-8.1,11.8-12.2c-0.4-0.2-0.9-0.5-1.4-0.7c0.5-0.6,1.2-0.3,1.8-0.3
			c1-0.1,1.8,0.9,2.8,0.7c0,0,0.2,0,0.2,0c0.3,1.1,1.3,1.3,2.1,1.8c0.9,1.3,1.9,2.5,2.8,3.8c0,0.2,0,0.5,0,0.7
			c-1.3-0.8-2.4-1.2-3.2,0.7c-0.2,0.6-0.9,0.9-1.5,0.3c-0.3-0.3-0.5-0.3-0.8,0.2c-1.1,2-2.9,3.6-4.6,5
			C48.7,109.1,46.9,112.5,44.3,115.1z"/>
		<path class="st12" d="M44.3,115.1c2.6-2.6,4.4-6,7.3-8.5c1.7-1.4,3.5-3,4.6-5c0.2-0.4,0.5-0.4,0.8-0.2c0.7,0.6,1.3,0.3,1.5-0.3
			c0.7-1.9,1.9-1.5,3.2-0.7c-0.2,1,1,1.7,0.7,2.8c-4.2,4.1-8.4,8.3-12.6,12.5c-0.8,0.8-1.6,1.2-2.7,1.1
			C46.1,116.4,44.8,116.5,44.3,115.1z"/>
		<path class="st13" d="M47.1,116.8c1.1,0.2,1.8-0.2,2.7-1.1c4.1-4.2,8.4-8.3,12.6-12.5c0,1.4,0,2.8,0,4.1l0,0c-1,1-2,1.9-2.9,3
			c-0.6,0.7-1.7,0.8-1.8,1.9l-0.1,0.1c-1,1.1-2,2.2-3.1,3.2c-0.6,0.5-1.4,0.7-1.7,1.6c-1.8,0-3.7,0.1-5.5,0.1
			C47.1,117,47.1,116.9,47.1,116.8z"/>
		<path class="st11" d="M39,106c-0.6,2.1,0,4,1.4,5.5c0.6,0.6,0.8,1.4,1.4,1.9c-0.3,0.1-0.3,0.4-0.3,0.7l0,0
			c-3.5-2.7-4.3-6.5-3.7-10.5c0.7-4.9,3.4-8.4,8.1-10.3c2.7-1.1,8.9-1.4,10.6,1c-1,0.2-1.8-0.7-2.8-0.7c-0.6,0.1-1.3-0.2-1.8,0.3
			c-0.9,0-1.9,0-2.8,0c-4.7,0.8-9,4.8-9.8,9.2c-0.1,0.3-0.2,0.5-0.3,0.8c0,0-0.1,0.1-0.1,0.1c0,0.1,0,0.2,0.1,0.2
			C39,104.9,39,105.4,39,106z"/>
		<path class="st8" d="M47.1,117.2c1.8,0,3.7-0.1,5.5-0.1c3.5-0.2,5-1.6,4.8-4.8c0,0,0.1-0.1,0.1-0.1c0.6,0,1.2-0.3,1.8,0
			c0.4,0.2,0.9,0.1,1.2-0.3c0.8-1.4,2-2.6,1.7-4.5c0,0,0,0,0,0c1.3-1.5,0.5-3.2,0.7-4.9c1.5,5.2-1,10.5-4.9,13.2
			c-3.1,2.2-6.5,3.1-10.3,2.1C47.5,117.8,47.1,117.7,47.1,117.2z"/>
		<path class="st7" d="M63.1,102.5c-0.3,1.6,0.6,3.4-0.7,4.9c0-1.4,0-2.8,0-4.1c0.3-1-0.9-1.7-0.7-2.8c0-0.2,0-0.5,0-0.7
			C62.7,100.4,63,101.4,63.1,102.5z"/>
		<path class="st10" d="M38.9,115.8c0.1,0,0.2,0,0.3,0c0.1,0,0.2,0.1,0.4,0.1c0,0.1,0,0.2,0,0.3c0,0.2-0.1,0.4-0.1,0.7
			c-0.2,0.2-0.4,0.4-0.7,0.6c-0.4,0.2-0.7,0.3-1.1,0.5c-0.1,0-0.1,0-0.2,0c0,0-0.1-0.1-0.1-0.1c0.1-0.2,0.2-0.4,0.4-0.7c0,0,0,0,0,0
			C38.3,116.9,38.7,116.4,38.9,115.8z"/>
		<path class="st11" d="M58.9,96c-0.8-0.4-1.8-0.7-2.1-1.8C57.7,94.5,58.8,94.6,58.9,96z"/>
		<path class="st11" d="M41.5,114c0,0,0.1,0.1,0.1,0.1c0,0-0.1,0-0.1,0C41.6,114.1,41.6,114.1,41.5,114C41.5,114,41.5,114,41.5,114z
			"/>
		<path class="st14" d="M54.1,77.5c0.9,0.3,1.4,1.2,2.1,1.8c-3.2,0.7-6.5,0.2-9.8,0.3c-0.4,0-0.6-0.3-0.6-0.7c1-0.1,0.9-1.7,2-1.4
			c1.3-0.1,2.6,0.1,3.8,0.3C52.6,78,53.2,77.9,54.1,77.5z"/>
		<path class="st5" d="M54.1,82.9c-1.1,0.5-2.3,0.2-3.4,0.2c-3.1,0-6.1,0.5-8.9,1.8c-0.8,0.4-1.4,0.4-1.9-0.3
			c2.1-0.1,3.8-1.4,5.8-1.7C48.5,82.3,51.3,82,54.1,82.9z"/>
		<path class="st14" d="M44.3,130.7c2.5-0.1,5.1,0.7,7.6,0.4c1.7-0.2,3.3-0.2,5-0.4c0,0.8-0.7,1-1,1.5c-0.2-0.1-0.5-0.4-0.5-0.4
			c-0.8,1-2.2,0.7-3.1,1.4c-0.4,0.3-0.7,0.2-1.2,0.1c-1.4-0.2-2.7-1.1-4.1-0.2C45.9,132.6,45.1,131.6,44.3,130.7z"/>
		<path class="st9" d="M46.9,133.2c1.4-0.9,2.8,0,4.1,0.2c0.5,0.1,0.7,0.2,1.2-0.1c0.9-0.7,2.3-0.4,3.1-1.4c0,0,0.3,0.2,0.5,0.4
			c-1.4,1.5-2.9,2.9-4.3,4.4c-0.3,0.3-0.7,0.9-1.2,0.3C49.2,135.6,47.7,134.8,46.9,133.2z"/>
		<path class="st6" d="M59.5,127.5c0.1-0.4,0.3-0.7,0.8-0.6c0.1,0,0.2,0.3,0.2,0.4c-0.2,0.4-0.5,0.3-0.8,0.4
			C59.6,127.6,59.6,127.6,59.5,127.5z"/>
		<path class="st14" d="M58.2,129.4c0.1-0.3,0.4-0.4,0.7-0.4C58.8,129.3,58.6,129.4,58.2,129.4z"/>
		<path class="st14" d="M57.1,130.4c0.1-0.1,0.3-0.3,0.4-0.4C57.5,130.3,57.3,130.4,57.1,130.4z"/>
		<path class="st14" d="M57.9,129.7c0.1-0.1,0.2-0.2,0.4-0.4C58.1,129.5,58,129.6,57.9,129.7z"/>
		<path class="st14" d="M57.5,130.1c0.1-0.1,0.2-0.2,0.4-0.4C57.8,129.8,57.7,129.9,57.5,130.1z"/>
		<path class="st14" d="M22.8,101.6c0.3-0.3,0.7-0.7,1-1c1.7-1,1.7-1,1.7,0.9c0,3.4-0.1,6.9-0.2,10.3c0,0.1-0.2,0.1-0.3,0.2
			c-0.8-0.8-1.5-1.6-2.3-2.4C22.6,106.9,22.3,104.2,22.8,101.6z"/>
		<path class="st12" d="M29.9,115.7c0.8,0.2,0.4,0.9,0.9,1.5c-1.1-0.3-1.5-0.8-1.8-1.4C29.3,115.8,29.6,115.7,29.9,115.7z"/>
		<path class="st14" d="M76,98.8c0.1,0,0.2,0,0.3,0.1c0,0.5,0.2,0.9,0.6,1.2c1.1,0.9,1.8,2,1.6,3.6c0,0.2-0.1,0.6,0.1,0.7
			c1.7,1.5,0.6,3,0,4.5c-0.1,0.2-0.1,0.6-0.1,0.8c-0.9,0.8-1.8,1.7-2.7,2.5c0-3.1,0.1-6.2,0.7-9.3C76.5,101.4,75.3,100.1,76,98.8z"
			/>
		<path class="st9" d="M54.1,77.5c-0.8,0.4-1.5,0.5-2.5,0.3c-1.1-0.2-2.5-0.4-3.8-0.3C49.6,75.8,52.8,75.8,54.1,77.5z"/>
		<path class="st1" d="M37.7,118c0.4-0.2,0.7-0.3,1.1-0.5c-0.3,0.6-0.7,1-1.4,1.1c0-0.1,0.1-0.3,0.1-0.4
			C37.6,118.1,37.6,118.1,37.7,118z"/>
		<path class="st1" d="M39.4,116.8c0-0.2,0.1-0.4,0.1-0.7C39.9,116.5,39.7,116.7,39.4,116.8z"/>
		<path class="st1" d="M36.9,119.2c0.1-0.2,0.3-0.4,0.4-0.6C37.4,118.9,37.3,119.1,36.9,119.2z"/>
		<path class="st8" d="M30.1,124.9c0,0-0.1-0.1-0.1-0.1c1.5-2.2,3.3-4.2,5.7-5.5C34,121.3,32,123.1,30.1,124.9z"/>
		<path class="st8" d="M37.7,117.2c-0.1,0.2-0.2,0.4-0.4,0.7c-0.4,0.3-0.8,0.6-1.2,0.8c-0.1,0-0.1-0.1-0.2-0.1c0-0.1,0-0.2,0-0.4
			c0,0,0,0,0,0c0.1-0.1,0.2-0.2,0.3-0.3c0,0,0,0,0,0c0.1-0.1,0.2-0.2,0.3-0.3c0,0,0,0,0,0c0.1-0.1,0.2-0.2,0.3-0.3c0,0,0,0,0,0
			C37.2,117.1,37.5,117.2,37.7,117.2z"/>
		<path class="st8" d="M35.6,119.3c0-0.2,0-0.5-0.1-0.7c0,0,0,0,0,0c0.1,0,0.2,0,0.3,0c0.1,0.1,0.1,0.1,0.2,0.1
			C36.1,119,35.9,119.2,35.6,119.3z"/>
		<path class="st2" d="M37.7,118c0,0.1-0.1,0.1-0.2,0.2c0-0.1,0-0.1,0-0.2C37.6,118,37.6,118,37.7,118z"/>
		<path class="st7" d="M36,118.5c-0.1,0-0.2,0-0.3,0c0.1-0.1,0.2-0.2,0.3-0.3C35.9,118.3,35.9,118.4,36,118.5z"/>
		<path class="st7" d="M36.3,117.8c-0.1,0.1-0.2,0.2-0.3,0.3C36,118,36.2,117.9,36.3,117.8z"/>
		<path class="st7" d="M36.6,117.5c-0.1,0.1-0.2,0.2-0.3,0.3C36.4,117.7,36.5,117.6,36.6,117.5z"/>
		<path class="st7" d="M37,117.1c-0.1,0.1-0.2,0.2-0.3,0.3C36.7,117.4,36.9,117.2,37,117.1z"/>
		<path class="st8" d="M38.9,115.8c-0.2,0.6-0.6,1.1-1.2,1.4C37.7,116.4,38.2,116,38.9,115.8z"/>
		<path class="st7" d="M39,104c0.1-0.3,0.2-0.5,0.3-0.8c0.4,1.3,1,0.5,1.4,0c2.7-2.6,5.3-5.3,8-7.9c0.5-0.4,0.4-0.9,0.4-1.4
			c0.9,0,1.9,0,2.8,0c0.5,0.2,0.9,0.5,1.4,0.7c-3.9,4.1-7.9,8.1-11.8,12.2c-0.5,0.5-1,1-1.8,0.9c-1-0.2-0.4-1.2-0.7-1.7
			c0-0.6,0-1.1,0-1.7C39.1,104.2,39.1,104.1,39,104z"/>
		<path class="st7" d="M62.3,107.4c0.3,1.8-0.9,3.1-1.7,4.5c-0.3,0.5-0.8,0.5-1.2,0.3c-0.6-0.3-1.2,0-1.8,0c0.1-1.1,1.3-1.2,1.8-1.9
			C60.3,109.3,61.3,108.4,62.3,107.4z"/>
		<path class="st7" d="M57.5,112.3c0.2,3.1-1.3,4.6-4.8,4.8c0.3-0.8,1.1-1.1,1.7-1.6C55.5,114.6,56.4,113.4,57.5,112.3z"/>
		<path class="st8" d="M49.1,93.9c0.1,0.5,0.1,1-0.4,1.4c-2.7,2.6-5.3,5.2-8,7.9c-0.5,0.4-1,1.3-1.4,0
			C40.2,98.7,44.4,94.7,49.1,93.9z"/>
		<path class="st10" d="M39,104c0,0.1,0,0.2,0,0.3c0-0.1-0.1-0.2-0.1-0.2C38.9,104,39,104,39,104z"/>
	</g>
	<g>
		<path class="st3" d="M281.7,88.9c0,2.2-1.7,3.9-3.9,3.9c-2.2,0-3.9-1.7-3.9-3.9c0-2.1,1.7-3.8,3.9-3.8
			C280,85.1,281.7,86.8,281.7,88.9z M274.9,88.9c0,1.7,1.3,3,3,3c1.7,0,2.9-1.4,2.9-3c0-1.7-1.2-3.1-2.9-3.1
			C276.1,85.9,274.9,87.2,274.9,88.9z M277.2,90.9h-0.9v-3.8c0.3-0.1,0.8-0.1,1.5-0.1c0.7,0,1,0.1,1.3,0.3c0.2,0.2,0.4,0.5,0.4,0.8
			c0,0.4-0.3,0.7-0.8,0.9v0c0.4,0.1,0.6,0.4,0.7,0.9c0.1,0.6,0.2,0.8,0.3,1h-1c-0.1-0.1-0.2-0.5-0.3-0.9c-0.1-0.4-0.3-0.6-0.8-0.6
			h-0.4V90.9z M277.3,88.7h0.4c0.5,0,0.9-0.2,0.9-0.6c0-0.3-0.3-0.6-0.8-0.6c-0.2,0-0.4,0-0.5,0V88.7z"/>
	</g>
</g>
</svg>
