<?xml version="1.0" encoding="utf-8"?>
<!-- Generator: Adobe Illustrator 22.0.0, SVG Export Plug-In . SVG Version: 6.00 Build 0)  -->
<svg version="1.1" id="Layer_2" xmlns="http://www.w3.org/2000/svg" xmlns:xlink="http://www.w3.org/1999/xlink" x="0px" y="0px"
	 viewBox="0 0 300 211.3" style="enable-background:new 0 0 300 211.3;" xml:space="preserve">
<style type="text/css">
	.st0{fill:#002F87;}
	.st1{fill-rule:evenodd;clip-rule:evenodd;fill:#002F87;}
</style>
<g>
	<polygon class="st0" points="123.1,112.6 120.4,112.6 86.3,84.4 105.2,84.4 122.9,100.5 	"/>
	<path class="st0" d="M127.2,106.3V102L96.9,68.2H120l14,28.2c0,0-0.2,2.1-0.8,2.5c-0.6,0.4-0.2,7.1-0.2,7.1L127.2,106.3z"/>
	<path class="st0" d="M137.9,105.3v-7.1l-19.1-46.1h26.6l2,40.3l-2.6,2.5c0,0-1.2,2.3-0.8,4.6c0.4,2.3,0.2,4.2,0.2,4.2L137.9,105.3z
		"/>
	<polygon class="st0" points="174.3,112.6 177.1,112.6 211.2,84.4 192.2,84.4 174.5,100.5 	"/>
	<path class="st0" d="M170.2,106.3V102l30.4-33.8h-23.1l-14,28.2c0,0,0.2,2.1,0.8,2.5c0.6,0.4,0.2,7.1,0.2,7.1L170.2,106.3z"/>
	<path class="st0" d="M159.5,105.3v-7.1l19.1-46.1H152l-2,40.3l2.6,2.5c0,0,1.2,2.3,0.8,4.6c-0.4,2.3-0.2,4.2-0.2,4.2L159.5,105.3z"
		/>
	<polygon class="st1" points="23.7,158.7 31.6,158.7 31.6,145.9 39.3,145.9 39.3,139.9 31.6,139.9 31.6,133.6 42.5,133.6 
		42.5,127.6 23.7,127.6 	"/>
	<path class="st1" d="M44.4,158.7h7.1v-21.9h-7.1V158.7z M44.4,133.9h7.1v-6.3h-7.1V133.9z"/>
	<path class="st1" d="M55.1,158.7h7.1v-14.2c0.8-1.1,1.5-1.7,3.9-1.7c1,0,1.9,0.3,2.9,0.6v-7.1c-2.8,0-6,1.1-6.8,3.8H62v-3.3h-6.9
		V158.7z"/>
	<path class="st1" d="M80.6,144.8c-4.8,0.1-11.4,1.8-11.4,7.7c0,4.3,2.5,6.7,6.3,6.7c2.2,0,4.1-1,5.3-2.5c0.1,0.7,0.1,1.4,0.2,2h7.3
		c-0.3-0.3-0.6-1-0.6-3.5v-12.2c0-4.8-4.4-6.7-8.6-6.7c-4,0-8,1.7-8.7,6.1l6.1,1.3c0.1-1.2,0.7-2.9,2.3-2.9c1.3,0,1.8,1.3,1.8,2.6
		V144.8z M80.6,153.1c-0.9,1-1.7,1.4-2.3,1.4c-1.3,0-2.1-0.8-2.1-2.4c0-3.2,1.6-3.7,4.3-4V153.1z"/>
	<path class="st1" d="M103.3,158.7h12.6c6.2,0,10.2-3.3,10.2-8.6c0-4.1-2.4-6.7-6.4-7.7v-0.1c3.2-0.7,5.9-3.5,5.9-7.3
		c0-4.3-3.4-7.4-9.1-7.4h-13.1V158.7z M111.1,145.2h2.9c2.5,0,3.9,1.5,3.9,3.8c0,3.2-2.2,3.9-3.9,3.9h-2.9V145.2z M111.1,133.1h2.7
		c1.8,0,3.8,0.5,3.8,3.4c0,1.8-1.1,3.4-3.9,3.4h-2.6V133.1z"/>
	<path class="st1" d="M138.4,144.8c-4.8,0.1-11.4,1.8-11.4,7.7c0,4.3,2.5,6.7,6.3,6.7c2.2,0,4.1-1,5.3-2.5c0.1,0.7,0.1,1.4,0.2,2
		h7.3c-0.3-0.3-0.7-1-0.7-3.5v-12.2c0-4.8-4.4-6.7-8.6-6.7c-4,0-7.9,1.7-8.7,6.1l6.2,1.3c0.1-1.2,0.7-2.9,2.3-2.9
		c1.3,0,1.8,1.3,1.8,2.6V144.8z M138.4,153.1c-0.9,1-1.7,1.4-2.3,1.4c-1.3,0-2.1-0.8-2.1-2.4c0-3.2,1.6-3.7,4.3-4V153.1z"/>
	<path class="st1" d="M149.2,158.7h7.1v-14.2c0.8-1.1,1.5-1.7,3.9-1.7c1,0,1.9,0.3,2.9,0.6v-7.1c-2.8,0-5.9,1.1-6.8,3.8h-0.1v-3.3
		h-6.9V158.7z"/>
	<path class="st1" d="M182,144.9c0-2.2-1.1-8.7-8.6-8.7c-6.7,0-10,6-10,12c0,5.4,3.3,11,9.7,11c5.1,0,8.2-2.8,8.7-8.1l-5.5-0.8
		c0,1.7-0.2,4.2-2.7,4.2c-1.8,0-2.6-1.6-2.6-6.6c0-4.4,0.3-7.2,2.6-7.2c1.1,0,1.7,0.6,2,1.5c0.3,0.8,0.4,1.9,0.4,2.8H182z"/>
	<path class="st1" d="M202.5,149.3v-1.5c0-5.7-2.4-11.6-9.2-11.6c-6.5,0-9.7,5.2-9.7,11.4c0,6.1,3.1,11.5,9.8,11.5
		c6.3,0,8.5-5,8.8-6l-4.7-1.8c-0.4,1.8-1.9,3-3.6,3c-2.8,0-3.2-3.3-3.2-5.2H202.5z M190.6,145.1c0-2.1,0.6-4.4,2.6-4.4
		c2.4,0,2.6,2.4,2.7,4.4H190.6z"/>
	<rect x="204.8" y="127.6" class="st1" width="7.1" height="31.1"/>
	<path class="st1" d="M214.3,147.6c0,6.8,3.2,11.6,9.9,11.6c6.7,0,9.9-4.8,9.9-11.6c0-6.5-3.3-11.4-9.9-11.4
		C217.5,136.2,214.3,141.1,214.3,147.6 M221.6,147.6c0-5.1,0.5-6.9,2.5-6.9c2,0,2.5,1.9,2.5,6.9c0,5.5-0.8,7.1-2.5,7.1
		C222.4,154.8,221.6,153.2,221.6,147.6"/>
	<path class="st1" d="M236.5,158.7h7.1v-16l0.4-0.5c0.5-0.6,1.1-0.9,1.8-0.9c1.3,0,1.7,0.8,1.7,2v15.5h7.1v-17.5
		c0-3-1.8-4.9-4.7-4.9c-2.5,0-4.8,1.2-6.2,3.4h-0.1v-2.9h-7.1V158.7z"/>
	<path class="st1" d="M268.5,144.8c-4.7,0.1-11.4,1.8-11.4,7.7c0,4.3,2.5,6.7,6.3,6.7c2.2,0,4.1-1,5.3-2.5c0.1,0.7,0.1,1.4,0.2,2
		h7.3c-0.3-0.3-0.7-1-0.7-3.5v-12.2c0-4.8-4.4-6.7-8.6-6.7c-4,0-8,1.7-8.7,6.1l6.2,1.3c0.1-1.2,0.7-2.9,2.3-2.9
		c1.3,0,1.8,1.3,1.8,2.6V144.8z M268.5,153.1c-0.9,1-1.7,1.4-2.3,1.4c-1.3,0-2-0.8-2-2.4c0-3.2,1.6-3.7,4.3-4V153.1z"/>
</g>
</svg>
