<?xml version="1.0" encoding="utf-8"?>
<!-- Generator: Adobe Illustrator 22.0.0, SVG Export Plug-In . SVG Version: 6.00 Build 0)  -->
<svg version="1.1" id="Layer_2" xmlns="http://www.w3.org/2000/svg" xmlns:xlink="http://www.w3.org/1999/xlink" x="0px" y="0px"
	 viewBox="0 0 300 211.3" style="enable-background:new 0 0 300 211.3;" xml:space="preserve">
<g>
	<path d="M98.2,73c-0.2-0.5-0.1-0.8,0.2-1.1c0.9-1.1,1.8-2.3,2.9-3.3c2.6-2.5,5.2-4.9,7.9-7.4c0.2-0.2,0.4-0.4,0.5-0.7
		c-0.5,0.1-1,0.2-1.4,0.3c-2,0.6-3.9,1.4-5.8,2.3c-1.9,0.9-3.9,1.8-5.8,2.6C96.2,66,96,66,95.6,66.2c0.2-0.4,0.3-0.6,0.4-0.8
		c0.9-1.6,2.1-2.9,3.4-4.2c2.6-2.7,5.5-5.1,8.5-7.4c1.3-1,2.6-2,3.9-3.1c0.2-0.1,0.3-0.3,0.5-0.6c-1.7,0.4-3.3,0.9-5,1.3
		c-1.7,0.4-3.3,0.9-5,1.4c-1.7,0.4-3.3,0.9-5,1.3c0-0.1-0.1-0.1-0.1-0.2c0.2-0.2,0.3-0.4,0.5-0.6c2.5-2.5,5-5,7.6-7.4
		c4.6-4.2,9.3-8.2,14.3-11.8c3.2-2.3,6.4-4.4,10-6c2.9-1.3,5.9-2.3,9.1-2.7c1.1-0.1,2.2-0.1,3.3-0.1c1.2-0.1,2.4,0.2,3.6,0.6
		c3.3,1.1,6.6,2.1,9.9,3.1c1.6,0.5,3.2,0.6,4.9,0.1c2.2-0.6,4.5-0.9,6.8-0.8c1.2,0.1,2.3,0.3,3.4,0.8c0.9,0.4,1.7,0.9,2.3,1.6
		c0.9,1,1.8,2,2.5,3.1c1.2,1.9,1.7,3.9,1.2,6.1c-0.1,0.4,0.1,0.6,0.3,0.8c1.5,1.5,3.1,2.7,4.9,3.7c2.8,1.6,5.7,2.8,8.7,3.9
		c2.7,1,5.5,2.1,8.2,3.2c1.1,0.5,2.2,1.1,3.3,1.7c0.9,0.5,1.6,1.2,2.4,1.9c0.7,0.5,0.9,1.3,1,2.1c0.2,1.9,0.3,3.8,0.6,5.8
		c0.2,1.6,0.5,3.2,0.8,4.9c0.2,0.9,0.1,1.9-0.2,2.8c-1.1,2.8-2.2,5.6-3.3,8.4c-0.5,1.4-1.8,2.4-3.2,2.4c-0.8,0-1.6-0.1-2.4-0.1
		c-0.5,0-0.8,0-1.2,0.3c-2.1,1.7-4.4,3.1-6.8,4.4c-0.3,0.2-0.8,0.3-1.1,0.3c-1.6,0.2-3.2,0-4.8-0.4c-2.6-0.6-5.3-1.2-7.9-1.8
		c-1.5-0.3-2.9-0.5-4.5-0.5c-1.3,0-2.6,0.3-3.8,0.9c-1.9,1.1-3.9,2.1-5.8,3.3c-2.3,1.4-3.7,3.4-4.8,5.8c-0.9,2-1.4,4.2-1.8,6.4
		c-0.4,1.6-0.7,3.2-1.1,4.8c-0.1,0.3-0.2,0.7-0.3,1c-0.2,0.5-0.5,1-0.5,1.5c0,0.5,0.4,1,0.6,1.4c0.2,0.4,0.4,0.9,0.6,1.4
		c-0.2,0-0.3,0.1-0.4,0.1c-7,0.5-13.9,0.1-20.7-2c-8-2.5-14.7-7.1-20.2-13.4c-0.9-1-1.7-2-2.6-3.1c0.9-0.4,1.7-0.7,2.6-1.1
		c-0.5-0.4-1,0-1.6-0.1c0.8-0.9,1.6-1.7,2.4-2.4c0.8-0.7,1.7-1.4,2.5-2.2c-2.7,0.7-5.3,1.5-7.6,3.3c0.1-0.3,0.1-0.6,0.2-0.9
		c0.4-1.2,1-2.4,1.7-3.4c0.6-0.9,1.2-1.9,1.8-2.8c0.2-0.3,0.3-0.5,0.5-0.8c-0.7,0.1-2.3,1-4.1,2.4c-1.2,0.9-2.5,1.9-3.7,3
		c0-0.7,0.2-1.3,0.5-1.8c0.5-0.9,1.1-1.8,1.8-2.7c0.4-0.6,1-1.2,1.4-1.8c0.4-0.6,0.8-1.1,1.2-1.7c0.5-0.8,1.1-1.6,1.7-2.3
		c0.4-0.6,0.8-1.1,1.1-1.9c-2.2,0.9-4.3,1.8-6.2,2.9c-2,1.1-3.9,2.2-6,3.4c0.1-0.2,0.1-0.5,0.2-0.7c0.7-1.7,1.7-3.2,2.7-4.6
		c1.9-2.6,4-5.1,6.2-7.5c0.2-0.2,0.4-0.4,0.5-0.8c-0.3,0.1-0.5,0.1-0.8,0.2c-1.6,0.5-3.2,1.2-4.7,2c-2,1.1-4,2.3-6,3.4
		C98.7,72.7,98.4,72.8,98.2,73z M152.8,33.1c-0.1,0-0.1-0.1-0.2-0.1c-2-0.5-4-1-5.9-1.5c-1.8-0.5-3.6-0.9-5.4-0.9
		c-3,0-5.8,0.7-8.5,2c-3.3,1.7-6.3,3.9-9,6.6c-0.4,0.4-0.7,0.8-1,1.3c-0.6,1.1-1,2.2-1.5,3.4c-0.1,0.2-0.1,0.3-0.2,0.6
		c2.2-0.9,4.4-0.9,6.7-1.5c-0.7,0.6-1.4,1.1-1.9,1.6c-2.8,2.7-4.2,6-4.6,9.9c-0.2,2.5,0,5.1,0.6,7.6c0,0.1,0,0.3,0,0.5
		c-2.1-1.4-2.7-3.5-3.4-5.6c-0.4,1.4-0.4,2.9-0.8,4.5c-0.4-0.5-0.6-0.8-0.8-1.1c-0.2-0.3-0.4-0.7-0.7-1.1c0,0.2-0.1,0.2-0.1,0.3
		c-0.2,2.9,0.2,5.7,1.2,8.5c1.1,2.8,2.6,5.3,4.3,7.7c0.5,0.8,1.1,1.5,1.6,2.3c0.7,1,0.9,2,0.5,3.1c-0.2,0.7-0.6,1.4-0.9,2.2
		c-0.4,1-1,1.9-1.2,3c-0.2,0.9-0.2,1.8,0.2,2.7c2.4-0.1,4.7-0.3,7.1-0.4c-0.3,0.6-0.8,1.1-1.3,1.6c-1.7,1.3-3.5,2.3-5.5,3.2
		c-1.3,0.6-2.6,1.3-3.8,1.9c0.6,0.8,0.6,0.8,1.4,0.6c2.4-0.6,4.8-1.1,7.2-1.7c0.3-0.1,0.5-0.1,0.9,0c-2.3,1.3-4.5,2.6-6.7,3.9
		c6.9,5.8,15,8.3,23.8,8.9c-0.9-2.2-1.8-4.3-2.8-6.5c2.1,1.8,4.1,3.3,6.3,4.8c0.5-0.9,0.9-1.8,1.3-2.8c-0.2-0.1-0.3-0.2-0.3-0.2
		c-1.2-1.2-2.5-2.3-3.6-3.5c-1.3-1.4-2.4-3.1-3-5c-0.1-0.2-0.1-0.4-0.2-0.7c0.1,0,0.2,0,0.2,0.1c2.2,1.7,4.6,3,7.2,4.2
		c0.2,0.1,0.4,0.3,0.5,0.5c0.2,0.3,0.4,0.6,0.6,1.1c0.6-1.7,1.1-3.3,1.1-5.1c0-0.4,0.1-0.8,0.4-1.1c0.5-0.6,0.9-1.3,1.4-2.1
		c-2.7,0.6-4.9,1.7-6.8,3.6c-0.4-0.7-0.3-1.3-0.1-1.9c0.2-0.5,0.4-0.9,0.5-1.4c0.2-0.7,0.6-1.2,1.1-1.7c0.8-0.9,1.8-1.6,2.8-2.2
		c0.6-0.4,1.3-0.9,2-1.4c-0.3-0.1-0.5-0.2-0.7-0.3c-1-0.4-1.9-0.8-2.9-1.2c-0.3-0.1-0.5-0.3-0.7-0.6c-0.6-0.9-1.2-1.8-1.9-2.6
		c-1-1.4-2.1-2.7-3-4.2c-0.6-1.2-1.1-2.4-1.1-3.8c0.6,0,1.1,0.3,1.5,0.7c0.5,0.5,1,1,1.5,1.5c2,1.9,4.3,3.5,6.9,4.7
		c1.6,0.7,3.2,1.2,4.9,1.4c0.2,0,0.4,0,0.6,0c0.5-0.1,1-0.3,1.4-0.4c2.8-0.6,5.7-1.1,8.5-1.7c1.3-0.3,2.6-0.7,3.8-1.1
		c0.4-0.1,0.8-0.5,1.2-0.7c0.3,0.2,0.6,0.6,0.9,0.9c1.1,0.9,2.4,1.6,3.8,2.1c2.6,0.9,5.1,1.7,7.7,2.5c0.1,0,0.3,0.1,0.5,0
		c0.9-0.3,1.8-0.5,2.7-0.9c0.6-0.2,1.2-0.6,1.6-1.1c-0.7-0.8-1.7-1.4-2.7-1.7c-1.5-0.4-3-0.8-4.5-1.2c-4-1.1-8-2.2-11.8-4
		c-2.1-1-4.1-2.1-5.7-3.8c-0.4-0.4-0.7-0.8-1.1-1.3c-0.1,0.3-0.2,0.5-0.1,0.7c0.2,0.6,0.3,1.3,0.6,1.8c0.7,1.2,1.7,2,2.7,2.9
		c0.3,0.3,0.7,0.6,1.1,1c-0.3,0-0.4,0-0.6,0c-1.5-0.2-3-0.4-4.5-0.7c-0.2,0-0.5-0.1-0.7-0.2c-1.2-0.6-2.3-1.3-3.4-2.1
		c-1.3-1-2.3-2.3-3.1-3.8c-1.1-2.2-1.3-4.5-1.1-6.8c0.2-2.1,0.6-4.2,1.2-6.2c0-0.1,0.1-0.3,0.2-0.5c0,0.2,0.1,0.2,0.1,0.3
		c0.2,1.4,0.3,2.8,0.5,4.2c0.1,0.9,0.2,1.8,0.7,2.6c0.4,0.7,0.8,1.4,1.2,2.3c0.4-0.8,0.7-1.5,1.1-2.2c1-2,0.8-3.9-0.7-5.6
		c-1.3-1.4-2.5-2.8-3.8-4.3c-0.7-0.7-1.3-1.5-1.9-2.3c0.2-0.1,0.4,0,0.5,0c1.2,0.5,2.5,0.9,3.7,1.4c0.9,0.3,1.7,0.7,2.3,1.3
		c0.3,0.3,0.6,0.5,1,0.7c3.5,2.8,6.9,5.6,10.7,8c3.3,2.1,6.6,4.4,10.1,6.2c4.1,2.1,8.4,3.2,12.9,3.7c1.3,0.1,2.5,0.3,3.8,0.6
		c0.7,0.2,1.4,0.3,2.1,0.5c1-2.6,1.2-5.2,0.3-7.8c-0.1-0.3-0.3-0.6-0.5-0.9c-0.3-0.3-0.6-0.3-0.8,0.1c-0.1,0.1-0.1,0.3-0.1,0.5
		c0,0.6-0.1,1.3-0.1,1.9c0,0.7,0.1,1.5,0.2,2.4c-0.6-0.7-1-1.2-1.5-1.8c-0.8-0.9-1.5-1.9-2-3c-0.4-1-0.5-2,0.3-2.9
		c0.2-0.2,0.4-0.5,0.6-0.7c0.5-0.6,1-1.2,1.4-1.9c0.4-0.5,0.3-0.8-0.2-1.1c-0.9-0.6-1.8-1.2-2.8-1.6c-2.5-1-5-1.9-7.6-2.9
		c-3.4-1.2-6.9-2.5-10.1-4.3c-1.8-1-3.6-2.1-5.2-3.4c-0.5-0.4-1-0.9-1.6-1.4c0,0.2,0.1,0.3,0.1,0.4c0.2,0.8,0.8,1.5,1.3,2.1
		c0.7,0.9,1.5,1.7,2.3,2.5c0.3,0.4,0.6,0.8,1,1.2c-0.9,0-1.7,0-2.5,0c-2.1-0.1-4.2-0.4-6.2-1c-1.8-0.6-3.5-1.3-4.8-2.7
		c-1.2-1.3-1.3-2.1-0.7-3.8c0.1-0.4,0.4-0.7,0.8-1c1.1-0.6,2.1-1.5,3.6-1.8c-0.2-0.1-0.3-0.1-0.3-0.2c-0.8-0.5-1.7-0.5-2.7-0.2
		c-1.2,0.4-2.2,1.1-3.2,1.8c-0.7,0.5-1,1.1-1,1.9c-0.1,0.9,0.1,1.7,0.5,2.5c0.3,0.8,0.6,1.6,0.9,2.4c0.1,0.3,0.2,0.7,0.2,1
		c-0.1,0-0.1,0.1-0.2,0.1c-2.5-1.5-4.2-3.6-5.1-6.4c-1.5,0.2-2.9,0.1-4.3-0.2c-1.4-0.3-2.7-0.9-3.9-1.8c1.5-0.4,2.8-0.8,4.2-1.2
		c1.2-0.3,2.5-0.5,3.7-0.9c1.6-0.6,3.2-1.3,4.7-2c1.7-0.8,3.5-1.6,5.4-1.9c1.9-0.3,3.6-0.1,5.3,0.8c0.2,0.1,0.3,0.2,0.6,0.3
		c-0.1-0.2-0.2-0.3-0.2-0.4c-0.6-0.8-1.2-1.5-1.8-2.3c-0.2-0.3-0.5-0.4-0.8-0.4c-2.1,0-4.1,0.2-6.1,0.7c-3.5,0.9-7,2.2-10.5,3.3
		c-0.8,0.3-1.5,0.6-2.3,0.8c-0.3-0.4-0.2-0.8,0-1.1c0.5-0.7,1.1-1.4,1.7-2.1C152.4,33.7,152.7,33.5,152.8,33.1z M168.3,46
		c1.2,0.3,1.8,0.2,2.5-0.1c-0.5-0.7-1-1.4-1.7-1.9C168.9,44.7,169,45.4,168.3,46z M166.4,42.6c-0.5-0.1-1.2-0.2-1.9,0
		c0.1,0.9,0.4,1.6,1,2.1C165.8,44,166.1,43.3,166.4,42.6z M178,68.5c-0.6-0.2-1.1-0.3-1.6-0.5c-0.1,0.7-0.2,1.3-0.3,1.9
		c0,0,0.1,0.1,0.1,0.1C176.8,69.5,177.3,69,178,68.5z M191.2,76.4c0.1,0,0.1,0,0.2,0c0.4-0.7,0.8-1.4,1.2-2.3
		c-0.5-0.1-0.8-0.2-1.2-0.3C191.3,74.8,191.3,75.6,191.2,76.4z M188.6,73.8c-0.3-0.2-0.6-0.4-1.1-0.4c-0.1,0.8-0.3,1.5-0.4,2.4
		C188,75.3,188.1,74.4,188.6,73.8z M198.7,77.3c0.9-0.7,1.3-1.3,1.2-2c-0.4,0-0.8,0-1.1,0C198.8,76,198.7,76.7,198.7,77.3z
		 M180.5,72.1c0,0,0.1,0.1,0.1,0.1c0.4-0.4,0.8-0.9,1.3-1.4c-0.4-0.2-0.8-0.4-1.2-0.6C180.4,70.9,180.6,71.5,180.5,72.1z
		 M185.2,72.2c-0.5-0.2-0.8-0.4-1.2-0.5c0,0.7,0,1.3,0,1.9c0,0,0.1,0,0.1,0C184.4,73.2,184.8,72.8,185.2,72.2z M194.7,76
		c0.1,0,0.1,0,0.2,0c0.4-0.3,0.9-0.7,1.4-1.1c-0.4-0.2-0.7-0.3-1-0.4c-0.3-0.1-0.5,0-0.6,0.3C194.7,75.3,194.7,75.6,194.7,76z"/>
	<path d="M64.4,136.2c0.9-0.2,1.6-0.5,2.4-0.7c1.3-0.4,2.7-0.7,4-1.1c0.5-0.1,0.6-0.1,0.8,0.4c0.2,0.5,0.4,1.1,0.6,1.7
		c0.1,0.2,0.1,0.4,0.2,0.7c0.4-0.3,0.7-0.5,1-0.8c2.6-1.9,5.4-2.5,8.5-1.7c1.7,0.4,3.1,1.4,4.2,2.8c0.2,0.2,0.3,0.4,0.5,0.6
		c0.2-0.2,0.4-0.4,0.6-0.5c1.7-1.6,3.6-2.8,5.9-3.1c2-0.2,3.9-0.2,5.8,0.6c2.5,1,3.7,2.9,3.9,5.5c0.1,1.7,0.1,3.4,0.1,5.1
		c0,5.9,0,11.9,0,17.8c0,0.2,0,0.4,0,0.6c-0.5,0.2-6.6,0.2-7.6,0c0-0.3,0-0.5,0-0.8c0-6.4,0-12.8,0-19.1c0-0.6,0-1.2-0.1-1.8
		c-0.2-1.1-0.6-1.6-1.8-1.7c-0.6,0-1.3,0.1-1.9,0.3c-1.3,0.4-2.4,1.1-3.4,2c-0.1,0.1-0.2,0.3-0.2,0.5c0,0.2,0,0.4,0,0.6
		c0,6.4,0,12.9,0,19.3c0,0.3,0,0.6,0,0.9c-2.4,0-4.8,0-7.3,0c0-1-0.1-1.9-0.1-2.9c0-3,0.1-5.9,0.2-8.9c0.1-3.1,0.1-6.2-0.2-9.3
		c-0.2-1.7-0.8-2.6-3-2.4c-1.6,0.2-2.9,0.9-4.2,1.9c-0.2,0.2-0.3,0.3-0.3,0.6c0,0.2,0,0.4,0,0.6c0,6.5,0,13,0,19.5
		c0,0.3,0,0.6,0,0.9c-2.5,0-5,0-7.5,0c0-0.2-0.1-0.3-0.1-0.5c0-2.4,0-4.8,0-7.2c0-3.9,0.1-7.9,0.1-11.8c0-1.8-0.1-3.7-0.3-5.5
		c-0.1-0.8-0.3-1.5-0.5-2.3C64.6,136.7,64.5,136.5,64.4,136.2z"/>
	<path d="M231.6,165.8c-0.8-0.5-1.6-1-2.3-1.5c-0.7-0.6-1.2-1.2-1.9-1.9c-0.2,0.2-0.4,0.4-0.6,0.6c-1.7,1.5-3.7,2.3-6,2.4
		c-1.7,0.1-3.3,0-5-0.4c-3.3-0.8-5.3-2.9-6-6.2c-0.3-1.7-0.4-3.4,0-5c0.5-2.5,1.9-4.4,4.2-5.6c1.5-0.8,3.2-1.3,4.9-1.6
		c1.9-0.3,3.7-0.3,5.6-0.3c0.3,0,0.7,0,1,0c0-1.3,0-2.6-0.3-3.8c-0.3-0.8-0.8-1.4-1.7-1.5c-1.3-0.3-2.6-0.1-3.9,0.3
		c-1.5,0.4-2.8,1.1-4.2,1.8c-0.6,0.3-1.1,0.7-1.8,1c-1.1-1.9-2.2-3.7-3.3-5.5c0.2-0.2,0.4-0.3,0.6-0.4c2.7-1.5,5.4-2.7,8.5-3.3
		c2.7-0.5,5.4-0.5,8.1,0.2c1.3,0.4,2.5,1,3.5,2c1.4,1.4,2,3.1,2,5.1c0,4.5-0.1,8.9-0.1,13.4c0,0.5,0,1,0.1,1.4c0,1.2,0.6,2.2,1.4,3
		c0.3,0.3,0.6,0.6,0.9,0.9c0.2,0.2,0.2,0.4,0,0.7C234.2,162.8,232.9,164.3,231.6,165.8z M225.5,151.5c-1.2,0.1-2.3,0.2-3.5,0.3
		c-0.7,0.1-1.4,0.3-2,0.5c-1,0.4-1.7,1.2-1.8,2.3c-0.1,0.7-0.2,1.3-0.1,2c0.2,1.7,1.7,3,3.4,2.9c1.4-0.1,2.6-0.7,3.7-1.6
		c0.3-0.2,0.3-0.5,0.3-0.8c0-1.6,0-3.3,0.1-4.9C225.5,151.9,225.5,151.8,225.5,151.5z"/>
	<path d="M107.5,149.6c-0.1-2.8,0.4-5.5,1.6-8.1c1.5-3.3,4-5.7,7.6-6.8c1.8-0.5,3.6-0.6,5.4-0.5c6.2,0.4,10.8,5.5,11.6,11.2
		c0.4,3.1,0.4,6.3-0.3,9.4c-0.7,2.7-2,5.1-4.1,7c-1.9,1.7-4.1,2.7-6.6,2.9c-2.3,0.2-4.5,0.1-6.7-0.7c-3.7-1.4-6.1-4.1-7.4-7.8
		C107.7,154.2,107.4,151.9,107.5,149.6z M116,149.5c0.1,1.3,0.1,2.5,0.2,3.8c0.1,1.2,0.3,2.5,0.9,3.6c0.7,1.4,1.9,2.1,3.5,2.2
		c1.7,0.1,3-0.6,3.7-2.1c0.4-0.7,0.6-1.5,0.8-2.3c0.6-3,0.6-6,0.3-9c-0.1-1.2-0.4-2.4-0.9-3.4c-0.7-1.4-1.9-2.2-3.4-2.2
		c-1.7,0-3,0.7-3.7,2.2c-0.3,0.6-0.5,1.3-0.7,2C116.1,146,116,147.8,116,149.5z"/>
	<path d="M147.6,158.8c4.4,0,8.7,0,13.2,0c-0.6,1.9-1.2,3.7-1.8,5.4c-7.2,0-14.4,0-21.6,0c0-0.2,0-0.4,0-0.6c0-1.1,0-2.2,0-3.3
		c0-0.6,0.1-1.1,0.5-1.6c4.2-5.8,8.4-11.6,12.6-17.4c0.1-0.2,0.3-0.4,0.5-0.8c-4.2,0-8.3,0-12.5-0.1c0-1.8,0-3.6,0-5.3
		c0.5-0.1,20.9-0.2,21.8,0c0,0.2,0,0.5,0,0.7c0,1.3,0,2.5,0,3.8c0,0.5-0.1,0.9-0.4,1.3c-3.6,5.1-7.1,10.2-10.7,15.3
		c-0.6,0.8-1.1,1.6-1.6,2.4C147.6,158.7,147.6,158.7,147.6,158.8z"/>
	<path d="M190.5,159.6c0.4,1.5,0.9,3,1.4,4.6c-0.6,0.2-1.2,0.3-1.8,0.4c-1.5,0.4-3.1,0.5-4.7,0.2c-3.3-0.6-5.4-3-5.5-6.4
		c-0.1-2.2-0.1-4.5-0.1-6.7c0-7,0-14-0.1-21c0-1.9-0.2-3.8-0.2-5.8c0-0.4,0-0.8,0-1.3c2.5-0.6,5-1.2,7.6-1.7
		c0.2,0.9,0.3,1.8,0.3,2.7c0,1.4,0,2.7,0,4.1c0,8.6,0.1,17.3,0.1,25.9c0,1,0.1,2,0.1,3c0,0.3,0.1,0.7,0.2,1c0.3,0.7,0.8,1.1,1.6,1.1
		C189.9,159.6,190.2,159.6,190.5,159.6z"/>
	<path d="M195.1,123.5c2.5-0.6,5-1.2,7.6-1.7c0.1,0.3,0.1,0.5,0.1,0.7c0.1,0.9,0.2,1.8,0.2,2.6c0,8.7,0.1,17.4,0.1,26
		c0,1.6,0,3.2,0,4.8c0,0.5,0,1.1,0.1,1.6c0.2,1.5,0.9,2.1,2.4,2c0.1,0,0.2,0,0.4,0c0.4,1.5,0.8,3,1.3,4.6c-0.4,0.1-0.7,0.2-1,0.3
		c-1.9,0.5-3.8,0.7-5.8,0.2c-2.8-0.8-5-2.5-5-6.3c-0.2-8.7-0.1-17.3-0.2-26c0-2.4-0.2-4.8-0.2-7.2
		C195.1,124.7,195.1,124.2,195.1,123.5z"/>
	<path d="M173.7,134.1c0,10.1,0,20.1,0,30.1c-2.6,0-5.1,0-7.6,0c-0.1-0.5-0.2-27.4-0.1-28.9C168.5,135,171.1,134.6,173.7,134.1z"/>
	<path d="M233.1,185.9c-0.9,0-1.8,0-2.7,0c-0.4,0-0.4-0.3-0.5-0.5c-0.8-1.6-1.5-3.1-2.3-4.7c-0.4-0.9-0.9-1.9-1.3-2.8
		c-0.1-0.2-0.2-0.4-0.4-0.6c0,2.8,0.1,5.6,0.1,8.5c-1,0-1.9,0-2.9,0c0-4.5,0-8.9,0-13.4c0.4,0,0.8,0,1.2,0c0.5,0,1,0,1.6,0
		c0.4,0,0.6,0.1,0.8,0.5c1.2,2.4,2.3,4.8,3.5,7.2c0,0.1,0.1,0.2,0.2,0.2c0.1-2.6-0.1-5.2-0.1-7.9c0.9,0,1.8,0,2.7,0
		C233.2,173,233.3,184.5,233.1,185.9z"/>
	<path d="M128,172.5c1,0,1.8,0,2.7,0c0,4.5,0,8.9,0,13.4c-0.9,0-1.9,0-2.8,0c-0.1,0-0.3-0.2-0.4-0.4c-0.4-0.7-0.7-1.5-1.1-2.2
		c-0.9-1.8-1.7-3.7-2.6-5.5c-0.1-0.2-0.2-0.4-0.4-0.6c0,2.8,0.1,5.7,0.1,8.6c-1,0-1.9,0-2.8,0c0-4.5,0-8.9,0-13.4c1.1,0,2.2,0,3.3,0
		c1.3,2.7,2.6,5.3,4,8.1C128.1,177.8,128,175.2,128,172.5z"/>
	<path d="M140.1,185.9c0-4.5,0-8.9,0-13.4c0.1,0,0.2-0.1,0.3-0.1c1.7,0,3.3,0,5,0.1c2.6,0.2,4.4,1.6,5,4.1c0.5,1.9,0.5,3.7-0.2,5.5
		c-0.7,1.8-1.9,3.1-3.9,3.6c-0.3,0.1-0.6,0.1-0.9,0.1C143.6,185.9,141.9,185.9,140.1,185.9z M143.4,174.8c0,3,0,6.1,0,9.1
		c1,0.1,1.4,0,2-0.5c2-1.7,2.6-4.9,1.2-7.2C145.8,174.9,145,174.5,143.4,174.8z"/>
	<path d="M214.9,179.1c0,1.1-0.1,2.2-0.5,3.3c-0.9,2.1-2.4,3.3-4.7,3.5c-0.9,0.1-1.9,0.1-2.8-0.1c-1.8-0.3-3.1-1.4-3.9-3.1
		c-1-2.3-1-4.6,0-6.9c0.9-2,2.5-2.9,4.5-3.2c1-0.1,2-0.1,3,0.1c2.7,0.7,4.3,2.7,4.5,5.6C214.9,178.5,214.9,178.8,214.9,179.1z
		 M211.4,179.3c0-0.8,0-1.4-0.1-2c-0.1-1.1-0.5-2-1.6-2.5c-1.6-0.7-3.2-0.1-3.8,1.6c-0.1,0.2-0.1,0.3-0.1,0.5
		c-0.3,1.5-0.3,3.1,0,4.6c0.3,1.7,1.3,2.4,3,2.3c0.9,0,1.6-0.4,2-1.2c0.2-0.4,0.4-0.7,0.4-1.1C211.3,180.7,211.4,179.9,211.4,179.3z
		"/>
	<path d="M92.5,179.2c0.1,1.2-0.1,2.4-0.6,3.5c-0.9,1.9-2.4,3-4.5,3.2c-1,0.1-2,0.1-2.9-0.1c-2.4-0.5-4.1-2.4-4.5-4.9
		c-0.2-1.2-0.2-2.4,0.1-3.6c0.6-2.8,2.3-4.4,5.1-4.8c1.1-0.1,2.1-0.1,3.2,0.2c2.4,0.7,4,2.7,4.2,5.2
		C92.5,178.3,92.5,178.8,92.5,179.2z M89.1,179.3c-0.1-0.9-0.1-1.6-0.2-2.3c-0.2-1.1-0.8-2.1-2-2.3c-1.7-0.4-2.9,0.3-3.4,1.9
		c-0.5,1.7-0.5,3.4-0.1,5.2c0.4,1.7,1.7,2.4,3.6,2c1-0.2,1.5-1,1.7-1.9C89,180.9,89,180,89.1,179.3z"/>
	<path d="M108.5,172.5c1.1,0,2.1,0,3.2,0c0,0.2,0.1,0.4,0.1,0.6c0,2.5,0,5,0,7.6c0,0.6-0.1,1.3-0.2,1.9c-0.4,1.7-1.5,2.8-3.3,3.2
		c-1.4,0.3-2.7,0.3-4.1-0.1c-1.5-0.4-2.5-1.4-3-2.9c-0.2-0.6-0.3-1.2-0.3-1.8c0-2.7,0-5.4,0-8.1c0-0.1,0-0.2,0-0.4
		c1.1,0,2.1,0,3.2,0c0,0.3,0,0.5,0,0.8c0,2.3,0,4.6,0,6.9c0,0.6,0.1,1.2,0.2,1.8c0.2,1,1,1.5,2,1.5c1,0,1.7-0.6,2-1.5
		c0.1-0.6,0.2-1.2,0.2-1.8c0-2.3,0-4.6,0-6.9C108.5,173.1,108.5,172.8,108.5,172.5z"/>
	<path d="M161.3,172.5c1.2,0,2.2,0,3.3,0c1.5,4.4,3,8.9,4.6,13.3c-0.5,0.2-2,0.3-3.2,0.1c-0.3-1-0.7-2.1-1-3.2c-1.4,0-2.8,0-4.2,0
		c-0.3,1.1-0.7,2.1-1,3.2c-1.1,0-2.1,0-3.2,0C158.1,181.4,159.7,176.9,161.3,172.5z M164.1,180.4c-0.4-1.5-0.8-2.9-1.2-4.4
		c0,0-0.1,0-0.1,0c-0.4,1.4-0.9,2.9-1.3,4.3C162.4,180.4,163.2,180.4,164.1,180.4z"/>
	<path d="M169.9,122c2.8-0.1,4.7,2.3,4.7,4.8c0,2.8-2.3,4.7-4.8,4.7c-2.6-0.1-4.6-2.2-4.6-4.9C165.2,124.3,167.1,121.9,169.9,122z"
		/>
	<path d="M68.5,185.9c-1.1,0-2,0-3,0c0-4.5,0-8.9,0-13.3c0.6-0.2,7.3-0.2,8.2,0c-0.1,0.7-0.2,1.3-0.3,2.1c-0.8,0-1.6,0-2.3,0
		c-0.8,0-1.6,0-2.5,0c0,1,0,2,0,3c1.3,0,2.5,0,3.8,0c0,0.8,0,1.5,0,2.3c-1.3,0-2.5,0-3.8,0c0,1,0,2,0,3
		C68.5,183.9,68.5,184.9,68.5,185.9z"/>
	<path d="M177,174.8c-1.3,0-2.4,0-3.6,0c0-0.8,0-1.5,0-2.3c3.6,0,7.1,0,10.7,0c-0.2,0.8-0.3,1.5-0.5,2.3c-1.2,0-2.3,0-3.5,0
		c0,3.7,0,7.4,0,11.1c-1.1,0-2,0-3.1,0C177,182.2,177,178.6,177,174.8z"/>
	<path d="M190.6,172.5c1.1,0,2.1,0,3.1,0c0.2,0.5,0.2,12.5,0,13.4c-1,0-2.1,0-3.1,0C190.6,181.4,190.6,177,190.6,172.5z"/>
	<path d="M139.2,79.2c-0.6-0.4-1.1-0.8-1.7-1.2c-1.8-1.4-3.6-2.9-5.1-4.7c-0.9-1-1.2-2.2-1-3.4c0.1-0.7,0.2-1.4,0.4-2
		c0.3-1.3,0.4-2.6,0.2-4c-0.3-2.4,0.1-4.7,1.4-6.8c0.7-1.3,1.7-2.4,3-3.4c0,0.2,0.1,0.4,0.1,0.6c-0.1,0.3-0.2,0.6-0.3,0.9
		c-1.7,2.6-1.7,5.2-0.6,8c0.6,1.6,1.6,2.9,2.6,4.3c1.1,1.4,2.2,2.8,3.3,4.2c0.2,0.3,0.5,0.6,0.7,1c-0.4,0.1-0.7,0-1,0
		c-2-0.4-3.9-1.1-5.8-1.8c-0.3-0.1-0.7-0.3-1.1-0.4c0,0.7,0.3,1.2,0.6,1.7c1,2.2,2.4,4.1,3.9,5.9C138.9,78.3,139.2,78.7,139.2,79.2z
		"/>
	<path d="M153.4,53.5c-0.3,0.1-0.5,0.1-0.6,0.1c-1.6-0.2-3.1-0.5-4.7-0.6c-1.4-0.1-2.8-0.1-4.2-0.1c-1.8,0-3.6,0.3-5.4,0.6
		c-0.3,0.1-0.5,0-0.7-0.3c0.6-0.6,1.4-1,2.1-1.4c1.6-0.9,3.4-1.4,5.2-2c0.3-0.1,0.6-0.2,1-0.4c-0.9-0.9-2.1-1.1-3-2
		c2.1-0.7,4.2-1,6.4-1.2c-0.8-1.3-2-2.3-2.4-3.9c3.2,0.9,5.6,2.8,8,5c-1.5,0.4-2.8,0.7-4.3,1.1C151.5,50.2,152.4,51.8,153.4,53.5z"
		/>
	<path d="M146.2,36.3c-0.7,0.5-1.4,0.9-2.1,1.4c-0.8,0.5-1.7,1-2.6,1.5c-0.5,0.3-0.9,0.8-1.1,1.4c-0.4,1.4-0.7,2.8-0.7,4.2
		c0,1.2,0,2.4,0,3.6c-0.3,0.2-0.5,0-0.8-0.2c-2-1.4-3.2-3.2-3.5-5.7c0-0.1,0-0.1,0-0.2c0,0,0,0-0.1-0.2c-1.6,0.6-2.8,1.7-4,2.9
		c-0.4-0.3-0.3-0.6-0.2-0.9c0.3-1.2,0.7-2.3,1.4-3.2c0.8-1.2,1.7-2.4,3-3.2c0.5-0.3,0.9-0.6,1.4-0.8c2.1-0.7,4.3-1.2,6.6-1.1
		c0.9,0.1,1.7,0.2,2.6,0.3C146.1,36.2,146.1,36.3,146.2,36.3z"/>
	<path d="M162.3,46.9c1.9,2,4.4,2.6,6.9,3.2c1.3,0.3,2.6,0.7,3.8,1.3c-0.2,0.1-0.3,0.2-0.4,0.2c-2.3,0.3-4.6,0.1-6.9-0.2
		c-1-0.2-1.7-0.8-2.2-1.6c-0.3-0.4-0.5-0.8-0.7-1.2c-0.2-0.5-0.4-1-0.6-1.5C162.2,47,162.2,47,162.3,46.9z"/>
</g>
</svg>
