<?xml version="1.0" encoding="utf-8"?>
<!-- Generator: Adobe Illustrator 22.0.0, SVG Export Plug-In . SVG Version: 6.00 Build 0)  -->
<svg version="1.1" id="Layer_2" xmlns="http://www.w3.org/2000/svg" xmlns:xlink="http://www.w3.org/1999/xlink" x="0px" y="0px"
	 viewBox="0 0 300 211.3" style="enable-background:new 0 0 300 211.3;" xml:space="preserve">
<style type="text/css">
	.st0{fill:#008B9C;}
	.st1{fill:#FFFFFF;}
</style>
<g>
	<rect x="153.7" y="44.4" class="st0" width="122.6" height="122.6"/>
	<g>
		<polygon class="st1" points="192.7,83.3 201.9,83.3 201.9,94.9 213.4,94.9 213.4,104.1 201.9,104.1 201.9,115.6 192.7,115.6 
			192.7,104.1 181.2,104.1 181.2,94.9 192.7,94.9 		"/>
		<g>
			<path class="st1" d="M227.2,108.3h4c6.4-0.1,9-2.6,9-9.2c0-6-3.1-8.8-9-8.8h-4V108.3z M218.8,83.1h14c10,0,16,6.1,16,16.1
				c0,10.7-6.1,16.4-16,16.4h-14V83.1z"/>
		</g>
	</g>
	<rect x="23.7" y="44.3" class="st0" width="122.5" height="122.5"/>
	<g>
		<path class="st1" d="M99.4,95.3c0.4,3.4,3.2,5,6.6,5c2.3,0,4.8-0.7,6.5-2.4c0.1,0.6,0.2,1.2,0.4,1.9h6.5c-0.7-1.5-0.8-3.5-0.8-5.1
			v0.3v-0.3v-5v-3.6c0-2-0.6-3.4-1.6-4.4h0c-1.7-1.8-4.6-2.2-7.6-2.2c-2.2,0-4.5,0.4-6.2,1.4c-0.4,0.2-0.8,0.5-1.1,0.8
			c-1.1,1-1.9,2.5-2,4.4h6c0.3-1.7,1.4-2.5,3.2-2.5c1.3,0,3.1,0.6,3.1,2c0,1.2-0.6,1.6-1.7,1.8c-2.8,0.6-6.6,0.6-9,2.1
			c-1.4,0.9-2.4,2.3-2.4,4.7 M105.8,94c0-1.5,1.2-2.2,2.6-2.5c1.4-0.4,3.1-0.5,4-1.1c0.1,2-0.1,3.5-0.8,4.4
			c-0.6,0.9-1.6,1.3-3.1,1.3c-1.1,0-2.1-0.7-2.5-1.7"/>
		<path class="st1" d="M48.8,89.6c-0.8-0.7-1.9-1.4-3.4-1.7c-2.9-0.6-7.3-1-7.3-2.8c0-1.4,1.7-1.5,2.8-1.5c0.8,0,1.5,0.2,2,0.5
			c0.5,0.3,0.8,0.9,0.8,1.7h5.9C49.7,84,49,82.6,48,81.7c-1.7-1.7-4.6-2.2-7.3-2.2c-2.5,0-5.5,0.5-7.3,2.2h0c-1,0.9-1.7,2.2-1.7,3.8
			c0,2,0.7,3.3,1.9,4.1c1.8,1.4,4.7,1.7,7.2,2.3C42,92.2,44,92.5,44,94c0,0.4-0.1,0.7-0.3,0.9h0c-0.5,0.8-1.8,1.2-2.8,1.2
			c-0.9,0-1.8-0.2-2.4-0.7c-0.2-0.1-0.3-0.3-0.5-0.5c-0.4-0.4-0.6-1-0.6-1.7h-6.1c0,0.6,0.1,1.2,0.2,1.7h0c1,4.1,5.2,5.3,9.4,5.3
			c3.9,0,8.3-1.4,9.2-5.3h0c0.1-0.5,0.2-1.1,0.2-1.7C50.4,92.2,50.1,90.8,48.8,89.6"/>
		<path class="st1" d="M83.8,81.7c-0.3,0.3-0.6,0.7-0.8,1.1l0-1.1l0-1.6h-6.2v1.6v7.6v0.3v5.3v4.7h6.4v-4.7v-5.3v-0.3V89
			c0-2.2,1.1-4.2,3.5-4.2c3.1,0,3.2,2.1,3.2,4.5h0v0.9v4.7v4.7h6.4v-4.7v-5.3v-0.3v-2.2c0-1.6-0.2-3.8-1.5-5.4
			c-1-1.3-2.7-2.2-5.6-2.2C87.2,79.5,85.1,80.3,83.8,81.7"/>
		<path class="st1" d="M72.1,94.9c0.8-1.5,1.2-3.2,1.2-5c0-0.1,0-0.2,0-0.3c-0.1-3.3-1.5-6.1-3.8-8v0c-1.7-1.4-4-2.2-6.5-2.2
			c-2.6,0-4.8,0.8-6.5,2.2h0c-2.3,1.8-3.7,4.7-3.8,8c0,0.1,0,0.2,0,0.3c0,1.9,0.4,3.6,1.2,5c1.7,3.2,5,5.3,9.1,5.3
			C67.1,100.2,70.4,98.1,72.1,94.9 M66.9,89.9c0,1.9-0.6,4.2-2.2,5c-0.5,0.3-1,0.4-1.7,0.4c-0.7,0-1.2-0.1-1.7-0.4
			c-1.7-0.9-2.2-3.1-2.2-5c0-0.1,0-0.2,0-0.3c0.1-2.4,1-5.2,3.9-5.2c2.9,0,3.9,2.8,3.9,5.2C66.9,89.7,66.9,89.8,66.9,89.9"/>
	</g>
	<rect x="60.2" y="69.8" class="st1" width="5.3" height="7.8"/>
	<g>
		<path class="st1" d="M123.1,89.6v5.3v4.7h6.4v-4.7v-5c0-0.1,0-0.2,0-0.3c0.1-2.3,1.8-4.3,4.8-4.3c0.9,0,1.6,0.1,2.5,0.4v-4v-1.8
			c-0.5-0.1-1-0.2-1.5-0.2c-2,0-3.7,0.7-4.8,2c-0.5,0.5-0.8,1.1-1.1,1.8l0-1.8l0-1.6h-6.2v1.6V89.6z"/>
		<path class="st1" d="M139.4,71.5c-0.2-0.4-0.4-0.7-0.7-1c-0.3-0.3-0.6-0.5-1-0.7c-0.4-0.2-0.8-0.2-1.2-0.2c-0.4,0-0.8,0.1-1.2,0.2
			c-0.4,0.2-0.7,0.4-1,0.7c-0.3,0.3-0.5,0.6-0.7,1c-0.2,0.4-0.3,0.8-0.3,1.2c0,0.5,0.1,0.9,0.3,1.3c0.2,0.4,0.4,0.7,0.7,1
			c0.3,0.3,0.6,0.5,1,0.7c0.4,0.2,0.8,0.2,1.2,0.2c0.4,0,0.8-0.1,1.2-0.2c0.4-0.2,0.7-0.4,1-0.7c0.3-0.3,0.5-0.6,0.7-1
			c0.2-0.4,0.2-0.8,0.2-1.3C139.7,72.3,139.6,71.9,139.4,71.5 M139,73.8c-0.1,0.3-0.3,0.6-0.6,0.9c-0.2,0.2-0.5,0.4-0.8,0.6
			c-0.3,0.1-0.7,0.2-1,0.2c-0.4,0-0.7-0.1-1-0.2c-0.3-0.1-0.6-0.3-0.8-0.6c-0.2-0.3-0.4-0.5-0.6-0.9c-0.1-0.3-0.2-0.7-0.2-1.1
			c0-0.4,0.1-0.7,0.2-1.1c0.1-0.3,0.3-0.6,0.6-0.9c0.2-0.2,0.5-0.4,0.8-0.6c0.3-0.1,0.7-0.2,1-0.2c0.4,0,0.7,0.1,1,0.2
			c0.3,0.1,0.6,0.3,0.8,0.6c0.2,0.2,0.4,0.5,0.6,0.9c0.1,0.3,0.2,0.7,0.2,1.1C139.2,73.1,139.1,73.5,139,73.8"/>
		<path class="st1" d="M136.1,72.6h0.7c0.3,0,0.5-0.1,0.5-0.4c0-0.3-0.2-0.4-0.5-0.4h-0.7V72.6z M135.4,71.1h1.7
			c0.6,0,0.9,0.4,0.9,0.9c0,0.4-0.1,0.6-0.5,0.8v0c0.3,0.1,0.4,0.4,0.5,0.7c0,0.2,0,0.6,0.1,0.7h-0.7c-0.1-0.2-0.1-0.5-0.1-0.7
			c0-0.3-0.2-0.5-0.5-0.5h-0.7v1.2h-0.7V71.1z"/>
	</g>
	<path class="st1" d="M66.1,129c0-2.9,1.3-5.5,3.5-7.5c1.9-1.7,4.1-2.8,5.9-3.9c1.7-1.1,2.9-2.2,2.9-3.7c0-1.8-1.1-2.8-2.9-2.8
		c-2.9,0-3.7,2.1-3.7,4.5h-5.1c-0.4-5.6,3.3-9.4,8.8-9.4c4.4,0,8.4,2.3,8.4,7.1c0,4.4-3.1,5.9-6.4,8c-1.7,1-2.6,1.6-4.1,3h10.7v4.6
		H66.1z"/>
	<path class="st1" d="M86.2,117.8c0-6,2.4-11.5,8.8-11.5c6.6,0,9.2,5.5,9.2,11.5c0,6-2.6,11.5-9.2,11.5
		C88.7,129.3,86.2,123.8,86.2,117.8z M98.9,117.8c0-2.9-0.1-7.1-3.7-7.1c-3.5,0-3.7,4.1-3.7,7.1c0,2.9,0.2,7.1,3.7,7.1
		C98.8,124.9,98.9,120.7,98.9,117.8z"/>
	<path class="st1" d="M105.7,115.2v-4c3.2,0.1,6.4-1.1,6.6-4.6h4.5V129h-5.8v-13.8H105.7z"/>
	<path class="st1" d="M119.8,106.5h16.3v4.4c-1,0.8-3.3,3.9-4.8,7.3c-1.8,4-2.3,7.8-2.4,10.8H123c0.1-2.6,0.9-6.9,3-10.8
		c1.5-3.5,3.8-6.2,4.5-6.6v-0.1h-10.8V106.5z"/>
</g>
</svg>
