<?xml version="1.0" encoding="utf-8"?>
<!-- Generator: Adobe Illustrator 22.0.0, SVG Export Plug-In . SVG Version: 6.00 Build 0)  -->
<svg version="1.1" id="Layer_2_1_" xmlns="http://www.w3.org/2000/svg" xmlns:xlink="http://www.w3.org/1999/xlink" x="0px" y="0px"
	 viewBox="0 0 300 211.3" style="enable-background:new 0 0 300 211.3;" xml:space="preserve">
<style type="text/css">
	.st0{fill-rule:evenodd;clip-rule:evenodd;fill:#2E3191;}
	.st1{fill-rule:evenodd;clip-rule:evenodd;fill:#FFFFFF;}
	.st2{fill-rule:evenodd;clip-rule:evenodd;fill:#EC1C24;}
	.st3{fill:#FFFFFF;}
</style>
<g>
	<path class="st0" d="M147.1,174.6c39.9,0,72.2-32.3,72.2-72.2c0-39.9-32.3-72.2-72.2-72.2c-39.9,0-72.2,32.3-72.2,72.2
		C74.9,142.3,107.3,174.6,147.1,174.6L147.1,174.6z"/>
	<path class="st1" d="M146.4,129.2c-1.5-0.3-5.7-4.1-5.7-4.1l-1.3,1.2c0,0,3.1,3.6,4.9,6L146.4,129.2L146.4,129.2z"/>
	<path class="st1" d="M126.7,143.8c0.5,0,0.8-0.4,0.8-0.8c0-0.5-0.4-0.8-0.8-0.8c-0.5,0-0.8,0.4-0.8,0.8
		C125.8,143.4,126.2,143.8,126.7,143.8L126.7,143.8z"/>
	<path class="st1" d="M127.4,150.5c0.4,0,0.6-0.3,0.6-0.6c0-0.4-0.3-0.6-0.6-0.6c-0.4,0-0.6,0.3-0.6,0.6
		C126.8,150.2,127.1,150.5,127.4,150.5L127.4,150.5z"/>
	<path class="st1" d="M157.3,144.2c0.3,0,0.6-0.3,0.6-0.6c0-0.3-0.3-0.6-0.6-0.6c-0.3,0-0.6,0.3-0.6,0.6
		C156.7,143.9,157,144.2,157.3,144.2L157.3,144.2z"/>
	<path class="st1" d="M177.6,131.8c0.2,0,0.4-0.2,0.4-0.4c0-0.2-0.2-0.4-0.4-0.4c-0.2,0-0.4,0.2-0.4,0.4
		C177.1,131.6,177.3,131.8,177.6,131.8L177.6,131.8z"/>
	<path class="st1" d="M178.1,139.8c0.2,0,0.4-0.2,0.4-0.4c0-0.2-0.2-0.4-0.4-0.4c-0.2,0-0.4,0.2-0.4,0.4
		C177.7,139.7,177.9,139.8,178.1,139.8L178.1,139.8z"/>
	<path class="st1" d="M181.9,155c0.5,0,0.8-0.4,0.8-0.8c0-0.5-0.4-0.8-0.8-0.8c-0.5,0-0.9,0.4-0.9,0.8
		C181.1,154.7,181.5,155,181.9,155L181.9,155z"/>
	<path class="st1" d="M182.8,128.4c0.5,0,0.9-0.4,0.9-0.9c0-0.5-0.4-0.9-0.9-0.9c-0.5,0-0.9,0.4-0.9,0.9
		C181.9,128,182.3,128.4,182.8,128.4L182.8,128.4z"/>
	<path class="st1" d="M183,133.3c0.2,0,0.4-0.2,0.4-0.4c0-0.2-0.2-0.4-0.4-0.4c-0.2,0-0.4,0.2-0.4,0.4
		C182.6,133.1,182.8,133.3,183,133.3L183,133.3z"/>
	<path class="st1" d="M191.2,124c0.2,0,0.4-0.2,0.4-0.4c0-0.2-0.2-0.4-0.4-0.4c-0.2,0-0.4,0.2-0.4,0.4
		C190.8,123.8,191,124,191.2,124L191.2,124z"/>
	<path class="st1" d="M199.3,133.2c0.3,0,0.6-0.2,0.6-0.6c0-0.3-0.2-0.6-0.6-0.6c-0.3,0-0.6,0.2-0.6,0.6
		C198.7,132.9,199,133.2,199.3,133.2L199.3,133.2z"/>
	<path class="st1" d="M202.9,131.5c0.4,0,0.7-0.3,0.7-0.7c0-0.4-0.3-0.7-0.7-0.7c-0.4,0-0.7,0.3-0.7,0.7
		C202.1,131.2,202.5,131.5,202.9,131.5L202.9,131.5z"/>
	<path class="st1" d="M192.6,139.2c0.4,0,0.7-0.3,0.7-0.7c0-0.4-0.3-0.7-0.7-0.7c-0.4,0-0.7,0.3-0.7,0.7
		C191.9,138.9,192.2,139.2,192.6,139.2L192.6,139.2z"/>
	<path class="st1" d="M199.9,142.6c0.2,0,0.4-0.2,0.4-0.4c0-0.2-0.2-0.4-0.4-0.4c-0.2,0-0.4,0.2-0.4,0.4
		C199.6,142.4,199.7,142.6,199.9,142.6L199.9,142.6z"/>
	<path class="st1" d="M153,48.4c0.5,0,0.9-0.4,0.9-0.9c0-0.5-0.4-0.9-0.9-0.9c-0.5,0-0.9,0.4-0.9,0.9C152.1,48,152.5,48.4,153,48.4
		L153,48.4z"/>
	<path class="st1" d="M149.5,39.2c0.3,0,0.5-0.2,0.5-0.5c0-0.3-0.2-0.5-0.5-0.5c-0.3,0-0.5,0.2-0.5,0.5
		C149,39,149.2,39.2,149.5,39.2L149.5,39.2z"/>
	<path class="st1" d="M148.6,50.5c0.2,0,0.3-0.1,0.3-0.3c0-0.2-0.1-0.3-0.3-0.3c-0.2,0-0.3,0.1-0.3,0.3
		C148.4,50.4,148.5,50.5,148.6,50.5L148.6,50.5z"/>
	<path class="st1" d="M134.9,51.9c0.4,0,0.6-0.3,0.6-0.6c0-0.4-0.3-0.6-0.6-0.6c-0.4,0-0.6,0.3-0.6,0.6
		C134.3,51.6,134.6,51.9,134.9,51.9L134.9,51.9z"/>
	<path class="st1" d="M133.7,50.4c0.2,0,0.3-0.1,0.3-0.3c0-0.2-0.1-0.3-0.3-0.3c-0.2,0-0.3,0.1-0.3,0.3
		C133.4,50.3,133.6,50.4,133.7,50.4L133.7,50.4z"/>
	<path class="st1" d="M162.2,63.6c0.3,0,0.6-0.3,0.6-0.6c0-0.3-0.3-0.6-0.6-0.6c-0.3,0-0.6,0.3-0.6,0.6
		C161.6,63.3,161.9,63.6,162.2,63.6L162.2,63.6z"/>
	<path class="st1" d="M169.7,99.5c0,0,10.9,3.3,7.2,12.7c0,0-4.7,9.5-18.7,4.9l-2.9,2.6l-0.1-9.1l4.1,3.1c0,0,9.4,2.5,9.5-2.8
		c0,0-0.5-2-7.7-4.2c0,0-8.4-2.6-6.5-9.9c0,0,1.3-11.5,17.9-6.8l2.9-1.6l0,8.8l-3.6-3.5c0,0-7.5-2.4-8.6,1.2
		C162.1,98.8,167,98.5,169.7,99.5L169.7,99.5z"/>
	<polygon class="st1" points="186,89.4 198.5,89.4 208.6,113.7 211.9,116.9 194.9,116.9 197.6,114.2 196.2,110.6 187,110.6 
		185.9,114.4 187.8,116.9 179.7,116.9 182.5,114.2 189.2,92.8 186,89.4 	"/>
	<polygon class="st0" points="195,106.8 191.1,97.3 188.1,106.8 195,106.8 	"/>
	<path class="st1" d="M144.8,46.5c0.5,0,0.9-0.4,0.9-0.9c0-0.5-0.4-0.9-0.9-0.9c-0.5,0-0.9,0.4-0.9,0.9
		C143.9,46.1,144.3,46.5,144.8,46.5L144.8,46.5z"/>
	<path class="st1" d="M122.4,66c0.3,0,0.6-0.3,0.6-0.6c0-0.3-0.3-0.6-0.6-0.6c-0.3,0-0.6,0.3-0.6,0.6C121.7,65.7,122,66,122.4,66
		L122.4,66z"/>
	<path class="st1" d="M124.2,69.1c0.3,0,0.6-0.3,0.6-0.6c0-0.3-0.3-0.6-0.6-0.6c-0.3,0-0.6,0.3-0.6,0.6
		C123.6,68.8,123.9,69.1,124.2,69.1L124.2,69.1z"/>
	<path class="st1" d="M129.6,76.1c0.2,0,0.3-0.1,0.3-0.3c0-0.2-0.1-0.3-0.3-0.3c-0.2,0-0.3,0.1-0.3,0.3
		C129.3,76,129.4,76.1,129.6,76.1L129.6,76.1z"/>
	<path class="st1" d="M136.4,52.4c0.2,0,0.3-0.1,0.3-0.3s-0.1-0.3-0.3-0.3c-0.2,0-0.3,0.1-0.3,0.3S136.3,52.4,136.4,52.4L136.4,52.4
		z"/>
	<path class="st1" d="M135.6,55.9c0.3,0,0.5-0.2,0.5-0.5c0-0.3-0.2-0.5-0.5-0.5c-0.3,0-0.5,0.2-0.5,0.5
		C135.1,55.7,135.3,55.9,135.6,55.9L135.6,55.9z"/>
	<path class="st1" d="M146,52.4c0.3,0,0.5-0.2,0.5-0.5c0-0.3-0.2-0.5-0.5-0.5c-0.3,0-0.5,0.2-0.5,0.5
		C145.5,52.2,145.7,52.4,146,52.4L146,52.4z"/>
	<path class="st1" d="M152.3,56.1c0.3,0,0.5-0.2,0.5-0.5c0-0.3-0.2-0.5-0.5-0.5c-0.3,0-0.5,0.2-0.5,0.5
		C151.8,55.9,152,56.1,152.3,56.1L152.3,56.1z"/>
	<path class="st1" d="M194.6,143.4c0.6,0,1.1-0.5,1.1-1.1c0-0.6-0.5-1.1-1.1-1.1c-0.6,0-1.1,0.5-1.1,1.1
		C193.6,142.9,194,143.4,194.6,143.4L194.6,143.4z"/>
	<polygon class="st1" points="194,141.4 194.7,139.5 195.3,141.4 194,141.4 	"/>
	<polygon class="st1" points="194,143.1 194.7,145 195.3,143.1 194,143.1 	"/>
	<polygon class="st1" points="193.8,143 191.9,142.3 193.7,141.7 193.8,143 	"/>
	<polygon class="st1" points="195.5,143 197.4,142.3 195.5,141.7 195.5,143 	"/>
	<path class="st1" d="M192.7,128.2c0.4,0,0.7-0.3,0.7-0.7c0-0.4-0.3-0.7-0.7-0.7c-0.4,0-0.7,0.3-0.7,0.7
		C192,127.9,192.3,128.2,192.7,128.2L192.7,128.2z"/>
	<path class="st1" d="M170,156.9c0.4,0,0.7-0.3,0.7-0.7c0-0.4-0.3-0.7-0.7-0.7c-0.4,0-0.7,0.3-0.7,0.7
		C169.3,156.6,169.6,156.9,170,156.9L170,156.9z"/>
	<path class="st1" d="M143.9,149.2c0.4,0,0.7-0.3,0.7-0.7c0-0.4-0.3-0.7-0.7-0.7c-0.4,0-0.7,0.3-0.7,0.7
		C143.2,148.9,143.5,149.2,143.9,149.2L143.9,149.2z"/>
	<path class="st1" d="M119.4,149.4c0.4,0,0.7-0.3,0.7-0.7c0-0.4-0.3-0.7-0.7-0.7c-0.4,0-0.7,0.3-0.7,0.7
		C118.6,149.1,119,149.4,119.4,149.4L119.4,149.4z"/>
	<path class="st1" d="M122.1,133.3c0.3,0,0.5-0.2,0.5-0.5c0-0.3-0.2-0.5-0.5-0.5c-0.3,0-0.5,0.2-0.5,0.5
		C121.7,133.1,121.9,133.3,122.1,133.3L122.1,133.3z"/>
	<path class="st1" d="M113.8,139.1c0.3,0,0.5-0.2,0.5-0.5c0-0.3-0.2-0.5-0.5-0.5c-0.3,0-0.5,0.2-0.5,0.5
		C113.3,138.9,113.5,139.1,113.8,139.1L113.8,139.1z"/>
	<path class="st1" d="M123.9,120c0.3,0,0.5-0.2,0.5-0.5c0-0.3-0.2-0.5-0.5-0.5c-0.3,0-0.5,0.2-0.5,0.5
		C123.4,119.8,123.7,120,123.9,120L123.9,120z"/>
	<path class="st1" d="M94.9,133.6c0.3,0,0.5-0.2,0.5-0.5c0-0.3-0.2-0.5-0.5-0.5c-0.3,0-0.5,0.2-0.5,0.5
		C94.4,133.3,94.7,133.6,94.9,133.6L94.9,133.6z"/>
	<path class="st1" d="M102.7,134.3c0.3,0,0.5-0.2,0.5-0.5c0-0.3-0.2-0.5-0.5-0.5c-0.3,0-0.5,0.2-0.5,0.5
		C102.2,134.1,102.4,134.3,102.7,134.3L102.7,134.3z"/>
	<path class="st1" d="M101.2,138.1c0.5,0,0.8-0.4,0.8-0.8c0-0.5-0.4-0.8-0.8-0.8c-0.5,0-0.8,0.4-0.8,0.8
		C100.4,137.7,100.8,138.1,101.2,138.1L101.2,138.1z"/>
	<path class="st1" d="M103.9,141.3c0.5,0,0.8-0.4,0.8-0.8c0-0.5-0.4-0.8-0.8-0.8c-0.5,0-0.8,0.4-0.8,0.8
		C103.1,140.9,103.5,141.3,103.9,141.3L103.9,141.3z"/>
	<path class="st2" d="M211.8,61.6c13-10.7,23.7-19.9,27.4-26.9c0,0-8.2,27.6-46.8,56.4c0,0-58.8,40.1-74.9,51.4
		c0,0-14.8,10.5-27.4,26.7l-0.3-2.7c0,0,9.4-13.9,30.9-29c18.9-13.3,25.9-17.8,25.9-17.8s44.9-28.1,54.1-40.3
		c0,0-32.2,18.5-87.7,29.2c0,0-25.7,6.5-42.5,16.9h-2.3c0,0,14.6-12.4,48.6-22.1C117,103.5,174.5,86.4,211.8,61.6L211.8,61.6z"/>
	<polygon class="st1" points="87.8,89.5 99.4,89.5 109.3,106.2 109.3,91.5 107.5,89.5 114.8,89.5 112.9,92.3 112.9,114.1 115.6,117 
		104,117 94.1,99.8 94.1,114.2 96.2,117 87.4,117 89.9,114 89.9,92.8 87.8,89.5 	"/>
	<polygon class="st1" points="126.4,89.4 139.2,89.4 148.4,113.8 151.7,117 135.3,117 138,114.3 136.6,110.6 127.4,110.6 
		126.8,114.4 128.7,117 120.1,117 123.2,114.2 129.6,92.9 126.4,89.4 	"/>
	<polygon class="st0" points="135.4,106.8 131.5,97.4 128.5,106.8 135.4,106.8 	"/>
	<polygon class="st2" points="131,99 132,98.6 134.2,103.9 129,105.2 131,99 	"/>
	<path class="st1" d="M155,100.8c0,0-2.9-7.9,5.8-10.8c0,0,4.1-3.3,12.8,0l1.9-1.7v8.8c0,0-4-4.2-6.9-4.6c-2.9-0.4-5.8,0.4-5.4,4.6
		L155,100.8L155,100.8z"/>
	<path class="st3" d="M161.6,142.2c4.3,2.5,8.4,4.1,12,4.6c3.4,0.5,6.4-0.1,8.6-1.7c0.3-0.2,0.6-0.4,0.8-0.7
		c10.3-9.8-2-42.3-21.2-62.4l0,0c0,0-1.8-2.1-3-3.3l0.6-0.6c1.1,1.1,2.8,3.1,3,3.3c0,0,0,0,0,0c0,0,0,0,0,0l0,0
		c19.5,20.4,31.8,53.5,21.1,63.7c-0.3,0.3-0.6,0.5-0.9,0.8c-2.4,1.8-5.6,2.4-9.2,1.9c-3.7-0.5-8-2.1-12.3-4.7L161.6,142.2
		L161.6,142.2z M162.5,81.4C162.5,81.4,162.5,81.4,162.5,81.4L162.5,81.4L162.5,81.4z"/>
	<path class="st3" d="M160.9,81.1c-0.2-0.2-0.3-0.4-0.4-0.5h0c-0.2-0.2-0.3-0.4-0.4-0.5c-9.2-10.7-17.3-17.2-24-20.6
		c-7.9-4-14-3.7-18.4-0.9c-3.8,2.4-5.2,9.3-2.7,19.9c2.1,8.9,7.1,20.4,15.9,34l0,0c0,0,8.1,11.2,9,11.8l-0.6,0.8
		c-1-0.8-9.2-12-9.2-12l0,0c-8.9-13.7-13.9-25.3-16.1-34.3c-2.7-11.1-1-18.4,3.1-21c4.7-2.9,11.2-3.3,19.4,0.9
		c6.9,3.5,15,10.1,24.4,20.9c0.2,0.2,0.3,0.4,0.4,0.5h0c0.2,0.2,0.3,0.4,0.4,0.5L160.9,81.1L160.9,81.1z"/>
	<path class="st1" d="M144.7,132.8c2,1.7,4.2,2.4,4.9,1.6c0.7-0.8-0.3-2.9-2.4-4.6c-2-1.7-4.2-2.4-4.9-1.6
		C141.6,129,142.7,131.1,144.7,132.8L144.7,132.8z"/>
	<path class="st1" d="M163.6,48.7c0.8,0,1.4-0.6,1.4-1.4c0-0.8-0.6-1.4-1.4-1.4c-0.8,0-1.4,0.6-1.4,1.4
		C162.2,48,162.8,48.7,163.6,48.7L163.6,48.7z"/>
	<polygon class="st1" points="162.8,46.2 163.6,41.3 164.3,46.1 162.8,46.2 	"/>
	<polygon class="st1" points="162.8,48.3 163.6,53.1 164.3,48.3 162.8,48.3 	"/>
	<polygon class="st1" points="162.5,48.1 157.4,47.3 162.4,46.5 162.5,48.1 	"/>
	<polygon class="st1" points="164.7,48.1 169.9,47.3 164.7,46.5 164.7,48.1 	"/>
	<path class="st1" d="M130,68c0.8,0,1.4-0.6,1.4-1.4c0-0.8-0.6-1.4-1.4-1.4c-0.8,0-1.4,0.6-1.4,1.4C128.6,67.4,129.2,68,130,68
		L130,68z"/>
	<polygon class="st1" points="129.2,65.5 130,60.7 130.7,65.5 129.2,65.5 	"/>
	<polygon class="st1" points="129.2,67.7 130,72.5 130.7,67.7 129.2,67.7 	"/>
	<polygon class="st1" points="128.9,67.5 123.8,66.7 128.8,65.9 128.9,67.5 	"/>
	<polygon class="st1" points="131.1,67.5 136.3,66.7 131.1,65.9 131.1,67.5 	"/>
	<path class="st1" d="M122.4,159c0.8,0,1.4-0.6,1.4-1.4c0-0.8-0.6-1.4-1.4-1.4c-0.8,0-1.4,0.6-1.4,1.4
		C121,158.4,121.6,159,122.4,159L122.4,159z"/>
	<polygon class="st1" points="121.6,156.5 122.4,151.7 123.1,156.5 121.6,156.5 	"/>
	<polygon class="st1" points="121.6,158.7 122.4,163.5 123.1,158.7 121.6,158.7 	"/>
	<polygon class="st1" points="121.3,158.5 116.2,157.7 121.2,156.9 121.3,158.5 	"/>
	<polygon class="st1" points="123.5,158.5 128.7,157.7 123.5,156.9 123.5,158.5 	"/>
	<path class="st1" d="M201.3,128c0.8,0,1.4-0.6,1.4-1.4c0-0.8-0.6-1.4-1.4-1.4c-0.8,0-1.4,0.6-1.4,1.4
		C199.9,127.4,200.5,128,201.3,128L201.3,128z"/>
	<polygon class="st1" points="200.5,125.5 201.3,120.7 202,125.5 200.5,125.5 	"/>
	<polygon class="st1" points="200.5,127.6 201.3,132.5 202,127.7 200.5,127.6 	"/>
	<polygon class="st1" points="200.2,127.4 195.1,126.6 200.1,125.9 200.2,127.4 	"/>
	<polygon class="st1" points="202.4,127.4 207.6,126.6 202.4,125.9 202.4,127.4 	"/>
</g>
</svg>
