<?xml version="1.0" encoding="utf-8"?>
<!-- Generator: Adobe Illustrator 22.0.0, SVG Export Plug-In . SVG Version: 6.00 Build 0)  -->
<svg version="1.1" id="Layer_2" xmlns="http://www.w3.org/2000/svg" xmlns:xlink="http://www.w3.org/1999/xlink" x="0px" y="0px"
	 viewBox="0 0 300 211.3" style="enable-background:new 0 0 300 211.3;" xml:space="preserve">
<style type="text/css">
	.st0{fill:#CE0E2D;}
	.st1{fill:#FFFFFF;}
</style>
<g>
	<g>
		<path d="M110.3,105.7c0-23.4-18.8-42.3-42.1-42.6h164c23.5,0,42.6,19.1,42.6,42.6c0,23.5-19.1,42.6-42.6,42.6c0,0,0,0-0.1,0H67.8
			C91.3,148.2,110.3,129.2,110.3,105.7z"/>
		<path class="st0" d="M67.8,63.1c0.2,0,0.3,0,0.5,0c23.3,0.3,42.1,19.2,42.1,42.6c0,23.5-19,42.6-42.5,42.6c0,0,0,0-0.1,0
			c-23.5,0-42.6-19.1-42.6-42.6C25.2,82.1,44.2,63.1,67.8,63.1z"/>
	</g>
	<g>
		<path class="st1" d="M67.5,132.2l22.3-22.3L67.5,87.6l-22.3,22.3L67.5,132.2z M90.2,109.9c0,0-2.5,4.5-10.2,12.2
			c-7.8,7.8-12.4,10.4-12.4,10.4s-4.5-2.5-12.2-10.2c-7.8-7.8-10.5-12.4-10.5-12.4s2.5-4.5,10.2-12.2c7.8-7.8,12.4-10.4,12.4-10.4
			s4.5,2.5,12.2,10.2C87.5,105.3,90.2,109.9,90.2,109.9 M67.5,132.2l22.3-22.3L67.5,87.6l-22.3,22.3L67.5,132.2z M90.2,109.9
			c0,0-2.5,4.5-10.2,12.2c-7.8,7.8-12.4,10.4-12.4,10.4s-4.5-2.5-12.2-10.2c-7.8-7.8-10.5-12.4-10.5-12.4s2.5-4.5,10.2-12.2
			c7.8-7.8,12.4-10.4,12.4-10.4s4.5,2.5,12.2,10.2C87.5,105.3,90.2,109.9,90.2,109.9 M88,109.6h-2v-2.1L88,109.6z M83.7,105.3v4.3
			h-2.3V103L83.7,105.3z M79.2,100.7v8.8h-2.3V98.5L79.2,100.7z M74.6,96.2v13.4h-2.3V94L74.6,96.2z M70.1,91.7v17.9h-2.3V89.4
			L70.1,91.7z M47,110.2h2.1v2.1L47,110.2z M51.4,114.5v-4.3h2.3v6.6L51.4,114.5z M55.9,119.1v-8.8h2.3v11.1L55.9,119.1z
			 M60.4,123.6v-13.4h2.3v15.6L60.4,123.6z M64.9,128.1v-17.9h2.3v20.1L64.9,128.1z M67.9,110.2h4.5v5.6h-4.5V110.2z M72.4,125.9
			l-4.5,4.5v-12.3h4.5V125.9z M62.7,94l4.5-4.5v12.3h-4.5V94z M67.2,109.6h-4.5V104h4.5V109.6z M91.3,109.9c0-0.5,0.4-0.9,0.9-0.9
			c0.5,0,0.9,0.4,0.9,0.9c0,0.5-0.4,0.9-0.9,0.9C91.7,110.8,91.3,110.4,91.3,109.9 M41.9,109.9c0-0.5,0.4-0.9,0.9-0.9
			c0.5,0,0.9,0.4,0.9,0.9c0,0.5-0.4,0.9-0.9,0.9C42.3,110.8,41.9,110.4,41.9,109.9 M66.6,134.6c0-0.5,0.4-0.9,0.9-0.9
			c0.5,0,0.9,0.4,0.9,0.9c0,0.5-0.4,0.9-0.9,0.9C67,135.5,66.6,135.1,66.6,134.6 M61.8,77.4c-0.3-0.1-0.6-0.1-0.8-0.1
			c-1.3,0-2.3,0.8-2.3,1.7c0,0.4,0.2,0.9,0.6,1.2l-1,1c-0.6-0.6-1-1.3-1-2.2c0-1.7,1.7-3.1,3.7-3.1c0.5,0,1,0.1,1.5,0.3
			c0.7-0.8,1.8-1.3,3-1.3c0.8,0,1.5,0.2,2,0.5c0.6-0.3,1.3-0.5,2-0.5c1.2,0,2.3,0.5,3,1.3c0.5-0.2,1-0.3,1.5-0.3
			c2,0,3.7,1.4,3.7,3.1c0,0.8-0.4,1.6-1,2.2l-1-1c0.4-0.3,0.6-0.7,0.6-1.2c0-0.9-1-1.7-2.3-1.7c-0.3,0-0.6,0-0.9,0.1
			c0,0.2,0.1,0.4,0.1,0.6c0,0.6-0.2,1.2-0.6,1.7l-1-1c0.1-0.2,0.2-0.4,0.2-0.7c0-1-1-1.7-2.3-1.7c-0.5,0-0.9,0.1-1.3,0.3v2.1h-1.4
			v-2c-0.4-0.2-0.8-0.3-1.4-0.3c-1.3,0-2.3,0.8-2.3,1.7c0,0.2,0.1,0.5,0.2,0.7l-1,1c-0.4-0.5-0.6-1.1-0.6-1.7
			C61.8,77.8,61.8,77.6,61.8,77.4 M60.6,84.9l0.8,1.2c1.8-0.8,3.9-1.4,6.1-1.4c2.2,0,4.4,0.6,6.2,1.4l0.8-1.2c-2-1-4.4-1.5-6.9-1.5
			C65,83.4,62.6,83.9,60.6,84.9 M66.6,72.9c0-0.5,0.4-1,1-1c0.5,0,1,0.4,1,1c0,0.5-0.4,1-1,1C67,73.9,66.6,73.5,66.6,72.9
			 M60.6,83.8c-0.4,0-0.7-0.3-0.8-0.7c0.3-0.3,0.6-0.5,1-0.5c0.4,0,0.7,0.3,0.8,0.7C61.3,83.6,60.9,83.8,60.6,83.8 M59.9,82
			c-0.1-0.3-0.5-0.5-0.9-0.6c-0.2,0.3-0.3,0.7-0.2,1.1c0.1,0.3,0.5,0.5,0.9,0.6C60,82.7,60.1,82.3,59.9,82 M64.2,82.7
			c-0.3-0.1-0.6-0.4-0.7-0.8c0.3-0.3,0.7-0.4,1-0.3c0.3,0.1,0.6,0.4,0.7,0.8C64.9,82.7,64.6,82.8,64.2,82.7 M63.3,82.9
			c0.3-0.2,0.4-0.6,0.3-1c-0.4-0.1-0.8-0.1-1.1,0.2c-0.3,0.2-0.4,0.6-0.3,1C62.6,83.2,63,83.1,63.3,82.9 M63.9,80.9
			c-0.1-0.4-0.3-0.6-0.8-0.8c-0.3,0.3-0.5,0.7-0.4,1c0.1,0.3,0.4,0.6,0.8,0.8C63.8,81.6,64,81.2,63.9,80.9 M74.4,83.8
			c0.4,0,0.7-0.3,0.8-0.7c-0.3-0.3-0.6-0.5-1-0.5c-0.4,0-0.6,0.3-0.8,0.7C73.7,83.6,74.1,83.8,74.4,83.8 M75.1,82
			c0.2-0.3,0.5-0.5,0.9-0.6c0.2,0.3,0.3,0.7,0.2,1.1c-0.2,0.3-0.5,0.5-0.9,0.6C75,82.7,74.9,82.3,75.1,82 M70.8,82.7
			c0.3-0.1,0.6-0.4,0.7-0.8c-0.3-0.3-0.7-0.4-1-0.3c-0.4,0.1-0.6,0.4-0.7,0.8C70.1,82.7,70.5,82.8,70.8,82.7 M71.8,82.9
			c-0.3-0.2-0.4-0.6-0.3-1c0.4-0.1,0.8-0.1,1.1,0.2c0.3,0.2,0.4,0.6,0.3,1C72.4,83.2,72,83.1,71.8,82.9 M71.1,80.9
			c0.1-0.4,0.4-0.6,0.8-0.8c0.3,0.3,0.4,0.7,0.4,1c-0.1,0.3-0.4,0.6-0.8,0.8C71.2,81.6,71,81.2,71.1,80.9 M67.1,82.4
			c0.3-0.2,0.5-0.5,0.5-1c-0.4-0.2-0.8-0.2-1.1-0.1c-0.3,0.2-0.5,0.5-0.5,1C66.4,82.6,66.8,82.6,67.1,82.4 M68,82.4
			c-0.3-0.2-0.5-0.5-0.5-1c0.4-0.2,0.8-0.2,1.1-0.1c0.3,0.2,0.5,0.5,0.5,1C68.7,82.6,68.3,82.6,68,82.4 M67,80.6
			c0-0.4,0.2-0.7,0.6-0.9c0.4,0.2,0.6,0.5,0.6,0.9c0,0.4-0.2,0.7-0.6,0.9C67.2,81.2,67,80.9,67,80.6"/>
		<polygon class="st1" points="74.6,123.6 74.6,123.6 74.6,118.1 80.1,118.1 		"/>
		<polygon class="st1" points="54.9,101.7 60.4,96.2 60.4,101.7 		"/>
		<polygon class="st1" points="74.6,110.2 74.6,113.1 74.6,115.9 78.5,115.9 82.4,115.9 88,110.2 		"/>
		<polygon class="st1" points="52.7,104 47,109.6 60.4,109.6 60.4,104 		"/>
	</g>
	<g>
		<path class="st1" d="M239.4,116.5c0,1.9-1.4,3-3.4,3c-1,0-1.9-0.6-1.9-1.6c0-1.1,0.9-1.6,1.9-1.7l3.3-0.3V116.5z M243.6,121.6
			v-2.3c0,0-0.2,0.1-0.4,0.1c-0.5,0-0.7-0.2-0.7-0.8v-4.9c0-0.9-0.1-1.8-0.4-2.7c-0.8-2-2.7-2.7-4.9-2.7c-2.9,0-5.3,1.3-5.5,4.3h3.1
			c0.1-1.2,0.9-1.9,2.4-1.9c1.8,0,2.2,0.8,2.2,2.1v0.8l-3.9,0.3c-2.5,0.2-4.5,1.6-4.5,4.1c0,2.2,1.6,4.1,4.8,4.1c1.9,0,3.4-0.9,4-2
			c0.1,1,0.9,1.8,2.2,1.8C242.8,122,243.1,121.8,243.6,121.6z M228.4,121.8V113c0-2.7-1.6-4.7-4.5-4.7c-1.5,0-3.1,0.6-3.9,2
			l-0.2-1.7h-2.7v13.2h3.2v-5.4c0-1.1,0-2.5,0.4-3.5c0.4-1,1.2-1.7,2.3-1.7c1.7,0,2.2,0.9,2.2,2.5v8.1H228.4z M210.9,115.2
			c0,1.2-0.2,2.5-0.9,3.3c-0.4,0.5-1.1,0.8-2,0.8c-0.9,0-1.6-0.4-2-0.8c-0.8-0.8-0.9-2.1-0.9-3.3c0-1.2,0.2-2.5,0.9-3.3
			c0.4-0.5,1.1-0.8,2-0.8c0.9,0,1.6,0.4,2,0.8C210.7,112.7,210.9,113.9,210.9,115.2 M214.1,115.2c0-2.2-0.6-3.6-1.5-4.9
			c-0.9-1.1-2.6-2-4.6-2c-2,0-3.7,0.9-4.6,2c-1,1.2-1.5,2.6-1.5,4.9c0,2.2,0.6,3.6,1.5,4.9c0.9,1.1,2.6,2,4.6,2c2,0,3.7-0.9,4.6-2
			C213.6,118.8,214.1,117.4,214.1,115.2 M200.1,121.7v-2.7c-0.2,0-0.3,0-0.5,0c-1.1,0-1.3-0.5-1.3-1.3v-14.4h-3.2v14.9
			c0,2.5,1.4,3.5,3.6,3.5C199.4,121.9,199.5,121.9,200.1,121.7 M189.1,113.9h-5.7c0-0.9,0.2-1.5,0.7-2.1c0.5-0.6,1.2-1,2.2-1
			c0.9,0,1.6,0.3,2,0.8C188.8,112.1,189.1,112.9,189.1,113.9 M192.3,115.3c0-1.6-0.2-3.1-1.1-4.6c-1.1-1.6-2.9-2.4-4.8-2.4
			c-1.8,0-3.2,0.7-4.2,1.7c-1.3,1.3-1.9,3.2-1.9,5.3c0,2.2,0.7,4,2,5.3c1,1,2.4,1.6,4.2,1.6c1.7,0,3.3-0.5,4.4-1.8
			c0.5-0.6,1-1.6,1.1-2.4h-3c-0.1,0.5-0.4,0.8-0.6,1.1c-0.5,0.5-1,0.6-1.9,0.6c-0.9,0-1.5-0.4-1.9-0.8c-0.6-0.6-1-1.6-1-2.6h8.8
			C192.2,115.9,192.3,115.3,192.3,115.3 M178.3,117.1h-3.1c0,0.5-0.2,0.9-0.4,1.2c-0.4,0.6-1.1,1-2,1c-0.9,0-1.5-0.4-1.9-0.8
			c-0.8-0.8-0.9-2.1-0.9-3.3c0-1.2,0.1-2.5,0.9-3.3c0.4-0.5,1.1-0.8,1.9-0.8c1,0,1.6,0.4,2,1c0.2,0.3,0.4,0.7,0.4,1.2h3.1
			c-0.1-1-0.4-2.1-1-2.9c-0.9-1.1-2.5-2.1-4.5-2.1c-2,0-3.7,1-4.6,2.1c-1,1.2-1.4,2.9-1.4,4.8c0,1.9,0.5,3.6,1.4,4.8
			c0.9,1.1,2.6,2.1,4.6,2.1c2,0,3.6-0.9,4.5-2.1C177.9,119.2,178.3,118.1,178.3,117.1 M165.8,111.5v-3c-0.3-0.1-0.7-0.1-1-0.1
			c-1.5,0-3.1,0.6-3.7,2.2l-0.3-2h-2.7v13.2h3.2v-6.6c0-2.1,1.2-3.7,3.4-3.7C165.1,111.4,165.5,111.5,165.8,111.5 M151.2,116.5
			c0,1.9-1.4,3-3.4,3c-1,0-1.9-0.6-1.9-1.6c0-1.1,0.9-1.6,1.9-1.7l3.3-0.3V116.5z M155.4,121.6v-2.3c0,0-0.2,0.1-0.4,0.1
			c-0.5,0-0.7-0.2-0.7-0.8v-4.9c0-0.9-0.1-1.8-0.4-2.7c-0.8-2-2.7-2.7-4.9-2.7c-2.9,0-5.3,1.3-5.5,4.3h3.1c0.1-1.2,0.9-1.9,2.4-1.9
			c1.8,0,2.2,0.8,2.2,2.1v0.8l-3.9,0.3c-2.5,0.2-4.5,1.6-4.5,4.1c0,2.2,1.6,4.1,4.8,4.1c1.9,0,3.4-0.9,4-2c0.1,1,0.9,1.8,2.2,1.8
			C154.6,122,154.9,121.8,155.4,121.6z M137.7,116.5c0,1.8-1.6,2.4-3.2,2.4h-4v-5h4.1C136.3,113.9,137.7,114.5,137.7,116.5
			 M137.3,108.9c0,1.7-1.2,2.2-2.7,2.2h-4.1v-4.5h4C136,106.6,137.3,107.2,137.3,108.9 M141,116.5c0-1.7-0.9-3.3-2.6-4
			c1.5-0.7,2.2-2.3,2.2-3.8c0-1.5-0.8-3-2.1-3.9c-1.2-0.8-2.7-1-4.2-1h-7.1v18h7.1c1.7,0,3.4-0.2,4.8-1.2
			C140.4,119.6,141,118.1,141,116.5"/>
		<g>
			<path class="st1" d="M241.1,91.2h-4.1c0-0.6,0.2-1.1,0.5-1.5c0.3-0.4,0.9-0.7,1.6-0.7c0.7,0,1.1,0.2,1.4,0.5
				C240.9,89.9,241.1,90.5,241.1,91.2 M243.4,92.2c0-1.2-0.1-2.3-0.8-3.3c-0.8-1.2-2.1-1.7-3.5-1.7c-1.3,0-2.3,0.5-3,1.2
				c-0.9,0.9-1.4,2.3-1.4,3.8c0,1.5,0.5,2.9,1.4,3.8c0.7,0.7,1.7,1.2,3,1.2c1.2,0,2.4-0.4,3.2-1.3c0.4-0.4,0.7-1.2,0.8-1.7H241
				c-0.1,0.3-0.3,0.6-0.5,0.8c-0.3,0.3-0.7,0.5-1.4,0.5c-0.6,0-1.1-0.3-1.4-0.6c-0.5-0.4-0.7-1.1-0.7-1.9h6.3
				C243.4,92.6,243.4,92.2,243.4,92.2 M231.3,92.1c0,1.4-0.4,3.1-2.1,3.1c-0.7,0-1.2-0.3-1.5-0.7c-0.5-0.6-0.6-1.5-0.6-2.3
				c0-0.8,0.1-1.7,0.6-2.3c0.3-0.4,0.8-0.7,1.5-0.7C231,89.1,231.3,90.7,231.3,92.1 M233.5,96.8V83.7h-2.3v4.3
				c-0.4-0.5-1.3-0.9-2.5-0.9c-1,0-1.7,0.3-2.3,0.8c-1.1,0.9-1.7,2.4-1.7,4.2c0,1.8,0.5,3.2,1.7,4.1c0.6,0.5,1.4,0.8,2.3,0.8
				c1,0,2.1-0.4,2.7-1.3l0.1,1H233.5z M220,96.7v-1.9c-0.6,0.1-1,0.1-1.5,0.1c-0.7,0-1.1-0.3-1.1-1v-4.6h2.4v-1.9h-2.4v-3l-2.3,0.6
				v2.4h-1.7v1.9h1.7v4.8c0,1.8,0.9,2.9,2.9,2.9C218.7,97,219.4,96.9,220,96.7 M212.7,96.8v-6.3c0-2-1.2-3.4-3.2-3.4
				c-1.1,0-2.2,0.5-2.8,1.5l-0.2-1.2h-1.9v9.4h2.3V93c0-0.8,0-1.8,0.3-2.5c0.3-0.7,0.8-1.2,1.6-1.2c1.2,0,1.6,0.7,1.6,1.8v5.8H212.7
				z M201,91.2h-4.1c0-0.6,0.2-1.1,0.5-1.5c0.3-0.4,0.9-0.7,1.6-0.7c0.7,0,1.1,0.2,1.4,0.5C200.8,89.9,201,90.5,201,91.2
				 M203.3,92.2c0-1.2-0.1-2.3-0.8-3.3c-0.8-1.2-2.1-1.7-3.4-1.7c-1.3,0-2.3,0.5-3,1.2c-0.9,0.9-1.4,2.3-1.4,3.8
				c0,1.5,0.5,2.9,1.5,3.8c0.7,0.7,1.7,1.2,3,1.2c1.2,0,2.4-0.4,3.2-1.3c0.4-0.4,0.7-1.2,0.8-1.7h-2.2c-0.1,0.3-0.3,0.6-0.5,0.8
				c-0.3,0.3-0.7,0.5-1.4,0.5c-0.6,0-1.1-0.3-1.4-0.6c-0.5-0.4-0.7-1.1-0.7-1.9h6.3C203.2,92.6,203.3,92.2,203.3,92.2 M193.3,96.8
				v-6.4c0-2-1-3.3-3.1-3.3c-1.3,0-2.3,0.6-2.9,1.5c-0.5-1-1.4-1.5-2.7-1.5c-1.3,0-2.2,0.6-2.7,1.5l-0.2-1.3h-1.9v9.4h2.2v-5.2
				c0-1.2,0.6-2.5,1.9-2.5c1.1,0,1.5,0.7,1.5,1.8v5.9h2.2v-5.2c0-1.2,0.6-2.5,1.9-2.5c1.1,0,1.5,0.7,1.5,1.8v5.9H193.3z M175.6,93.1
				c0,1.4-1,2.2-2.4,2.2c-0.7,0-1.3-0.5-1.3-1.2c0-0.8,0.7-1.2,1.4-1.2l2.4-0.2V93.1z M178.7,96.7v-1.7c0,0-0.1,0-0.3,0
				c-0.4,0-0.5-0.2-0.5-0.6V91c0-0.6,0-1.3-0.3-1.9c-0.5-1.4-1.9-1.9-3.5-1.9c-2.1,0-3.8,0.9-3.9,3.1h2.2c0.1-0.9,0.7-1.3,1.7-1.3
				c1.3,0,1.6,0.6,1.6,1.5V91l-2.8,0.2c-1.8,0.1-3.2,1.2-3.2,3c0,1.5,1.2,3,3.4,3c1.3,0,2.4-0.7,2.9-1.4c0.1,0.7,0.6,1.3,1.6,1.3
				C178.1,97,178.3,96.9,178.7,96.7z M169.2,96.7v-1.9c-0.6,0.1-1,0.1-1.5,0.1c-0.7,0-1.1-0.3-1.1-1v-4.6h2.4v-1.9h-2.4v-3l-2.3,0.6
				v2.4h-1.7v1.9h1.7v4.8c0,1.8,0.9,2.9,2.8,2.9C168,97,168.6,96.9,169.2,96.7 M161.9,96.8v-6.3c0-2-1.2-3.4-3.2-3.4
				c-1.1,0-2.2,0.5-2.8,1.5l-0.2-1.2h-1.9v9.4h2.3V93c0-0.8,0-1.8,0.3-2.5c0.3-0.7,0.8-1.2,1.6-1.2c1.2,0,1.6,0.7,1.6,1.8v5.8H161.9
				z M151.8,96.8v-9.4h-2.3v5c0,0.8-0.1,1.6-0.7,2.1c-0.3,0.3-0.6,0.5-1.2,0.5c-1.2,0-1.6-0.7-1.6-1.8v-5.8h-2.3v6.3
				c0,2,1.3,3.4,3.3,3.4c1.2,0,2.3-0.5,2.7-1.5l0.2,1.2H151.8z M141.8,98.2V87.4h-2.3v10.3c0,0.6-0.4,1-1.1,1c-0.3,0-0.4,0-1.1-0.1
				v1.9c0.4,0.1,0.7,0.2,1,0.2c0.3,0,0.5,0,0.8,0C140.8,100.8,141.8,99.8,141.8,98.2 M141.8,83.7h-2.4v2.3h2.4V83.7z M134.5,92.3
				h-3.7l1.8-5.4L134.5,92.3z M138.5,96.8L134,84h-2.6l-4.5,12.9h2.4l0.8-2.5h5.1l0.8,2.5H138.5z"/>
		</g>
	</g>
</g>
</svg>
