<?xml version="1.0" encoding="utf-8"?>
<!-- Generator: Adobe Illustrator 22.0.0, SVG Export Plug-In . SVG Version: 6.00 Build 0)  -->
<svg version="1.1" id="Layer_2" xmlns="http://www.w3.org/2000/svg" xmlns:xlink="http://www.w3.org/1999/xlink" x="0px" y="0px"
	 viewBox="0 0 300 211.3" style="enable-background:new 0 0 300 211.3;" xml:space="preserve">
<style type="text/css">
	.st0{fill:#D25E15;}
	.st1{fill:#00AFAB;}
	.st2{fill:#020202;}
	.st3{fill:#F7E445;}
	.st4{fill:#F66EB4;}
	.st5{fill:#1FB9B5;}
	.st6{fill:#35E988;}
</style>
<g>
	<path class="st0" d="M172.3,149.2c0-3.6,0-7.3,0-10.9c0-0.2,0-0.4,0-0.6c0-0.3,0.1-0.4,0.4-0.4c0.2,0,0.5,0,0.7,0
		c34.7,0,69.5,0,104.2,0c0.3,0,0.7,0,1,0c0,4,0,8,0,11.9c-0.3,0-0.7,0-1,0c-34.8,0-69.6,0-104.4,0
		C172.9,149.2,172.6,149.2,172.3,149.2z"/>
	<path class="st1" d="M172.3,149.2c0,3.9,0.1,7.8,0,11.6c-35,0-70,0-105,0c-0.2,0-0.5,0-0.7,0c-0.1,0-0.3,0-0.3,0.2
		c-0.1,0-0.2,0-0.3,0c0-3.6,0-7.2,0-10.8c0-0.3,0-0.6,0-0.9c0-0.1,0.1-0.1,0.1-0.2c0.3,0,0.6,0,0.9,0c34.8,0,69.7,0,104.5,0
		C171.7,149.2,172,149.2,172.3,149.2z"/>
	<path class="st2" d="M278.7,111.6c-0.3,0-0.6,0-0.9,0c-6.7,0-13.4,0-20.1,0c-0.3,0-0.6,0-0.9,0c-0.1,0.5,0.1,1,0.2,1.5
		c0.4,1.4,1.3,2.5,2.4,3.4c2.2,1.7,4.7,2.2,7.4,1.9c2.2-0.2,4.2-0.9,5.9-2.5c0.2-0.2,0.5-0.5,0.7-0.8c1.2,1.3,2.3,2.5,3.4,3.7
		c-1.2,1.3-2.6,2.4-4.2,3.1c-4.7,2.1-9.5,2.4-14.2,0.2c-4.3-2-6.8-5.5-7.6-10.2c-0.4-2.5-0.3-5,0.4-7.5c1.2-4,3.8-6.8,7.6-8.5
		c5-2.3,11.2-1.5,15.4,1.8c2.5,2,3.9,4.5,4.2,7.6c-0.1,0.4,0.1,0.8,0.1,1.2C278.7,108.2,278.7,109.9,278.7,111.6z M264.7,107
		c2.4,0,4.9,0,7.3,0c0.8,0,0.8,0,0.7-0.8c-0.2-2.8-1.6-4.9-4.3-5.9c-3.6-1.4-7-0.7-9.9,1.9c-1.2,1.1-1.8,2.5-1.9,4.2
		c0,0.6,0,0.6,0.6,0.6C259.8,107,262.2,107,264.7,107z"/>
	<path class="st3" d="M21.3,85.8c3.6,0,7.2,0,10.8,0c0.2,0,0.3,0,0.5,0c0.8,0,0.8,0,0.8,0.7c0,3.5,0,6.9,0,10.4c0,0.7,0,0.7-0.8,0.7
		c-3.6,0-7.1,0-10.7,0c-0.2,0-0.4-0.1-0.6,0C21.3,93.8,21.3,89.8,21.3,85.8z"/>
	<path class="st4" d="M278.7,62.3c-3.5,0-7.1,0-10.6,0c-0.2,0-0.4,0-0.6,0c-0.6,0-0.6,0-0.6-0.6c0-1,0-2.1,0-3.1c0-2.8,0-5.5,0-8.3
		c3.9,0,7.9,0,11.8,0C278.7,54.3,278.7,58.3,278.7,62.3z"/>
	<path class="st5" d="M66.2,161c0.1-0.1,0.2-0.2,0.3-0.2c0.2,0,0.5,0,0.7,0c35,0,70,0,105,0c0,0.1,0,0.1,0,0.2
		C136.9,161,101.6,161,66.2,161z"/>
	<path class="st4" d="M278.7,106.5c0-0.4-0.2-0.8-0.1-1.2c0,0,0.1-0.1,0.1-0.1C278.7,105.7,278.7,106.1,278.7,106.5z"/>
	<path class="st2" d="M79,99c0-0.3,0-0.6,0-0.8c0-4.5,0-8.9,0-13.4c0-0.2,0-0.4,0-0.6c0-0.3,0.1-0.4,0.4-0.4c0.2,0,0.3,0,0.5,0
		c1.4,0,2.8,0,4.1,0c0.9,0,0.9,0,0.9,1c0,12.4,0,24.8,0,37.3c0,0.1,0,0.1,0,0.2c0,1,0.1,0.9-0.8,0.9c-1.5,0-3,0-4.5,0
		c-0.6,0-0.6,0-0.6-0.6c0-0.9,0-1.9,0-2.8c0-0.2,0-0.4,0-0.6c-0.2,0-0.3,0.1-0.3,0.2c-1.9,2.4-4.4,3.7-7.4,4.1
		c-6.9,0.9-11.6-3.3-13.6-7.3c-0.8-1.6-1.3-3.3-1.4-5c-0.3-2.8-0.2-5.6,0.9-8.2c2-4.7,5.6-7.4,10.6-8.2c1.6-0.3,3.1-0.2,4.7,0.1
		c2.2,0.5,4,1.6,5.5,3.3c0.3,0.3,0.6,0.6,0.8,1C78.9,99.1,78.9,99,79,99z M70.8,99.8c-2.2,0-4.2,0.7-5.8,2.3
		c-2.8,2.7-3.5,6.1-2.6,9.8c0.8,3.5,4.1,6.2,7.7,6.4c3.7,0.2,7-1.9,8.3-5.4c0.8-2.1,0.8-4.3,0.3-6.4C78,103.3,75.3,99.8,70.8,99.8z"
		/>
	<path class="st2" d="M232.8,99.1c0-0.4,0-0.6,0-0.9c0-4.5,0-8.9,0-13.4c0-0.2,0-0.4,0-0.6c0-0.3,0.1-0.4,0.4-0.4c1.7,0,3.4,0,5.1,0
		c0.4,0,0.5,0.1,0.4,0.5c0,0.2,0,0.3,0,0.5c0,12.5,0,24.9,0,37.4c0,1,0.2,0.9-0.9,0.9c-1.5,0-3,0-4.5,0c-0.4,0-0.5-0.1-0.5-0.5
		c0-0.9,0-1.9,0-2.8c0-0.2,0.1-0.4-0.1-0.6c-0.3,0.2-0.4,0.4-0.6,0.7c-1.8,2-4.1,3.1-6.7,3.6c-7.9,1.2-14.2-4.7-15.1-11.3
		c-0.5-3.2-0.4-6.3,0.9-9.2c2-4.6,5.6-7.3,10.5-8.1c1.6-0.3,3.1-0.2,4.7,0.1c2.4,0.5,4.3,1.8,5.9,3.6
		C232.3,98.7,232.4,98.9,232.8,99.1z M215.9,109.3c0,0.6,0.1,1.4,0.2,2.2c0.8,3.6,4.1,6.5,7.8,6.8c4.7,0.3,7.8-3,8.6-6.2
		c0.4-1.4,0.4-2.8,0.3-4.2c-0.2-1.9-0.9-3.6-2.1-5.1c-3.2-3.9-8.6-3.8-11.7-0.9C216.9,103.9,215.9,106.3,215.9,109.3z"/>
	<path class="st2" d="M103,111.7c0,1.3,0.5,2.5,1.4,3.5c1.2,1.5,2.8,2.4,4.6,2.8c2.5,0.6,4.9,0.4,7.3-0.5c1.3-0.5,2.4-1.4,3.4-2.5
		c1.1,1.3,2.3,2.5,3.4,3.7c-1.2,1.3-2.6,2.3-4.1,3c-4.1,1.9-8.4,2.4-12.7,0.9c-5.4-1.9-8.5-5.8-9.2-11.6c-0.3-2.2-0.1-4.3,0.4-6.5
		c1-3.9,3.4-6.6,6.9-8.5c4.9-2.6,11.4-2.1,15.8,1.2c2.7,2,4.3,4.8,4.7,8.2c0.2,1.9,0.1,3.8,0.1,5.6c0,0.3-0.1,0.4-0.4,0.4
		c-0.2,0-0.4,0-0.6,0c-6.7,0-13.4,0-20.1,0C103.6,111.7,103.3,111.6,103,111.7z M111,107c1.3,0,2.7,0,4,0c1.2,0,2.4,0,3.6,0
		c0.3,0,0.5-0.1,0.5-0.4c-0.1-3-1.7-5.4-4.6-6.4c-3.5-1.1-6.7-0.5-9.5,2c-1.2,1.1-1.9,2.6-2,4.2c0,0.6,0,0.6,0.6,0.6
		C106,107,108.5,107,111,107z"/>
	<path class="st2" d="M184.9,94.6c5.6,0.1,10,2.4,12.9,7.3c1.7,2.9,2.2,6.1,1.7,9.4c-0.9,5.8-4.2,9.8-9.7,11.6
		c-4.9,1.6-9.7,1.1-13.9-2.1c-4.5-3.3-6.3-7.9-5.7-13.4c0.6-5.9,5.4-11.4,11.9-12.5C183,94.6,184,94.5,184.9,94.6z M193.8,109.1
		c0-1.2-0.2-2.3-0.5-3.4c-1.2-3.4-4.3-5.7-8-5.8c-3.2-0.1-5.8,1.1-7.7,3.7c-2.2,3.1-2.1,8.1,0.2,11.2c1.9,2.6,4.5,3.6,7.7,3.5
		c2.2-0.1,4.1-0.9,5.7-2.4C193,114,193.7,111.7,193.8,109.1z"/>
	<path class="st2" d="M160.8,99c-1.1,1.3-2.1,2.6-3.2,3.9c-0.2,0.3-0.4,0.3-0.6,0.1c-0.9-0.8-1.9-1.4-3-2c-3.8-1.8-8-1-10.9,2
		c-1.6,1.6-2.2,3.6-2.3,5.9c0,4.4,2.9,8.1,7.1,9.1c2.6,0.6,5.1,0.1,7.3-1.4c0.7-0.5,1.4-1,2-1.7c0.2-0.2,0.3-0.3,0.6,0
		c1.1,1.2,2.1,2.3,3.2,3.6c-1.7,1.7-3.5,3.1-5.7,4c-6,2.3-11.5,1.6-16.3-2.8c-2.4-2.2-3.7-5.1-4.1-8.4c-0.3-2.3-0.1-4.5,0.6-6.7
		c1-3.3,3.2-5.9,6.2-7.6c4.7-2.8,9.7-3,14.7-0.9C158.1,96.6,159.8,97.8,160.8,99z"/>
	<path class="st6" d="M65.9,149.2c-3.6,0-7.2,0-10.7,0c-0.2,0-0.4,0-0.6,0c-0.3,0-0.4-0.1-0.4-0.4c0-0.2,0-0.3,0-0.5
		c0-3.4,0-6.7,0-10.1c0-0.1,0-0.2,0-0.3c0-0.5,0-0.5,0.6-0.6c0.2,0,0.4,0,0.6,0c3.2,0,6.5,0,9.7,0c0.2,0,0.4,0,0.6,0
		c0.3,0,0.4,0.1,0.4,0.4c0,0.1,0,0.1,0,0.2C65.9,141.6,65.9,145.4,65.9,149.2C65.9,149.2,65.9,149.2,65.9,149.2z"/>
	<path class="st5" d="M66.1,149.2c0,0.1-0.1,0.1-0.1,0.2c0-0.1,0-0.1,0-0.2c0,0,0,0,0,0C66,149.2,66,149.2,66.1,149.2z"/>
</g>
</svg>
