<?xml version="1.0" encoding="utf-8"?>
<!-- Generator: Adobe Illustrator 22.0.0, SVG Export Plug-In . SVG Version: 6.00 Build 0)  -->
<svg version="1.1" id="Layer_2_1_" xmlns="http://www.w3.org/2000/svg" xmlns:xlink="http://www.w3.org/1999/xlink" x="0px" y="0px"
	 viewBox="0 0 300 211.3" style="enable-background:new 0 0 300 211.3;" xml:space="preserve">
<style type="text/css">
	.st0{fill:url(#SVGID_1_);}
	.st1{fill:#A8ABAD;}
	.st2{fill:#E9362B;}
	.st3{fill:#ED5B2D;}
</style>
<g>
	<radialGradient id="SVGID_1_" cx="221.248" cy="100.6843" r="81.8332" gradientUnits="userSpaceOnUse">
		<stop  offset="0" style="stop-color:#EB5B2F"/>
		<stop  offset="1" style="stop-color:#E8322C"/>
	</radialGradient>
	<path class="st0" d="M115.2,98.7c-1.2-0.7-3.2-1.3-5.8-1.9c-2.6-0.6-4.2-1.2-4.9-1.8c-0.5-0.4-0.8-1-0.8-1.6c0-0.7,0.3-1.2,0.8-1.6
		c0.9-0.6,2.1-1,3.6-1c1.5,0,2.6,0.3,3.4,0.9c0.8,0.6,1.2,1.6,1.5,2.9l5.3-0.2c-0.1-2.4-1-4.4-2.6-5.8c-1.7-1.5-4.2-2.2-7.5-2.2
		c-2,0-3.8,0.3-5.2,0.9c-1.4,0.6-2.5,1.5-3.3,2.7c-0.8,1.2-1.1,2.4-1.1,3.8c0,2.1,0.8,3.9,2.4,5.3c1.2,1,3.2,1.9,6,2.6
		c2.2,0.6,3.6,0.9,4.3,1.2c0.9,0.3,1.6,0.7,1.9,1.1c0.4,0.4,0.5,1,0.5,1.6c0,1-0.4,1.8-1.3,2.5c-0.9,0.7-2.2,1.1-3.9,1.1
		c-1.6,0-2.9-0.4-3.9-1.2c-1-0.8-1.6-2.1-1.9-3.8l-5.2,0.5c0.3,3,1.4,5.2,3.2,6.7c1.8,1.5,4.4,2.3,7.7,2.3c2.3,0,4.2-0.3,5.7-1
		c1.5-0.6,2.7-1.6,3.6-2.9c0.8-1.3,1.3-2.7,1.3-4.2c0-1.7-0.4-3.1-1.1-4.2C117.4,100.2,116.4,99.4,115.2,98.7z M189.7,98.7
		c-1.2-0.7-3.2-1.3-5.8-1.9c-2.6-0.6-4.2-1.2-4.9-1.8c-0.5-0.4-0.8-1-0.8-1.6c0-0.7,0.3-1.2,0.8-1.6c0.9-0.6,2.1-1,3.6-1
		c1.5,0,2.6,0.3,3.4,0.9c0.8,0.6,1.2,1.6,1.5,2.9l5.3-0.2c-0.1-2.4-1-4.4-2.6-5.8c-1.7-1.5-4.2-2.2-7.5-2.2c-2,0-3.8,0.3-5.2,0.9
		c-1.4,0.6-2.5,1.5-3.3,2.7c-0.8,1.2-1.1,2.4-1.1,3.8c0,2.1,0.8,3.9,2.4,5.3c1.2,1,3.2,1.9,6,2.6c2.2,0.6,3.6,0.9,4.3,1.2
		c0.9,0.3,1.6,0.7,1.9,1.1c0.4,0.4,0.5,1,0.5,1.6c0,1-0.4,1.8-1.3,2.5c-0.9,0.7-2.2,1.1-3.9,1.1c-1.6,0-2.9-0.4-3.9-1.2
		c-1-0.8-1.6-2.1-1.9-3.8l-5.2,0.5c0.3,3,1.4,5.2,3.2,6.7c1.8,1.5,4.4,2.3,7.7,2.3c2.3,0,4.2-0.3,5.7-1c1.5-0.6,2.7-1.6,3.6-2.9
		c0.8-1.3,1.3-2.7,1.3-4.2c0-1.7-0.4-3.1-1.1-4.2C191.9,100.2,190.9,99.4,189.7,98.7z M219.7,113.2h5.6V86.8h-5.6V113.2z
		 M244.7,104.4l-11.2-17.6h-5.4v26.4h5.1V96l11,17.2h5.6V86.8h-5.1V104.4z M211.4,97.2h-10.7V86.8h-5.4v26.4h5.4v-11.5h10.7v11.5
		h5.4V86.8h-5.4V97.2z M158.4,86.8l-9.7,26.4h5.3l2.1-6h10l2.2,6h5.5l-10-26.4H158.4z M157.6,102.8L161,93l3.4,9.8H157.6z
		 M134.4,105l-5.7-18.2h-8.5v26.7h5.5V95.2l5.8,18.3h5.7l5.8-18.3v18.3h5.5V86.8h-8.5L134.4,105z M265.1,102.3l0.1,0.1l3.5,3.5
		l2.9-0.3c-1.5,1.6-3.6,2.7-6,2.7c-4.5,0-8.2-3.7-8.2-8.2c0-4.5,3.7-8.2,8.2-8.2c2.9,0,5.5,1.5,6.9,3.8l4.8-1.7
		c-2.2-4.2-6.6-7.2-11.7-7.2c-7.3,0-13.2,5.9-13.2,13.2c0,7.3,5.9,13.2,13.2,13.2c3.6,0,6.9-1.5,9.3-3.8l-0.1,2.5l3.3,3.3l2.7-15.4
		L265.1,102.3z"/>
	<path class="st1" d="M158.1,129.7h4.5v2.8c-0.5,0.4-1.2,0.8-2,1.1c-0.8,0.3-1.7,0.5-2.5,0.5c-1.7,0-3-0.5-4.1-1.5
		c-1.1-1-1.6-2.6-1.6-4.6c0-1.3,0.2-2.5,0.7-3.4c0.5-0.9,1.1-1.6,1.9-2.1c0.8-0.4,1.8-0.7,2.9-0.7c0.8,0,1.5,0.1,2.1,0.4
		c0.6,0.2,1.1,0.6,1.5,1c0.4,0.4,0.7,1.1,0.9,1.9l1.8-0.5c-0.3-1.1-0.7-2-1.2-2.6c-0.5-0.6-1.2-1.1-2.1-1.4c-0.8-0.3-1.8-0.5-3-0.5
		c-1.5,0-2.9,0.3-4,0.9c-1.1,0.6-2,1.5-2.7,2.7c-0.7,1.2-1,2.7-1,4.4c0,1.6,0.3,3.1,1,4.2c0.7,1.2,1.6,2.1,2.8,2.7
		c1.2,0.6,2.5,0.9,4,0.9c1.1,0,2.2-0.2,3.3-0.6c0.4-0.1,0.7-0.3,1.1-0.5v0.9h2v-2.2c0,0,0,0,0,0v-5.7l-6.5,0V129.7z M109.3,131.1
		c-0.4,1.1-0.6,1.9-0.8,2.5l-0.7-2.3l-3.7-10.8h-3.1v15.3h2v-13l4.5,13h1.8l4.5-12.8v12.8h2v-15.3H113L109.3,131.1z M132.5,120.4
		l-5.5,15.3h2l1.6-4.6h6.1l1.7,4.6h2.2l-5.9-15.3H132.5z M131.1,129.5l1.6-4.5c0.3-1,0.6-1.9,0.8-2.9c0.2,0.8,0.6,1.9,1,3.2l1.5,4.2
		H131.1z M180.8,120.4l-5.5,15.3h2l1.6-4.6h6.1l1.7,4.6h2.2l-5.9-15.3H180.8z M179.3,129.5l1.6-4.5c0.3-1,0.6-1.9,0.8-2.9
		c0.2,0.8,0.6,1.9,1,3.2l1.5,4.2H179.3z M246.4,132.5l-7.6-12h-2v15.3h1.8v-12l7.6,12h2v-15.3h-1.8V132.5z M263.2,133.9v-5.2h8v-1.8
		h-8v-4.7h8.5v-1.8h-10.4v15.3h10.7v-1.8H263.2z M221.9,135.7h1.9v-15.3h-1.9V135.7z M202.2,132.9l8.1-10.6v-1.8h-10.3v1.8h8
		c-0.5,0.5-1,1.1-1.5,1.8l-7.4,9.8v1.9h11.4v-1.8h-9.2L202.2,132.9z"/>
	<path class="st2" d="M50,110.5c-9.2-3.5-16.9-9.7-17.4-17.7c-0.3-5.1,1-9.6,4.3-13.4l-13.7,3.3c-2.7,0.7-4.4,3.4-3.8,6.2l11.4,47.6
		c0.7,2.7,3.4,4.4,6.2,3.8l5.9-1.4c-2.3-0.8-6.2-2.2-10-4.2l5.5-12.4c0,0,6.4,5.7,15.6,5.7S67.3,117,50,110.5z M88.3,122.6L77,75
		c-0.7-2.7-3.4-4.4-6.2-3.8L61,73.6c2.5,0.4,7.4,1.5,12.9,4.3l-4.3,11.8c0,0-3.5-4-13.1-4.4c-9-0.5-14.1,9.3,3.6,15.1
		c13.5,4.4,17.8,12.9,17.6,20.8c-0.1,4.1-1.5,7.4-3.2,9.9l10-2.4C87.3,128.1,89,125.3,88.3,122.6z"/>
	<path class="st3" d="M75.7,75.3c-0.5-2.1-2.6-3.3-4.6-2.8L64,74.2c2.6,0.6,6.2,1.8,9.9,3.7l-4.3,11.8c0,0-3.5-4-13.1-4.4
		c-9-0.5-14.1,9.3,3.6,15.1c4.6,1.5,8.2,3.5,10.8,5.8c0.1,0,0.2-0.1,0.3-0.1c3.4-1.3,6.7-5.8,9.2-11.1L75.7,75.3z M32.6,92.7
		c-0.3-4.4,0.6-8.4,3-11.8l-12.1,2.9c-2.1,0.5-3.3,2.6-2.8,4.6l6.5,27.3c2.1-2.5,7-7.8,14.1-9.7C36.4,102.6,32.9,98.1,32.6,92.7z"/>
</g>
</svg>
