<?xml version="1.0" encoding="utf-8"?>
<!-- Generator: Adobe Illustrator 22.0.0, SVG Export Plug-In . SVG Version: 6.00 Build 0)  -->
<svg version="1.1" id="Layer_2" xmlns="http://www.w3.org/2000/svg" xmlns:xlink="http://www.w3.org/1999/xlink" x="0px" y="0px"
	 viewBox="0 0 300 211.3" style="enable-background:new 0 0 300 211.3;" xml:space="preserve">
<style type="text/css">
	.st0{clip-path:url(#SVGID_2_);fill:#002B42;}
</style>
<g>
	<defs>
		<rect id="SVGID_1_" x="19.4" y="50.2" width="261.2" height="110.9"/>
	</defs>
	<clipPath id="SVGID_2_">
		<use xlink:href="#SVGID_1_"  style="overflow:visible;"/>
	</clipPath>
	<path class="st0" d="M113.8,81.4c0.3,0.2,0.9-0.2,1.1-0.3c4.2-2.5,7.6-5.2,9.8-9.7c0.5-1.1,1.2-2.3,0-3.4c-1.3-1.1-3.8,0.9-4,1.1
		c-3.5,3.1-5,7.2-6.8,11.2C113.7,80.6,113.4,81.2,113.8,81.4 M181.9,74.8c0.6-0.8,1.3-1.5,1.9-2.3c2.3-2.9,5-5.4,8.6-6.6
		c1.5-0.5,3.4-0.5,5.1-0.3c1.8,0.3,2.9,2.4,2.2,4.3c-0.9,2.6-2,5.2-3.1,7.7c-2.1,5-4.4,10-6.3,15c-0.5,1.3-0.2,2.9-0.3,4.4
		c0,0.5,0.1,1.1,0,1.3c-0.3,0.4-0.6,0.4-1.6,0c-3.4-1.4-5.4-5-4.2-8.5c1.4-4.2,3.3-8.2,5-12.3c0.7-1.7,1.9-3.7,2.6-5.4
		c0.3-0.8,0.3-1.6-0.3-2c-0.5-0.3-1.5-0.3-2,0.2c-2.6,2.8-5.8,5.7-7.9,8.9c-2.9,4.4-5.1,9.1-7.6,13.7c-0.7,1.3-1.4,2-3.3,2l-2.4,0
		c-1.5,0-1.8-0.5-1.2-1.8c3-7.1,6-14.3,8.9-21.4c0.3-0.7,0.5-1.6,0.1-2.1c-0.3-0.4-1-0.5-2.4-0.5c-2.7,0-3.8,1-4.3,3.7
		c-1.4,6.7-4.6,12.6-9.7,17.5c-3,2.9-6.4,5.1-10.9,5.1c-4.1,0-6.7-2.4-6.6-6.3c0.1-6,2.5-11.2,6.4-15.8c1.4-1.7,3.2-3,5.1-4.7
		c0.5-0.4-1-0.3-1.4-0.3c-2.4,0-4.7,0-7,0.2c-0.7,0.1-1.7,0.6-2,1.2c-1.6,3.9-3,7.8-4.5,11.7c-2.3,5.8-4.6,11.7-7.3,17.4
		c-1.7,3.6-4.9,5.7-9.1,5.9c-0.3,0-0.7,0-1,0c-0.2,0-0.8-0.1-0.7-0.4c4.5-4.5,5.7-10.5,8.3-15.9c0.2-0.4,0-0.6-0.4-0.3
		c-0.5,0.4-1,0.8-1.4,1.2c-4,3.6-8.7,6-14.2,6.3c-5.6,0.3-8.7-3-8.1-8.4c0.5-4,1.9-7.6,4.1-11c2.8-4.4,6.4-8,11.4-10
		c1.9-0.7,4-1.2,6-1.2c3.4,0,4.9,2.4,3.5,5.4c-0.8,1.8-1.9,3.6-3.3,5c-3.4,3.6-7.6,6.1-12.1,8.4c-0.8,0.4-1.1,0.8-1.6,1.6
		c-0.3,0.4-0.4,1.2-0.5,1.5c-0.2,1.7-0.6,3.8,1.2,4.6c1.6,0.7,3.9,0.5,5.6-0.1c4.5-1.6,7.8-4.9,11-8.3c2.4-2.7,2.7-4.7,4.1-8.5
		c0.8-2.2,1.2-3,1.6-4.1c0.5-1.4,0.1-1.8-1.4-1.5c-0.5,0.1-1,0.3-1.8,0.5c0.2-2,1.8-2.4,3-2.7c1.7-0.3,2.5-1.3,3.3-2.6
		c2.7-4.8,6.2-8.9,11.4-11.1c6.2-2.6,12.7-3.5,19.3-1.3c2.6,0.9,4.6,3.1,2.3,6.3c-1.4,1.9-3.3,3.5-5.9,4.1c0.2-0.5,0.5-0.9,0.7-1.4
		c2.7-4.3,0.9-7.7-4.3-8.1c-4.9-0.4-9.1,1.3-12.2,4.9c-1.8,2.1-3.1,4.6-4.7,6.9c-0.8,1.1-0.2,1.5,1,1.5c5.2-0.1,10.4-0.2,15.7-0.2
		c0.5,0,1.3,0,1.5,0.4c0.1,0.6-0.3,1-1.1,1.3c-4.5,1.6-6.9,5-9,8.7c-1.9,3.4-3.4,7-3.7,11c-0.1,1-0.1,2,0.1,3
		c0.2,1.6,1.4,2.5,2.9,1.9c1.7-0.7,3.4-1.7,4.5-3.1c4.3-5.2,6.6-11.2,6.7-18c0-1.4,0.6-2,2-2.3c3.7-0.8,7.5-1.7,11.2-2.5
		c1.2-0.3,2.5-0.5,3.7-0.5c1.7,0,2.7,1.1,2.4,2.7c-0.3,1.6-1,3.1-1.5,4.6c-0.2,0.6-0.3,1.2-0.5,1.8
		C181.1,75.1,181.6,75.1,181.9,74.8"/>
	<path class="st0" d="M240.3,88.9c-0.7,1.9,1.3,2.8,3.2,2c3.1-1.3,5.1-3.7,6.6-6.3c2.9-5,5.4-10.1,8-15.2c0.6-1.1,0-1.9-1.2-1.6
		c-1.3,0.3-2.7,0.6-3.9,1.3c-4.5,2.6-7.1,6.7-9.3,11.1C242.4,82.9,241.4,86,240.3,88.9 M250.3,88.4c-1.3,1.3-2.5,2.8-3.9,3.9
		c-2.2,1.8-4.7,3.2-7.7,3.2c-3.3,0-4.9-1.4-5.3-4.6c0-0.4-0.2-0.7-0.3-1.4c-0.6,0.5-1.1,0.9-1.5,1.2c-3,2.7-6.4,4.6-10.7,4.8
		c-3.6,0.2-6.5-0.8-7.6-4.7c-1.8,1.1-3.4,2.2-5.1,3.2c-2.2,1.3-4.7,1.8-7.3,1.4c-2.6-0.4-4.2-2.8-3.4-5.6c1.2-3.7,2.6-7.4,4.1-11.1
		c1.4-3.3,3.1-6.4,4.6-9.6c0.8-1.6,1.9-2.6,3.7-2.8c1.2-0.1,2.4-0.5,3.5-0.7c0.6-0.1,1.1-0.1,2-0.2c-1.7,3.3-3.3,6.3-4.6,9.4
		c-2.1,4.6-4,9.3-5.8,14c-0.3,0.7,0,2,0.5,2.3c0.5,0.4,1.9,0.2,2.5-0.2c1.6-1,3.1-2.2,4.5-3.5c0.4-0.3,0.7-0.9,0.7-1.4
		c1-6.2,4.1-11.3,8.5-15.6c4.2-4.1,9.2-6.1,15.2-5.2c3.4,0.5,4.4,2.7,2.4,5.4c-1.1,1.4-3.9,3.1-6.1,3.5c-0.5,0.1,1.2-1.3,2.2-4.2
		c0.4-1.1-0.2-1.8-0.7-2.2c-0.6-0.4-1.9-0.3-2.7,0c-3.2,1.3-5,4-6.7,6.7c-2.6,4.1-4.4,8.4-4.7,13.3c-0.3,3.7,2.2,4.6,5.1,3.4
		c4.3-1.8,7.6-4.7,9.6-9.1c2.7-5.9,6.4-11,12.4-14.2c4.8-2.6,10-3.1,15.3-2.2c2.6,0.4,2.5,0.8,1.5,3.2c-2.3,5.4-4.6,10.9-6.6,16.4
		c-1.1,3-1.5,6.1-2.1,9.2c-0.5,1.9,1.1,4.1-0.2,4.1c-0.7,0-1.5,0-2.1-0.3c-3.2-1.6-4.3-4.7-3.2-8.1c0.2-0.5,0.2-1,0.4-1.4
		C251.1,88,250.6,88,250.3,88.4"/>
	<path class="st0" d="M19.4,118.5c0.8-0.1,1.7-0.3,2.5-0.3c13.8-0.2,27.5-0.5,41.3-0.6c23.5-0.2,46.9-0.4,70.4-0.5
		c27.5,0,55,0.1,82.5,0.2c18.4,0.1,36.8,0.4,55.3,0.6c2.4,0,4.7,0.2,7.1,0.3c0.6,0,1.3,0.2,2.3,0.4C272.9,121,29.7,120.8,19.4,118.5
		"/>
	<path class="st0" d="M99.5,50.5c0.8,0.8-0.5,1.1-1.4,1.5c-2.6,1.3-5.3,2.1-8.2,2.1c-3.3,0.1-6.5,0-9.8,0c-2.4,0-3.9,0.7-5,2.5
		c-1.8,2.9-3.6,5.8-4.9,8.9c-2.5,5.8-4.7,11.7-7,17.5c-1.5,3.9-2.9,7.9-4.6,11.8c-1.7,4-4,7.7-8.6,9.2c-1.8,0.6-3.6,0.8-5.7,0.3
		c-2-0.4,1.9-1.8,3.6-5.3c1.8-3.6,3-5.9,4.6-9.6c2-4.9,3.9-9.8,5.9-14.7c1.4-3.4,2.8-6.8,4.4-10.1c2-4,4.9-7.4,9.1-9.4
		c0.2-0.1,0.7-0.4,0.5-0.7c-0.2-0.5-1.1-0.4-1.6-0.4c-3.5,0-7-0.1-10.5,0.2c-4.7,0.4-9.3,1.3-13.4,3.9c-3.1,2-5.2,4.7-5.6,8.4
		c-0.1,1.1,0.3,2.3,0.5,3.4c0,0.4,0.1,0.9-0.1,1.1c-0.2,0.2-0.8,0.2-1.1,0.1c-4.3-1.5-6-5.6-4.2-9.7c1.9-4.3,5.5-6.5,9.7-8.1
		c6.2-2.3,12.7-2.7,19.3-2.7c9-0.1,18,0,27,0C95.1,50.5,99,50,99.5,50.5"/>
	<path class="st0" d="M77.9,80.9c-0.2,0.5,0.7,0.7,1.5,0.1c1.8-1.2,3.5-2.5,5.1-3.9c2.2-2,4.2-4.2,4.9-7.2c0.2-0.9-0.2-1.6-0.7-2
		c-0.4-0.4-1.3-0.2-1.8,0.1c-3.1,1.3-4.7,4.2-6.2,6.9C79.6,76.8,78.8,78.9,77.9,80.9 M113.9,53.8c-0.6,1.5-0.9,2.5-1.4,3.5
		c-3.6,7.8-7.4,15.5-10.8,23.3c-1.7,3.8-3,7.8-4.2,11.8c-0.5,1.5-0.2,3.2-0.3,4.8c0,0.5,0,2.2-1.9,1.2c-2.9-1.5-4.4-3.8-4.2-7
		c0-0.9,0.1-1.7,0.2-3c-0.7,0.4-7.4,5.8-11.5,6.9c-3.8,0.9-8.9,0.3-10.1-3.7c-0.6-2-0.7-4.5-0.2-6.6c2.1-8.5,6.8-15.3,15.2-19
		c2.3-1,4.8-1.9,7.5-0.8c1.9,0.7,2.5,1.9,2.2,3.9c-0.4,2.4-1.8,4.3-3.4,6c-3.4,3.6-7.7,6.1-12,8.4c-0.8,0.4-1.6,1.3-1.9,2.1
		c-0.4,1-0.7,2-0.7,3.1c0,2.1,1.3,3.2,3.4,3.2c2.6,0,4.7-1.3,6.7-2.7c4.4-3.3,7.7-7.3,9.8-12.4c2.1-5,4.6-9.8,6.9-14.7
		c0.8-1.6,1.4-3.3,2.4-4.8c0.6-0.9,1.5-1.9,2.5-2.2C109.7,54.4,111.5,54.2,113.9,53.8"/>
	<path class="st0" d="M125.1,151.9c0,1.6,0,3.1-0.1,4.7c-0.1,1.1,0.4,1.5,1.5,1.5c1.6-0.1,3.2,0,4.8,0c3-0.1,5.9-2.1,6.5-5
		c0.5-2.6,1-5.4,0.8-8.1c-0.2-3.3-1.2-6.6-5.1-7.5c-2.5-0.6-5.1-0.5-7.6-0.7c-0.3,0-0.8,0-0.8,1.3
		C125,141.2,125.1,150.4,125.1,151.9 M121.4,161c0-1.1,0-2,0-2.9c0-7.6,0-15.2-0.1-22.9c0-1.1,0.4-1.4,1.4-1.4c2.9,0,5.9-0.1,8.8,0
		c6.2,0.3,9.8,3.7,10.6,9.7c0.5,3.9,0.4,7.8-1.1,11.5c-1.1,2.5-3,4.1-5.7,5C132,161.1,126.2,161,121.4,161"/>
	<path class="st0" d="M248,160.7c0,0-0.5-0.7-1.2-1.6c-3.2-4.5-13.1-18.1-13.4-18.7c-0.7-1-0.8-0.1-0.8,0.5v19.8h-3.1
		c0-0.6,0-1.3,0-1.9c0-7.7,0-15.5,0-23.2c0-0.6,0.2-1.4,0.5-1.6c0.6-0.3,1.7-0.3,2.5,0.7c2.7,3.4,5.2,7,7.8,10.5
		c1.9,2.6,3.8,5.3,5.7,7.9c0.3,0.4,1,1.3,1.7,2c0.1-0.8,0.1-1.8,0.1-2.3c0-5.9-0.1-11.8-0.2-17.7c0-1.2,0.5-1.4,1.5-1.4
		c0.9,0,1.7-0.1,1.7,1.2c0,8.4,0,25.7,0,25.7H248z"/>
	<path class="st0" d="M205.5,151.4c0.5,4.7,4.3,7.1,8.7,6.5c2.7-0.3,5.5-2.9,5.6-5.7c0.2-3.3,0.2-6.5,0-9.8c-0.2-2.9-3-5.5-5.8-5.8
		c-4.1-0.3-7,1.3-8,4.5C205.3,143.4,204.9,146.2,205.5,151.4 M224.1,147.4c0,3-0.4,6-2,8.7c-1.2,2-2.8,3.2-5,4.1
		c-1.7,0.7-3.4,0.7-5.1,0.7c-5.1,0.1-9.2-4-10-8.3c-0.7-3.6-0.7-7.2,0.1-10.8c1.1-4.9,4.7-7.8,10-8c3.3-0.1,6.3,0.7,8.7,3.1
		c1.9,1.9,2.6,4.4,3,7C224.1,145,224,146.2,224.1,147.4"/>
	<path class="st0" d="M151.5,150.9c2.9,0,5.6,0,8.2-0.1c1,0.1,0.9-0.2,0.6-1.2c-0.9-3-1.9-5.9-3-8.8c-0.3-1-0.8-1.9-1.2-2.9
		c-0.1-0.4-0.4-0.4-0.5,0.1C154.2,142.2,152.9,146.3,151.5,150.9 M167.7,160.8H164c-0.7-2-1.4-4-2.2-5.9c-0.2-0.5-0.9-1-1.4-1
		c-2.8-0.1-5.6,0-8.4,0c-1,0-1.5,0.3-1.8,1.4c-0.3,1.2-1.6,5.6-1.6,5.6l-3.7-0.1c0,0,4.2-12.4,6.2-18.3c0.8-2.4,1.7-4.9,2.3-7.3
		c0.3-1.2,0.8-1.3,2.5-1.3c1.8,0,2.2,0,2.6,1.2c2.3,6.5,4.7,13,7,19.5C166.2,156.5,166.9,158.6,167.7,160.8"/>
	<path class="st0" d="M67.1,143.6c0-2.8,0.1-5.6,0-8.4c-0.1-1.5,0.8-1.4,1.8-1.4c1.1,0,1.8,0.1,1.7,1.6c-0.1,5-0.2,9.9,0,14.9
		c0.1,1.9,0.5,4,1.4,5.5c1.4,2.2,5.4,2.8,8.3,1.9c2.9-0.9,4-3.1,4.1-5.8c0.2-5.5,0.1-10.9,0.1-16.4c0-1.2,0.2-1.7,1.6-1.7
		c1.2,0,1.7,0.3,1.7,1.6c-0.1,5.5,0,10.9-0.1,16.4c-0.1,2.8-0.7,5.6-3.4,7.1c-1.6,1-3.6,1.7-5.4,1.9c-1.9,0.2-3.9-0.2-5.8-0.6
		c-3.5-0.8-5.4-3.3-5.7-6.7C67,150.2,67.1,143.6,67.1,143.6"/>
	<path class="st0" d="M182.1,161.1c-3.6,0-6.8-0.9-9.4-3.3c-2.1-2-2.8-4.5-3.2-7.2c-0.5-3.8-0.3-7.5,1.4-11.1c1.8-3.7,5-5.3,8.9-5.6
		c2.3-0.2,4.7,0.2,6.9,0.6c1.2,0.2,1.4,0.7,1.1,1.7c-0.3,0.9-0.7,1.1-1.8,1c-2.4-0.2-4.8-0.4-7.1-0.1c-3.1,0.4-4.8,2.5-5.4,5.3
		c-0.7,3.5-0.9,7,0.3,10.5c1.1,3.1,3.5,4.5,6.5,4.9c1.9,0.2,4,0.2,6-0.2c0.8-0.2,1-0.1,1.6,0.9c0.4,0.8,0.2,1.5-1,1.8
		C185.2,160.9,183.8,161.1,182.1,161.1"/>
	<path class="st0" d="M52.3,160.8h-3.6c0-1,0-2,0-3c0-7.6,0-15.1-0.1-22.7c0-1,0.4-1.3,1.3-1.3c4.4,0,8.8,0,13.2,0
		c1.3,0,1.4,0.6,1.4,1.4c0,0.9-0.1,1.4-1.6,1.4c-2.8-0.1-5.6,0-8.4,0c-2.3,0-2.2,0-2.2,2.2c0,1.9,0,3.3,0,5.2c0,1.6,0.5,1.9,2,1.9
		c2.1-0.1,4.1,0,6.2-0.1c1.1,0,1.5,0.3,1.5,1.4c0,1.2-0.4,1.6-1.6,1.5c-2-0.1-4,0-6-0.1c-1.5-0.1-2.1,0.3-2.1,1.9
		C52.4,154,52.3,157.4,52.3,160.8"/>
	<path class="st0" d="M193.4,160.9c0-1.2,0-2.2,0-3.3c0-7.5,0-15-0.1-22.5c0-1.2,1-1.2,1.9-1.2c0.8,0,1.9,0,1.9,1c0,8.6,0,17.5,0,26
		C197,161,194.2,160.9,193.4,160.9"/>
	<path class="st0" d="M219.9,56.4c-0.1,2.2-2,4.1-4.1,4.1c-1.7,0-2.6-1-2.5-2.7c0.1-2.1,2.1-4.2,4.1-4.3
		C218.9,53.5,219.9,54.7,219.9,56.4"/>
	<path class="st0" d="M209.6,130.6c-0.4-0.4-0.9-0.6-1.1-1c-0.1-0.2,0.3-0.8,0.6-1c1.8-1.4,3.6-2.7,5.4-4.1c1.2-1,1.7,0.1,2.2,0.6
		c0.6,0.7,0.3,1.2-0.6,1.6c-1.8,1-3.5,2.1-5.2,3.2C210.5,130.1,210.1,130.3,209.6,130.6"/>
	<path class="st0" d="M112.9,160.8c0,0-0.5-0.7-1.2-1.6c-3.2-4.5-13.1-18.1-13.4-18.7c-0.7-1-0.8-0.1-0.8,0.5v19.8h-3.1
		c0-0.6,0-1.3,0-1.9c0-7.7,0-15.5,0-23.2c0-0.6,0.2-1.4,0.5-1.6c0.6-0.3,1.7-0.3,2.5,0.7c2.7,3.4,5.2,7,7.8,10.5
		c1.9,2.6,3.8,5.3,5.7,7.9c0.3,0.4,1,1.3,1.7,2c0.1-0.8,0.1-1.8,0.1-2.3c0-5.9-0.1-11.8-0.2-17.7c0-1.2,0.5-1.4,1.5-1.4
		c0.9,0,1.7-0.1,1.7,1.2c0,8.4,0,25.7,0,25.7H112.9z"/>
</g>
</svg>
