<?xml version="1.0" encoding="utf-8"?>
<!-- Generator: Adobe Illustrator 22.0.0, SVG Export Plug-In . SVG Version: 6.00 Build 0)  -->
<svg version="1.1" id="Layer_2_1_" xmlns="http://www.w3.org/2000/svg" xmlns:xlink="http://www.w3.org/1999/xlink" x="0px" y="0px"
	 viewBox="0 0 300 211.3" style="enable-background:new 0 0 300 211.3;" xml:space="preserve">
<style type="text/css">
	.st0{fill:#172F51;}
	.st1{fill:#0C8E58;}
	.st2{fill:#D2222A;}
	.st3{fill:#A7A9A8;}
	.st4{fill:#9C9B9B;}
	.st5{fill:#969696;}
	.st6{fill:#040404;}
</style>
<g>
	<path class="st0" d="M55.4,140.6c0-0.3,0-0.5,0-0.8c-0.4-2,0.5-3,2.2-3.9c7.9-4.4,15.8-9.1,23.7-13.6c0.5-0.3,0.7-0.7,0.7-1.3
		c0-2.8,0-5.6,0-8.4c0-0.7-0.1-0.8-0.7-0.4c-1.4,0.9-2.8,1.6-4.2,2.4c-0.4,0.2-0.7,0.6-0.9,1c-1.7,3.9-4.3,7-8.2,8.8
		c-3.3,1.5-6.7,0.6-8.5-2.1c-1-1.5-1.3-3.3-1.2-5.1c0.2-6.1,3.1-10.7,8.1-13.9c1.5-1,3.2-1.4,5-1.3c1,0,1.9,0.2,2.6,0.8
		c0.6,0.4,1.2,0.4,1.8,0c1.8-1.1,3.6-2.1,5.4-3.1c0.7-0.4,0.9-0.8,0.9-1.5c0-2.1,0-4.3,0-6.4c0-0.6,0.2-1,0.7-1.2
		c0.6-0.3,1.2-0.7,1.7-1c0.4-0.3,0.6-0.2,0.7,0.2c4.8,10.1,5.4,20.3,0.5,30.6c-3.2,6.8-7.9,12.2-14.5,15.8
		c-4.4,2.4-9.2,3.8-14.2,4.3c-0.3,0.1-0.6-0.1-0.9,0.1C56,140.6,55.7,140.6,55.4,140.6z"/>
	<path class="st1" d="M19.1,102.7c0.4-1.1,0.4-2.3,0.6-3.5c0.7-3.3,1.7-6.5,3.2-9.5c0.2-0.4,0.3-0.4,0.6-0.2
		c0.6,0.3,1.2,0.6,1.7,0.9c0.7,0.4,1,1.1,1,1.9c-0.3,9.4,0,18.8-0.2,28.2c0,0.9,0.3,1.5,1.2,1.9c2.3,1.3,4.6,2.6,6.8,4
		c0.6,0.3,0.8,0.4,0.8-0.4c-0.1-1.7,0.2-3.4-0.2-5.1c-0.4-1.3-1.1-2.4-1.8-3.6c-1.9-3.3-2.6-6.7-1.5-10.4c1.2-4.1,4.7-5.8,8.7-4.3
		c3.7,1.3,6.1,3.9,7.9,7.3c1.5,2.8,2.4,5.7,2,8.9c-0.3,2.5-1.2,4.6-3.5,5.9c-0.4,0.2-0.6,0.5-0.6,0.9c0,2.3,0,4.6,0,7
		c0,0.7,0.4,0.9,0.9,1.2c1.8,1,3.6,2.1,5.4,3.1c0.6,0.4,0.9,0.8,0.9,1.6c-0.1,0.8,0,1.6,0,2.3c-0.6,0-1.1,0-1.7,0
		c-2.6-0.2-5.2-0.7-7.8-1.5c-5.1-1.6-9.6-4.1-13.4-7.8c-3.1-3-5.6-6.4-7.5-10.3c-1.8-3.7-3.2-7.6-3.4-11.8c0-0.1,0-0.1-0.1-0.1
		c0-0.1,0-0.1,0-0.2c0.1-0.3,0.1-0.7,0-1C19.1,106.2,19.1,104.4,19.1,102.7z"/>
	<path class="st2" d="M57.8,70.7c1.1,0.4,2.3,0.4,3.5,0.6c5.2,1,9.8,3.1,13.9,6.4c3.3,2.6,6.2,5.7,8.6,9.2c-0.8,0.6-1.7,1.1-2.6,1.6
		c-0.4,0.2-0.6,0-0.9-0.2c-2.7-1.5-5.4-3.1-8.1-4.7c-4.2-2.4-8.4-4.8-12.6-7.3c-1.4-0.8-2.8-1.6-4.2-2.5c-0.7-0.4-1.3-0.6-2.1-0.1
		c-2.4,1.5-4.9,2.8-7.3,4.3c-0.1,0.1-0.2,0.1-0.3,0.2c1.8,1,3.6,2,5.3,3c0.3,0.1,0.5,0.1,0.8,0.1c4-0.4,7.9,0,11.3,2.4
		c1.7,1.1,3,2.6,3.4,4.7c0.5,2.9-0.7,5.1-2.9,6.8c-2.2,1.7-4.9,2.5-7.6,2.8c-3.7,0.3-7.2-0.2-10.4-2.3c-1.8-1.2-3.2-2.6-3.7-4.7
		c-0.1-0.5-0.2-1-0.2-1.5c0.1-0.6-0.2-0.9-0.6-1.1c-2-1.2-4-2.3-5.9-3.4c-0.5-0.3-0.8-0.2-1.2,0.1c-1.8,1.1-3.7,2.1-5.5,3.2
		c-0.7,0.4-1.2,0.5-1.9,0c-0.4-0.4-1-0.6-1.5-0.9c-0.4-0.2-0.4-0.3-0.1-0.7c1.7-2.5,3.7-4.8,5.9-6.9c4.6-4.3,10-7,16-8.3
		c1.3-0.3,2.5-0.4,3.8-0.5c0.2,0,0.3,0.1,0.4-0.2C53.2,70.7,55.5,70.7,57.8,70.7z"/>
	<path class="st3" d="M19.1,107.9c0.2,0.3,0.3,0.7,0,1C19.1,108.6,19.1,108.3,19.1,107.9z"/>
	<path class="st4" d="M56.3,140.6c0.3-0.3,0.6-0.2,0.9-0.1c0,0,0,0.1,0,0.1C56.9,140.6,56.6,140.6,56.3,140.6z"/>
	<path class="st5" d="M92.7,94.2c0-5.4,0-10.7,0-16.1c0-0.7,0.2-0.8,0.8-0.8c7.6,0,15.2,0,22.7,0c0.7,0,0.9,0.1,0.9,0.9
		c-0.1,1.4,0,2.9,0,4.3c0,0.7-0.2,0.8-0.9,0.8c-5.1,0-10.3,0-15.4,0c-0.8,0-1,0.2-1,1c0.1,2,0,4,0,6c0,0.6,0.2,0.8,0.8,0.8
		c4.5,0,9,0,13.4,0c0.7,0,0.9,0.1,0.9,0.9c-0.1,1.4-0.1,2.8,0,4.2c0.1,0.8-0.3,0.9-1,0.9c-4.4,0-8.9,0-13.3,0
		c-0.6,0-0.8,0.1-0.8,0.8c0,4.2,0,8.4,0,12.6c0,0.8-0.2,1-1,1c-1.8-0.1-3.6,0-5.4,0c-0.7,0-0.9-0.2-0.9-0.9
		C92.7,105.1,92.7,99.6,92.7,94.2C92.7,94.2,92.7,94.2,92.7,94.2z"/>
	<path class="st5" d="M189.7,94.2c0-5.3,0-10.6,0-15.9c0-1.2,0-1.2,1.2-1.2c1.6,0,3.2,0,4.7,0c1.2,0,1.2,0,1.2,1.2
		c0,8.6,0,17.1,0,25.7c0,1.3,0,1.3,1.3,1.3c5-0.2,9.9,0.1,14.9,0c0.8,0,1,0.2,1,1c-0.1,1.5,0,3,0,4.5c0,0.5-0.1,0.7-0.7,0.7
		c-7.6,0-15.3,0-22.9,0c-0.7,0-0.6-0.4-0.6-0.9C189.7,105,189.8,99.6,189.7,94.2C189.7,94.2,189.7,94.2,189.7,94.2z"/>
	<path class="st6" d="M243.3,120.1c0,0.3,0,0.6,0,0.9c0,4.2,0,8.3,0,12.5c0,0.8-0.2,1-0.9,0.9c-0.9-0.1-1.8,0-2.7,0
		c-0.5,0-0.6-0.1-0.6-0.6c0-6.7,0-13.3,0-20c0-0.5,0.1-0.6,0.6-0.6c1.2,0,2.3,0,3.5,0c0.5,0,0.8,0.2,1,0.7c2.5,4.5,5.1,8.9,7.6,13.3
		c0,0.1,0.1,0.1,0.3,0.3c0-0.4,0-0.7,0-0.9c0-4.2,0-8.4,0-12.6c0-0.6,0.1-0.8,0.7-0.8c0.9,0.1,1.9,0,2.8,0c0.5,0,0.7,0.1,0.7,0.6
		c0,6.6,0,13.2,0,19.9c0,0.6-0.2,0.7-0.7,0.6c-1,0-2,0-3,0c-0.5,0-0.8-0.2-1.1-0.6c-2.6-4.5-5.2-9-7.8-13.5
		c-0.1-0.1-0.1-0.2-0.2-0.3C243.5,120.1,243.4,120.1,243.3,120.1z"/>
	<path class="st6" d="M178.6,123.9c0-3.3,0-6.5,0-9.8c0-0.6,0.1-0.8,0.7-0.8c4.6,0,9.3,0,13.9,0c0.6,0,0.8,0.2,0.8,0.8
		c-0.1,0.7,0,1.5,0,2.3c0,0.5-0.2,0.7-0.7,0.7c-3.2,0-6.4,0-9.6,0c-0.5,0-0.7,0.1-0.7,0.7c0.1,1,0.1,2,0,2.9
		c-0.1,0.8,0.2,0.8,0.8,0.8c2.8,0,5.7,0,8.5,0c0.6,0,0.8,0.1,0.8,0.7c-0.1,0.8-0.1,1.6,0,2.4c0.1,0.6-0.2,0.7-0.7,0.7
		c-2.9,0-5.7,0-8.6,0c-0.7,0-0.9,0.1-0.9,0.8c0.1,1.3,0,2.5,0,3.8c0,0.6,0.2,0.7,0.8,0.7c3.4,0,6.7,0,10.1,0c0.6,0,0.8,0.2,0.8,0.8
		c-0.1,0.8,0,1.7,0,2.5c0,0.4-0.1,0.6-0.6,0.6c-4.9,0-9.9,0-14.8,0c-0.7,0-0.5-0.4-0.5-0.8C178.5,130.4,178.5,127.1,178.6,123.9
		C178.5,123.9,178.5,123.9,178.6,123.9z"/>
	<path class="st6" d="M172.1,120.4c-0.1,0-0.2,0-0.3,0c-1.2,0.2-2-0.1-2.5-1.4c-0.7-1.8-2.4-2.4-4.2-2.2c-2,0.1-3.2,1.2-3.9,3
		c-1.1,2.7-1.1,5.4-0.2,8.2c0.9,2.5,3.3,3.8,5.9,3.1c1.6-0.4,2.4-1.6,2.9-3.1c0.2-0.6,0.4-0.7,1-0.7c0.9,0.1,1.9,0.1,2.8,0
		c0.7,0,0.9,0.2,0.8,0.9c-0.7,3.2-2.6,5.5-5.7,6.5c-3.7,1.2-7.1,0.7-10-2.2c-1.6-1.6-2.3-3.7-2.6-5.9c-0.4-3-0.2-6,1.2-8.8
		c1.8-3.3,4.6-4.8,8.3-4.8c2.6,0.1,5.1,0.7,7,2.8c1,1.2,1.7,2.5,1.9,4.1c0.1,0.5-0.1,0.7-0.6,0.6
		C173.1,120.4,172.6,120.4,172.1,120.4C172.1,120.4,172.1,120.4,172.1,120.4z"/>
	<path class="st6" d="M198,123.9c0-3.2,0-6.5,0-9.7c0-0.6,0.1-0.8,0.8-0.8c1,0.1,1.9,0.1,2.9,0c0.6,0,0.7,0.2,0.7,0.8
		c0,5.2,0,10.4,0,15.6c0,0.7,0.2,0.9,0.9,0.9c3,0,5.9,0,8.9,0c0.7,0,0.9,0.2,0.8,0.8c-0.1,0.8,0,1.6,0,2.5c0,0.4-0.1,0.6-0.6,0.6
		c-4.6,0-9.2,0-13.8,0c-0.7,0-0.5-0.4-0.5-0.8C198,130.4,198,127.1,198,123.9C198,123.9,198,123.9,198,123.9z"/>
	<path class="st6" d="M278.8,134.2c-2.4-6.7-4.8-13.4-7.1-20.2c-0.2-0.6-0.5-0.8-1.1-0.7c-1.1,0.1-2.1,0.1-3.2,0
		c-0.8-0.1-1.2,0.3-1.5,1c-0.7,1.9-1.4,3.9-2,5.8c-1.6,4.5-3.2,9.1-4.9,13.6c-0.2,0.6-0.1,0.7,0.5,0.7c1.1,0,2.2,0,3.3,0
		c0.5,0,0.7-0.1,0.8-0.6c0.3-1,0.7-2,1-3c0.2-0.6,0.5-0.8,1.1-0.8c2,0,4.1,0,6.1,0c0.6,0,0.9,0.2,1.1,0.8c0.3,1,0.6,1.9,0.9,2.9
		c0.1,0.5,0.4,0.7,1,0.7c1.4,0,2.8,0,4.1,0c0-0.1,0-0.1,0-0.2C278.9,134.3,278.8,134.3,278.8,134.2z M270.9,126.4c-1.5,0-3,0-4.7,0
		c0.9-2.7,1.7-5.3,2.7-8.1c0.9,2.6,1.6,5.1,2.4,7.5C271.4,126.2,271.3,126.4,270.9,126.4z"/>
	<path class="st5" d="M278.3,99.4c-0.3-2.5-1.5-4.4-3.7-5.7c-0.4-0.2-0.8-0.4-1.3-0.7c2.4-1.3,3.7-3.2,4-5.9
		c0.3-3.2-0.7-6.5-3.7-8.3c-2.1-1.3-4.4-1.6-6.7-1.6c-5.2,0-10.3,0-15.5,0c-1.1,0-1.1,0-1.1,1.1c0,10.5,0,21.1,0,31.6
		c0,1.5,0,1.5,1.5,1.5c4.9,0,9.9,0,14.8,0c2.5,0,5-0.3,7.2-1.7C277.4,107.4,278.9,103.6,278.3,99.4z M258,83.2c2.8,0,5.7,0,8.5,0
		c1.4,0,2.8,0.4,3.6,1.8c1.3,2.4-0.4,5.4-3.2,5.5c-1.5,0.1-3,0-4.5,0c0,0,0,0,0,0c-1.5,0-3,0-4.5,0c-0.5,0-0.7-0.2-0.7-0.7
		c0-2,0-4,0-6C257.3,83.3,257.5,83.2,258,83.2z M267.2,105.3c-1.3,0.1-2.6,0.2-3.9,0.2c-1.8,0-3.5-0.1-5.3,0c-0.6,0-0.7-0.1-0.7-0.7
		c0-2.5,0-5.1,0-7.6c0-0.6,0.2-0.7,0.7-0.7c1.5,0,3,0,4.6,0c0,0,0,0,0,0c1.5,0,3,0,4.5,0c2,0.1,3.7,1.1,4,2.8
		C271.6,102.4,270.6,104.9,267.2,105.3z"/>
	<path class="st5" d="M170,93c1-0.6,1.9-1.1,2.5-1.9c2.8-3.7,1.7-9.7-2.1-12.2c-1.9-1.2-4-1.7-6.2-1.7c-5.4,0-10.8,0-16.1,0
		c-0.8,0-1.1,0.3-1.1,1.1c0,4.1,0,8.2,0,12.3c0,6.7,0,13.4,0,20c0,0.5,0,0.9,0.7,0.9c4.2,0,8.3,0,12.5,0c2,0,3.9,0,5.9-0.2
		c5.9-0.7,9-5,9.1-10C175.2,97.5,173.7,94.5,170,93z M154.7,83.2c2.7,0,5.4,0,8.1,0c0.7,0,1.3,0.1,1.9,0.3c1.5,0.4,2.3,1.3,2.4,2.8
		c0.2,2-0.4,3.1-1.9,3.8c-1.3,0.6-2.6,0.4-4,0.5c-0.7,0.1-1.5,0-2.2,0c0,0,0,0,0,0c-1.5,0-3,0-4.4,0c-0.5,0-0.6-0.1-0.6-0.6
		c0-2,0-4.1,0-6.1C153.9,83.3,154.1,83.2,154.7,83.2z M164.4,105.2c-1,0.2-2,0.2-2.9,0.2c-2.3,0-4.5,0-6.8,0c-0.6,0-0.8-0.1-0.8-0.8
		c0-2.5,0-5,0-7.5c0-0.6,0.2-0.7,0.8-0.7c1.5,0.1,2.9,0,4.7,0c1.6,0.1,3.4-0.2,5.2,0.2c2.4,0.5,3.3,1.7,3.2,4.4
		C167.8,103.2,166.5,104.7,164.4,105.2z"/>
	<path class="st5" d="M144.3,110.7c-1.1-3-2.1-5.9-3.2-8.9c-2.8-7.9-5.6-15.7-8.3-23.6c-0.3-0.8-0.7-1.1-1.6-1.1
		c-1.9,0-3.9,0.1-5.8,0c-0.9,0-1.3,0.3-1.6,1.2c-2.3,6.6-4.7,13.2-7.1,19.9c-1.5,4.1-2.9,8.2-4.4,12.3c-0.3,0.9-0.3,0.9,0.7,0.9
		c1.9,0,3.8,0,5.7,0c0.6,0,1-0.2,1.1-0.8c0.5-1.7,1.1-3.4,1.6-5.1c0.3-0.8,0.7-1.2,1.6-1.1c1.7,0.1,3.3,0,5,0c1.7,0,3.4,0,5.1,0
		c0.9,0,1.4,0.3,1.6,1.2c0.5,1.7,1.1,3.4,1.6,5.1c0.1,0.5,0.4,0.6,0.8,0.6c2.2,0,4.4,0,6.6,0C144.4,111.4,144.4,111.2,144.3,110.7z
		 M131.6,98.4c-2.3,0-4.6,0-6.8,0c-0.7,0-0.9-0.2-0.6-0.9c1.4-4,2.7-8.1,4.1-12.3c0.5,1.4,0.9,2.6,1.3,3.9c0.9,2.8,1.8,5.7,2.7,8.5
		C132.5,98.3,132.2,98.4,131.6,98.4z"/>
	<path class="st5" d="M247.5,110.4c-2.8-8-5.6-15.9-8.5-23.9c-1-2.8-2-5.6-2.9-8.4c-0.2-0.7-0.6-1-1.4-1c-1,0.1-2,0-3,0c0,0,0,0,0,0
		c-1,0-1.9,0.1-2.9,0c-0.9-0.1-1.4,0.3-1.7,1.2c-1.7,4.8-3.4,9.6-5.1,14.4c-2.1,5.9-4.2,11.9-6.4,17.8c-0.3,0.7-0.1,0.9,0.6,0.9
		c1.9,0,3.8-0.1,5.7,0.1c0.6,0,1-0.2,1.2-0.9c0.6-1.8,1.2-3.6,1.8-5.4c0.2-0.5,0.5-0.8,1-0.7c3.6,0,7.2,0,10.7,0
		c0.7,0,1.1,0.3,1.3,1c0.5,1.7,1.1,3.4,1.6,5.1c0.2,0.6,0.5,0.9,1.2,0.9c2-0.1,3.9,0,5.9,0C247.8,111.4,247.8,111.4,247.5,110.4z
		 M234.9,98.4c-2.3,0-4.7,0-7,0c-0.5,0-0.7-0.1-0.5-0.7c1.4-4.1,2.7-8.2,4.1-12.2c0,0,0.1-0.1,0.2-0.2c1.3,4.1,2.6,8.2,4,12.2
		C235.8,98.3,235.7,98.5,234.9,98.4z"/>
	<path class="st6" d="M107.5,123.1c0.1-0.1,0.1-0.1,0.2-0.2c2.7-1.8,3-5.9,0.5-8.1c-1.3-1.1-2.9-1.5-4.6-1.5c-3.2,0-6.4,0-9.6,0
		c-0.7,0-0.8,0.2-0.8,0.8c0,3.7,0,7.4,0,11.2c0,2.8,0,5.6,0,8.5c0,0.3-0.2,0.7,0.4,0.7c3.7-0.1,7.4,0.2,11.2-0.2
		c1.5-0.1,2.9-0.7,4-1.8C111.6,129.6,111,125.4,107.5,123.1z M97.5,117.6c0-0.4,0.1-0.5,0.5-0.5c0.8,0,1.6,0,2.4,0
		c1.2-0.1,2.4,0,3.6,0.2c0.9,0.2,1.4,0.7,1.5,1.6c0.1,1.1-0.1,1.9-1,2.3c-0.5,0.3-1,0.4-1.5,0.4c-1.6,0-3.3,0-4.9,0
		c-0.5,0-0.7-0.2-0.7-0.7C97.5,119.8,97.5,118.7,97.5,117.6z M103.7,130.6c-1.9,0.2-3.9,0-5.8,0.1c-0.3,0-0.4-0.1-0.4-0.4
		c0-1.6,0-3.2,0-4.7c0-0.4,0.3-0.4,0.5-0.4c0.9,0,1.8,0,2.7,0c0,0,0,0,0-0.1c1,0.1,2.1,0,3.1,0.2c1.5,0.2,2.2,1.1,2.2,2.6
		C106,129.4,105.2,130.4,103.7,130.6z"/>
	<path class="st6" d="M235.8,121.9c-0.3-2.4-1-4.7-2.7-6.5c-2.5-2.6-5.7-3.1-9.1-2.7c-3.1,0.4-5.5,1.8-6.9,4.6
		c-1.4,2.8-1.9,5.9-1.3,9c0.5,2.5,1.3,4.7,3.2,6.4c2.5,2.2,5.6,2.5,8.7,2.1c3.3-0.4,5.6-2.3,7-5.2c0.9-1.8,1.1-3.8,1.1-5.8
		C235.9,123.2,235.9,122.5,235.8,121.9z M231.4,123.9c-0.1,1.8-0.3,3.6-1.3,5.1c-1.2,1.7-2.8,2.4-4.9,2.3c-2.3-0.2-3.8-1.4-4.5-3.5
		c-1-2.7-1-5.5,0.2-8.2c0.9-2,2.5-3,4.7-3c2.1,0,3.7,0.9,4.8,2.8C231.2,120.7,231.5,122.2,231.4,123.9z"/>
	<path class="st6" d="M152,133.7c-0.7-0.6-0.7-1.5-0.7-2.3c0-0.8,0-1.7,0-2.5c0-1.9-0.5-3.5-2.4-4.5c1-0.5,1.7-1.1,2.2-2
		c1.9-3.1,0.7-8.8-5-9c-3.5-0.1-7,0-10.5-0.1c-0.5,0-0.6,0.2-0.6,0.6c0,6.6,0,13.3,0,19.9c0,0.4,0.1,0.6,0.6,0.6c1,0,2,0,3,0
		c0.6,0,0.8-0.1,0.8-0.7c0-2.3,0-4.6,0-6.8c0-0.3-0.2-0.6,0.4-0.6c1.7,0,3.3,0,5,0.1c1.1,0.1,1.6,0.6,1.9,1.7
		c0.2,0.8,0.2,1.6,0.2,2.4c0,1.2,0,2.3,0.3,3.4c0.1,0.4,0.2,0.6,0.7,0.6c1.3,0,2.6,0,3.9,0c0.2,0,0.4,0.1,0.5-0.2
		C152.3,134,152.1,133.8,152,133.7z M145.4,122.5c-1,0.2-2,0.1-3,0.1c-0.8,0-1.6,0-2.4,0c-0.5,0-0.6-0.1-0.6-0.6c0-1.5,0-2.9,0-4.4
		c0-0.3-0.1-0.6,0.4-0.5c1.9,0.1,3.8-0.1,5.6,0.1c1.3,0.2,1.9,1.1,1.9,2.5C147.4,121.4,146.8,122.3,145.4,122.5z"/>
	<path class="st6" d="M132.6,133.9c-0.4-1-0.7-2-1-2.9c-2-5.6-4-11.2-5.9-16.8c-0.2-0.6-0.5-0.8-1.1-0.8c-1.1,0-2.1,0.1-3.2,0
		c-0.8-0.1-1.2,0.3-1.5,1c-1.5,4.2-3,8.4-4.5,12.6c-0.9,2.5-1.8,5-2.7,7.5c1.4,0,2.7,0,4,0c0.5,0,0.8-0.2,1-0.7
		c0.3-1,0.6-1.9,0.9-2.9c0.2-0.5,0.4-0.8,1.1-0.8c2,0,4,0,6.1,0c0.6,0,0.9,0.2,1.1,0.8c0.3,1,0.6,2,0.9,3c0.1,0.4,0.3,0.6,0.8,0.6
		c1.2,0,2.5,0,3.7,0C132.8,134.5,132.8,134.3,132.6,133.9z M124.8,126.4c-1.5,0-3,0-4.7,0c0.9-2.6,1.7-5.2,2.6-7.8
		c0.1,0,0.1,0,0.2,0c0.2,0.7,0.4,1.3,0.6,2c0.6,1.7,1.1,3.5,1.7,5.2C125.3,126.2,125.3,126.4,124.8,126.4z"/>
</g>
</svg>
