<?xml version="1.0" encoding="utf-8"?>
<!-- Generator: Adobe Illustrator 22.0.0, SVG Export Plug-In . SVG Version: 6.00 Build 0)  -->
<svg version="1.1" id="Layer_2" xmlns="http://www.w3.org/2000/svg" xmlns:xlink="http://www.w3.org/1999/xlink" x="0px" y="0px"
	 viewBox="0 0 300 211.3" style="enable-background:new 0 0 300 211.3;" xml:space="preserve">
<style type="text/css">
	.st0{fill:none;stroke:#07AEEF;stroke-width:4;stroke-miterlimit:10;}
	.st1{fill:#EC1B24;}
	.st2{fill:#06AEEF;}
</style>
<g>
	<g>
		<rect x="22.1" y="78.6" class="st0" width="255.7" height="54.2"/>
		<g>
			<path class="st1" d="M34.1,90.4h8.8l6.7,22.2h0.1l6.3-22.2h9v30.1h-6.4V99.9h-0.1c-0.4,2.6-1,4.5-1.7,6.7l-4.5,13.8h-5.9
				l-4.5-13.8c-0.7-2.3-1.1-3.6-1.8-7.1h-0.1v20.9h-5.9V90.4z"/>
			<path class="st1" d="M69.1,115c0-5,4.2-7.8,13.8-8.6v-0.5c0-1.6-0.8-2.6-2.9-2.6c-2.8,0-5.1,1.1-7.1,2.7l-2.8-3.7
				c2.2-2,5.4-3.9,10.8-3.9c5.9,0,8.4,2.9,8.4,8.5v8.3c0,2.6,0.2,4.2,0.6,5.3h-6.5c-0.3-0.9-0.5-2-0.5-3.2c-2,2.2-4.4,3.5-7.6,3.5
				C71.9,120.8,69.1,118.7,69.1,115z M82.8,114v-4c-5.2,0.5-7.4,1.8-7.4,3.8c0,1.4,1,2.1,2.4,2.1C80.2,115.9,81.7,115.1,82.8,114z"
				/>
			<path class="st1" d="M94,90.4h6.6v16.5l6.8-8.1h7l-7.1,8.1l7.5,13.6H108l-4.8-8.8l-2.6,3v5.9H94V90.4z"/>
			<path class="st1" d="M116.7,109.7c0-8.4,6.4-11.3,10.9-11.3c4.5,0,10,2.2,10,12.1v1h-14.4c0.3,3.6,2.3,5,5.1,5
				c2.6,0,5-1.3,6.4-2.6l2.5,3.9c-2.5,2.2-5.7,3.3-9.4,3.3C122.1,121,116.7,118.1,116.7,109.7z M131.7,107.6
				c-0.3-3.1-1.7-4.5-4.2-4.5c-2,0-3.8,1.3-4.3,4.5H131.7z"/>
			<path class="st1" d="M141.4,98.8h6.6v3.6h0c1.2-1.8,3.3-4.1,7.3-4.1h0.2l-0.1,5.8c-0.2,0-1.3-0.1-1.7-0.1c-2.6,0-4.6,1.4-5.8,3
				v13.5h-6.6V98.8z"/>
			<path class="st1" d="M170.2,90.4h19.9v5.5h-13.3v7.3h9.4v5.3h-9.4v12h-6.6V90.4z"/>
			<path class="st1" d="M192,115c0-5,4.2-7.8,13.8-8.6v-0.5c0-1.6-0.8-2.6-2.9-2.6c-2.8,0-5.1,1.1-7.1,2.7l-2.8-3.7
				c2.2-2,5.4-3.9,10.8-3.9c5.9,0,8.4,2.9,8.4,8.5v8.3c0,2.6,0.2,4.2,0.6,5.3h-6.5c-0.3-0.9-0.5-2-0.5-3.2c-2,2.2-4.4,3.5-7.6,3.5
				C194.9,120.8,192,118.7,192,115z M205.8,114v-4c-5.2,0.5-7.4,1.8-7.4,3.8c0,1.4,1,2.1,2.4,2.1C203.1,115.9,204.7,115.1,205.8,114
				z"/>
			<path class="st1" d="M217.2,90.6h6.6v5.3h-6.6V90.6z M217.2,98.8h6.5v21.7h-6.5V98.8z"/>
			<path class="st1" d="M228.9,98.8h6.6v3.6h0c1.2-1.8,3.3-4.1,7.3-4.1h0.2l-0.1,5.8c-0.2,0-1.3-0.1-1.7-0.1c-2.6,0-4.6,1.4-5.8,3
				v13.5h-6.6V98.8z"/>
			<path class="st1" d="M245,109.7c0-8.4,6.4-11.3,10.9-11.3c4.5,0,10,2.2,10,12.1v1h-14.4c0.3,3.6,2.3,5,5.1,5c2.6,0,5-1.3,6.4-2.6
				l2.5,3.9c-2.5,2.2-5.7,3.3-9.5,3.3C250.4,121,245,118.1,245,109.7z M260,107.6c-0.3-3.1-1.7-4.5-4.2-4.5c-2,0-3.8,1.3-4.3,4.5
				H260z"/>
		</g>
	</g>
	<g>
		<path class="st2" d="M270.5,87c0,1.7-1.3,3-3,3c-1.7,0-3-1.3-3-3c0-1.6,1.3-3,3-3C269.2,84,270.5,85.4,270.5,87z M265.2,87
			c0,1.3,1,2.4,2.3,2.4c1.3,0,2.2-1,2.2-2.3c0-1.3-1-2.4-2.3-2.4S265.2,85.7,265.2,87z M267,88.5h-0.7v-3c0.3-0.1,0.6-0.1,1.1-0.1
			c0.6,0,0.8,0.1,1,0.2c0.2,0.1,0.3,0.4,0.3,0.6c0,0.3-0.3,0.6-0.6,0.7v0c0.3,0.1,0.4,0.3,0.5,0.7c0.1,0.4,0.1,0.6,0.2,0.7h-0.7
			c-0.1-0.1-0.1-0.4-0.2-0.7c-0.1-0.3-0.2-0.5-0.6-0.5H267V88.5z M267,86.9h0.3c0.4,0,0.7-0.1,0.7-0.4c0-0.3-0.2-0.4-0.6-0.4
			c-0.2,0-0.3,0-0.4,0V86.9z"/>
	</g>
</g>
</svg>
