<?xml version="1.0" encoding="utf-8"?>
<!-- Generator: Adobe Illustrator 22.0.0, SVG Export Plug-In . SVG Version: 6.00 Build 0)  -->
<svg version="1.1" id="Layer_1" xmlns="http://www.w3.org/2000/svg" xmlns:xlink="http://www.w3.org/1999/xlink" x="0px" y="0px"
	 viewBox="0 0 50 50" style="enable-background:new 0 0 50 50;" xml:space="preserve">
<style type="text/css">
	.st0{fill:none;stroke:#434343;stroke-width:0.9;stroke-linecap:round;stroke-linejoin:round;}
	.st1{fill:none;stroke:#F27324;stroke-width:1.2;stroke-linecap:round;stroke-linejoin:round;}
	.st2{fill:#F27222;}
	.st3{fill:#F27324;stroke:#434343;stroke-width:0.87;stroke-linecap:round;stroke-linejoin:round;}
	.st4{fill:none;stroke:#434343;stroke-width:0.87;stroke-linecap:round;stroke-linejoin:round;}
	.st5{fill:#434343;}
</style>
<title>Pictos Sooko</title>
<g id="Capa_1">
	<path class="st0" d="M11.6,32.7c0-0.7,0.3-1.4,0.8-1.8c2-1.9,2.1-5.1,0.1-7.1s-5.1-2.1-7.1-0.1s-2.1,5.1-0.1,7.1
		c0.1,0.1,0.2,0.2,0.3,0.2c0.5,0.5,0.7,1.2,0.7,1.8l0,0v1.4h5.3L11.6,32.7z"/>
	<line class="st1" x1="7.3" y1="36.2" x2="10.7" y2="36.2"/>
	<line class="st1" x1="7.3" y1="27.6" x2="10.7" y2="27.6"/>
	<line class="st1" x1="9" y1="27.6" x2="9" y2="29.9"/>
	<line class="st1" x1="9" y1="20.3" x2="9" y2="18.4"/>
	<line class="st1" x1="11.6" y1="20.9" x2="12" y2="20.1"/>
	<line class="st1" x1="6.2" y1="20.7" x2="5.9" y2="19.9"/>
	<line class="st1" x1="4" y1="22.1" x2="2.6" y2="20.8"/>
	<line class="st1" x1="14" y1="22.5" x2="15.4" y2="21.1"/>
	<path class="st2" d="M21.8,38.3H30c1.3,0,2.4,1.1,2.4,2.4l0,0l0,0H19.5l0,0l0,0C19.5,39.4,20.5,38.3,21.8,38.3z"/>
	<path class="st0" d="M20.9,38.3h10.3c0.8,0,1.4,0.6,1.4,1.4v8.1c0,0.8-0.6,1.4-1.4,1.4H20.9c-0.8,0-1.4-0.6-1.4-1.4v-8.1
		C19.5,38.9,20.1,38.3,20.9,38.3z"/>
	<line class="st0" x1="22.1" y1="37.2" x2="22.1" y2="39.6"/>
	<line class="st0" x1="24.1" y1="37.2" x2="24.1" y2="39.6"/>
	<line class="st0" x1="26" y1="37.2" x2="26" y2="39.6"/>
	<line class="st0" x1="27.8" y1="37.2" x2="27.8" y2="39.6"/>
	<line class="st0" x1="29.8" y1="37.2" x2="29.8" y2="39.6"/>
	<polyline class="st1" points="23.8,44.3 25.4,46.6 28.1,42.7 	"/>
	<polyline class="st0" points="14.1,11.5 16.3,11.8 15.6,13.7 	"/>
	<path class="st3" d="M43.5,22.6H42l-0.8-0.8l0,0v-1.3l0,0l-1-0.5h-0.1l-0.8,1h-1.1l-0.8-1h-0.1l-1,0.5l0,0v1.4l0,0l-0.8,0.8h-1.5
		l-0.5,1l0,0l1,0.8l0,0c-0.1,0.4-0.1,0.8,0,1.1l0,0l-1,0.8l0,0l0.5,1h1.5l0.8,0.8l0,0v1.4l0,0l1,0.5h0.1l0.8-1h1.3l0.8,1h0.1l1-0.5
		l0,0v-0.9l0,0l0.8-0.8h1.5l0.5-1l0,0l-1-0.8l0,0c0.1-0.4,0.1-0.8,0-1.1l0,0l1-0.8l0,0l-0.5-1L43.5,22.6z M40.7,25
		c0.2,1.1-0.6,2.2-1.7,2.3c-1.1,0.2-2.2-0.6-2.3-1.7c-0.2-1.1,0.6-2.1,1.7-2.3l0,0C39.5,23.1,40.5,23.8,40.7,25
		C40.7,25,40.7,25,40.7,25z"/>
	<path class="st4" d="M49.1,29.9h-0.8l-0.6-0.3l0,0v-0.8l0,0l-0.6-0.2H47l-0.5,0.6h-0.7l-0.5-0.7h-0.1l-0.6,0.2l0,0v0.8l0,0
		l-0.5,0.5h-0.9l-0.2,0.6l0,0l0.6,0.5l0,0c0,0.2,0,0.5,0,0.7l0,0l-0.6,0.5l0,0l0.2,0.6h0.9l0.5,0.5l0,0v0.8l0,0l0.6,0.2h0.1l0.5-0.6
		h0.7l0.5,0.6h0.1l0.6-0.2l0,0v-0.8l0,0l0.5-0.5h0.9l0.2-0.6l0,0l-0.6-0.5l0,0c0-0.2,0-0.5,0-0.7l0,0l0.6-0.5l0,0
		C49.3,30.5,49.1,29.9,49.1,29.9z"/>
	<circle class="st5" cx="46.2" cy="31.5" r="0.8"/>
	<polyline class="st2" points="31.6,5.1 32.5,2.7 33.4,5.1 	"/>
	<path class="st2" d="M31.6,14.9h1.8l0,0v0.8c0,0.5-0.4,0.9-0.9,0.9l0,0c-0.5,0-0.9-0.4-0.9-0.9L31.6,14.9
		C31.6,14.9,31.6,14.9,31.6,14.9z"/>
	<path class="st0" d="M31.6,5.1l0.9-2.4l0.9,2.4v10.6c0,0.5-0.4,0.9-0.9,0.9l0,0c-0.5,0-0.9-0.4-0.9-0.9V5.1z"/>
	<rect x="18.5" y="3.4" class="st0" width="10.9" height="13.2"/>
	<rect x="20.3" y="5.9" class="st2" width="2.5" height="1.6"/>
	<rect x="20.3" y="9.6" class="st2" width="2.5" height="1.6"/>
	<rect x="20.3" y="13.1" class="st2" width="2.5" height="1.6"/>
	<line class="st0" x1="24.2" y1="6.7" x2="27.5" y2="6.7"/>
	<line class="st0" x1="24.2" y1="10.3" x2="27.5" y2="10.3"/>
	<line class="st0" x1="24.2" y1="13.9" x2="27.5" y2="13.9"/>
	<path class="st3" d="M26.3,2.5h-1.1V1.8c-0.2-0.7-1-1.1-1.7-0.9c-0.4,0.1-0.8,0.5-0.9,0.9v0.8h-1.1l-0.6,1.7h6.1L26.3,2.5z"/>
	<path class="st4" d="M17.2,43.6c-2.1-1.1-4-2.6-5.5-4.5"/>
	<path class="st4" d="M43,35.2c-1.6,3.4-4.1,6.2-7.3,8.1"/>
	<path class="st4" d="M35.3,11.3c2.5,1.4,4.6,3.3,6.2,5.6"/>
	<path class="st4" d="M10.8,16.9c1.4-2,3.2-3.8,5.3-5.1"/>
	<polyline class="st0" points="41.9,15.3 41.7,17.5 39.7,16.8 	"/>
	<polyline class="st0" points="37.4,43.7 35.4,43.5 35.9,41.6 	"/>
	<polyline class="st0" points="11.6,41 11.5,38.9 13.6,39.3 	"/>
</g>
</svg>
