<?xml version="1.0" encoding="utf-8"?>
<!-- Generator: Adobe Illustrator 21.1.0, SVG Export Plug-In . SVG Version: 6.00 Build 0)  -->
<svg version="1.1" xmlns="http://www.w3.org/2000/svg" xmlns:xlink="http://www.w3.org/1999/xlink" x="0px" y="0px"
	 viewBox="0 0 50 50" style="enable-background:new 0 0 50 50;" xml:space="preserve">
<style type="text/css">
	.st0{fill:none;stroke:#F27324;stroke-width:2;stroke-linecap:round;stroke-linejoin:round;stroke-miterlimit:10;}
	.st1{fill:#F27324;}
	.st2{fill:none;stroke:#F27324;stroke-width:1.2;stroke-linecap:round;stroke-linejoin:round;stroke-miterlimit:10;}
	.st3{fill:#FFFFFF;}
	.st4{fill:none;stroke:#434343;stroke-width:1.2;stroke-linecap:round;stroke-linejoin:round;stroke-miterlimit:10;}
	.st5{fill:#FFFFFF;stroke:#434343;stroke-width:1.2;stroke-linecap:round;stroke-linejoin:round;stroke-miterlimit:10;}
	.st6{fill:#F27324;stroke:#434343;stroke-width:1.2;stroke-linecap:round;stroke-linejoin:round;stroke-miterlimit:10;}
	.st7{fill:none;stroke:#434343;stroke-width:1.1354;stroke-linecap:round;stroke-linejoin:round;stroke-miterlimit:10;}
	.st8{fill:#434343;}
	.st9{fill:#F27222;}
	.st10{fill:none;stroke:#FF17B3;stroke-miterlimit:10;}
	.st11{fill:none;stroke:#FF17B3;stroke-linecap:round;stroke-miterlimit:10;}
	.st12{fill:none;stroke:#FF17B3;stroke-linecap:round;stroke-linejoin:round;stroke-miterlimit:10;}
	.st13{fill:none;stroke:#FF17B3;stroke-width:0.8981;stroke-linecap:round;stroke-linejoin:round;stroke-miterlimit:10;}
	.st14{fill:none;stroke:#FF17B3;stroke-width:0.9594;stroke-linecap:round;stroke-miterlimit:10;}
	.st15{fill:none;stroke:#FF17B3;stroke-width:0.9594;stroke-linecap:round;stroke-linejoin:round;stroke-miterlimit:10;}
	.st16{fill:none;stroke:#FF17B3;stroke-width:0.9322;stroke-linecap:round;stroke-linejoin:round;stroke-miterlimit:10;}
	.st17{fill:#FF17B3;}
	.st18{fill:none;stroke:#FF17B3;stroke-width:0.8756;stroke-linecap:round;stroke-linejoin:round;stroke-miterlimit:10;}
	.st19{fill:none;stroke:#FF17B3;stroke-width:1.1766;stroke-linecap:round;stroke-linejoin:round;stroke-miterlimit:10;}
	.st20{fill:none;stroke:#FF17B3;stroke-width:1.0759;stroke-linecap:round;stroke-linejoin:round;stroke-miterlimit:10;}
	.st21{fill:none;stroke:#FF17B3;stroke-width:1.6082;stroke-linecap:round;stroke-linejoin:round;stroke-miterlimit:10;}
	.st22{fill:none;stroke:#FF17B3;stroke-width:0.9367;stroke-linecap:round;stroke-linejoin:round;stroke-miterlimit:10;}
	.st23{fill:none;stroke:#FF17B3;stroke-width:1.0606;stroke-linecap:round;stroke-linejoin:round;stroke-miterlimit:10;}
	.st24{fill:#5E3A80;}
	.st25{fill:none;stroke:#F27324;stroke-width:10;stroke-linecap:round;stroke-linejoin:round;stroke-miterlimit:10;}
	.st26{fill:none;stroke:#F27324;stroke-width:10;stroke-linecap:round;stroke-linejoin:round;}
	.st27{fill:none;stroke:#F27324;stroke-width:10;stroke-linecap:round;stroke-linejoin:round;stroke-dasharray:6.807,17.0175;}
	.st28{fill:none;stroke:#F27324;stroke-width:11.7954;stroke-linejoin:round;}
	.st29{fill:none;stroke:#F27324;stroke-width:11.7954;stroke-linejoin:round;stroke-dasharray:7.1852,7.1852;}
	.st30{fill:none;stroke:#F27324;stroke-width:11.7954;stroke-linejoin:round;stroke-dasharray:4.4444,4.4444;}
	.st31{fill:none;stroke:#F27324;stroke-width:1.3712;stroke-linejoin:round;stroke-miterlimit:10;}
	.st32{fill:none;stroke:#F27324;stroke-width:1.3712;stroke-linecap:round;stroke-linejoin:round;stroke-miterlimit:10;}
	.st33{fill:none;stroke:#F27324;stroke-width:1.6174;stroke-miterlimit:10;stroke-dasharray:0.5;}
	.st34{fill:none;stroke:#F27324;stroke-width:1.6174;stroke-linejoin:round;stroke-miterlimit:10;stroke-dasharray:0.5;}
</style>
<g id="Capa_2">
</g>
<g id="Capa_1">
	<g>
		<polygon class="st1" points="35.4,13.7 36.7,10.1 38.1,13.7 		"/>
		<polygon class="st1" points="19.2,27 20.7,24.2 19.1,24.2 19.1,21.9 25.6,21.9 25.6,24.2 24.2,24.2 25.7,27 		"/>
		<rect x="9.4" y="35.9" class="st1" width="31.2" height="7.5"/>
		<line class="st4" x1="28.1" y1="9.4" x2="30.3" y2="9.4"/>
		<line class="st2" x1="28.1" y1="11.9" x2="30.3" y2="11.9"/>
		<line class="st4" x1="28.1" y1="14.5" x2="30.3" y2="14.5"/>
		<line class="st2" x1="28.1" y1="17" x2="30.3" y2="17"/>
		<line class="st4" x1="28.1" y1="19.5" x2="30.3" y2="19.5"/>
		<line class="st2" x1="28.1" y1="22.1" x2="30.3" y2="22.1"/>
		<line class="st4" x1="28.1" y1="24.6" x2="30.3" y2="24.6"/>
		<rect x="14" y="15.8" class="st1" width="1.2" height="11.3"/>
		<rect x="6.6" y="14.4" class="st4" width="2.8" height="28.9"/>
		<rect x="40.6" y="14.4" class="st4" width="2.8" height="28.9"/>
		<rect x="9.4" y="27" class="st4" width="31.2" height="16.4"/>
		<polyline class="st4" points="35.4,27 35.4,13.3 36.7,9.7 38.1,13.3 38.1,27 		"/>
		<rect x="28.1" y="6.9" class="st4" width="5" height="20.1"/>
		<polyline class="st4" points="23.7,21.9 23.7,11.2 24.2,9 23.7,6.9 21.2,6.9 20.7,9 21.2,11.2 21.2,21.9 		"/>
		<polyline class="st4" points="19.2,27 20.7,24.2 19.1,24.2 19.1,21.9 25.6,21.9 25.6,24.2 24.2,24.2 25.7,27 		"/>
		<path class="st4" d="M12.3,27V15.2c0-0.4-0.2-0.8-0.4-1.1c-0.9-0.8-1.6-2-1.6-3.3c0-0.6,0.1-1.2,0.4-1.8l2.7,2.7l2.1-2.1L12.9,7
			c0.5-0.2,1.1-0.4,1.7-0.4c2.3,0,4.2,1.9,4.2,4.2c0,1.4-0.7,2.4-1.6,3.3c-0.3,0.3-0.4,0.7-0.4,1.1V27"/>
		<line class="st4" x1="9.4" y1="16.9" x2="12.3" y2="16.9"/>
		<line class="st4" x1="9.4" y1="19.5" x2="12.3" y2="19.5"/>
		<line class="st4" x1="16.8" y1="16.9" x2="21.2" y2="16.9"/>
		<line class="st4" x1="16.8" y1="19.5" x2="21.2" y2="19.5"/>
		<line class="st4" x1="23.7" y1="16.9" x2="28.1" y2="16.9"/>
		<line class="st4" x1="23.7" y1="19.5" x2="28.1" y2="19.5"/>
		<line class="st4" x1="33.1" y1="16.9" x2="35.4" y2="16.9"/>
		<line class="st4" x1="33.1" y1="19.5" x2="35.4" y2="19.5"/>
		<line class="st4" x1="38.1" y1="16.9" x2="40.4" y2="16.9"/>
		<line class="st4" x1="38.1" y1="19.5" x2="40.4" y2="19.5"/>
	</g>
</g>
</svg>
