<?xml version="1.0" encoding="utf-8"?>
<!-- Generator: Adobe Illustrator 22.0.0, SVG Export Plug-In . SVG Version: 6.00 Build 0)  -->
<svg version="1.1" id="Capa_1" xmlns="http://www.w3.org/2000/svg" xmlns:xlink="http://www.w3.org/1999/xlink" x="0px" y="0px"
	 viewBox="0 0 50 50" style="enable-background:new 0 0 50 50;" xml:space="preserve">
<style type="text/css">
	.st0{fill:#F27222;}
	.st1{fill:#434343;}
</style>
<rect x="20.8" y="36" class="st0" width="8" height="13.2"/>
<g>
	<g>
		<g>
			<g>
				<path class="st1" d="M22.5,15.1h-3.3c-0.4,0-0.7,0.3-0.7,0.7v5c0,0.4,0.3,0.7,0.7,0.7h3.3c0.4,0,0.7-0.3,0.7-0.7v-5
					C23.2,15.4,22.9,15.1,22.5,15.1z M21.8,20.1h-1.9v-3.5h1.9V20.1z"/>
			</g>
			<g>
				<path class="st1" d="M10.8,10.1h-10c-0.4,0-0.7,0.3-0.7,0.7v16.7c0,0.4,0.3,0.7,0.7,0.7c0.4,0,0.7-0.3,0.7-0.7V11.6h9.3
					c0.4,0,0.7-0.3,0.7-0.7S11.2,10.1,10.8,10.1z"/>
			</g>
			<g>
				<path class="st1" d="M44.2,35.1h-3.3c-0.4,0-0.7,0.3-0.7,0.7v5c0,0.4,0.3,0.7,0.7,0.7h3.3c0.4,0,0.7-0.3,0.7-0.7v-5
					C44.9,35.4,44.6,35.1,44.2,35.1z M43.4,40.1h-1.9v-3.5h1.9V40.1z"/>
			</g>
			<g>
				<path class="st0" d="M4.2,49.9c0.4,0,0.7-0.3,0.7-0.7v-4.3l0.1,0c1.9-0.4,3.2-2.1,3.2-4c0-0.1,0-10.7-4.1-10.7
					S0.1,40.7,0.1,40.8c0,1.9,1.4,3.6,3.2,4l0.1,0v4.3C3.4,49.6,3.8,49.9,4.2,49.9z M1.6,40.8c0-3.8,1-9.3,2.6-9.3s2.6,5.5,2.6,9.3
					c0,1.4-1.2,2.6-2.6,2.6S1.6,42.3,1.6,40.8z"/>
			</g>
			<g>
				<path class="st1" d="M9.2,31.6c0.4,0,0.7-0.3,0.7-0.7v-5c0-0.2-0.1-0.4-0.2-0.5c-0.1-0.1-0.3-0.2-0.5-0.2H5.8
					c-0.4,0-0.7,0.3-0.7,0.7v1.7c0,0.4,0.3,0.7,0.7,0.7c0.4,0,0.7-0.3,0.7-0.7v-0.9h1.9v4.3C8.4,31.2,8.8,31.6,9.2,31.6z"/>
			</g>
			<g>
				<path class="st1" d="M44.2,15.1h-3.3c-0.4,0-0.7,0.3-0.7,0.7v5c0,0.4,0.3,0.7,0.7,0.7h3.3c0.4,0,0.7-0.3,0.7-0.7v-5
					C44.9,15.4,44.6,15.1,44.2,15.1z M43.4,20.1h-1.9v-3.5h1.9V20.1z"/>
			</g>
			<g>
				<path class="st1" d="M9.2,15.1H5.8c-0.4,0-0.7,0.3-0.7,0.7v5c0,0.4,0.3,0.7,0.7,0.7h3.3c0.4,0,0.7-0.3,0.7-0.7v-5
					c0-0.2-0.1-0.4-0.2-0.5C9.5,15.2,9.4,15.1,9.2,15.1z M8.4,20.1H6.6v-3.5h1.9V20.1z"/>
			</g>
			<g>
				<path class="st1" d="M30.8,15.1h-3.3c-0.4,0-0.7,0.3-0.7,0.7v5c0,0.4,0.3,0.7,0.7,0.7h3.3c0.4,0,0.7-0.3,0.7-0.7v-5
					C31.6,15.4,31.2,15.1,30.8,15.1z M30.1,20.1h-1.9v-3.5h1.9V20.1z"/>
			</g>
			<g>
				<path class="st1" d="M40.8,49.9h6.7c1.3,0,2.4-1.1,2.4-2.4V10.8c0-0.4-0.3-0.7-0.7-0.7h-10c-0.4,0-0.7,0.3-0.7,0.7
					s0.3,0.7,0.7,0.7h9.3v33.7l-0.1-0.1c-0.4-0.2-0.8-0.2-1.2-0.1l-0.1,0l0-0.1c-0.6-1-1.6-1.6-2.8-1.6s-2.2,0.6-2.8,1.6l0,0.1
					l-0.1,0c-0.1,0-0.3,0-0.4,0c-1.3,0-2.4,1.1-2.4,2.4S39.5,49.9,40.8,49.9z M40.8,46.6c0.2,0,0.4,0.1,0.5,0.2
					c0.2,0.1,0.4,0.2,0.7,0.1c0.2-0.1,0.4-0.3,0.4-0.5c0.2-0.8,0.9-1.4,1.7-1.4s1.5,0.6,1.7,1.4c0.1,0.2,0.2,0.4,0.4,0.5
					c0.2,0.1,0.5,0.1,0.7-0.1c0.3-0.2,0.6-0.2,0.9,0c0.3,0.2,0.5,0.5,0.5,0.8c0,0.5-0.4,0.9-0.9,0.9h-6.7c-0.5,0-0.9-0.4-0.9-0.9
					S40.3,46.6,40.8,46.6z"/>
			</g>
			<g>
				<path class="st1" d="M30.8,5.1h-3.3c-0.4,0-0.7,0.3-0.7,0.7v5c0,0.4,0.3,0.7,0.7,0.7h3.3c0.4,0,0.7-0.3,0.7-0.7v-5
					C31.6,5.4,31.2,5.1,30.8,5.1z M30.1,10.1h-1.9V6.6h1.9V10.1z"/>
			</g>
			<g>
				<path class="st1" d="M30.8,25.1h-3.3c-0.4,0-0.7,0.3-0.7,0.7v5c0,0.4,0.3,0.7,0.7,0.7h3.3c0.4,0,0.7-0.3,0.7-0.7v-5
					C31.6,25.4,31.2,25.1,30.8,25.1z M30.1,30.1h-1.9v-3.5h1.9V30.1z"/>
			</g>
			<g>
				<path class="st1" d="M22.5,5.1h-3.3c-0.4,0-0.7,0.3-0.7,0.7v5c0,0.4,0.3,0.7,0.7,0.7h3.3c0.4,0,0.7-0.3,0.7-0.7v-5
					C23.2,5.4,22.9,5.1,22.5,5.1z M21.8,10.1h-1.9V6.6h1.9V10.1z"/>
			</g>
			<g>
				<path class="st1" d="M23.3,42.8c0,0.2,0.1,0.4,0.2,0.5c0.1,0.1,0.3,0.2,0.5,0.2c0.2,0,0.4-0.1,0.5-0.2c0.1-0.1,0.2-0.3,0.2-0.5
					s-0.1-0.4-0.2-0.5c-0.3-0.3-0.8-0.3-1,0C23.4,42.5,23.3,42.6,23.3,42.8z"/>
			</g>
			<g>
				<path class="st1" d="M22.5,25.1h-3.3c-0.4,0-0.7,0.3-0.7,0.7v5c0,0.4,0.3,0.7,0.7,0.7h3.3c0.4,0,0.7-0.3,0.7-0.7v-5
					C23.2,25.4,22.9,25.1,22.5,25.1z M21.8,30.1h-1.9v-3.5h1.9V30.1z"/>
			</g>
			<g>
				<path class="st1" d="M29.2,49.9c0.4,0,0.7-0.3,0.7-0.7V36.6h2.6c0.4,0,0.7-0.3,0.7-0.7s-0.3-0.7-0.7-0.7h-15
					c-0.4,0-0.7,0.3-0.7,0.7s0.3,0.7,0.7,0.7h2.6v12.6c0,0.4,0.3,0.7,0.7,0.7c0.4,0,0.7-0.3,0.7-0.7V36.6h6.9v12.6
					C28.4,49.6,28.8,49.9,29.2,49.9z"/>
			</g>
			<g>
				<path class="st1" d="M44.2,25.1h-3.3c-0.4,0-0.7,0.3-0.7,0.7v5c0,0.4,0.3,0.7,0.7,0.7h3.3c0.4,0,0.7-0.3,0.7-0.7v-5
					C44.9,25.4,44.6,25.1,44.2,25.1z M43.4,30.1h-1.9v-3.5h1.9V30.1z"/>
			</g>
			<g>
				<path class="st1" d="M35.8,49.9c0.4,0,0.7-0.3,0.7-0.7V0.8c0-0.4-0.3-0.7-0.7-0.7H14.2c-0.4,0-0.7,0.3-0.7,0.7v48.3
					c0,0.4,0.3,0.7,0.7,0.7s0.7-0.3,0.7-0.7V1.6h20.2v47.6C35.1,49.6,35.4,49.9,35.8,49.9z"/>
			</g>
			<g>
				<path class="st1" d="M35.8,50H14.2c-0.4,0-0.7-0.3-0.7-0.7s0.3-0.7,0.7-0.7h21.6c0.4,0,0.7,0.3,0.7,0.7S36.2,50,35.8,50z"/>
			</g>
		</g>
	</g>
</g>
<path class="st0" d="M40.8,46.6c0.2,0,0.4,0.1,0.5,0.2c0.2,0.1,0.4,0.2,0.7,0.1c0.2-0.1,0.4-0.3,0.4-0.5c0.2-0.8,0.9-1.4,1.7-1.4
	s1.5,0.6,1.7,1.4c0.1,0.2,0.2,0.4,0.4,0.5c0.2,0.1,0.5,0.1,0.7-0.1c0.3-0.2,0.6-0.2,0.9,0c0.3,0.2,0.5,0.5,0.5,0.8
	c0,0.5-0.4,0.9-0.9,0.9h-6.7c-0.5,0-0.9-0.4-0.9-0.9S40.3,46.6,40.8,46.6z"/>
</svg>
