<?xml version="1.0" encoding="utf-8"?>
<!-- Generator: Adobe Illustrator 22.0.0, SVG Export Plug-In . SVG Version: 6.00 Build 0)  -->
<svg version="1.1" id="Layer_2" xmlns="http://www.w3.org/2000/svg" xmlns:xlink="http://www.w3.org/1999/xlink" x="0px" y="0px"
	 viewBox="0 0 50 50" style="enable-background:new 0 0 50 50;" xml:space="preserve">
<style type="text/css">
	.st0{fill:#F27323;}
	.st1{fill:#434343;}
	.st2{fill:#FFFFFF;}
</style>
<path class="st0" d="M43.2,41.4l-1.9,1.9c-0.2,0.2-0.5,0.2-0.7,0l-8.1-8.1c-0.2-0.2-0.2-0.5,0-0.7l1.9-1.9c0.2-0.2,0.5-0.2,0.7,0
	l8.1,8.1C43.3,40.8,43.3,41.2,43.2,41.4z"/>
<path class="st0" d="M13.8,11.9l-1.9,1.9c-0.2,0.2-0.5,0.2-0.7,0l-1.6-1.6c-0.2-0.2-0.2-0.5,0-0.7l1.9-1.9c0.2-0.2,0.5-0.2,0.7,0
	l1.6,1.6C14,11.4,14,11.7,13.8,11.9z"/>
<path class="st1" d="M43,39.2L19.8,16.1l1.6-1.6l-2.7-2.7c0.9-0.9,2.3-2.2,2.6-2.4c0.4-0.3,2-1.1,2.9-1.4l1.6-0.5l-1.4-0.8
	c-4.3-2.4-8.6,1.8-8.8,2l-1.6,1.6l-0.5-0.5c-1-1-2.7-1-3.8,0c-1,1-1,2.7,0,3.8l0.5,0.5l-0.4,0.4l0.1,0.4c0,0.2,0.1,0.3,0.2,0.5
	c0.3,0.8,0.3,1.2-0.1,1.6c-0.3,0.3-0.6,0.2-1.2,0c-0.4-0.1-0.9-0.3-1.3,0.1l-2.2,2.2l6,6l2.5-2.5c0.4-0.4,0.2-1,0-1.3
	c-0.3-0.6-0.4-1-0.1-1.2c0.5-0.5,1.3,0,1.4,0.1l0.5,0.4l0.7-0.7L39.2,43c0.5,0.5,1.2,0.8,1.9,0.8c0.7,0,1.4-0.3,1.9-0.8
	C44,41.9,44,40.2,43,39.2z M10.7,10.7c0.5-0.5,1.3-0.5,1.7,0l0.5,0.5l-1.7,1.7l-0.5-0.5C10.2,12,10.2,11.2,10.7,10.7z M15.2,18.7
	c-0.7-0.3-1.8-0.5-2.7,0.4c-1,1-0.5,2.3-0.2,2.8l-1.2,1.2l-3.9-3.9l1-1c0,0,0,0,0,0c0.6,0.2,1.7,0.6,2.7-0.3
	c1.1-1.1,0.7-2.3,0.4-3.1c0,0,0,0,0-0.1l0.3-0.3l0.5-0.5l1.7-1.7l0,0l2.6-2.6c0.1-0.1,2.6-2.6,5.4-2.3c-0.6,0.3-1.3,0.7-1.5,0.9
	c-0.5,0.4-3,2.8-3.2,3l-0.5,0.5l2.8,2.8l-1.1,1.1l-0.5,0.5l-1.7,1.7L15.2,18.7z M42,42c-0.5,0.5-1.2,0.5-1.7,0L17.1,18.8l1.7-1.7
	L42,40.2C42.4,40.7,42.4,41.5,42,42z"/>
<g>
	<path class="st2" d="M43.4,9.4l-2.9,2.9c-0.8,0.8-2.1,0.8-2.9,0c-0.8-0.8-0.8-2.1,0-2.9l2.9-2.9c-0.6-0.2-1.3-0.4-1.9-0.4
		c-2.9,0-5.2,2.3-5.2,5.2c0,0.2,0,0.5,0.1,0.7L12.1,33.4c-0.2,0-0.4,0-0.6,0c-2.9,0-5.2,2.3-5.2,5.2c0,2.9,2.3,5.2,5.2,5.2
		c2.9,0,5.2-2.3,5.2-5.2c0-0.2,0-0.4,0-0.6L38,16.6c0.2,0,0.4,0,0.5,0c2.9,0,5.2-2.3,5.2-5.2C43.8,10.7,43.6,10,43.4,9.4z
		 M11.5,40.7c-1.2,0-2.1-0.9-2.1-2.1c0-1.2,0.9-2.1,2.1-2.1s2.1,0.9,2.1,2.1C13.6,39.8,12.7,40.7,11.5,40.7z"/>
	<path class="st1" d="M11.5,44.5c-3.3,0-5.9-2.7-5.9-5.9c0-3.3,2.7-5.9,5.9-5.9c0.1,0,0.2,0,0.3,0l20.8-20.8c0-0.1,0-0.3,0-0.4
		c0-3.3,2.7-5.9,5.9-5.9c0.8,0,1.5,0.1,2.2,0.4l1,0.4l-3.6,3.6c-0.2,0.2-0.4,0.6-0.4,0.9c0,0.4,0.1,0.7,0.4,0.9
		c0.5,0.5,1.3,0.5,1.9,0l3.6-3.6l0.4,1c0.3,0.7,0.4,1.5,0.4,2.3c0,3.4-2.8,6.1-6.2,5.9L17.4,38.2c0,0.1,0,0.2,0,0.4
		C17.5,41.9,14.8,44.5,11.5,44.5z M11.5,34.1c-2.5,0-4.5,2-4.5,4.5c0,2.5,2,4.5,4.5,4.5c2.5,0,4.5-2,4.5-4.5c0-0.2,0-0.4,0-0.6
		l0-0.3l21.8-21.8l0.3,0c0.2,0,0.3,0,0.5,0c2.5,0,4.5-2,4.5-4.5c0-0.2,0-0.4,0-0.6l-2,2c-1.1,1.1-2.8,1.1-3.9,0
		c-0.5-0.5-0.8-1.2-0.8-1.9c0-0.7,0.3-1.4,0.8-1.9l2-2c-0.2,0-0.4,0-0.6,0c-2.5,0-4.5,2-4.5,4.5c0,0.2,0,0.4,0,0.6l0,0.4L12.3,34.1
		l-0.3,0C11.8,34.1,11.7,34.1,11.5,34.1z M11.5,41.4c-1.6,0-2.8-1.3-2.8-2.8s1.3-2.8,2.8-2.8c1.6,0,2.8,1.3,2.8,2.8
		S13.1,41.4,11.5,41.4z M11.5,37.2c-0.8,0-1.4,0.6-1.4,1.4c0,0.8,0.6,1.4,1.4,1.4c0.8,0,1.4-0.6,1.4-1.4
		C12.9,37.8,12.3,37.2,11.5,37.2z"/>
</g>
<path class="st1" d="M17.8,32.9c-0.2,0-0.4-0.1-0.5-0.2c-0.3-0.3-0.3-0.7,0-1l14.1-14c0.3-0.3,0.7-0.3,1,0c0.3,0.3,0.3,0.7,0,1
	l-14.1,14C18.1,32.8,18,32.9,17.8,32.9z"/>
</svg>
