<?xml version="1.0" encoding="utf-8"?>
<!-- Generator: Adobe Illustrator 22.0.0, SVG Export Plug-In . SVG Version: 6.00 Build 0)  -->
<svg version="1.1" id="Layer_1" xmlns="http://www.w3.org/2000/svg" xmlns:xlink="http://www.w3.org/1999/xlink" x="0px" y="0px"
	 viewBox="0 0 50 50" style="enable-background:new 0 0 50 50;" xml:space="preserve">
<style type="text/css">
	.st0{fill:none;stroke:#434343;stroke-width:1.2;stroke-linecap:round;stroke-linejoin:round;stroke-miterlimit:10;}
	.st1{fill:#F27324;stroke:#434343;stroke-width:1.2;stroke-linecap:round;stroke-linejoin:round;stroke-miterlimit:10;}
	.st2{fill:#434343;}
	.st3{fill:#FFFFFF;stroke:#434343;stroke-width:1.2;stroke-linecap:round;stroke-linejoin:round;stroke-miterlimit:10;}
	.st4{fill:#F27324;}
	.st5{fill:#FFFFFF;}
	.st6{fill:none;stroke:#F27324;stroke-width:1.2;stroke-linecap:round;stroke-linejoin:round;stroke-miterlimit:10;}
</style>
<g id="Capa_2">
</g>
<g id="Capa_1">
	<g>
		<g>
			<polyline class="st0" points="17.9,39 9.6,30.5 36.4,3.9 39.8,7.4 37.3,8.2 37.7,10.5 35.4,11.2 35.8,13.6 33.5,14.3 33.8,16.7 
				31.6,17.5 31.9,19.7 29.7,20.5 30,22.8 27.7,23.6 28.1,26 25.8,26.7 26.2,28.9 23.9,29.8 24.3,32.1 22,32.8 22.2,35.2 19.5,39.7 
				17.9,39 			"/>
			<path class="st1" d="M19.1,41.6l-7.2,7.2c-0.6,0.6-1.6,0.5-2-0.1l-8.6-11c-0.5-0.6-0.4-1.3,0.1-1.8l9.5-9.5
				c0.6-0.6,1.4-0.6,1.9,0l6.2,6.2c0.2,0.2,0.4,0.5,0.4,0.8l0.1,7.3C19.5,41.2,19.4,41.4,19.1,41.6z"/>
			<circle class="st2" cx="12.1" cy="30.1" r="1"/>
			<circle class="st2" cx="16.6" cy="34.7" r="1"/>
			<path class="st3" d="M14,41.9l-2.3,2.3c-0.4,0.4-1.1,0.4-1.4-0.1l-5-6.3c-0.4-0.4-0.2-1,0.1-1.3L7,34.7c1.1-1.1,2.8-1.1,3.8,0
				l3.2,3.2C15.1,39.1,15.1,40.8,14,41.9z"/>
		</g>
		<g>
			<polygon class="st4" points="8.7,10.2 10.6,14.6 13.1,12.2 			"/>
			<g>
				
					<rect x="22.1" y="11" transform="matrix(0.7071 -0.7071 0.7071 0.7071 -11.4677 25.5073)" class="st3" width="5.9" height="31.2"/>
				<path class="st1" d="M39.8,41.4L39.8,41.4c-1.1,1.1-3,1.1-4.1,0l-1.7-1.7l4.1-4.1l1.7,1.7C41,38.4,41,40.3,39.8,41.4z"/>
				<line class="st0" x1="31.3" y1="37.1" x2="35.4" y2="32.9"/>
				<polygon class="st0" points="8.5,10 11.9,17.6 16,13.5 				"/>
				<line class="st0" x1="10.5" y1="14.5" x2="12.9" y2="12.2"/>
			</g>
		</g>
		<g>
			
				<rect x="28.1" y="-3.2" transform="matrix(0.7071 -0.7071 0.7071 0.7071 -4.2503 27.4539)" class="st5" width="5.7" height="44.2"/>
			<g>
				<line class="st6" x1="20.7" y1="12.9" x2="22.4" y2="11.1"/>
				<line class="st6" x1="28.9" y1="21.1" x2="30.6" y2="19.4"/>
				<line class="st6" x1="37.1" y1="29.3" x2="38.8" y2="27.5"/>
				
					<rect x="27.9" y="-3.6" transform="matrix(0.7071 -0.7071 0.7071 0.7071 -4.2503 27.4539)" class="st0" width="6.2" height="44.9"/>
				<line class="st0" x1="15.2" y1="7.4" x2="16.5" y2="6.2"/>
				<line class="st0" x1="17.9" y1="10.2" x2="19.2" y2="8.8"/>
				<line class="st0" x1="23.4" y1="15.7" x2="24.6" y2="14.3"/>
				<line class="st0" x1="26.2" y1="18.3" x2="27.4" y2="17.1"/>
				<line class="st0" x1="31.6" y1="23.8" x2="32.9" y2="22.6"/>
				<line class="st0" x1="34.3" y1="26.6" x2="35.6" y2="25.2"/>
				<line class="st0" x1="39.8" y1="32.1" x2="41" y2="30.7"/>
				<line class="st0" x1="42.6" y1="34.7" x2="43.8" y2="33.5"/>
			</g>
		</g>
	</g>
</g>
</svg>
