<svg xmlns="http://www.w3.org/2000/svg" viewBox="0 0 50 50"><defs><style>.cls-1{fill:#f27324;}.cls-1,.cls-2,.cls-3{stroke:#434343;stroke-width:1.2px;}.cls-1,.cls-2,.cls-3,.cls-4{stroke-linecap:round;stroke-linejoin:round;}.cls-2,.cls-4{fill:none;}.cls-3{fill:#fff;}.cls-4{stroke:#f27324;stroke-width:1.39px;}</style></defs><title>Pictos Sooko</title><g id="Capa_1" data-name="Capa 1"><path class="cls-1" d="M32.8,41.5a2.7,2.7,0,0,0-2.9-2.6H25.4a2.9,2.9,0,0,0-2.9,2.9v2.3a16.8,16.8,0,0,0,4.5-.2"/><path class="cls-1" d="M10.2,15.8h4.3a2.3,2.3,0,0,1,2.3,2.3v1.6A2.3,2.3,0,0,1,14.5,22H7"/><line class="cls-2" x1="28.1" y1="41.7" x2="26.1" y2="43.7"/><line class="cls-2" x1="26.1" y1="41.7" x2="27.9" y2="43.4"/><circle class="cls-2" cx="23.9" cy="26.7" r="17.5"/><path class="cls-3" d="M23.6,17.3c-1-1.1-2.5-3.2-2.5-5.3a7,7,0,1,1,14,0c0,2.1-1.5,4.2-2.5,5.3S28.1,22,28.1,22,24.6,18.6,23.6,17.3Z"/><circle class="cls-1" cx="28.1" cy="12" r="3.3"/><line class="cls-2" x1="14.3" y1="17.7" x2="12.3" y2="19.7"/><line class="cls-2" x1="12.3" y1="17.7" x2="14.3" y2="19.7"/><line class="cls-2" x1="18.1" y1="32.7" x2="16.1" y2="34.7"/><line class="cls-2" x1="16.1" y1="32.7" x2="18.1" y2="34.7"/><line class="cls-4" x1="29.1" y1="23.7" x2="27.1" y2="25.7"/><line class="cls-4" x1="27.1" y1="23.7" x2="29.1" y2="25.7"/><line class="cls-2" x1="33.4" y1="29.2" x2="31.4" y2="31.2"/><line class="cls-2" x1="31.4" y1="29.2" x2="33.4" y2="31.2"/><path class="cls-2" d="M25.8,19.9H22.6a2.9,2.9,0,0,0-2.9,2.9v4.5a4.1,4.1,0,0,0-2.2-.7H16.2a2.9,2.9,0,0,0-2.9,2.9v4.8a2.9,2.9,0,0,0,2.9,2.9h2.5a2.9,2.9,0,0,0,2.9-2.9V32.7a4.1,4.1,0,0,0,2.2.7h9.6a2.9,2.9,0,0,0,2.9-2.9V22.8a2.9,2.9,0,0,0-2-2.8H30.2"/></g></svg>