<?xml version="1.0" encoding="utf-8"?>
<!-- Generator: Adobe Illustrator 22.0.0, SVG Export Plug-In . SVG Version: 6.00 Build 0)  -->
<svg version="1.1" id="Layer_1" xmlns="http://www.w3.org/2000/svg" xmlns:xlink="http://www.w3.org/1999/xlink" x="0px" y="0px"
	 viewBox="0 0 50 50" style="enable-background:new 0 0 50 50;" xml:space="preserve">
<style type="text/css">
	.st0{fill:#F27324;}
	.st1{fill:none;stroke:#434343;stroke-width:1.2;stroke-linecap:round;stroke-linejoin:round;stroke-miterlimit:10;}
	.st2{fill:#F27324;stroke:#434343;stroke-width:1.2;stroke-linecap:round;stroke-linejoin:round;stroke-miterlimit:10;}
	.st3{fill:none;stroke:#F27324;stroke-width:1.2;stroke-linecap:round;stroke-linejoin:round;stroke-miterlimit:10;}
</style>
<g id="Capa_2">
</g>
<g id="Capa_1">
	<g>
		<rect x="4.7" y="12.3" class="st0" width="4.7" height="4.4"/>
		<rect x="27.6" y="29.7" class="st0" width="17.2" height="8.3"/>
		<path class="st1" d="M10.8,25L9.4,13c0-0.4-0.4-0.8-1-0.8H5.7c-0.4,0-0.8,0.4-1,0.8L1.2,46.6c0,0.6,0.4,1,1,1H9"/>
		<path class="st1" d="M21.2,28.1H9.7c-0.4,0-0.7,0.3-0.7,0.7v18.8h14.9"/>
		<path class="st1" d="M23.7,45.1V23.3c0-0.1,0-0.1,0.1-0.1L36,16c0.1-0.1,0.4,0,0.4,0.1v6.6c0,0.1,0.1,0.3,0.4,0.1l11.8-7
			c0.1-0.1,0.4,0,0.4,0.1v29.2c0,1.2-1.1,2.3-2.3,2.3h-23"/>
		<rect x="11.5" y="32.1" class="st1" width="3.6" height="4.4"/>
		<rect x="17.7" y="32.1" class="st1" width="3.6" height="4.4"/>
		<rect x="11.5" y="39" class="st1" width="3.6" height="4.4"/>
		<rect x="17.7" y="39" class="st2" width="3.6" height="4.4"/>
		<line class="st1" x1="28" y1="29.8" x2="44.9" y2="29.8"/>
		<line class="st1" x1="28" y1="32.5" x2="44.9" y2="32.5"/>
		<line class="st1" x1="28" y1="35.3" x2="44.9" y2="35.3"/>
		<line class="st1" x1="28" y1="37.9" x2="44.9" y2="37.9"/>
		<path class="st3" d="M7.2,9.9V8.2c0-1.1,0.8-1.9,1.9-1.9h1.8c1.1,0,1.9-0.8,1.9-1.9l0,0c0-1.1,0.8-1.9,1.9-1.9h3.3"/>
	</g>
</g>
</svg>
