<?xml version="1.0" encoding="utf-8"?>
<!-- Generator: Adobe Illustrator 21.1.0, SVG Export Plug-In . SVG Version: 6.00 Build 0)  -->
<svg version="1.1" xmlns="http://www.w3.org/2000/svg" xmlns:xlink="http://www.w3.org/1999/xlink" x="0px" y="0px"
	 viewBox="0 0 50 50" style="enable-background:new 0 0 50 50;" xml:space="preserve">
<style type="text/css">
	.st0{fill:none;stroke:#F27324;stroke-width:2;stroke-linecap:round;stroke-linejoin:round;stroke-miterlimit:10;}
	.st1{fill:#F27324;}
	.st2{fill:none;stroke:#F27324;stroke-width:1.2;stroke-linecap:round;stroke-linejoin:round;stroke-miterlimit:10;}
	.st3{fill:#FFFFFF;}
	.st4{fill:none;stroke:#434343;stroke-width:1.2;stroke-linecap:round;stroke-linejoin:round;stroke-miterlimit:10;}
	.st5{fill:#FFFFFF;stroke:#434343;stroke-width:1.2;stroke-linecap:round;stroke-linejoin:round;stroke-miterlimit:10;}
	.st6{fill:#F27324;stroke:#434343;stroke-width:1.2;stroke-linecap:round;stroke-linejoin:round;stroke-miterlimit:10;}
	.st7{fill:none;stroke:#434343;stroke-width:1.1354;stroke-linecap:round;stroke-linejoin:round;stroke-miterlimit:10;}
	.st8{fill:#434343;}
	.st9{fill:#F27222;}
	.st10{fill:none;stroke:#FF17B3;stroke-miterlimit:10;}
	.st11{fill:none;stroke:#FF17B3;stroke-linecap:round;stroke-miterlimit:10;}
	.st12{fill:none;stroke:#FF17B3;stroke-linecap:round;stroke-linejoin:round;stroke-miterlimit:10;}
	.st13{fill:none;stroke:#FF17B3;stroke-width:0.8981;stroke-linecap:round;stroke-linejoin:round;stroke-miterlimit:10;}
	.st14{fill:none;stroke:#FF17B3;stroke-width:0.9594;stroke-linecap:round;stroke-miterlimit:10;}
	.st15{fill:none;stroke:#FF17B3;stroke-width:0.9594;stroke-linecap:round;stroke-linejoin:round;stroke-miterlimit:10;}
	.st16{fill:none;stroke:#FF17B3;stroke-width:0.9322;stroke-linecap:round;stroke-linejoin:round;stroke-miterlimit:10;}
	.st17{fill:#FF17B3;}
	.st18{fill:none;stroke:#FF17B3;stroke-width:0.8756;stroke-linecap:round;stroke-linejoin:round;stroke-miterlimit:10;}
	.st19{fill:none;stroke:#FF17B3;stroke-width:1.1766;stroke-linecap:round;stroke-linejoin:round;stroke-miterlimit:10;}
	.st20{fill:none;stroke:#FF17B3;stroke-width:1.0759;stroke-linecap:round;stroke-linejoin:round;stroke-miterlimit:10;}
	.st21{fill:none;stroke:#FF17B3;stroke-width:1.6082;stroke-linecap:round;stroke-linejoin:round;stroke-miterlimit:10;}
	.st22{fill:none;stroke:#FF17B3;stroke-width:0.9367;stroke-linecap:round;stroke-linejoin:round;stroke-miterlimit:10;}
	.st23{fill:none;stroke:#FF17B3;stroke-width:1.0606;stroke-linecap:round;stroke-linejoin:round;stroke-miterlimit:10;}
	.st24{fill:#5E3A80;}
	.st25{fill:none;stroke:#F27324;stroke-width:10;stroke-linecap:round;stroke-linejoin:round;stroke-miterlimit:10;}
	.st26{fill:none;stroke:#F27324;stroke-width:10;stroke-linecap:round;stroke-linejoin:round;}
	.st27{fill:none;stroke:#F27324;stroke-width:10;stroke-linecap:round;stroke-linejoin:round;stroke-dasharray:6.807,17.0175;}
	.st28{fill:none;stroke:#F27324;stroke-width:11.7954;stroke-linejoin:round;}
	.st29{fill:none;stroke:#F27324;stroke-width:11.7954;stroke-linejoin:round;stroke-dasharray:7.1852,7.1852;}
	.st30{fill:none;stroke:#F27324;stroke-width:11.7954;stroke-linejoin:round;stroke-dasharray:4.4444,4.4444;}
	.st31{fill:none;stroke:#F27324;stroke-width:1.3712;stroke-linejoin:round;stroke-miterlimit:10;}
	.st32{fill:none;stroke:#F27324;stroke-width:1.3712;stroke-linecap:round;stroke-linejoin:round;stroke-miterlimit:10;}
	.st33{fill:none;stroke:#F27324;stroke-width:1.6174;stroke-miterlimit:10;stroke-dasharray:0.5;}
	.st34{fill:none;stroke:#F27324;stroke-width:1.6174;stroke-linejoin:round;stroke-miterlimit:10;stroke-dasharray:0.5;}
</style>
<g id="Capa_2">
</g>
<g id="Capa_1">
	<g>
		<path class="st2" d="M26.4,13.1c0.7,1.1,2,1.7,3.5,1.7c0.1,0,0.2,0,0.3,0l2.4,1.1l-0.5-1.7c1.2-0.7,2-1.9,2-3.2
			c0-2.1-1.9-3.8-4.2-3.8c-1.5,0-2.8,0.7-3.6,1.8"/>
		<circle class="st4" cx="25.1" cy="25.4" r="4.3"/>
		<path class="st6" d="M19.5,42.7L18.3,38c-0.4-1.5-0.2-3.9,0.5-4.8c0.5-0.7,2.9-1.9,2.9-1.9l0.3,0.3c1.7,1.3,4.1,1.3,5.9,0l0.3-0.2
			c0,0,2.4,1.3,2.9,2.1c0.7,1,0.9,3.2,0.5,4.7l-1.2,4.7c-0.1,0.6-0.7,1-1.3,1h-8.4C20.2,43.7,19.7,43.3,19.5,42.7z"/>
		<circle class="st4" cx="36.6" cy="22.2" r="4.3"/>
		<path class="st4" d="M29.7,32.2c0.1-0.9,0.3-1.7,0.7-2.2c0.5-0.7,2.9-1.9,2.9-1.9l0.3,0.3c1.7,1.3,4.1,1.3,5.9,0l0.3-0.2
			c0,0,2.4,1.3,2.9,2.1c0.7,1,0.9,3.2,0.5,4.7l-1.2,4.7c-0.1,0.6-0.7,1-1.3,1h-8.4c-0.5,0-0.9-0.2-1.1-0.6"/>
		<circle class="st4" cx="13.5" cy="22.2" r="4.3"/>
		<path class="st4" d="M18.8,39.9c-0.2,0.4-0.7,0.7-1.1,0.7H9.2c-0.6,0-1.1-0.4-1.3-1l-1.2-4.7C6.4,33.3,6.6,31,7.3,30
			c0.5-0.7,2.9-1.9,2.9-1.9l0.3,0.3c1.7,1.3,4.1,1.3,5.9,0l0.3-0.2c0,0,2.4,1.3,2.9,2.1c0.3,0.4,0.5,1.1,0.6,1.9"/>
		<path class="st4" d="M18.8,15.2c-1.5-0.8-2.5-2.4-2.5-4.1c0-2.6,2.4-4.8,5.3-4.8s5.3,2.1,5.3,4.8s-2.4,4.8-5.3,4.8
			c-0.1,0-0.3,0-0.4,0l-3,1.4L18.8,15.2z"/>
		<circle class="st1" cx="18.6" cy="11.2" r="0.7"/>
		<circle class="st1" cx="21.7" cy="11.2" r="0.7"/>
		<circle class="st1" cx="24.6" cy="11.2" r="0.7"/>
	</g>
</g>
</svg>
