<?xml version="1.0" encoding="utf-8"?>
<!-- Generator: Adobe Illustrator 22.0.0, SVG Export Plug-In . SVG Version: 6.00 Build 0)  -->
<svg version="1.1" id="Capa_1" xmlns="http://www.w3.org/2000/svg" xmlns:xlink="http://www.w3.org/1999/xlink" x="0px" y="0px"
	 viewBox="0 0 50 50" style="enable-background:new 0 0 50 50;" xml:space="preserve">
<style type="text/css">
	.st0{fill:#F27222;}
	.st1{fill:#434343;}
</style>
<circle class="st0" cx="23.6" cy="27.2" r="6.1"/>
<circle class="st0" cx="9.1" cy="12.7" r="2.8"/>
<circle class="st0" cx="5.5" cy="44.5" r="4.7"/>
<path class="st1" d="M38.3,26.5h-7.7c-0.1-1.3-0.6-2.5-1.4-3.6l-0.1-0.1l11.7-11.7l0.1,0.1c1,0.9,2.2,1.4,3.5,1.4
	c2.9,0,5.3-2.4,5.3-5.3S47.5,2,44.5,2s-5.3,2.4-5.3,5.3c0,0.9,0.2,1.7,0.6,2.5L40,9.9L28.1,21.8L28,21.7c-1-0.8-2.2-1.3-3.5-1.4
	l-0.2,0v-9.5l0.1,0c2.5-0.4,4.4-2.6,4.4-5.2c0-2.9-2.4-5.3-5.3-5.3s-5.3,2.4-5.3,5.3c0,2.6,1.9,4.8,4.4,5.2l0.1,0v9.5l-0.2,0
	c-1.3,0.2-2.5,0.7-3.5,1.4l-0.1,0.1L12,14.6l0.1-0.1c0.3-0.6,0.5-1.1,0.5-1.7c0-1.9-1.6-3.5-3.5-3.5s-3.5,1.6-3.5,3.5
	c0,1.9,1.6,3.5,3.5,3.5c0.6,0,1.2-0.2,1.7-0.5l0.1-0.1l7.2,7.2L18,22.9c-1,1.3-1.5,2.8-1.5,4.3c0,1.6,0.5,3.1,1.5,4.3l0.1,0.1l-9,9
	L9,40.6c-1-0.9-2.2-1.4-3.5-1.4c-2.9,0-5.3,2.4-5.3,5.3s2.4,5.3,5.3,5.3s5.3-2.4,5.3-5.3c0-0.9-0.2-1.7-0.6-2.5L10,41.9l9.1-9.1
	l0.1,0.1c1.3,1,2.8,1.5,4.3,1.5c1.6,0,3.1-0.5,4.3-1.5l0.1-0.1l7.2,7.2l-0.1,0.1c-0.3,0.6-0.5,1.1-0.5,1.7c0,1.9,1.6,3.5,3.5,3.5
	s3.5-1.6,3.5-3.5c0-1.9-1.6-3.5-3.5-3.5c-0.6,0-1.2,0.2-1.7,0.5l-0.1,0.1l-7.2-7.2l0.1-0.1c0.8-1.1,1.3-2.3,1.4-3.6h7.7L38.3,26.5z
	 M9.1,14.7c-1.1,0-2-0.9-2-2s0.9-2,2-2c1.1,0,2,0.9,2,2S10.2,14.7,9.1,14.7z M5.5,48.4c-2.1,0-3.8-1.7-3.8-3.8s1.7-3.8,3.8-3.8
	s3.8,1.7,3.8,3.8S7.6,48.4,5.5,48.4z M38.2,39.8c1.1,0,2,0.9,2,2s-0.9,2-2,2c-1.1,0-2-0.9-2-2S37.1,39.8,38.2,39.8z M19.8,5.5
	c0-2.1,1.7-3.8,3.8-3.8s3.8,1.7,3.8,3.8s-1.7,3.8-3.8,3.8S19.8,7.6,19.8,5.5z M29.3,27.3c0,3.1-2.5,5.6-5.6,5.6S18,30.4,18,27.3
	c0-3.1,2.5-5.6,5.6-5.6S29.3,24.2,29.3,27.3z M44.5,11.1c-2.1,0-3.8-1.7-3.8-3.8s1.7-3.8,3.8-3.8s3.8,1.7,3.8,3.8
	S46.6,11.1,44.5,11.1z"/>
<path class="st0" d="M40,29.7c-1.4,0-2.5-1.1-2.5-2.4c0-1.4,1.1-2.5,2.5-2.5c1.4,0,2.5,1.1,2.5,2.4C42.5,28.6,41.4,29.7,40,29.7z
	 M40,28.3c0.5,0,1-0.5,1-1c0-0.6-0.5-1.1-1.1-1c-0.5,0-1,0.5-1,1C39,27.8,39.5,28.3,40,28.3z"/>
</svg>
