<?xml version="1.0" encoding="utf-8"?>
<!-- Generator: Adobe Illustrator 22.0.0, SVG Export Plug-In . SVG Version: 6.00 Build 0)  -->
<svg version="1.1" id="Layer_2" xmlns="http://www.w3.org/2000/svg" xmlns:xlink="http://www.w3.org/1999/xlink" x="0px" y="0px"
	 viewBox="0 0 50 50" style="enable-background:new 0 0 50 50;" xml:space="preserve">
<style type="text/css">
	.st0{fill:#F27324;}
	.st1{fill:#434343;}
</style>
<g>
	<polygon class="st0" points="27.6,43.2 24.4,44.8 24.2,5.3 27.6,6.8 	"/>
	<g>
		<path class="st1" d="M28.6,19.3c0,1.2,0,2.3,0,3.5c0.1,0,0.2,0,0.3,0c0.4,0,0.7,0,1,0c0.9-1.3,1.7-1.7,2.7-1.3
			c0.9,0.3,1.5,1.1,1.5,2c0,0.9-0.6,1.8-1.5,2c-1,0.3-1.8-0.1-2.7-1.4c-0.2,0-0.5,0-0.8,0c-0.2,0-0.4,0-0.6,0c0,1.5,0,2.9,0,4.4
			c2.1,0,4.2,0,6.3,0c0.1-0.1,0.2-0.4,0.4-0.6c0.7-1,2.1-1.1,3-0.4c0.9,0.8,1,2.3,0,3.1c-0.9,0.8-2.3,0.7-3-0.3
			c-0.4-0.5-0.8-0.7-1.3-0.7c-1.6,0-3.1,0-4.7,0c-0.2,0-0.4,0-0.7,0c0,1.3,0,2.7,0,4.1c0.8,0,1.6,0,2.4,0c0.7,0,1.4,0,2.1,0
			c0.5,0,0.8-0.1,1-0.6c0.6-1,1.9-1.2,2.9-0.6c0.9,0.6,1.2,1.9,0.6,2.8c-0.8,1.3-2.6,1.3-3.4,0.1c-0.3-0.5-0.6-0.6-1.1-0.6
			c-1.4,0-2.8,0-4.3,0c0,0-0.1,0-0.2,0.1c0,1,0,2.1,0,3.2c0.9,0,1.8,0,2.6,0c0.9,0,1.5,0.2,2.1,0.9c0.2,0.2,0.5,0.5,0.7,0.7
			c0.2,0.3,0.5,0.4,0.9,0.3c1-0.2,1.9,0.3,2.3,1.2c0.4,0.8,0.1,1.8-0.5,2.4c-0.7,0.6-1.7,0.7-2.5,0.2c-0.8-0.5-1.1-1.5-0.8-2.4
			c0-0.1,0.1-0.2,0.1-0.4c-0.4-0.4-0.9-0.9-1.3-1.3c-0.1-0.1-0.3-0.2-0.5-0.2c-0.8,0-1.6,0-2.4,0c-0.2,0-0.4,0-0.7,0
			c0,0.5,0,0.9,0,1.4c-0.1,2-1.1,3.5-2.9,4.4c-1.8,0.8-3.5,0.6-5.1-0.6c-0.5-0.4-0.8-0.9-1.2-1.3c-0.2-0.2-0.4-0.4-0.6-0.4
			c-3.2-0.4-4.6-1.7-5.2-4.9c0,0,0,0-0.1-0.1c-0.3,0-0.6,0-1,0c-0.4,0-0.6-0.2-0.6-0.6c0-0.3,0.2-0.6,0.6-0.6c1.1,0,2.1-0.3,3-0.9
			c0.3-0.2,0.6-0.1,0.9,0.2c0.2,0.3,0.1,0.6-0.2,0.8c-0.3,0.2-0.5,0.4-0.8,0.5c-0.5,0.2-0.5,0.5-0.5,1c0.4,2.9,3.8,4.4,6.2,2.7
			c0.2-0.1,0.4-0.3,0.6-0.4c0.3-0.2,0.6-0.1,0.8,0.1c0.2,0.3,0.2,0.6-0.1,0.8c-0.5,0.4-1,0.7-1.5,1c-0.1,0.1-0.3,0.1-0.5,0.2
			c0.9,1.3,2,1.9,3.5,1.8c1.4-0.1,2.4-0.8,3.1-2.1c-0.4,0-0.6,0-0.9-0.1c-0.3,0-0.6-0.3-0.6-0.6s0.2-0.6,0.6-0.6s0.7,0,1.1,0
			c0-1.5,0-3,0-4.5c-0.7,0-1.5-0.1-2.2,0c-0.8,0.1-1.3,0.7-1.5,1.4c0,0.2,0,0.3-0.1,0.5c-0.1,0.3-0.3,0.5-0.6,0.5
			c-0.4,0-0.6-0.3-0.5-0.7c0-0.9,0.4-1.6,1-2.2c0.6-0.6,1.4-0.8,2.2-0.8c0.6,0,1.1,0,1.7,0c0-2.8,0-5.6,0-8.4c-0.3,0-0.6,0-0.9,0
			c-2.8,0-5.7,0-8.5,0c-0.8,0-1.1-0.2-1.1-0.6c0-0.4,0.3-0.6,1.1-0.6c2.8,0,5.6,0,8.4,0c0.3,0,0.6,0,0.9,0c0-3.5,0-6.8,0-10.3
			c-0.5,0-1,0-1.4,0c-1.3,0-2.5,0-3.8,0c-1.4-0.1-2.5-1.1-2.8-2.4c0-0.2-0.1-0.3-0.1-0.5c0-0.5,0.1-0.8,0.5-0.9
			c0.5,0,0.6,0.3,0.7,0.7c0.3,1.5,0.9,1.9,2.5,1.9c1.5,0,2.9,0,4.5,0c0-1.4,0-2.7,0-4.1c-0.3,0-0.7,0-1,0c-0.4,0-0.6-0.2-0.7-0.6
			c0-0.4,0.2-0.6,0.6-0.6c0.3,0,0.7,0,1,0c0.2-1.5-0.9-3-2.5-3.5c-1.7-0.6-3.4,0.1-4.3,1.6c0.2,0.1,0.4,0.2,0.6,0.3
			c1.7,0.9,2.7,2.3,2.8,4.2c0,0.2,0.1,0.4,0,0.5c-0.1,0.2-0.4,0.5-0.6,0.5c-0.2,0-0.5-0.2-0.6-0.4c-0.1-0.3-0.1-0.6-0.1-0.9
			c-0.4-2-2.4-3.5-4.4-3.2c-2,0.3-3.6,2.1-3.5,4.2c0,0.9-0.2,1.1-1.1,0.9c-2.7-0.5-5,1.5-4.8,4.1c0,0.3,0.1,0.6,0.2,0.9
			c0.8-0.1,1.6-0.2,2.3-0.3c0.2,0,0.5,0.1,0.7,0.2c0.3,0.3,0.1,0.9-0.4,0.9c-0.6,0.1-1.2,0.1-1.8,0.3C7.6,20,6,22,5.7,24.3
			c-0.3,2.3,0.8,4.5,2.7,5.6c0.4-0.4,0.8-0.7,1.2-1.1c0.2-0.2,0.4-0.3,0.6-0.4c0.3-0.2,0.6-0.1,0.8,0.2c0.2,0.3,0,0.6-0.2,0.8
			c-0.1,0.1-0.3,0.2-0.5,0.3c-1.7,1.3-2.1,3.6-0.9,5.4c0.1,0.1,0.1,0.2,0.2,0.3c0.2,0.3,0.4,0.7,0,1c-0.3,0.3-0.7,0.2-1-0.3
			c-0.6-0.7-1-1.5-1-2.5c0-0.8,0-1.7,0.1-2.7c-2-1.3-3.3-3.3-3.3-5.9c0-2.6,1.2-4.6,3.3-6.1c-0.5-4.6,1.3-6.9,5.7-7.1
			c0-0.2,0.1-0.5,0.1-0.8c0.5-2.4,2.3-4,4.7-4.2c0.5,0,0.9-0.2,1.2-0.7c1.1-1.7,3.2-2.6,5.1-2.1c2.1,0.5,3.6,2,3.9,4.1
			c0,0.2,0.1,0.5,0.1,0.8c0.3,0,0.6,0,0.8,0c0.3,0,0.5-0.1,0.7-0.4c0.4-0.7,1-1.1,1.9-1c0.9,0,1.8,0.7,1.9,1.6
			c0.2,0.9-0.2,1.9-1.1,2.3C32,12,31,11.8,30.4,11c-0.2-0.2-0.3-0.4-0.5-0.7c0,0-0.1,0-0.1,0c-0.4,0-0.7,0-1.1,0c0,1.3,0,2.7,0,4.1
			c1.2,0,2.4-0.1,3.6,0c1.1,0.1,1.9-0.2,2.6-1.1c0.4-0.5,0.9-0.8,1.3-1.2c-0.1-0.3-0.2-0.5-0.2-0.7c-0.3-1.2,0.4-2.4,1.6-2.6
			c1.2-0.2,2.3,0.6,2.5,1.8c0.1,1.2-0.8,2.4-2,2.3c-0.8-0.1-1.2,0.2-1.7,0.7c-0.4,0.4-0.8,0.8-1.2,1.2c-0.5,0.6-1.1,0.8-1.9,0.8
			c-1.5,0-3,0-4.6,0c0,0.9,0,1.7,0,2.5L28.6,19.3z M32,10.5c0.4,0,0.8-0.4,0.9-0.8c0-0.4-0.4-0.8-0.8-0.9c-0.5,0-0.9,0.4-0.9,0.9
			C31.1,10.1,31.5,10.5,32,10.5z M36.7,34.5c0-0.4-0.4-0.8-0.9-0.8c-0.5,0-0.9,0.5-0.9,0.9c0,0.4,0.4,0.8,0.9,0.8
			C36.4,35.3,36.7,34.9,36.7,34.5z M36.2,42.3c0-0.5-0.4-0.8-0.9-0.8c-0.5,0-0.8,0.4-0.8,0.8c0,0.5,0.4,0.9,0.9,0.9
			C35.8,43.1,36.2,42.7,36.2,42.3z M32.9,23.5c0-0.5-0.3-0.8-0.8-0.9c-0.5,0-0.9,0.4-0.9,0.9c0,0.4,0.4,0.8,0.8,0.8
			C32.5,24.3,32.9,24,32.9,23.5z M38.7,10.8c0-0.4-0.4-0.8-0.8-0.8c-0.5,0-0.9,0.4-0.9,0.9c0,0.5,0.4,0.8,0.9,0.8
			C38.4,11.6,38.7,11.2,38.7,10.8z M37,30c0.4,0,0.8-0.4,0.8-0.8c0-0.5-0.4-0.9-0.9-0.8c-0.5,0-0.8,0.4-0.8,0.9
			C36.1,29.7,36.5,30,37,30z"/>
		<path class="st0" d="M42.2,27.3c-1.3,0-2.4-1.2-2.1-2.4c0.1-0.5,0-0.8-0.4-1.1c-0.2-0.2-0.4-0.4-0.6-0.6c-0.3-0.3-0.4-0.6,0-0.9
			c0.3-0.3,0.7-0.2,0.9,0.1c0.2,0.2,0.4,0.3,0.5,0.5c0.3,0.4,0.6,0.5,1.2,0.4c1.6-0.3,2.8,1.2,2.3,2.7
			C43.9,26.7,43.1,27.3,42.2,27.3z M42.1,24.4c-0.4,0-0.8,0.4-0.8,0.9c0,0.4,0.4,0.8,0.8,0.8c0.5,0,0.9-0.4,0.9-0.9
			C43,24.7,42.6,24.4,42.1,24.4z"/>
		<path class="st1" d="M16.3,18.6c0,1.9-1.6,3.6-3.5,3.7c-0.5,0-0.8-0.1-0.9-0.5c0-0.3,0.2-0.6,0.7-0.7c1.5-0.3,2.3-1.1,2.4-2.4
			c0-1.2-0.8-2.3-2-2.5c-0.2,0-0.5,0-0.7-0.1c-0.2-0.1-0.4-0.4-0.4-0.5c0-0.2,0.3-0.4,0.5-0.6c0.2-0.1,0.4,0,0.6,0
			C14.9,15.1,16.3,16.8,16.3,18.6z"/>
		<path class="st1" d="M16.8,31.7c-0.8,0-1.5,0-2.3,0c-1.2,0-1.8,0.5-2.1,1.7c0,0.1,0,0.3-0.1,0.4c-0.2,0.2-0.4,0.4-0.6,0.4
			c-0.2,0-0.5-0.3-0.5-0.5c-0.1-0.2,0-0.5,0-0.8c0.3-1.2,1.3-2.2,2.6-2.3c0.5-0.1,1-0.1,1.6-0.1c1.3,0,2.7,0,4,0
			c0.5,0,0.8,0.3,0.8,0.7c-0.1,0.4-0.4,0.6-0.8,0.6C18.6,31.7,17.7,31.7,16.8,31.7L16.8,31.7z"/>
		<path class="st0" d="M43.5,34.6c-1.1,0-2.1-0.9-2.1-2c0-1.1,0.9-2.1,2.1-2.1c1.1,0,2.1,0.9,2.1,2C45.6,33.7,44.6,34.6,43.5,34.6z
			 M43.5,33.4c0.4,0,0.8-0.4,0.9-0.8c0-0.5-0.4-0.9-0.9-0.9c-0.4,0-0.8,0.4-0.8,0.9C42.6,33,43,33.4,43.5,33.4z"/>
		<path class="st0" d="M43.5,16.9c0,1.1-0.9,2.1-2.1,2.1c-1.2,0-2.1-0.9-2.1-2.1c0-1.2,0.9-2.1,2.1-2.1
			C42.6,14.8,43.5,15.7,43.5,16.9z M41.4,17.7c0.4,0,0.8-0.4,0.8-0.9c0-0.4-0.4-0.8-0.8-0.8c-0.5,0-0.9,0.4-0.9,0.9
			C40.6,17.4,41,17.7,41.4,17.7z"/>
		<path class="st1" d="M42.9,39c0,1.2-0.9,2.1-2,2.1c-1.2,0-2.1-0.9-2.1-2c0-1.2,0.9-2.1,2-2.1C41.9,36.9,42.8,37.8,42.9,39z
			 M41.7,39c0-0.4-0.4-0.8-0.9-0.8c-0.4,0-0.8,0.4-0.8,0.8c0,0.5,0.4,0.9,0.9,0.9C41.3,39.8,41.7,39.4,41.7,39z"/>
		<path class="st1" d="M20.1,36.2c0,1.5-1.1,2.8-2.6,3c-0.7,0.1-1-0.1-1-0.5c0-0.6,0.4-0.6,0.8-0.7c0.9-0.2,1.5-0.8,1.6-1.6
			c0.1-0.7-0.3-1.5-1-1.8c-0.2-0.1-0.5-0.1-0.8-0.2c-0.4-0.1-0.7-0.3-0.6-0.7c0.1-0.4,0.4-0.5,0.8-0.5
			C18.9,33.3,20.1,34.6,20.1,36.2z"/>
		<path class="st1" d="M26.1,21.3c0,1.4-1,2.6-2.4,2.8c-0.4,0-0.8,0-0.9-0.5c-0.1-0.4,0.1-0.6,0.7-0.7c0.2,0,0.4-0.1,0.5-0.2
			c0.6-0.3,0.9-0.8,0.8-1.4c0-0.6-0.4-1.1-1-1.3c-0.2-0.1-0.4-0.1-0.6-0.1c-0.3-0.1-0.5-0.3-0.5-0.6c0-0.4,0.3-0.5,0.7-0.6
			c1.1,0,2.2,0.9,2.5,2C26,20.9,26,21.2,26.1,21.3z"/>
		<path class="st1" d="M16.6,23.5c-0.1,0-0.4-0.1-0.5-0.2c-0.3-0.3-0.2-0.8,0.2-0.9c0.1-0.1,0.3-0.1,0.5-0.1
			c1.6-0.1,2.8-1.5,2.9-2.9c0-0.2,0-0.4,0.1-0.5c0.1-0.2,0.4-0.3,0.6-0.3c0.2,0,0.4,0.2,0.5,0.4c0.1,0.1,0,0.3,0,0.4
			C20.9,21.5,18.9,23.5,16.6,23.5z"/>
		<path class="st1" d="M12.7,27.2c-0.6-0.1-1.1-0.1-1.7-0.3c-1.2-0.4-2.1-1.6-2.2-2.8c0-0.5,0.2-0.8,0.5-0.9c0.4,0,0.6,0.3,0.7,0.7
			c0.3,1.5,0.9,1.9,2.4,1.9c0.4,0,0.9,0,1.3,0c0.4,0,0.6,0.2,0.6,0.6c0,0.4-0.3,0.6-0.7,0.6C13.4,27.1,13,27.1,12.7,27.2
			C12.7,27.1,12.7,27.2,12.7,27.2z"/>
		<path class="st1" d="M18.9,9.2c0.4,0,0.8,0.1,0.8,0.6c0,0.4-0.3,0.6-0.7,0.7c-0.8,0.1-1.3,0.5-1.5,1.3c-0.1,0.4-0.3,0.7-0.7,0.6
			c-0.4,0-0.6-0.4-0.5-0.9C16.5,10.3,17.7,9.3,18.9,9.2z"/>
		<path class="st1" d="M23.3,31.7c-0.4,0-0.8,0-1.2,0c-0.4,0-0.6-0.2-0.6-0.6c0-0.4,0.3-0.6,0.6-0.6c0.8,0,1.6,0,2.4,0
			c0.4,0,0.6,0.2,0.6,0.6c0,0.4-0.3,0.6-0.6,0.6C24.1,31.7,23.7,31.7,23.3,31.7z"/>
		<rect x="28.6" y="28.5" class="st0" width="6.3" height="1.3"/>
		<rect x="28.6" y="33.9" class="st0" width="5" height="1.4"/>
	</g>
	<path class="st0" d="M28.6,18.1c0.3,0,0.6,0,0.8,0c1.8,0,3.6,0,5.3,0c0.8,0,1.4,0.2,2,0.8c0.2,0.3,0.5,0.5,0.8,0.8
		c0.3,0.3,0.4,0.6,0.1,0.9s-0.6,0.2-0.9,0c-0.1,0-0.1-0.1-0.2-0.2c-0.7-1-1.6-1.2-2.8-1.1c-1.7,0.1-3.4,0-5.1,0V18.1z"/>
</g>
</svg>
