<?xml version="1.0" encoding="utf-8"?>
<!-- Generator: Adobe Illustrator 21.1.0, SVG Export Plug-In . SVG Version: 6.00 Build 0)  -->
<svg version="1.1" xmlns="http://www.w3.org/2000/svg" xmlns:xlink="http://www.w3.org/1999/xlink" x="0px" y="0px"
	 viewBox="0 0 50 50" style="enable-background:new 0 0 50 50;" xml:space="preserve">
<style type="text/css">
	.st0{fill:none;stroke:#F27324;stroke-width:2;stroke-linecap:round;stroke-linejoin:round;stroke-miterlimit:10;}
	.st1{fill:#F27324;}
	.st2{fill:none;stroke:#F27324;stroke-width:1.2;stroke-linecap:round;stroke-linejoin:round;stroke-miterlimit:10;}
	.st3{fill:#FFFFFF;}
	.st4{fill:none;stroke:#434343;stroke-width:1.2;stroke-linecap:round;stroke-linejoin:round;stroke-miterlimit:10;}
	.st5{fill:#FFFFFF;stroke:#434343;stroke-width:1.2;stroke-linecap:round;stroke-linejoin:round;stroke-miterlimit:10;}
	.st6{fill:#F27324;stroke:#434343;stroke-width:1.2;stroke-linecap:round;stroke-linejoin:round;stroke-miterlimit:10;}
	.st7{fill:none;stroke:#434343;stroke-width:1.1354;stroke-linecap:round;stroke-linejoin:round;stroke-miterlimit:10;}
	.st8{fill:#434343;}
	.st9{fill:#F27222;}
	.st10{fill:none;stroke:#FF17B3;stroke-miterlimit:10;}
	.st11{fill:none;stroke:#FF17B3;stroke-linecap:round;stroke-miterlimit:10;}
	.st12{fill:none;stroke:#FF17B3;stroke-linecap:round;stroke-linejoin:round;stroke-miterlimit:10;}
	.st13{fill:none;stroke:#FF17B3;stroke-width:0.8981;stroke-linecap:round;stroke-linejoin:round;stroke-miterlimit:10;}
	.st14{fill:none;stroke:#FF17B3;stroke-width:0.9594;stroke-linecap:round;stroke-miterlimit:10;}
	.st15{fill:none;stroke:#FF17B3;stroke-width:0.9594;stroke-linecap:round;stroke-linejoin:round;stroke-miterlimit:10;}
	.st16{fill:none;stroke:#FF17B3;stroke-width:0.9322;stroke-linecap:round;stroke-linejoin:round;stroke-miterlimit:10;}
	.st17{fill:#FF17B3;}
	.st18{fill:none;stroke:#FF17B3;stroke-width:0.8756;stroke-linecap:round;stroke-linejoin:round;stroke-miterlimit:10;}
	.st19{fill:none;stroke:#FF17B3;stroke-width:1.1766;stroke-linecap:round;stroke-linejoin:round;stroke-miterlimit:10;}
	.st20{fill:none;stroke:#FF17B3;stroke-width:1.0759;stroke-linecap:round;stroke-linejoin:round;stroke-miterlimit:10;}
	.st21{fill:none;stroke:#FF17B3;stroke-width:1.6082;stroke-linecap:round;stroke-linejoin:round;stroke-miterlimit:10;}
	.st22{fill:none;stroke:#FF17B3;stroke-width:0.9367;stroke-linecap:round;stroke-linejoin:round;stroke-miterlimit:10;}
	.st23{fill:none;stroke:#FF17B3;stroke-width:1.0606;stroke-linecap:round;stroke-linejoin:round;stroke-miterlimit:10;}
	.st24{fill:#5E3A80;}
	.st25{fill:none;stroke:#F27324;stroke-width:10;stroke-linecap:round;stroke-linejoin:round;stroke-miterlimit:10;}
	.st26{fill:none;stroke:#F27324;stroke-width:10;stroke-linecap:round;stroke-linejoin:round;}
	.st27{fill:none;stroke:#F27324;stroke-width:10;stroke-linecap:round;stroke-linejoin:round;stroke-dasharray:6.807,17.0175;}
	.st28{fill:none;stroke:#F27324;stroke-width:11.7954;stroke-linejoin:round;}
	.st29{fill:none;stroke:#F27324;stroke-width:11.7954;stroke-linejoin:round;stroke-dasharray:7.1852,7.1852;}
	.st30{fill:none;stroke:#F27324;stroke-width:11.7954;stroke-linejoin:round;stroke-dasharray:4.4444,4.4444;}
	.st31{fill:none;stroke:#F27324;stroke-width:1.3712;stroke-linejoin:round;stroke-miterlimit:10;}
	.st32{fill:none;stroke:#F27324;stroke-width:1.3712;stroke-linecap:round;stroke-linejoin:round;stroke-miterlimit:10;}
	.st33{fill:none;stroke:#F27324;stroke-width:1.6174;stroke-miterlimit:10;stroke-dasharray:0.5;}
	.st34{fill:none;stroke:#F27324;stroke-width:1.6174;stroke-linejoin:round;stroke-miterlimit:10;stroke-dasharray:0.5;}
</style>
<g id="Capa_2">
</g>
<g id="Capa_1">
	<g>
		<polygon class="st1" points="25.3,38.7 21.5,38.7 20.5,43.4 24.3,43.4 		"/>
		<polygon class="st1" points="26.6,38.7 30.5,38.7 31.5,43.4 27.6,43.4 		"/>
		<path class="st6" d="M19.3,12.4l-1.8,0.2c0,0-0.1,0-0.1,0c-0.3-0.4-0.6-0.7-1-1c0,0-0.1-0.1,0-0.1l0.2-1.8c0-0.1,0-0.1-0.1-0.1
			c-0.4-0.2-0.9-0.4-1.4-0.6c0,0-0.1,0-0.1,0l-1.1,1.4c0,0-0.1,0.1-0.1,0c-0.5-0.1-1-0.1-1.4,0c0,0-0.1,0-0.1,0L11.1,9
			c0,0-0.1-0.1-0.1,0c-0.5,0.1-0.9,0.3-1.4,0.6c0,0-0.1,0.1-0.1,0.1c0.1,0.6,0.1,1.2,0.2,1.8c0,0,0,0.1,0,0.1c-0.4,0.3-0.7,0.6-1,1
			c0,0-0.1,0.1-0.1,0l-1.8-0.2c-0.1,0-0.1,0-0.1,0.1c-0.2,0.4-0.4,0.9-0.6,1.4c0,0,0,0.1,0,0.1l1.4,1.1c0,0,0.1,0.1,0,0.1
			c-0.1,0.5-0.1,1,0,1.4c0,0,0,0.1,0,0.1l-1.4,1.1c0,0-0.1,0.1,0,0.1c0.1,0.5,0.3,0.9,0.6,1.4c0,0,0.1,0.1,0.1,0.1l1.8-0.2
			c0,0,0.1,0,0.1,0c0.3,0.4,0.6,0.7,1,1c0,0,0.1,0.1,0,0.1l-0.2,1.8c0,0.1,0,0.1,0.1,0.1c0.4,0.2,0.9,0.4,1.4,0.6c0,0,0.1,0,0.1,0
			c0.4-0.5,0.7-0.9,1.1-1.4c0,0,0.1-0.1,0.1,0c0.5,0.1,0.9,0.1,1.4,0c0,0,0.1,0,0.1,0l1.1,1.4c0,0,0.1,0.1,0.1,0
			c0.5-0.1,0.9-0.3,1.4-0.6c0,0,0.1-0.1,0.1-0.1c-0.1-0.6-0.1-1.2-0.2-1.8c0,0,0-0.1,0-0.1c0.4-0.3,0.7-0.6,1-1c0,0,0.1-0.1,0.1,0
			l1.8,0.2c0.1,0,0.1,0,0.1-0.1c0.2-0.4,0.4-0.9,0.6-1.4c0,0,0-0.1,0-0.1l-1.4-1.1c0,0-0.1-0.1,0-0.1c0.1-0.5,0.1-1,0-1.4
			c0,0,0-0.1,0-0.1l1.4-1.1c0,0,0.1-0.1,0-0.1c-0.1-0.5-0.3-0.9-0.6-1.4C19.4,12.4,19.4,12.4,19.3,12.4z M15.8,15.5
			c0.2,1.5-0.8,2.9-2.3,3.1s-2.9-0.8-3.1-2.3c-0.2-1.5,0.8-2.9,2.3-3.1c0,0,0,0,0,0C14.2,13,15.5,14,15.8,15.5L15.8,15.5z"/>
		<g>
			<path class="st4" d="M28,14.3c0-0.5,0.2-1,0.6-1.3c0.7-0.7,1.1-1.6,1.1-2.7c0-2-1.6-3.7-3.7-3.7s-3.7,1.6-3.7,3.7
				c0,1.1,0.5,2.1,1.2,2.7c0.3,0.3,0.5,0.8,0.5,1.3h0v1.1H28V14.3z"/>
			<line class="st2" x1="24.8" y1="17.4" x2="27.3" y2="17.4"/>
			<line class="st2" x1="24.8" y1="10.6" x2="27.3" y2="10.6"/>
		</g>
		<path class="st4" d="M41.9,22.3h-5.9c-1.1,0-2-0.9-2-2V12c0-1.1,0.9-2,2-2h5.9c1.1,0,2,0.9,2,2v8.3C43.8,21.4,43,22.3,41.9,22.3z"
			/>
		<line class="st4" x1="41.4" y1="12" x2="41.4" y2="20.3"/>
		<line class="st2" x1="38.9" y1="13.9" x2="38.9" y2="20.3"/>
		<line class="st4" x1="36.3" y1="15.9" x2="36.3" y2="20.3"/>
		<path class="st4" d="M23.2,28h-7.9v-2.5l8.9,0C23.5,25,23,24.1,23,23c0-1.7,1.4-3.1,3.1-3.1c1.7,0,3.1,1.4,3.1,3.1
			c0,1-0.5,1.9-1.3,2.5l8.8,0V28h-8c0,0,2.7,15.4,2.7,15.4h-3.9l-1.6-9l-1.6,9h-3.9L23.2,28z"/>
		<line class="st2" x1="26.1" y1="10.6" x2="26.1" y2="12.3"/>
	</g>
</g>
</svg>
