<svg xmlns="http://www.w3.org/2000/svg" viewBox="0 0 50 50"><defs><style>.cls-1{fill:#f27222;}.cls-2{fill:#fff;}.cls-2,.cls-4,.cls-5{stroke:#434343;}.cls-2,.cls-3,.cls-4,.cls-5{stroke-linecap:round;stroke-linejoin:round;}.cls-3,.cls-4{fill:none;}.cls-3{stroke:#f27324;stroke-width:1.2px;}.cls-5{fill:#f27324;stroke-width:0.87px;}</style></defs><title>Pictos Sooko</title><g id="Capa_1" data-name="Capa 1"><path class="cls-1" d="M9.2,10.6h28a3.5,3.5,0,0,1,3.5,3.5v2.8a0,0,0,0,1,0,0H5.7a0,0,0,0,1,0,0V14.1A3.5,3.5,0,0,1,9.2,10.6Z"/><rect class="cls-2" x="11.3" y="27.9" width="5.4" height="5.38"/><rect class="cls-2" x="11.3" y="20" width="5.4" height="5.38"/><rect class="cls-3" x="20.6" y="20" width="5.4" height="5.38"/><polyline class="cls-2" points="29.9 24.9 29.9 20 35.2 20 35.2 22.2"/><rect class="cls-2" x="20.6" y="27.9" width="5.4" height="5.38"/><path class="cls-4" d="M40.8,22.3V14.1a3.5,3.5,0,0,0-3.5-3.5H9.3a3.5,3.5,0,0,0-3.5,3.5V36.4a3.5,3.5,0,0,0,3.5,3.5H28.5"/><line class="cls-2" x1="12.9" y1="8" x2="12.9" y2="14.4"/><line class="cls-2" x1="18.1" y1="8" x2="18.1" y2="14.4"/><line class="cls-2" x1="23.3" y1="8" x2="23.3" y2="14.4"/><line class="cls-2" x1="28.5" y1="8" x2="28.5" y2="14.4"/><line class="cls-2" x1="33.7" y1="8" x2="33.7" y2="14.4"/><circle class="cls-2" cx="37.1" cy="32.9" r="9.1"/><path class="cls-5" d="M36.2,37.2h0a1,1,0,0,1-.8-.4l-2.6-3.9a1,1,0,0,1,1.7-1.1l1.8,2.6L39.9,29a1,1,0,0,1,1.7,1.2l-4.5,6.6A1,1,0,0,1,36.2,37.2Z"/></g></svg>