<?xml version="1.0" encoding="utf-8"?>
<!-- Generator: Adobe Illustrator 22.0.0, SVG Export Plug-In . SVG Version: 6.00 Build 0)  -->
<svg version="1.1" id="Layer_4" xmlns="http://www.w3.org/2000/svg" xmlns:xlink="http://www.w3.org/1999/xlink" x="0px" y="0px"
	 viewBox="0 0 50 50" style="enable-background:new 0 0 50 50;" xml:space="preserve">
<style type="text/css">
	.st0{fill:none;stroke:#F27323;stroke-width:1.5;stroke-miterlimit:10;}
	.st1{fill:#434343;}
	.st2{fill:#F27323;}
</style>
<line class="st0" x1="42.9" y1="18.5" x2="42.9" y2="30.8"/>
<g>
	<path class="st1" d="M25,42.2c-1.2,0-2.2-0.4-2.9-1.1c-0.6-0.7-0.9-1.5-1-2.1H5.7c-0.4,0-0.8-0.3-0.8-0.8V12.9
		c0-0.4,0.3-0.8,0.8-0.8h2.6c0.4,0,0.8,0.3,0.8,0.8s-0.3,0.8-0.8,0.8H6.4v23.9h15.4c0.2,0,0.4,0.1,0.5,0.2s0.2,0.4,0.2,0.6
		c0,0,0,1.1,0.6,1.8c0.4,0.4,1,0.6,1.8,0.6c0.9,0,1.6-0.2,2-0.7c0.6-0.7,0.5-1.6,0.5-1.7c0-0.2,0-0.4,0.2-0.6
		c0.1-0.2,0.3-0.3,0.6-0.3h15.3V13.6h-2c-0.4,0-0.8-0.3-0.8-0.8s0.3-0.8,0.8-0.8h2.7c0.4,0,0.8,0.3,0.8,0.8v25.4
		c0,0.4-0.3,0.8-0.8,0.8H29c-0.1,0.6-0.3,1.3-0.8,2C27.5,41.8,26.4,42.2,25,42.2z"/>
</g>
<path class="st1" d="M42,10.1c-0.1-0.1-3.3-2.3-8-2.3c-4.4,0-7.7,1.4-9,2c-1.1-0.5-4.7-2-8.8-2C11.3,7.8,8,9.9,7.9,10
	c-0.2,0.1-0.3,0.4-0.3,0.6v25.6c0,0.3,0.1,0.5,0.4,0.6C8,37,8.2,37,8.3,37c0.1,0,0.2,0,0.3-0.1c0,0,4-2,7.1-2c3.9,0,7.5,1.4,8.9,2
	c0,0,0,0,0,0c0,0,0,0,0.1,0c0.1,0,0.1,0,0.2,0c0,0,0,0,0,0c0,0,0.1,0,0.1,0c0.1,0,0.1,0,0.2,0c0.3-0.1,0.7-0.3,1.1-0.4
	c1.8-0.7,4.4-1.7,7-1.7c3.2,0,6.9,1.2,7.9,1.8c0.2,0.1,0.5,0.2,0.8,0c0.2-0.1,0.4-0.4,0.4-0.7V10.7C42.3,10.5,42.2,10.2,42,10.1z
	 M9.1,35.1v-24c0.9-0.5,3.5-1.8,7.1-1.8c3.6,0,6.9,1.3,8,1.8v24c-1.8-0.7-5-1.7-8.5-1.7C13.3,33.5,10.5,34.5,9.1,35.1z M40.8,34.9
	c-1.8-0.7-4.9-1.5-7.5-1.5c-2.9,0-5.6,1-7.6,1.8c0,0,0,0-0.1,0v-24c1.2-0.6,4.2-1.8,8.3-1.8c3.4,0,6,1.3,6.8,1.8V34.9z"/>
<g>
	<path class="st1" d="M33.3,19.6L30,17.2c-0.2-0.1-0.4-0.1-0.5,0c-0.2,0.1-0.3,0.3-0.3,0.4l0,2.4c0,0.1,0.1,0.3,0.1,0.4
		c0.1,0.1,0.2,0.1,0.4,0.1c0,0,0,0,0,0l3.2,0c0.2,0,0.4-0.1,0.5-0.3C33.5,19.9,33.4,19.7,33.3,19.6z M30.2,19.5l0-0.9l1.2,0.9
		L30.2,19.5z"/>
	<path class="st1" d="M27.8,22.3l10.7-0.1c0.2,0,0.4-0.1,0.5-0.3c0.1-0.2,0-0.4-0.2-0.6l-10.6-8c-0.2-0.1-0.4-0.1-0.5,0
		c-0.2,0.1-0.3,0.3-0.3,0.4l-0.1,8c0,0.1,0.1,0.3,0.1,0.4C27.5,22.3,27.7,22.3,27.8,22.3C27.8,22.3,27.8,22.3,27.8,22.3z M28.4,14.8
		l8.6,6.5l-8.7,0L28.4,14.8z"/>
	<path class="st1" d="M38.8,26H28c-0.3,0-0.5,0.2-0.5,0.5v2.6c0,0.3,0.2,0.5,0.5,0.5h1.1h1.4H32h1.4h1.3h1.4h2.6
		c0.3,0,0.5-0.2,0.5-0.5v-2.6C39.3,26.2,39,26,38.8,26z M38.3,28.6h-0.2v-0.3c0-0.3-0.2-0.5-0.5-0.5s-0.5,0.2-0.5,0.5v0.3h-0.4v-0.3
		c0-0.3-0.2-0.5-0.5-0.5s-0.5,0.2-0.5,0.5v0.3h-0.4v-0.4c0-0.3-0.2-0.5-0.5-0.5s-0.5,0.2-0.5,0.5v0.4h-0.3v-0.3
		c0-0.3-0.2-0.5-0.5-0.5s-0.5,0.2-0.5,0.5v0.3h-0.4v-0.4c0-0.3-0.2-0.5-0.5-0.5s-0.5,0.2-0.5,0.5v0.4H31v-0.3c0-0.3-0.2-0.5-0.5-0.5
		S30,28.1,30,28.4v0.3h-0.4v-0.4c0-0.3-0.2-0.5-0.5-0.5s-0.5,0.2-0.5,0.5v0.4h-0.1V27h9.8V28.6z"/>
</g>
<circle class="st2" cx="16.7" cy="18" r="0.9"/>
<path class="st1" d="M22.3,23.6c0-0.3-0.2-0.5-0.5-0.5H20l-1.2-3.5c0.4-0.5,0.6-1.1,0.6-1.7c0-1.1-0.6-2-1.5-2.5v-1.8
	c0-0.7-0.6-1.2-1.2-1.2s-1.2,0.6-1.2,1.2v1.8c-0.9,0.5-1.5,1.4-1.5,2.5c0,0.7,0.3,1.3,0.7,1.8l-1.2,3.4h-1.8c-0.3,0-0.5,0.2-0.5,0.5
	s0.2,0.5,0.5,0.5H13l-1.4,4c-0.2,0.5,0,1,0.4,1.3l-0.6,1.2c-0.1,0.2,0,0.5,0.2,0.7c0.1,0,0.1,0,0.2,0c0.2,0,0.4-0.1,0.5-0.3l0.6-1.3
	c0.2,0,0.4,0,0.6-0.1c0.3-0.1,0.5-0.4,0.6-0.7l1.7-4.9h1.8l1.7,4.9c0.2,0.5,0.7,0.8,1.2,0.8c0,0,0,0,0,0l0.6,1.3
	c0.1,0.2,0.3,0.3,0.5,0.3c0.1,0,0.1,0,0.2,0c0.2-0.1,0.4-0.4,0.2-0.7l-0.6-1.3c0.4-0.3,0.5-0.8,0.3-1.3l-1.4-4h1.4
	C22.1,24.1,22.3,23.9,22.3,23.6z M18,20.3l1,2.8h-0.7l-0.9-2.6C17.6,20.5,17.8,20.5,18,20.3z M16.4,13.7c0-0.3,0.5-0.3,0.5,0v1.5
	c-0.1,0-0.2,0-0.2,0s-0.2,0-0.2,0V13.7z M16.7,16.1c1,0,1.8,0.8,1.8,1.8s-0.8,1.8-1.8,1.8s-1.8-0.8-1.8-1.8S15.7,16.1,16.7,16.1z
	 M15.4,20.4c0.2,0.1,0.4,0.2,0.6,0.2l-0.9,2.5h-0.7L15.4,20.4z M13.2,28.7c0,0.1-0.1,0.1-0.1,0.1c-0.1,0-0.2,0-0.3,0
	c-0.2-0.1-0.3-0.2-0.2-0.3l1.5-4.4h0.7L13.2,28.7z M16.1,23.1l0.6-1.6l0.6,1.6H16.1z M20.8,28.5c0,0.1-0.1,0.3-0.2,0.3
	c-0.2,0.1-0.3,0-0.4-0.1l-1.6-4.5h0.7L20.8,28.5z"/>
</svg>
