<?xml version="1.0" encoding="utf-8"?>
<!-- Generator: Adobe Illustrator 22.0.0, SVG Export Plug-In . SVG Version: 6.00 Build 0)  -->
<svg version="1.1" id="Layer_1" xmlns="http://www.w3.org/2000/svg" xmlns:xlink="http://www.w3.org/1999/xlink" x="0px" y="0px"
	 viewBox="0 0 1159.3 465" style="enable-background:new 0 0 1159.3 465;" xml:space="preserve">
<path d="M1159.3,140.2c0,83.2-49.2,142.4-120.9,155.3c-44.6,8-87.1,2.2-125.2-23.9c-37-25.3-57.1-61.2-61.5-105.6
	c-4.3-43.6,7.7-82.5,37.2-115.2c24.3-26.9,55.2-42,90.9-46.8s70.3-0.4,102.1,17.2C1132.7,49.4,1157.7,93.4,1159.3,140.2z
	 M922.8,150.4c0,46.5,36,82.5,82.3,82.2c46.3-0.2,82-36.1,81.8-82.2c-0.1-44.2-38.4-82.6-82.2-82.6
	C959.4,67.8,922.8,104.7,922.8,150.4z"/>
<path d="M573.3,147.2c-0.3,36.6-8.4,67.3-28,94.2c-24.8,34-59,51.5-100.1,56.2c-30.5,3.4-60.3,0.1-88.3-13.1
	c-47.3-22.3-73.7-60.4-81-111.7c-5.4-38.4,1.7-74.7,23.7-107.2C324.3,29,359.5,9.2,402.9,3.7c34.9-4.4,68.6,0.4,99.3,18.4
	c40.9,23.9,63,60.5,69.6,106.9C572.8,136.2,573,143.6,573.3,147.2z M501.1,146.4c-1.2-5.5-2.2-15.8-5.5-25.2
	c-21.2-60.9-86.3-65.6-121.7-34.7c-24.7,21.6-34.5,60-23,93.5c21.2,61.5,92.7,63.8,123.7,34.8C493.2,197.5,500,175.5,501.1,146.4z"
	/>
<path d="M744,145.2l30.2,33.3c32.6,35.9,65.1,71.8,97.7,107.7c1.9,2.1,2.4,5.6,4,9.5h-7c-24.5,0-49-0.2-73.5,0.1
	c-4.9,0.1-7.9-1.6-10.9-5.1c-33.1-38.5-66.3-76.9-99.6-115.3c-1.4-1.6-2.8-3.1-4.9-5.4v125.4h-71.5V6.9h71.1v114.5l1,0.5
	c3.4-3.9,6.8-7.8,10.1-11.8c26.7-31.8,53.3-63.6,80-95.3c1.4-1.7,4-3.4,6-3.4c26.3-0.2,52.7-0.2,79-0.1c0.8,0,1.6,0.2,2.4,0.3
	c1.9,4.2-0.6,6.7-3,9.3c-36.2,40.5-72.3,81-108.5,121.5C745.8,143.1,745,144,744,145.2z"/>
<path d="M0,250.9l35.4-51.3c3.4,3,6.3,6.1,9.8,8.6c27.1,19.9,57.5,30.4,91.1,31.1c12.7,0.3,24.8-3.2,35-11.2
	c2.9-2.2,5.4-4.9,7.5-7.9c8.6-12.6,4.8-28.6-9.3-34.2c-10.1-3.8-20.7-6.2-31.4-7.2c-22.7-2.2-45.4-4.4-67.1-12.2
	c-19.1-6.8-36-16.6-48-33.5c-19.9-28-20.8-81.5,22.5-110C65.1,10.2,86.9,3.5,110.1,1.3c28.7-2.8,57.2-1.4,84.8,8.4
	c17.3,6.3,33.2,16.1,46.6,28.7l-40.1,47.2c-10.6-9.9-22.5-17.4-36.4-21.2c-20.6-5.6-41.4-6.4-62.1-0.7c-4.6,1.3-9,3.4-12.9,6.2
	c-11.4,8.1-12.3,23.7-2.3,33.5c7.3,7.1,16.6,9.9,26.2,11.2c15.5,2.1,31.1,3.1,46.6,5.2c21.3,2.8,41.9,7.9,60.1,20
	c20.8,13.8,30.8,33.6,33.4,58c4.5,42.3-21.6,74.5-57.4,91c-23,10.6-47.4,14-72.5,13.3c-21.6-0.6-42.8-3.1-63.2-10.5
	C37.3,283,17.5,269.2,0,250.9z"/>
<path d="M1111.6,406.6v-33.8h20.9v90.4h-20.7v-37H1079v37.1h-21V373h21v33.7h32.6V406.6z"/>
<path d="M928.3,425.6v20.2h36.4v17.5h-57.5v-90.4h55.7V390h-34.5v17.4h32.5v18.1h-32.6V425.6z"/>
<path d="M1042.1,444.1c0.7,3.6,1.2,6.7,1.8,9.8c1.5,7.8,1.5,8-6.2,9.4c-12.4,2.3-24.9,2.6-36.9-1.9c-21.7-8.1-29.1-29-26.6-49.4
	c3.9-31.2,30.7-43.5,55.7-40.8c4.3,0.5,8.5,1.6,12.7,2.4c3,0.5,3.8,2.2,2.9,5c-1.2,4.3-2.3,8.6-3.5,13.1c-4.2-0.9-8.2-1.9-12.3-2.6
	c-12.7-2.2-24.7,3.1-30,13.1c-5.9,11.2-4.3,28.2,3.7,36.6c8.3,8.6,18.9,8.8,29.7,7.3C1036.1,445.8,1038.8,444.9,1042.1,444.1z"/>
<path d="M872.4,390.5v72.7H851v-72.5h-24v-17.8h69.5v17.6L872.4,390.5L872.4,390.5z"/>
</svg>
